<svg xmlns="http://www.w3.org/2000/svg" xmlns:xlink="http://www.w3.org/1999/xlink" width="103.999" height="104" viewBox="0 0 103.999 104">
  <defs>
    <filter id="Trazado_874925" x="0" y="0" width="103.999" height="104" filterUnits="userSpaceOnUse">
      <feOffset dy="3" input="SourceAlpha"/>
      <feGaussianBlur stdDeviation="3" result="blur"/>
      <feFlood flood-opacity="0.161"/>
      <feComposite operator="in" in2="blur"/>
      <feComposite in="SourceGraphic"/>
    </filter>
  </defs>
  <g id="Grupo_1181904" data-name="Grupo 1181904" transform="translate(-276 -6091.407)">
    <g id="Grupo_1181438" data-name="Grupo 1181438" transform="translate(285 6097.407)">
      <g id="Grupo_1111314" data-name="Grupo 1111314">
        <g transform="matrix(1, 0, 0, 1, -9, -6)" filter="url(#Trazado_874925)">
          <g id="Trazado_874925-2" data-name="Trazado 874925" transform="translate(9 6)" fill="#ffd63c">
            <path d="M 42.99971008300781 84.49992370605469 C 37.39662170410156 84.49992370605469 31.96193504333496 83.40288543701172 26.84661102294922 81.23928070068359 C 21.9050350189209 79.149169921875 17.46672248840332 76.15668487548828 13.65498542785645 72.34493255615234 C 9.843235015869141 68.53319549560547 6.850747585296631 64.09488677978516 4.760634899139404 59.1533088684082 C 2.59703516960144 54.03798294067383 1.499997615814209 48.60329437255859 1.499997615814209 43.00020980834961 C 1.499997615814209 37.39662170410156 2.59703516960144 31.96193313598633 4.760634899139404 26.84660720825195 C 6.850747585296631 21.90503311157227 9.843235015869141 17.46672058105469 13.65498542785645 13.6549825668335 C 17.46672248840332 9.843233108520508 21.9050350189209 6.850745677947998 26.84661102294922 4.760632991790771 C 31.96193504333496 2.597033023834229 37.39662170410156 1.499995589256287 42.99971008300781 1.499995589256287 C 48.60279846191406 1.499995589256287 54.03748321533203 2.597033023834229 59.15280914306641 4.760632991790771 C 64.09438323974609 6.850745677947998 68.53269958496094 9.843233108520508 72.34443664550781 13.6549825668335 C 76.15618133544922 17.46672058105469 79.14867401123047 21.90503311157227 81.23878479003906 26.84660720825195 C 83.40238189697266 31.96193313598633 84.49942016601562 37.39662170410156 84.49942016601562 42.99970626831055 C 84.49942016601562 48.60329437255859 83.40238189697266 54.03798294067383 81.23878479003906 59.1533088684082 C 79.14867401123047 64.09488677978516 76.15618133544922 68.53319549560547 72.34443664550781 72.34493255615234 C 68.53269958496094 76.15668487548828 64.09438323974609 79.149169921875 59.15280914306641 81.23928070068359 C 54.03748321533203 83.40288543701172 48.60279846191406 84.49992370605469 42.99971008300781 84.49992370605469 Z" stroke="none"/>
            <path d="M 42.99971008300781 3 C 37.59845733642578 3 32.36037826538086 4.057174682617188 27.43093490600586 6.142143249511719 C 22.66816329956055 8.156623840332031 18.39012145996094 11.04116821289062 14.71564483642578 14.71563720703125 C 11.04117584228516 18.39012145996094 8.156631469726562 22.66815948486328 6.14215087890625 27.43094635009766 C 4.057174682617188 32.36037063598633 3 37.59846496582031 3 43.00019836425781 C 3 48.40145111083984 4.057174682617188 53.63954544067383 6.14215087890625 58.5689697265625 C 8.156631469726562 63.33175659179688 11.04117584228516 67.60980224609375 14.71564483642578 71.28427886962891 C 18.39012145996094 74.95874786376953 22.66816329956055 77.84329223632812 27.43093490600586 79.85777282714844 C 32.36037826538086 81.94274139404297 37.59845733642578 82.99991607666016 42.99971008300781 82.99991607666016 C 48.40096282958984 82.99991607666016 53.63904190063477 81.94274139404297 58.5684814453125 79.85777282714844 C 63.33125686645508 77.84329223632812 67.60929870605469 74.95874786376953 71.28377532958984 71.28427886962891 C 74.95824432373047 67.60980224609375 77.84278869628906 63.33175659179688 79.85726928710938 58.5689697265625 C 81.94224548339844 53.63954544067383 82.99942016601562 48.40145111083984 82.99942016601562 42.99971771240234 C 82.99942016601562 37.59846496582031 81.94224548339844 32.36037063598633 79.85726928710938 27.43094635009766 C 77.84278869628906 22.66815948486328 74.95824432373047 18.39012145996094 71.28377532958984 14.71563720703125 C 67.60929870605469 11.04116821289062 63.33125686645508 8.156623840332031 58.5684814453125 6.142143249511719 C 53.63904190063477 4.057174682617188 48.40096282958984 3 42.99971008300781 3 M 42.99971008300781 0 C 66.74778747558594 0 85.99942016601562 19.25162506103516 85.99942016601562 42.99971771240234 L 85.99942016601562 43.00019836425781 C 85.99942016601562 66.748291015625 66.74778747558594 85.99991607666016 42.99971008300781 85.99991607666016 C 19.25163269042969 85.99991607666016 0 66.748291015625 0 43.00019836425781 L 0 42.99971771240234 C 0 19.25162506103516 19.25163269042969 0 42.99971008300781 0 Z" stroke="none" fill="#fff"/>
          </g>
        </g>
      </g>
    </g>
    <g id="_015---Sewing" data-name="015---Sewing" transform="translate(301.089 6112.08)">
      <g id="Icons" transform="translate(0.944 0.944)">
        <path id="Rectangle-path" d="M9,35h4.721v6.61H9Z" transform="translate(-0.502 -1.952)" fill="#7f8284"/>
        <path id="Shape" d="M48.323,16.777V45.1H34.16V30a3.777,3.777,0,0,0-3.777-3.777H22.829A3.777,3.777,0,0,0,19.052,30a3.777,3.777,0,0,1-3.777,3.777h-8.5A3.777,3.777,0,0,1,3,30V16.777A3.777,3.777,0,0,1,6.777,13H44.546A3.777,3.777,0,0,1,48.323,16.777Z" transform="translate(-0.167 -0.725)" fill="#0377bc"/>
        <path id="Shape-2" data-name="Shape" d="M45.49,16.777V45.1H34.16V30a3.777,3.777,0,0,0-3.777-3.777H20A3.777,3.777,0,0,0,16.219,30a3.777,3.777,0,0,1-3.777,3.777H6.777A3.777,3.777,0,0,1,3,30V16.777A3.777,3.777,0,0,1,6.777,13H41.714A3.777,3.777,0,0,1,45.49,16.777Z" transform="translate(-0.167 -0.725)" fill="#02a9f4"/>
        <path id="Rectangle-path-2" data-name="Rectangle-path" d="M38,4h6.61V8.721H38Z" transform="translate(-2.119 -0.223)" fill="#ffe0b2"/>
        <path id="Shape-3" data-name="Shape" d="M45.741,1.369,44.532,3.777h-6.61L36.714,1.369A.944.944,0,0,1,37.564,0h7.327a.944.944,0,0,1,.85,1.369Z" transform="translate(-2.042 0)" fill="#fdd834"/>
        <path id="Shape-4" data-name="Shape" d="M44.891,12.777H37.564a.944.944,0,0,1-.85-1.369L37.923,9h6.61l1.209,2.408a.944.944,0,0,1-.85,1.369Z" transform="translate(-2.042 -0.502)" fill="#fdd834"/>
        <path id="Shape-5" data-name="Shape" d="M42.908,1.369,41.7,3.777H37.923L36.714,1.369A.944.944,0,0,1,37.564,0h4.495a.944.944,0,0,1,.85,1.369Z" transform="translate(-2.042 0)" fill="#ffeb3a"/>
        <path id="Shape-6" data-name="Shape" d="M42.058,12.777H37.564a.944.944,0,0,1-.85-1.369L37.923,9H41.7l1.209,2.408a.944.944,0,0,1-.85,1.369Z" transform="translate(-2.042 -0.502)" fill="#ffeb3a"/>
        <path id="Shape-7" data-name="Shape" d="M51,17h1.888a1.888,1.888,0,0,1,1.888,1.888v2.833a1.888,1.888,0,0,1-1.888,1.888H51Z" transform="translate(-2.844 -0.948)" fill="#00bcd4"/>
        <path id="Shape-8" data-name="Shape" d="M46.61,30.306a3.31,3.31,0,1,1-1.545-2.781,3.3,3.3,0,0,1,1.545,2.781Z" transform="translate(-2.232 -1.507)" fill="#cfd8dc"/>
        <path id="Shape-9" data-name="Shape" d="M41.889,33.3a3.289,3.289,0,0,1,0-5.949,3.289,3.289,0,0,1,0,5.949Z" transform="translate(-2.231 -1.525)" fill="#f5f5f5"/>
        <path id="Shape-10" data-name="Shape" d="M48.156,44v3.777a3.777,3.777,0,0,1-3.777,3.777H3.777A3.777,3.777,0,0,1,0,47.777V44.944A.944.944,0,0,1,.944,44Z" transform="translate(0 -2.454)" fill="#dfc49c"/>
        <path id="Shape-11" data-name="Shape" d="M45.323,44v3.777a3.777,3.777,0,0,1-3.777,3.777H3.777A3.777,3.777,0,0,1,0,47.777V44.944A.944.944,0,0,1,.944,44Z" transform="translate(0 -2.454)" fill="#ffe0b2"/>
        <rect id="Rectangle-path-3" data-name="Rectangle-path" width="16.125" height="15.05" rx="1" transform="translate(4.43 39.585)" fill="#fdd834"/>
        <rect id="Rectangle-path-4" data-name="Rectangle-path" width="13.975" height="15.05" rx="1" transform="translate(4.43 39.585)" fill="#ffeb3a"/>
      </g>
      <g id="Outline" transform="translate(0 0)">
        <path id="Shape-12" data-name="Shape" d="M50.989,16.052H49.95a4.721,4.721,0,0,0-4.269-3.741c.011-.617-.121-.732-1.3-3.091V4.944l1.106-2.211A1.888,1.888,0,0,0,43.8,0H36.464a1.888,1.888,0,0,0-1.689,2.738l.644,1.288C7.66,9.159,11.958,8.5,9.442,8.5a.944.944,0,0,0,0,1.888h.944v1.888H7.554A4.727,4.727,0,0,0,2.833,17V30.215a4.727,4.727,0,0,0,4.721,4.721H8.5v4.721H6.61a1.888,1.888,0,0,0-1.888,1.888H1.888A1.888,1.888,0,0,0,0,43.435v2.833a4.727,4.727,0,0,0,4.721,4.721v3.777A1.888,1.888,0,0,0,6.61,56.654H20.773a1.888,1.888,0,0,0,1.888-1.888V50.989H45.323a4.727,4.727,0,0,0,4.721-4.721V24.55h.944a2.833,2.833,0,0,0,2.833-2.833V18.885a2.833,2.833,0,0,0-2.833-2.833ZM48.156,17v24.55H35.881V30.215a4.727,4.727,0,0,0-4.721-4.721H23.606a4.727,4.727,0,0,0-4.721,4.721,2.833,2.833,0,0,1-2.833,2.833H12.275V14.163H45.323A2.833,2.833,0,0,1,48.156,17ZM20.773,39.658H15.108V34.937h.944a4.721,4.721,0,0,0,4.721-4.721,2.833,2.833,0,0,1,2.833-2.833H31.16a2.833,2.833,0,0,1,2.833,2.833V41.546H22.662A1.888,1.888,0,0,0,20.773,39.658ZM13.219,10.387a.93.93,0,0,0,.806-.483l21.855-4.05V9.219c-1.176,2.351-1.3,2.447-1.3,3.056H12.275V10.387Zm23.245,1.888.944-1.888h5.443l.944,1.888ZM42.49,8.5H37.769V5.665H42.49Zm1.3-6.61-.944,1.888H37.409l-.944-1.888ZM4.721,30.215V17a2.833,2.833,0,0,1,2.833-2.833h2.833V33.048H7.554A2.833,2.833,0,0,1,4.721,30.215Zm5.665,4.721h2.833v4.721H10.387Zm-8.5,11.331V43.435H4.721V49.1A2.833,2.833,0,0,1,1.888,46.267Zm18.885,8.5H13.219V52.877a.944.944,0,1,0-1.888,0v1.888H6.61V41.546h4.721v1.888a.944.944,0,1,0,1.888,0V41.546h7.554ZM45.323,49.1H22.662V43.435H48.156v2.833A2.833,2.833,0,0,1,45.323,49.1Zm6.61-27.383a.944.944,0,0,1-.944.944h-.944V17.94h.944a.944.944,0,0,1,.944.944Z" transform="translate(0 0)"/>
        <path id="Shape-13" data-name="Shape" d="M44.249,27A4.249,4.249,0,1,0,48.5,31.249,4.249,4.249,0,0,0,44.249,27Zm0,6.61a2.361,2.361,0,1,1,2.361-2.361A2.361,2.361,0,0,1,44.249,33.61Z" transform="translate(-2.231 -1.506)"/>
        <path id="Shape-14" data-name="Shape" d="M12.944,49a.944.944,0,0,0-.944.944v1.888a.944.944,0,1,0,1.888,0V49.944A.944.944,0,0,0,12.944,49Z" transform="translate(-0.669 -2.733)"/>
      </g>
    </g>
  </g>
</svg>
