<svg xmlns="http://www.w3.org/2000/svg" xmlns:xlink="http://www.w3.org/1999/xlink" width="91" height="107" viewBox="0 0 91 107">
  <defs>
    <clipPath id="clip-path">
      <rect id="Rect치ngulo_410314" data-name="Rect치ngulo 410314" width="91" height="65.949" fill="none"/>
    </clipPath>
  </defs>
  <g id="Grupo_1185875" data-name="Grupo 1185875" transform="translate(-177 -683)">
    <path id="Rect치ngulo_409984" data-name="Rect치ngulo 409984" d="M0,0H81a4,4,0,0,1,4,4V81a4,4,0,0,1-4,4H0a0,0,0,0,1,0,0V0A0,0,0,0,1,0,0Z" transform="translate(180 683)" fill="#f8de53"/>
    <g id="Grupo_1185874" data-name="Grupo 1185874" transform="translate(177 724.051)">
      <g id="Grupo_1185873" data-name="Grupo 1185873" transform="translate(0 0)" clip-path="url(#clip-path)">
        <path id="Trazado_1053411" data-name="Trazado 1053411" d="M91,65.276a11.38,11.38,0,0,1-2.639.643q-42.787.052-85.574.027c-2.537,0-2.749-.213-2.752-2.7,0-1.243.076-2.492-.022-3.727a2.053,2.053,0,0,1,1.428-2.338,2.058,2.058,0,0,1,1.5,2.45c-.078,1.039-.016,2.089-.016,3.113H7.452a2.521,2.521,0,0,0,.121-.471c.012-6.154.005-12.308.032-18.463C7.624,39.5,8.2,35.243,10.6,31.586c1.786-2.721,4.045-5.132,5.962-7.517.14-.011-.15-.036-.412.039C9.647,25.987,3.7,33.047,3.232,39.76c-.289,4.122-.245,8.27-.294,12.407-.014,1.165-.188,2.115-1.493,2.433C.979,54.139.109,53.677.109,53.215c0-4.844-.259-9.739.347-14.519.845-6.671,4.6-11.715,10.3-15.329a3.051,3.051,0,0,0,1.254-2.054A22.951,22.951,0,0,1,34.277.047C37.1-.032,39.955.9,42.8,1.316a5.817,5.817,0,0,0,2.507.019c10.851-3.514,21.3-.022,27.38,9.656,1.672,2.661,2.386,5.965,3.282,9.049a2.6,2.6,0,0,0,1.554,2,40.052,40.052,0,0,1,4.743,2.717c.858.553,1.612,1.309.851,2.493a2.061,2.061,0,0,1-2.7-.159c-1.241-.861-2.56-1.609-4.066-2.542v3.737c-.086,2.183-.038,4.381-.293,6.544a4.585,4.585,0,0,1-5.7,3.834c-2.447-.564-3.788-2.352-3.818-5.227-.035-3.414-.008-6.828-.008-10.269H39.886a2.411,2.411,0,0,0-.061.307c-.015,3.372-.024,6.743-.044,10.115a4.853,4.853,0,0,1-2.158,4.391,4.7,4.7,0,0,1-7.434-3.8c-.119-3.1-.024-6.21-.024-9.391a3.777,3.777,0,0,0-.717.126,14.066,14.066,0,0,0-1.266.638c-6.646,3.893-9.813,9.826-9.957,17.4-.116,6.092-.026,12.189-.02,18.283,0,.515.052,1.03.086,1.651h1.53q30.533,0,61.064,0c.412,0,.823-.054,1.235-.084h6V60.822c0-5.491-.024-10.982.007-16.473.026-4.507-.717-8.8-3.312-12.6a1.65,1.65,0,0,1,.292-2.477,1.429,1.429,0,0,1,2.146.832c1.155,2.661,2.239,5.352,3.355,8.03.12.289.262.57.393.854ZM73.265,27.623c0-1.3-.026-2.606,0-3.908A19.514,19.514,0,0,0,68.108,9.621,19.292,19.292,0,0,0,49.852,3.248a18.883,18.883,0,0,0-15.281,12.5,28.555,28.555,0,0,0-1.441,8.114c-.237,3.3-.059,6.628-.05,9.944,0,1.153.466,1.942,1.733,2.023s1.815-.674,1.974-1.8a12.3,12.3,0,0,0,.069-1.592c.032-3.611-.081-7.229.114-10.83C37.5,11.839,47.618,4.664,57.058,7.257,64.294,9.244,68.88,14.62,69.405,22.1c.264,3.771.117,7.572.154,11.36.013,1.3.307,2.421,1.927,2.372,1.5-.045,1.78-1.111,1.779-2.347q0-2.931,0-5.862M15.319,62.8V60.913c0-5.977-.011-11.954,0-17.931a22.025,22.025,0,0,1,7.5-17.127c.575-.515,1.125-1.059,1.848-1.743a4.085,4.085,0,0,0-.809.006c-7.129,2.126-12.96,9.553-13.133,17.008-.147,6.329-.063,12.662-.081,18.994,0,.868,0,1.735,0,2.676Zm-.242-41.5a20.278,20.278,0,0,1,2.37-.549c1.09-.118,1.533-.652,1.8-1.723a16.116,16.116,0,0,1,16.1-12.3c2.466.064,3.338-1.807,5.16-3C25.715.148,15.5,11.327,15.077,21.3M54.406,9.867l3.867,10.178h7.844c-1.434-5.957-6.591-10.3-11.711-10.178m-20.643.059C28.944,9.475,22.9,14.6,22.1,20.1h7.725l3.934-10.17M51.555,20.038h3.7a58.876,58.876,0,0,0-3.026-7.132c-1.928-3.289-1.373-3.672-5.3-1.64l4.624,8.772m-3.089.074-3.981-6.935-.869,0-3.927,6.94Z" transform="translate(0 0)" fill="#130c0c"/>
        <path id="Trazado_1053412" data-name="Trazado 1053412" d="M143.423,49.848V46.111c1.506.933,2.825,1.681,4.066,2.541a2.062,2.062,0,0,0,2.7.16q1,1.009,1.988,2.018a1.649,1.649,0,0,0-.295,2.478c2.6,3.808,3.338,8.1,3.312,12.6-.031,5.491-.007,10.982-.007,16.473v1.975h-6c0-1.6.024-3.19,0-4.785-.109-6.364.009-12.746-.438-19.086a15.814,15.814,0,0,0-5.32-10.64" transform="translate(-67.065 -21.562)" fill="#b83866"/>
        <path id="Trazado_1053413" data-name="Trazado 1053413" d="M2.71,75.731c1.3-.318,1.479-1.268,1.493-2.433.05-4.137.005-8.285.294-12.408.471-6.713,6.415-13.774,12.918-15.652.261-.076.552-.05.412-.039-1.917,2.386-4.176,4.8-5.962,7.517-2.4,3.658-2.976,7.91-2.994,12.222-.027,6.154-.02,12.308-.032,18.463a2.579,2.579,0,0,1-.121.47H4.187c0-1.024-.062-2.074.016-3.112a2.057,2.057,0,0,0-1.5-2.45q0-1.289,0-2.577" transform="translate(-1.265 -21.129)" fill="#c31653"/>
        <path id="Trazado_1053414" data-name="Trazado 1053414" d="M92.313,48.635a15.816,15.816,0,0,1,5.32,10.64c.447,6.341.33,12.722.438,19.086.027,1.595,0,3.19,0,4.785-.411.029-.823.084-1.234.084q-30.532.006-61.064,0h-1.53c-.034-.621-.086-1.136-.086-1.651-.005-6.095-.1-12.191.02-18.283.144-7.571,3.311-13.5,9.957-17.4a13.857,13.857,0,0,1,1.266-.638,3.777,3.777,0,0,1,.717-.126c0,3.181-.095,6.29.024,9.391a4.7,4.7,0,0,0,7.434,3.8,4.853,4.853,0,0,0,2.158-4.391c.02-3.372.029-6.743.044-10.115a2.411,2.411,0,0,1,.061-.307H82.489c0,3.441-.027,6.856.008,10.269.03,2.875,1.371,4.663,3.818,5.227a4.585,4.585,0,0,0,5.7-3.834c.254-2.163.206-4.361.293-6.544m-23.184.037c-.826,0-1.653-.019-2.479,0a5.735,5.735,0,0,0-5.523,5.56,5.65,5.65,0,0,0,5.418,5.822c1.65.062,3.306.06,4.957.013a5.7,5.7,0,0,0-.071-11.4c-.767-.015-1.534,0-2.3,0" transform="translate(-15.955 -20.349)" fill="#d34174"/>
        <path id="Trazado_1053415" data-name="Trazado 1053415" d="M102.254,30.2q0,2.931,0,5.862c0,1.237-.275,2.3-1.779,2.347-1.62.05-1.913-1.067-1.926-2.372-.038-3.787.11-7.588-.155-11.36C97.87,17.2,93.283,11.824,86.047,9.837c-9.44-2.593-19.558,4.582-20.088,14.345-.2,3.6-.081,7.22-.114,10.83a12.2,12.2,0,0,1-.069,1.592c-.158,1.125-.7,1.881-1.974,1.8s-1.73-.87-1.733-2.023c-.009-3.316-.187-6.645.051-9.944a28.555,28.555,0,0,1,1.441-8.114,18.885,18.885,0,0,1,15.282-12.5A19.291,19.291,0,0,1,97.1,12.2,19.511,19.511,0,0,1,102.258,26.3c-.029,1.3,0,2.605,0,3.908" transform="translate(-28.99 -2.58)" fill="#f9d039"/>
        <path id="Trazado_1053416" data-name="Trazado 1053416" d="M24.66,83.962H19.985c0-.941,0-1.809,0-2.676.018-6.332-.066-12.666.081-18.994.174-7.456,6-14.882,13.133-17.008a4.087,4.087,0,0,1,.809-.006c-.723.683-1.272,1.227-1.848,1.743a22.025,22.025,0,0,0-7.5,17.127c-.014,5.977,0,11.954,0,17.931v1.884" transform="translate(-9.341 -21.164)" fill="#c51653"/>
        <path id="Trazado_1053417" data-name="Trazado 1053417" d="M28.32,23.967C28.74,14,38.958,2.819,53.745,6.39c-1.823,1.2-2.694,3.068-5.16,3a16.116,16.116,0,0,0-16.1,12.3c-.264,1.07-.707,1.6-1.8,1.722a20.155,20.155,0,0,0-2.37.55" transform="translate(-13.243 -2.67)" fill="#fad039"/>
        <path id="Trazado_1053419" data-name="Trazado 1053419" d="M53.179,18.621" transform="translate(-19.415 -8.694)" fill="#fdfdfd"/>
        <path id="Trazado_1053420" data-name="Trazado 1053420" d="M92.774,28.837,88.15,20.065c3.922-2.032,3.367-1.649,5.295,1.64a58.7,58.7,0,0,1,3.026,7.132Z" transform="translate(-41.219 -8.799)" fill="#f9cf39"/>
        <path id="Trazado_1053422" data-name="Trazado 1053422" d="M92.847,53.192c.767,0,1.535-.014,2.3,0a5.7,5.7,0,0,1,.071,11.4c-1.651.048-3.307.05-4.957-.013a5.65,5.65,0,0,1-5.418-5.821,5.735,5.735,0,0,1,5.523-5.56c.826-.022,1.653,0,2.479,0m-.059,8.532c.768,0,1.541.051,2.3-.011a2.874,2.874,0,0,0,2.839-2.644,2.947,2.947,0,0,0-2.71-2.968,34.088,34.088,0,0,0-4.605-.03,2.987,2.987,0,0,0-2.854,2.858,2.912,2.912,0,0,0,2.9,2.781c.7.054,1.418.009,2.127.013" transform="translate(-39.673 -24.87)" fill="#100a08"/>
        <path id="Trazado_1053423" data-name="Trazado 1053423" d="M95.351,64.2c-.709,0-1.422.044-2.127-.011a2.912,2.912,0,0,1-2.9-2.781,2.987,2.987,0,0,1,2.854-2.858,34.088,34.088,0,0,1,4.605.03,2.947,2.947,0,0,1,2.71,2.968,2.874,2.874,0,0,1-2.839,2.644c-.763.061-1.536.01-2.3.008" transform="translate(-42.236 -27.349)" fill="#fad139"/>
      </g>
    </g>
  </g>
</svg>
