<svg xmlns="http://www.w3.org/2000/svg" xmlns:xlink="http://www.w3.org/1999/xlink" width="118" height="118" viewBox="0 0 118 118">
  <defs>
    <filter id="Elipse_12115" x="0" y="0" width="118" height="118" filterUnits="userSpaceOnUse">
      <feOffset dy="3" input="SourceAlpha"/>
      <feGaussianBlur stdDeviation="3" result="blur"/>
      <feFlood flood-opacity="0.161"/>
      <feComposite operator="in" in2="blur"/>
      <feComposite in="SourceGraphic"/>
    </filter>
    <clipPath id="clip-path">
      <rect id="Rectángulo_410022" data-name="Rectángulo 410022" width="76.143" height="76.143" fill="none"/>
    </clipPath>
  </defs>
  <g id="Grupo_1185340" data-name="Grupo 1185340" transform="translate(-1056.501 -3316.159)">
    <g id="Grupo_1181941" data-name="Grupo 1181941" transform="translate(256.72 1346.159)">
      <g id="Grupo_1181939" data-name="Grupo 1181939" transform="translate(808.781 1976)">
        <g transform="matrix(1, 0, 0, 1, -9, -6)" filter="url(#Elipse_12115)">
          <circle id="Elipse_12115-2" data-name="Elipse 12115" cx="50" cy="50" r="50" transform="translate(9 6)" fill="#95c072"/>
        </g>
      </g>
    </g>
    <g id="Grupo_1185339" data-name="Grupo 1185339" transform="translate(1077.68 3334.088)">
      <g id="Grupo_1185338" data-name="Grupo 1185338" transform="translate(0 0)" clip-path="url(#clip-path)">
        <path id="Trazado_1051583" data-name="Trazado 1051583" d="M19.98,76.167a4.2,4.2,0,0,1-2.4-2.117,3.491,3.491,0,0,1,.125-3.136,4.328,4.328,0,0,0,.507-2.262c-.036-2-.012-4-.012-5.986-.7-.222-1.373-.381-2-.642a8.754,8.754,0,0,1-5.032-4.768,11.269,11.269,0,0,0-4.515-5.393A7.851,7.851,0,0,1,3.268,47a10.715,10.715,0,0,1,.136-4.48,5.429,5.429,0,0,0-.426-3.1,13.27,13.27,0,0,1-1.418-4.168,7.586,7.586,0,0,1,2.008-5.843c1.124-1.256,2.237-2.515,2.428-4.3a18.854,18.854,0,0,1,.332-2.191,8.415,8.415,0,0,1,4.851-5.976c.821-.388,1.672-.712,2.551-1.083-.847-2.285.193-3.921,1.966-5.121a44.024,44.024,0,0,1,4.041-2.116,1.45,1.45,0,0,0,.659-.657,5.156,5.156,0,0,1,5.961-3.345.76.76,0,0,0,.572-.075,4.917,4.917,0,0,1,5.785-.958,6.343,6.343,0,0,1,11.275,0,4.993,4.993,0,0,1,5.864.968.628.628,0,0,0,.5.093,5.17,5.17,0,0,1,6.059,3.4c.071.238.391.445.643.579,1.366.725,2.815,1.317,4.1,2.159a4.169,4.169,0,0,1,2.168,3.806,10.709,10.709,0,0,1-.213,1.221c.664.3,1.365.64,2.077.949a8.55,8.55,0,0,1,5.39,7.37,7.771,7.771,0,0,0,1.966,4.67,9.124,9.124,0,0,1,2.337,3.812,7.9,7.9,0,0,1-.482,5.337,15.45,15.45,0,0,0-1.13,3.325,8.368,8.368,0,0,0,.189,2.64,7.824,7.824,0,0,1-3.179,7.862c-.43.331-.853.679-1.309.971a7.844,7.844,0,0,0-3.036,3.809,9.554,9.554,0,0,1-6.029,5.712c-1.322.444-1.323.438-1.323,1.851,0,1.756-.008,3.513.008,5.269a2.1,2.1,0,0,0,.168.85c1.362,2.914.873,4.411-1.958,5.925H50.863c-.14-.076-.274-.164-.419-.226a3.471,3.471,0,0,1-1.9-4.877c.7-1.307.457-2.6.536-3.94-3.595.969-4.42.994-8.2.16a10.928,10.928,0,0,0-5.122.046,13.051,13.051,0,0,1-5.783.362c-.752-.148-1.491-.369-2.249-.561a7.7,7.7,0,0,0,.629,4.206,2.812,2.812,0,0,1-.307,3.149,11.894,11.894,0,0,1-2.127,1.683ZM20.428,21.3c-1.087.494-2.284,1.067-3.5,1.587a4.87,4.87,0,0,0-3.186,4.188,7.6,7.6,0,0,1-2.275,4.854,7.376,7.376,0,0,0-.779.894,3.446,3.446,0,0,0-.545,3.484c.213.551.456,1.091.719,1.62a6.524,6.524,0,0,1,.553,4.178,7.335,7.335,0,0,0-.125,2.055,4.142,4.142,0,0,0,2.142,3.124,9.251,9.251,0,0,1,4.007,4.508,5.547,5.547,0,0,0,4.551,3.579,14.237,14.237,0,0,1,6.679,2.77,6.773,6.773,0,0,0,5.676,1.273,14.8,14.8,0,0,1,7.1-.177,8.119,8.119,0,0,0,7.622-1.718A8.537,8.537,0,0,1,53.45,55.68a7.148,7.148,0,0,0,6.41-4.816,8.788,8.788,0,0,1,2.2-2.628,17.577,17.577,0,0,1,1.789-1.313,4.023,4.023,0,0,0,1.621-4.172,7.448,7.448,0,0,1,.477-4.905c1.516-3.016,1.383-3.812-.907-6.319a6.81,6.81,0,0,1-1.861-4.018,5.284,5.284,0,0,0-3.711-4.858c-1.1-.4-2.14-.983-3.057-1.412l-2.574,2.7c1.23,1.1,2.659,2.244,3.912,3.549a11.4,11.4,0,0,1,3.14,5.613,2.973,2.973,0,0,1-3.264,3.851,6.091,6.091,0,0,1-2.333-.629c-1.32-.681-2.556-1.523-3.779-2.27-.064,1.079-.072,2.261-.216,3.427a10.448,10.448,0,0,1-8.775,8.812c-2.5.262-5.034.132-7.554.152a5.359,5.359,0,0,1-1.239-.208,10.624,10.624,0,0,1-8.414-10.511c0-.6,0-1.2,0-1.913-.351.286-.576.476-.807.657A11.57,11.57,0,0,1,19.745,36.9a3.063,3.063,0,0,1-3.838-3.868,11.433,11.433,0,0,1,3.114-5.545c1.25-1.306,2.676-2.444,3.912-3.556L20.428,21.3m31.119.623a2.737,2.737,0,0,0,2.691-2.277c.108-.9.6-1.228,1.35-1.531a24.98,24.98,0,0,0,3.865-1.805c2-1.247,2-2.566-.014-3.807a27.531,27.531,0,0,0-4.07-1.894,1.516,1.516,0,0,1-1.1-1.306,2.691,2.691,0,0,0-3.786-2.11c-1.076.45-1.385.364-2.05-.566A2.532,2.532,0,0,0,44.5,6.2c-1.048.957-1.863.74-2.279-.608a4.247,4.247,0,0,0-3.861-3.054,4.251,4.251,0,0,0-3.813,3.114c-.385,1.295-1.265,1.53-2.243.6a2.527,2.527,0,0,0-3.929.317c-.757,1.023-.929,1.069-2.159.583a2.681,2.681,0,0,0-3.677,2.021,1.773,1.773,0,0,1-1.352,1.53,24.121,24.121,0,0,0-3.744,1.717c-2.154,1.319-2.151,2.689.015,3.981a30,30,0,0,0,4.022,1.825,1.434,1.434,0,0,1,1.029,1.2,2.681,2.681,0,0,0,3.858,2.155c.924-.379,1.268-.212,1.949.585a4.02,4.02,0,0,0,1.508,1.11,2.267,2.267,0,0,0,2.44-.643c1.041-.964,1.884-.746,2.286.585.042.141.091.282.145.419a3.963,3.963,0,0,0,4.728,2.445A4.163,4.163,0,0,0,42.246,23.1c.329-1.151,1.27-1.429,2.121-.64,1.471,1.365,2.992,1.2,4.191-.455a1.247,1.247,0,0,1,1.735-.471c.407.16.835.264,1.253.394M58.5,19.609c.79.339,1.6.69,2.415,1.035a6.87,6.87,0,0,1,4.428,5.592,7.541,7.541,0,0,0,2.228,4.531,5.426,5.426,0,0,1,1.656,4.726,13.135,13.135,0,0,1-1.081,3.192,5.159,5.159,0,0,0-.416,2.942,10.726,10.726,0,0,1,.116,3.014,5.99,5.99,0,0,1-2.878,4.376,9.437,9.437,0,0,0-3.712,4.271,7.319,7.319,0,0,1-5.517,4.3,15.463,15.463,0,0,0-6.611,2.728,8.487,8.487,0,0,1-6.837,1.467,15.889,15.889,0,0,0-6.959-.152,9.6,9.6,0,0,1-8.531-1.8,10.953,10.953,0,0,0-5.138-2.092A7.748,7.748,0,0,1,15.5,53.286a9.617,9.617,0,0,0-3.617-4.167,6.35,6.35,0,0,1-2.925-6.907A4.745,4.745,0,0,0,8.774,39.1c-.269-.525-.51-1.067-.748-1.607A6,6,0,0,1,7.744,33.3a6.487,6.487,0,0,1,1.783-2.858,5.664,5.664,0,0,0,1.794-3.548,7.349,7.349,0,0,1,5.189-6.484c.587-.218,1.153-.489,1.751-.745-.958-.6-1.82-1.161-2.7-1.685a.748.748,0,0,0-.582-.042c-.957.391-1.916.785-2.845,1.237a6,6,0,0,0-3.579,5,9.854,9.854,0,0,1-2.579,6.152,11.007,11.007,0,0,0-.94,1.145,4.38,4.38,0,0,0-.946,3.617,24.663,24.663,0,0,0,1.25,3.531A7.352,7.352,0,0,1,5.9,42.59a22.725,22.725,0,0,0-.31,2.274,5.276,5.276,0,0,0,2.246,4.887c2.241,1.6,4.231,3.345,5.255,6.041a6.877,6.877,0,0,0,5.712,4.489,16.042,16.042,0,0,1,7.77,3.369,8.246,8.246,0,0,0,7.339,1.6,15.509,15.509,0,0,1,8.047-.184,9.276,9.276,0,0,0,8.95-1.883,12.806,12.806,0,0,1,6.447-2.753,7.752,7.752,0,0,0,6.585-5.137,8.313,8.313,0,0,1,2.237-3.36c.931-.811,1.937-1.536,2.892-2.319a5.523,5.523,0,0,0,2.049-5.326,14.663,14.663,0,0,1-.165-3.89,27.065,27.065,0,0,1,1.228-3.533,11.146,11.146,0,0,0,.512-2.87,5.356,5.356,0,0,0-1.866-3.673,9.955,9.955,0,0,1-2.628-6.053,6.1,6.1,0,0,0-3.825-5.231c-.83-.375-1.658-.758-2.5-1.1a.923.923,0,0,0-.708.031c-.894.513-1.76,1.073-2.67,1.637M27.7,24.9c0,3.585,0,7.047,0,10.509,0,.223,0,.446.008.668a8.36,8.36,0,0,0,9.468,7.943V41.619C34.7,40.469,33.5,38.872,33.712,37h2.27c.3,1.469,1.1,2.332,2.3,2.321a2.275,2.275,0,0,0,1.434-.446,10.988,10.988,0,0,0,1.317-1.855h2.135a4.879,4.879,0,0,1-3.535,4.561v2.5a8.532,8.532,0,0,0,9.473-9.123c-.135-3.086-.025-6.182-.025-9.273v-.793a4.972,4.972,0,0,1-5.092.312A6.283,6.283,0,0,1,32.774,25.2,4.961,4.961,0,0,1,27.7,24.9m23.757.6c0,1.628-.006,3.083.007,4.539a.846.846,0,0,0,.164.534,12.4,12.4,0,0,0,5.7,3.925c1.12.3,1.489-.044,1.141-1.153-1.132-3.6-3.722-5.925-7.017-7.844m-26.132.191-.2-.191c-1.089.823-2.254,1.566-3.251,2.49A11.1,11.1,0,0,0,18.3,33.395c-.266,1.077.061,1.4,1.144,1.109a12.23,12.23,0,0,0,5.747-3.976.756.756,0,0,0,.13-.472c.01-1.455.006-2.91.006-4.365M20.591,69h4.733c0-1.006.007-1.966-.006-2.926a.641.641,0,0,0-.144-.452c-1.411-1.016-2.764-2.152-4.583-2.465Zm30.867.011h4.715V63.065a14.117,14.117,0,0,0-1.959.8,8.054,8.054,0,0,0-2.605,1.88c-.422.6-.128,1.711-.151,2.592-.005.2,0,.394,0,.667m-28.435,2.41c-.79,0-1.582-.03-2.369.017a1,1,0,0,0-.7.372,1.219,1.219,0,0,0,1.1,1.979c1.258.025,2.518.02,3.777-.005a1.76,1.76,0,0,0,.832-.243,1.036,1.036,0,0,0,.5-1.269c-.158-.508-.376-.936-1.074-.866s-1.381.015-2.072.015m30.884,0c-.79,0-1.581-.014-2.371.011a.756.756,0,0,0-.552.231c-.267.43-.668.943-.238,1.412a2.128,2.128,0,0,0,1.261.687c1.228.092,2.467.05,3.7.019a1.794,1.794,0,0,0,.9-.276,1.189,1.189,0,0,0,.435-1.441c-.153-.554-.518-.69-1.059-.655-.689.044-1.383.011-2.074.011" transform="translate(-0.235 -0.024)" fill="#0b0a0a"/>
        <path id="Trazado_1051585" data-name="Trazado 1051585" d="M21.934,25.1l2.505,2.628c-1.236,1.112-2.662,2.25-3.912,3.557a11.43,11.43,0,0,0-3.114,5.544A3.063,3.063,0,0,0,21.251,40.7a11.568,11.568,0,0,0,4.766-2.43c.231-.182.457-.372.807-.657,0,.713,0,1.312,0,1.912a10.625,10.625,0,0,0,8.414,10.511,5.411,5.411,0,0,0,1.239.208c2.52-.019,5.058.111,7.554-.151a10.449,10.449,0,0,0,8.775-8.812c.144-1.167.152-2.349.216-3.427,1.223.746,2.459,1.589,3.779,2.269a6.107,6.107,0,0,0,2.333.629A2.975,2.975,0,0,0,62.4,36.9a11.4,11.4,0,0,0-3.141-5.612c-1.254-1.306-2.682-2.444-3.912-3.549l2.574-2.7c.917.43,1.953,1.015,3.057,1.412a5.283,5.283,0,0,1,3.711,4.859,6.815,6.815,0,0,0,1.861,4.018c2.289,2.507,2.422,3.3.907,6.319a7.449,7.449,0,0,0-.477,4.905,4.022,4.022,0,0,1-1.621,4.172,17.456,17.456,0,0,0-1.789,1.314,8.775,8.775,0,0,0-2.2,2.627,7.148,7.148,0,0,1-6.41,4.816,8.537,8.537,0,0,0-4.382,1.838,8.122,8.122,0,0,1-7.622,1.719,14.808,14.808,0,0,0-7.1.176,6.77,6.77,0,0,1-5.676-1.273,14.246,14.246,0,0,0-6.679-2.77,5.546,5.546,0,0,1-4.551-3.578,9.257,9.257,0,0,0-4.007-4.509,4.139,4.139,0,0,1-2.142-3.124,7.337,7.337,0,0,1,.125-2.055,6.524,6.524,0,0,0-.553-4.178c-.263-.528-.507-1.069-.719-1.62a3.445,3.445,0,0,1,.545-3.483,7.384,7.384,0,0,1,.779-.895,7.6,7.6,0,0,0,2.275-4.854,4.872,4.872,0,0,1,3.186-4.188c1.221-.519,2.418-1.093,3.5-1.587" transform="translate(-1.741 -3.826)" fill="#fab988"/>
        <path id="Trazado_1051586" data-name="Trazado 1051586" d="M54.126,22.354c-.419-.13-.846-.234-1.253-.394a1.246,1.246,0,0,0-1.735.471c-1.2,1.655-2.72,1.82-4.191.455-.851-.79-1.793-.511-2.122.64a4.16,4.16,0,0,1-2.817,2.993,3.963,3.963,0,0,1-4.728-2.445c-.054-.137-.1-.278-.145-.419-.4-1.333-1.245-1.55-2.286-.585a2.267,2.267,0,0,1-2.44.643A4.02,4.02,0,0,1,30.9,22.6c-.681-.8-1.026-.963-1.949-.585a2.681,2.681,0,0,1-3.858-2.155,1.434,1.434,0,0,0-1.03-1.2,29.943,29.943,0,0,1-4.021-1.825c-2.167-1.293-2.169-2.662-.016-3.981a24.25,24.25,0,0,1,3.745-1.718,1.773,1.773,0,0,0,1.352-1.53A2.681,2.681,0,0,1,28.8,7.585c1.23.486,1.4.44,2.159-.583a2.527,2.527,0,0,1,3.929-.317c.979.929,1.859.693,2.243-.6a4.252,4.252,0,0,1,3.814-3.114A4.247,4.247,0,0,1,44.8,6.023c.416,1.348,1.231,1.566,2.279.608a2.532,2.532,0,0,1,3.923.427c.664.93.974,1.016,2.05.566a2.691,2.691,0,0,1,3.786,2.11,1.516,1.516,0,0,0,1.1,1.306,27.531,27.531,0,0,1,4.07,1.894c2.015,1.241,2.016,2.56.014,3.807a24.952,24.952,0,0,1-3.866,1.805c-.747.3-1.24.632-1.349,1.531a2.739,2.739,0,0,1-2.691,2.277" transform="translate(-2.813 -0.454)" fill="#f7d2b7"/>
        <path id="Trazado_1051587" data-name="Trazado 1051587" d="M58.944,22.805c.91-.564,1.776-1.124,2.67-1.637a.931.931,0,0,1,.708-.031c.846.337,1.674.72,2.5,1.1a6.107,6.107,0,0,1,3.825,5.231,9.955,9.955,0,0,0,2.628,6.053,5.356,5.356,0,0,1,1.866,3.673,11.182,11.182,0,0,1-.512,2.87A27.108,27.108,0,0,0,71.4,43.592a14.663,14.663,0,0,0,.165,3.89,5.523,5.523,0,0,1-2.049,5.326c-.956.783-1.961,1.508-2.892,2.319a8.316,8.316,0,0,0-2.237,3.361,7.751,7.751,0,0,1-6.585,5.136,12.813,12.813,0,0,0-6.447,2.753,9.276,9.276,0,0,1-8.95,1.883,15.509,15.509,0,0,0-8.047.184,8.244,8.244,0,0,1-7.339-1.6,16.04,16.04,0,0,0-7.771-3.368,6.878,6.878,0,0,1-5.711-4.489c-1.024-2.7-3.014-4.439-5.255-6.04a5.277,5.277,0,0,1-2.246-4.888,22.725,22.725,0,0,1,.31-2.274,7.344,7.344,0,0,0-.566-3.974,24.725,24.725,0,0,1-1.25-3.531,4.38,4.38,0,0,1,.946-3.617,11.007,11.007,0,0,1,.94-1.145A9.859,9.859,0,0,0,9,27.368a6,6,0,0,1,3.579-5c.929-.452,1.888-.847,2.845-1.238a.748.748,0,0,1,.582.042c.881.524,1.743,1.083,2.7,1.686-.6.256-1.165.526-1.751.745a7.348,7.348,0,0,0-5.189,6.483,5.664,5.664,0,0,1-1.794,3.548,6.487,6.487,0,0,0-1.783,2.858,6,6,0,0,0,.282,4.193c.238.541.479,1.082.748,1.608A4.743,4.743,0,0,1,9.4,45.408a6.349,6.349,0,0,0,2.925,6.907,9.622,9.622,0,0,1,3.617,4.167,7.75,7.75,0,0,0,6.161,4.454,10.943,10.943,0,0,1,5.138,2.091,9.6,9.6,0,0,0,8.531,1.8,15.876,15.876,0,0,1,6.959.153,8.487,8.487,0,0,0,6.837-1.468,15.47,15.47,0,0,1,6.611-2.728,7.318,7.318,0,0,0,5.517-4.3,9.437,9.437,0,0,1,3.712-4.271,5.985,5.985,0,0,0,2.877-4.376,10.656,10.656,0,0,0-.116-3.014,5.169,5.169,0,0,1,.417-2.943,13.122,13.122,0,0,0,1.081-3.192,5.424,5.424,0,0,0-1.656-4.725,7.543,7.543,0,0,1-2.228-4.532,6.869,6.869,0,0,0-4.428-5.591c-.813-.346-1.624-.7-2.415-1.036" transform="translate(-0.678 -3.221)" fill="#f5d1b5"/>
        <path id="Trazado_1051588" data-name="Trazado 1051588" d="M32.419,29.366a4.962,4.962,0,0,0,5.073.294,6.283,6.283,0,0,0,11.215.007,4.977,4.977,0,0,0,5.093-.312v.792c0,3.091-.111,6.188.025,9.273a8.531,8.531,0,0,1-9.473,9.123v-2.5a4.88,4.88,0,0,0,3.535-4.561H45.752a10.947,10.947,0,0,1-1.317,1.855A2.276,2.276,0,0,1,43,43.786c-1.2.011-2-.851-2.3-2.321H38.431c-.213,1.868.987,3.466,3.465,4.616v2.406a8.36,8.36,0,0,1-9.468-7.943c-.008-.223-.008-.446-.008-.668,0-3.462,0-6.924,0-10.509m2.392,8.489h2.313c.166-.623.485-1.145,1.217-1.157.768-.014,1.08.552,1.256,1.148h2.281a3.491,3.491,0,0,0-3.355-3.535,3.538,3.538,0,0,0-3.712,3.544M51.4,37.841a3.537,3.537,0,0,0-7.073,0h2.3c.168-.634.5-1.148,1.235-1.144s1.065.516,1.219,1.141Z" transform="translate(-4.953 -4.485)" fill="#f5c9c2"/>
        <path id="Trazado_1051589" data-name="Trazado 1051589" d="M60.46,30.07c3.295,1.92,5.885,4.24,7.017,7.844.348,1.109-.02,1.452-1.141,1.153a12.4,12.4,0,0,1-5.7-3.925.841.841,0,0,1-.164-.534c-.014-1.456-.008-2.911-.008-4.539" transform="translate(-9.237 -4.595)" fill="#f2e6e4"/>
        <path id="Trazado_1051590" data-name="Trazado 1051590" d="M28.332,30.261c0,1.455,0,2.91-.006,4.365a.756.756,0,0,1-.13.472,12.23,12.23,0,0,1-5.747,3.976c-1.083.291-1.41-.032-1.144-1.109A11.1,11.1,0,0,1,24.88,32.56c1-.924,2.162-1.666,3.251-2.49l.2.191" transform="translate(-3.242 -4.595)" fill="#f2e6e4"/>
        <path id="Trazado_1051591" data-name="Trazado 1051591" d="M24.028,80.355V74.511c1.819.313,3.17,1.45,4.583,2.465a.638.638,0,0,1,.143.452c.013.961.007,1.921.007,2.926Z" transform="translate(-3.671 -11.384)" fill="#fab988"/>
        <path id="Trazado_1051592" data-name="Trazado 1051592" d="M60.446,80.351c0-.273,0-.469,0-.667.023-.882-.272-1.988.151-2.592a8.041,8.041,0,0,1,2.6-1.88,14.088,14.088,0,0,1,1.96-.8v5.942Z" transform="translate(-9.223 -11.369)" fill="#fab988"/>
        <path id="Trazado_1051593" data-name="Trazado 1051593" d="M26.3,84.263c.691,0,1.388.053,2.072-.015s.916.358,1.073.866a1.035,1.035,0,0,1-.5,1.269,1.753,1.753,0,0,1-.833.243c-1.258.025-2.518.031-3.777.006a1.219,1.219,0,0,1-1.1-1.979,1,1,0,0,1,.7-.372c.787-.047,1.579-.018,2.369-.018" transform="translate(-3.509 -12.871)" fill="#102945"/>
        <path id="Trazado_1051594" data-name="Trazado 1051594" d="M62.748,84.264c.691,0,1.385.034,2.074-.011.541-.035.907.1,1.059.655a1.189,1.189,0,0,1-.435,1.441,1.785,1.785,0,0,1-.9.276c-1.234.03-2.474.074-3.7-.019a2.137,2.137,0,0,1-1.261-.687c-.43-.47-.029-.983.238-1.413a.756.756,0,0,1,.552-.231c.79-.025,1.58-.011,2.371-.011" transform="translate(-9.075 -12.872)" fill="#102945"/>
        <path id="Trazado_1051595" data-name="Trazado 1051595" d="M35.243,38.749A3.538,3.538,0,0,1,38.955,35.2a3.491,3.491,0,0,1,3.355,3.535H40.029c-.176-.6-.488-1.162-1.256-1.148-.733.014-1.051.535-1.217,1.157Z" transform="translate(-5.385 -5.379)" fill="#0a0809"/>
        <path id="Trazado_1051596" data-name="Trazado 1051596" d="M53.55,38.734H51.232c-.154-.625-.486-1.137-1.219-1.141s-1.067.51-1.235,1.144h-2.3a3.537,3.537,0,0,1,7.073,0" transform="translate(-7.101 -5.379)" fill="#0a0809"/>
      </g>
    </g>
  </g>
</svg>
