<svg id="Grupo_1185440" data-name="Grupo 1185440" xmlns="http://www.w3.org/2000/svg" xmlns:xlink="http://www.w3.org/1999/xlink" width="150.081" height="106.06" viewBox="0 0 150.081 106.06">
  <defs>
    <clipPath id="clip-path">
      <rect id="Rectángulo_410063" data-name="Rectángulo 410063" width="150.081" height="106.06" fill="none"/>
    </clipPath>
  </defs>
  <g id="Grupo_1185439" data-name="Grupo 1185439" clip-path="url(#clip-path)">
    <path id="Trazado_1051726" data-name="Trazado 1051726" d="M107.4,315.195S91.56,332.218,90.1,333.5s-4.812,6.748-4.406,7.192,6.2-4.18,7.088-4.992,17.021-17,17.021-17Z" transform="translate(-63.775 -234.667)" fill="#dcb685"/>
    <path id="Trazado_1051727" data-name="Trazado 1051727" d="M109.8,324.4l-1.065-1.562c-.744.8-13.549,14.632-16.136,17-2.294,2.1-3.15.712-3.344.287-1.613,2.012-3.9,5.895-3.564,6.266.406.444,6.2-4.18,7.088-4.992s17.021-17,17.021-17" transform="translate(-63.775 -240.356)" fill="#ab835f"/>
    <path id="Trazado_1051728" data-name="Trazado 1051728" d="M248.217,79.827l47.932-48.8,3.434,3.285L251.818,82.193a3.217,3.217,0,0,1-3.6-2.366" transform="translate(-184.801 -23.102)" fill="#dcb685"/>
    <path id="Trazado_1051729" data-name="Trazado 1051729" d="M435.422,7.927s1.526,2.824,3.435,3.286,4.229-.461,6.172-3,2.276-4.382.514-6.415S442.476-.2,440.727.25s-4.749,2.567-5.211,4.475a6.846,6.846,0,0,0-.094,3.2" transform="translate(-324.074 0)" fill="#dcbb98"/>
    <path id="Trazado_1051730" data-name="Trazado 1051730" d="M254.382,88.8,302.64,39.992l1.533,1L256.408,88.865s-1.62.378-2.026-.066" transform="translate(-189.391 -29.775)" fill="#ab835f"/>
    <path id="Trazado_1051731" data-name="Trazado 1051731" d="M443.441,11.215c1.908.461,4.229-.461,6.172-3s2.276-4.382.514-6.415C448.682.13,447.545-.142,446.219.06l0,.032c-.937,1.336.44,3.577,1.45,4.524s-2.206,4.51-3.431,5.006a6.916,6.916,0,0,1-2.8.271,4.352,4.352,0,0,0,2,1.322" transform="translate(-328.658 -0.002)" fill="#ab835f"/>
    <path id="Trazado_1051732" data-name="Trazado 1051732" d="M132.842,129.394S119.4,145.05,127.42,161.84,143.8,183.158,154.967,183.5s30.324-12.732,34.638-20.43,7.525-16.482.857-28.467-16.564-17.376-26.638-17.73-23.394,3.7-30.983,12.518" transform="translate(-92.965 -87)" fill="#ffd51f"/>
    <path id="Trazado_1051733" data-name="Trazado 1051733" d="M31.817,232.86s-22.391,6.282-24.308,6.62S-.113,242.735,0,243.326s7.469-.341,8.651-.571,23.381-5.646,23.381-5.646Z" transform="translate(0 -173.367)" fill="#dcb685"/>
    <path id="Trazado_1051734" data-name="Trazado 1051734" d="M32.033,243.988l-.1-1.888c-1.053.3-19.186,5.436-22.625,6.107-3.051.6-3.06-1.032-3-1.5-2.425.878-6.4,3-6.306,3.494.115.591,7.469-.34,8.651-.571s23.381-5.646,23.381-5.646" transform="translate(0 -180.247)" fill="#ab835f"/>
    <path id="Trazado_1051735" data-name="Trazado 1051735" d="M236.4,175.077l-.148-.044.107.074.041-.03" transform="translate(-175.89 -130.314)" fill="#e28e14"/>
    <path id="Trazado_1051736" data-name="Trazado 1051736" d="M249.341,170.515a33.243,33.243,0,0,1,5.858-.153,18.469,18.469,0,0,1,7.306,2.441l.481-.9a19.415,19.415,0,0,0-7.723-2.559,34.189,34.189,0,0,0-6.039.157,19.422,19.422,0,0,0-6.556,1.786q.656.232,1.36.5a19.616,19.616,0,0,1,5.313-1.273" transform="translate(-180.669 -126.027)" fill="#e28e14"/>
    <path id="Trazado_1051737" data-name="Trazado 1051737" d="M254.533,157.191c2.436.1,4.907,1.179,7.3,2.222.612.267,2.813,1.85,3.424,2.1l.387-.947c-.6-.245-2.767-1.813-3.4-2.091-2.476-1.081-5.037-2.2-7.664-2.307-4.922-.2-11.989.478-17.749,4.84.382.116.784.248,1.2.393,4.265-2.981,10.087-4.475,16.5-4.212" transform="translate(-176.32 -116.247)" fill="#e28e14"/>
    <path id="Trazado_1051738" data-name="Trazado 1051738" d="M285.267,206.763A67.365,67.365,0,0,1,309.393,229.3q.28-.512.55-1.03A68.406,68.406,0,0,0,288.875,207.7a25.312,25.312,0,0,1-3.573-1Z" transform="translate(-212.385 -153.889)" fill="#e28e14"/>
    <path id="Trazado_1051739" data-name="Trazado 1051739" d="M243.515,180.3c.041-.021.084-.04.125-.061l-.25-.18Z" transform="translate(-181.207 -134.057)" fill="#e28e14"/>
    <path id="Trazado_1051740" data-name="Trazado 1051740" d="M240.411,177.19c.191.135.374.269.562.4l-.347-.667c.053-.027.109-.052.162-.078l-.288-.1c-.12.084-.239.17-.356.257l.267.186" transform="translate(-178.79 -131.59)" fill="#e28e14"/>
    <path id="Trazado_1051741" data-name="Trazado 1051741" d="M236.631,175.331l.62.814c.09-.069.186-.133.278-.2l-.888-.62-.009.006" transform="translate(-176.175 -130.532)" fill="#e28e14"/>
    <path id="Trazado_1051742" data-name="Trazado 1051742" d="M308.9,211.972a54.891,54.891,0,0,1,19.485,18.517c.172-.364.342-.731.5-1.1a56.018,56.018,0,0,0-17.867-17.362,18.678,18.678,0,0,1-2.122-.054" transform="translate(-229.984 -157.816)" fill="#e28e14"/>
    <path id="Trazado_1051743" data-name="Trazado 1051743" d="M368.289,176.394a12.455,12.455,0,0,1,4.088,3.138c-.216-.427-.442-.857-.684-1.292-.293-.528-.6-1.038-.9-1.54a11.5,11.5,0,0,0-2.079-1.237Z" transform="translate(-274.196 -130.634)" fill="#e28e14"/>
    <path id="Trazado_1051744" data-name="Trazado 1051744" d="M343.536,187.407l-.505.889a38.793,38.793,0,0,1,13.658,13.166q.039-.921,0-1.87a39.815,39.815,0,0,0-13.155-12.185" transform="translate(-255.391 -139.527)" fill="#e28e14"/>
    <path id="Trazado_1051745" data-name="Trazado 1051745" d="M358.461,181.22l-.537.871a28.37,28.37,0,0,1,9.517,9.773,25.52,25.52,0,0,0-.706-2.944,29.328,29.328,0,0,0-8.273-7.7" transform="translate(-266.479 -134.921)" fill="#e28e14"/>
    <path id="Trazado_1051746" data-name="Trazado 1051746" d="M205.153,183.287c-1.379-1.643-2.728-3.366-4.034-5.031a104,104,0,0,0-7.844-9.242c-2.419-2.437-5.132-4.688-7.756-6.864-4.863-4.034-9.877-8.2-13.042-13.619q-.413.309-.814.63c3.255,5.516,8.3,9.712,13.2,13.776,2.6,2.161,5.3,4.4,7.683,6.8a103.292,103.292,0,0,1,7.765,9.152c1.31,1.672,2.665,3.4,4.055,5.057,4.39,5.231,8.319,8.651,12.492,10.838q.436-.356.857-.712c-4.193-2.112-8.13-5.5-12.565-10.783" transform="translate(-127.805 -110.583)" fill="#e28e14"/>
    <path id="Trazado_1051747" data-name="Trazado 1051747" d="M325.285,194.634l-2.5.033c6.806,3.4,14.529,9.678,18.295,16.259.11-.5.2-1.006.283-1.518a39.771,39.771,0,0,0-16.076-14.774" transform="translate(-240.316 -144.908)" fill="#e28e14"/>
    <path id="Trazado_1051748" data-name="Trazado 1051748" d="M201.876,194.975a184.111,184.111,0,0,1-15.124-15.644c-.639-.763-1.268-1.536-1.9-2.309a67.257,67.257,0,0,0-6.863-7.6c-1.131-1.02-2.343-1.973-3.514-2.893-1.245-.979-2.532-1.99-3.708-3.074a30.689,30.689,0,0,1-6.328-8.257q-.394.35-.774.713a31.719,31.719,0,0,0,6.409,8.3c1.205,1.111,2.508,2.135,3.769,3.125,1.158.91,2.356,1.852,3.461,2.848a66.438,66.438,0,0,1,6.756,7.483c.633.777,1.265,1.553,1.907,2.32a187.945,187.945,0,0,0,15.206,15.732,32.929,32.929,0,0,0,7.5,5.771q.464-.346.916-.7c-2.77-1.282-5.154-3.406-7.715-5.82" transform="translate(-121.852 -115.55)" fill="#e28e14"/>
    <path id="Trazado_1051749" data-name="Trazado 1051749" d="M306.006,199.021l-1.958.435c8.3,3.242,17.747,10.687,21.92,18.593.161-.428.315-.861.458-1.3a41.907,41.907,0,0,0-20.42-17.73" transform="translate(-226.368 -148.174)" fill="#e28e14"/>
    <path id="Trazado_1051750" data-name="Trazado 1051750" d="M177.718,209.265a45.237,45.237,0,0,1-7-4.393l-.94-.727c-1.066-.843-2.089-1.716-3.071-2.6,0-.066,0-.132,0-.2l-.224,0a92.489,92.489,0,0,1-7.766-8.141c-1.75-2.041-3.47-4.16-5.146-6.235l-.446-.552-.187-.232A153.35,153.35,0,0,0,140.97,172.5c-.409-.4-.823-.8-1.24-1.193-2.434-2.327-4.935-4.724-6.356-7.658-.177.194-.354.387-.524.586,0,0-.074.087-.205.25q.352.675.767,1.313a9.919,9.919,0,0,0-1.577-.248c-.215.3-.457.642-.718,1.03l.056-.007a15.062,15.062,0,0,1,3.364.459l-.722-.64a24.267,24.267,0,0,0,1.836,2.269,12.272,12.272,0,0,0-6.16.557c-.256.453-.516.935-.775,1.441a11.372,11.372,0,0,1,8.116-.677l.017-.056c.383.388.773.771,1.165,1.15a15.017,15.017,0,0,0-10.333,1.766q-.349.8-.676,1.655a14.017,14.017,0,0,1,10.245-2.515,20.368,20.368,0,0,0-11.359,5.965q-.272,1.026-.482,2.1a19.2,19.2,0,0,1,14.082-7.271l-.012-.3q.274.263.547.527a26.009,26.009,0,0,0-15.09,10.682q-.065,1-.055,2.029a24.953,24.953,0,0,1,15.246-11.681,28.8,28.8,0,0,0-14.941,15.419q.149.96.377,1.933a27.809,27.809,0,0,1,13.349-15.641,25.029,25.029,0,0,0-5.931,5.94c-3.624,4.794-5.7,9.18-6.292,13.287.224.566.469,1.134.741,1.7.038.079.076.154.114.232.139-4.434,2.2-9.238,6.253-14.605,2.023-2.675,4.8-5.866,8.451-7.056.342.357.684.716,1.02,1.08a32.3,32.3,0,0,0-13.507,24.867c.333.6.667,1.166,1,1.724a31.209,31.209,0,0,1,13.2-25.828q.6.656,1.184,1.319a33.842,33.842,0,0,0-8.12,10.543c-3.2,5.976-4.764,11.491-4.673,16.46.371.547.744,1.077,1.119,1.582-.5-5.192.983-11.082,4.455-17.559a32.83,32.83,0,0,1,7.89-10.255c.113.13.227.259.339.39a39.76,39.76,0,0,0-10.263,30.373c.384.42.771.814,1.159,1.2a38.705,38.705,0,0,1,9.772-30.787c.34.4.68.8,1.016,1.2l-.035-.026a43.8,43.8,0,0,0-8.5,31.605c.379.3.761.578,1.146.845a42.754,42.754,0,0,1,8.029-31.647q1.335,1.613,2.637,3.228a49,49,0,0,0-4.772,31.377c.366.122.735.232,1.107.336a47.965,47.965,0,0,1,4.367-30.845l.319.4.243.3a48.269,48.269,0,0,0-2.335,30.736c.364.064.732.119,1.1.17a47.236,47.236,0,0,1,1.964-30c1.178,1.457,2.376,2.928,3.594,4.38l-.456-.07a57.815,57.815,0,0,0,1.938,25.778q.5-.078,1.015-.182a56.793,56.793,0,0,1-2.01-24.95c.248.294.495.59.744.881q.664.774,1.373,1.577l-.465-.014a70.747,70.747,0,0,0,2.775,21.909c.324-.095.65-.193.978-.3a69.713,69.713,0,0,1-2.743-20.983c.926,1.033,1.906,2.089,2.942,3.146a20.262,20.262,0,0,0,.175,7.776c.519,3.086,1.2,6.176,2.016,9.2q.476-.186.955-.386c-.8-2.959-1.456-5.976-1.963-8.988a20.95,20.95,0,0,1-.311-6.73q.973.964,2.008,1.917a31.765,31.765,0,0,0,2.705,12.711c.307-.146.613-.3.92-.449a30.764,30.764,0,0,1-2.585-11.329c.938.825,1.912,1.635,2.925,2.417a21.09,21.09,0,0,0,.965,8.242q.458-.242.915-.492a20.079,20.079,0,0,1-.9-7.014q1.157.852,2.375,1.647a42.606,42.606,0,0,0,.436,4.281q.476-.282.948-.57c-.143-1.007-.25-2.022-.319-3.036q1.311.8,2.691,1.521.487-.325.965-.656M138.636,171.8l.028-.106.1.095-.127.012" transform="translate(-92.972 -121.835)" fill="#e28e14"/>
    <path id="Trazado_1051751" data-name="Trazado 1051751" d="M251.961,182.359c.958.5,3.024,1.605,3.124,1.6,0,0-10.668-5.63-17.983-8.444-.318.132-3.438-1.374-3.737-1.223,1.893,1.364,4.083,3.317,5.657,4.678l2.937,1.849a30.647,30.647,0,0,0,13.6,3.7Z" transform="translate(-173.743 -129.755)" fill="#e28e14"/>
    <path id="Trazado_1051752" data-name="Trazado 1051752" d="M211.757,170.708c-1.263-1.425-2.511-2.916-3.717-4.359a78.642,78.642,0,0,0-10.016-10.57c-1.48-1.217-3.065-2.337-4.6-3.42-1.516-1.072-3.084-2.179-4.534-3.372a20.1,20.1,0,0,1-6.1-7.568q-.441.271-.874.553a21.246,21.246,0,0,0,6.323,7.805c1.479,1.217,3.062,2.335,4.593,3.417s3.086,2.181,4.537,3.374a77.886,77.886,0,0,1,9.881,10.436c1.211,1.448,2.463,2.946,3.736,4.382A99.01,99.01,0,0,0,227.864,186.5q.379-.369.735-.734a97.993,97.993,0,0,1-16.843-15.063" transform="translate(-135.442 -105.289)" fill="#e28e14"/>
    <path id="Trazado_1051753" data-name="Trazado 1051753" d="M235.549,292.233a59.068,59.068,0,0,1-.316-28.254l-.979-1.088a63.741,63.741,0,0,0,.226,29.306c.246.012.491.024.739.032.109,0,.22,0,.33,0" transform="translate(-173.217 -195.726)" fill="#e28e14"/>
    <path id="Trazado_1051754" data-name="Trazado 1051754" d="M193.935,257.23a66.952,66.952,0,0,1,6.166-16.263l-.685-1.5a75.458,75.458,0,0,0-6.481,17.544,37.1,37.1,0,0,0-.351,14.754c.385.21.773.4,1.164.587a35.642,35.642,0,0,1,.187-15.125" transform="translate(-142.949 -178.289)" fill="#e28e14"/>
    <path id="Trazado_1051755" data-name="Trazado 1051755" d="M210.783,137.266l-.024.066a42.369,42.369,0,0,1-7.836-5.775c.191.051.39.108.595.169l-.1-.071q-.615-.427-1.231-.859c5.164-3.518,9.319-5.482,15.5-6.43l1.869.162c3.457-.321,14.045,3.656,16.269,6.362l.79-.65c-1.945-2.365-9.956-6.079-13.985-6.6,1.115-.085,2.232-.128,3.35-.122a19.232,19.232,0,0,1,8,2.167q-1.125-1.113-2.3-2.078a17.235,17.235,0,0,0-5.69-1.112h-.205a43.276,43.276,0,0,0-24.486,7.672q-.326-.234-.649-.47,1.416-1.07,2.925-2.015l.263.027c.007-.068.014-.137.02-.206a42.554,42.554,0,0,1,24.231-6.257l.009-.174q-.788-.476-1.591-.9a42.559,42.559,0,0,0-7.791.638l1.9-1.211a14.025,14.025,0,0,1,2.022-1.106q-.7-.245-1.406-.451c-.392.215-.782.449-1.165.694l-3.073,1.957-.5.3a28.939,28.939,0,0,0-2.734.983c.393-.4.771-.82,1.141-1.228a24.412,24.412,0,0,1,2.127-2.162,8.274,8.274,0,0,1,1.727-1.154c-.518-.1-1.039-.189-1.56-.263a9.92,9.92,0,0,0-.833.641,25.151,25.151,0,0,0-2.219,2.252,23.643,23.643,0,0,1-2.2,2.223l.18.213q-.8.272-1.584.575a10.594,10.594,0,0,0,1.2-2.589,10.545,10.545,0,0,1,1.084-2.4,4.427,4.427,0,0,1,1.252-1.2l-.046,0c-.5-.018-1.011-.021-1.527-.017a5.327,5.327,0,0,0-.522.642,11.265,11.265,0,0,0-1.2,2.629,11.213,11.213,0,0,1-1.131,2.7l-.639.851c-.2.085-.4.168-.592.256a10.162,10.162,0,0,0,1.624-6.985q-.506.037-1.018.086a9.028,9.028,0,0,1-2.663,7.757l.079.084-.377.193a8.448,8.448,0,0,0,.849-3.745,5.605,5.605,0,0,0-1.534-3.775q-.644.118-1.291.254a4.424,4.424,0,0,1,1.8,3.547,8.517,8.517,0,0,1-1.4,4.526l.046.027q-.279.159-.556.323c.173-2.477.038-4.93-1.429-6.823a6.652,6.652,0,0,0-.966-.992q-.61.166-1.218.351a6.194,6.194,0,0,1,1.375,1.268c1.4,1.8,1.388,4.336,1.158,6.857q-.33.208-.655.423a9.657,9.657,0,0,0-4.5-7.669q-.625.231-1.245.482a8.682,8.682,0,0,1,4.721,7.884q-.257.18-.511.365a6.926,6.926,0,0,0-2.861-5.169,13.6,13.6,0,0,0-3.86-1.964q-.852.412-1.684.862c2.084,4.49,6.377,7.482,10.546,10.379q.685.476,1.359.948a66.368,66.368,0,0,1,9.3,7.762c1.718,1.753,3.338,3.666,4.905,5.515q.724.855,1.451,1.705c5.454,6.353,11.44,12.371,17.283,18.2q.354-.389.677-.769c-5.816-5.8-11.77-11.786-17.184-18.093q-.727-.847-1.447-1.7c-1.579-1.863-3.211-3.79-4.955-5.57-.5-.507-1.016-1.009-1.548-1.511,3.884,2.03,6.937,5.348,10.137,8.836a73.052,73.052,0,0,0,5.737,5.8c1.151,1,2.4,1.953,3.6,2.874,2.737,2.093,5.548,4.249,7.36,7.068.1-.161.2-.322.285-.479s.19-.343.285-.515c-1.9-2.743-4.638-4.844-7.308-6.886-1.192-.912-2.425-1.855-3.551-2.834a72.322,72.322,0,0,1-5.654-5.722,52.973,52.973,0,0,0-7.8-7.418,33.7,33.7,0,0,1-4.7-2.193c-.093-.082-.192-.163-.286-.245m-17.341-15.113a12.814,12.814,0,0,1,3.765,1.874,5.768,5.768,0,0,1,2.44,4.917,21.077,21.077,0,0,1-6.205-6.791" transform="translate(-143.16 -87.007)" fill="#e28e14"/>
    <path id="Trazado_1051756" data-name="Trazado 1051756" d="M274.073,141.159l68.094-17.372,1.221,4.593-65.71,16s-4.2-.185-3.605-3.222" transform="translate(-204.007 -92.161)" fill="#dcb685"/>
    <path id="Trazado_1051757" data-name="Trazado 1051757" d="M540.75,111.988s-.167,3.206,1.221,4.593,3.85,1.808,6.833.649,4.225-2.556,3.779-5.209-1.581-3.3-3.307-3.826-5.392-.282-6.779,1.107a6.848,6.848,0,0,0-1.747,2.685" transform="translate(-402.59 -80.362)" fill="#dcbb98"/>
    <path id="Trazado_1051758" data-name="Trazado 1051758" d="M278.074,152.025l67.545-16.712.79,1.649-65.71,16s-2.511-.347-2.626-.937" transform="translate(-207.03 -100.742)" fill="#ab835f"/>
    <path id="Trazado_1051759" data-name="Trazado 1051759" d="M542.576,118.229c1.388,1.388,3.85,1.808,6.833.649s4.224-2.555,3.779-5.209c-.365-2.175-1.2-3-2.432-3.517l-.015.028c-1.5.653-1.486,3.283-1.118,4.617s-4.232,2.7-5.536,2.487a6.925,6.925,0,0,1-2.53-1.226,4.353,4.353,0,0,0,1.019,2.17" transform="translate(-403.196 -82.01)" fill="#ab835f"/>
  </g>
</svg>
