<svg id="Grupo_1185846" data-name="Grupo 1185846" xmlns="http://www.w3.org/2000/svg" xmlns:xlink="http://www.w3.org/1999/xlink" width="273.956" height="304.319" viewBox="0 0 273.956 304.319">
  <defs>
    <clipPath id="clip-path">
      <rect id="Rectángulo_410273" data-name="Rectángulo 410273" width="273.956" height="304.319" fill="none"/>
    </clipPath>
  </defs>
  <g id="Grupo_1185845" data-name="Grupo 1185845" clip-path="url(#clip-path)">
    <path id="Trazado_1052306" data-name="Trazado 1052306" d="M84.24,108.463C87.629,43.8,115.985,3.013,148.239,4.7s56.191,45.217,52.8,109.882" transform="translate(-10.311 -0.569)" fill="none" stroke="#735030" stroke-linecap="round" stroke-linejoin="round" stroke-width="9.304"/>
    <path id="Trazado_1052307" data-name="Trazado 1052307" d="M99.687,118.676C91.8,54.405,112.638,9.315,144.7,5.379s63.19,34.772,71.081,99.043" transform="translate(-11.997 -0.625)" fill="none" stroke="#735030" stroke-linecap="round" stroke-linejoin="round" stroke-width="9.304"/>
    <path id="Trazado_1052308" data-name="Trazado 1052308" d="M256.528,265.535c4.2-33.9,15.465-125.046,17.406-140.751a2.675,2.675,0,0,0-1.957-2.944C214.148,106.6,0,110.213,0,121.691,0,144.344,12.44,246,17.886,263.924l47.173,33.519L214.335,300.1Z" transform="translate(0 -13.673)" fill="#8f735a"/>
    <path id="Trazado_1052309" data-name="Trazado 1052309" d="M20.379,285.154l5.838,31.286a27.2,27.2,0,0,0,25.909,22.216c43.049,1.347,135.216-.052,174.4-.748a27.247,27.247,0,0,0,25.179-18.216c2.624-7.4,5.148-15.529,5.843-21.1.219-1.743.743-5.957,1.47-11.827-21.982,5.795-209.332,6.184-238.644-1.61" transform="translate(-2.494 -34.903)" fill="#735030"/>
    <path id="Trazado_1052310" data-name="Trazado 1052310" d="M221.6,148.955c-1.22-7.941-1.595-19.958-2.4-25.558-.8-5.578-2.392-16.165,3.2-16.165s11.975,1.6,11.975,4.8,1.594,26.542,4.793,36.922,13.568,35.923,7.979,36.715-14.128.731-16.767-7.177c-2.886-8.655-7.409-20.63-8.776-29.538" transform="translate(-26.728 -13.125)" fill="#7a593b"/>
    <path id="Trazado_1052311" data-name="Trazado 1052311" d="M78.588,109.629c3.654-4.4,15.188-2.672,15.919.894a62.813,62.813,0,0,1,.741,17.092c-.741,5.351-3.119,43.217-9.01,52.124-2.828,4.271-6.137,3.861-9.31,4.155-3.443.319-6.636,1.023-6.489-2.375.423-9.791,7.013-24.483,7.759-34.284s-1.82-34.935.391-37.607" transform="translate(-8.621 -13.098)" fill="#7a593b"/>
    <path id="Trazado_1052312" data-name="Trazado 1052312" d="M230.74,123.5a3.388,3.388,0,1,1-3.389-3.385,3.387,3.387,0,0,1,3.389,3.385" transform="translate(-27.413 -14.702)" fill="#d9d0c7"/>
    <path id="Trazado_1052313" data-name="Trazado 1052313" d="M91.331,121.187a3.385,3.385,0,1,1-3.385-3.385,3.387,3.387,0,0,1,3.385,3.385" transform="translate(-10.35 -14.419)" fill="#d9d0c7"/>
  </g>
</svg>
