<svg id="Grupo_1185844" data-name="Grupo 1185844" xmlns="http://www.w3.org/2000/svg" xmlns:xlink="http://www.w3.org/1999/xlink" width="380.754" height="272.483" viewBox="0 0 380.754 272.483">
  <defs>
    <clipPath id="clip-path">
      <rect id="Rectángulo_410272" data-name="Rectángulo 410272" width="380.754" height="272.483" fill="none"/>
    </clipPath>
    <clipPath id="clip-path-2">
      <path id="Trazado_1052263" data-name="Trazado 1052263" d="M118.791,94.1c-76.164,2.323-96.14,38.095-108.626,98.957S-1.9,272.03,3.923,277.142c.979.858,3.2,1.219,6.368,1.231h.345c7.417-.029,19.752-1.859,33.42-3.689,15.665-2.1,33.081-4.2,46.852-3.581,7.221.321,191.717.321,198.937,0,13.771-.615,31.187,1.484,46.852,3.582,13.665,1.829,26,3.659,33.414,3.688h.357c3.164-.013,5.385-.374,6.362-1.231,5.828-5.111,6.245-23.229-6.24-84.089S338.127,96.419,261.962,94.1c-26.164-.8-48.875-1.2-71.585-1.2s-45.422.4-71.586,1.2" transform="translate(0 -92.899)" fill="none"/>
    </clipPath>
    <linearGradient id="linear-gradient" x1="-0.436" y1="0.736" x2="-0.432" y2="0.736" gradientUnits="objectBoundingBox">
      <stop offset="0" stop-color="#4a1348"/>
      <stop offset="1"/>
    </linearGradient>
    <clipPath id="clip-path-4">
      <path id="Trazado_1052269" data-name="Trazado 1052269" d="M10.165,197.91C-2.321,258.771-1.9,276.888,3.923,282c3.256,2.857,20.291.2,40.135-2.458,15.665-2.1,33.08-4.2,46.85-3.582,7.221.322,191.717.322,198.937,0,13.769-.614,31.183,1.484,46.846,3.581,16.542,2.215,31.134,4.43,37.418,3.451q1.9-1.064,3.743-2.1c4.807-6.418,4.446-25.9-7.263-82.977-1.525-7.425-3.16-14.473-4.995-21.136.822,64.428-128.19,55-174.385,50.007-17.71-1.914-36.581-1.015-55.09-.117-29.776,1.446-58.615,2.892-80.173-7.375-34.767-16.556-38.618-49.4-38.66-49.764a291.829,291.829,0,0,0-7.122,28.385" transform="translate(0 -169.525)" fill="none"/>
    </clipPath>
    <linearGradient id="linear-gradient-2" x1="-1.005" y1="0.644" x2="-0.998" y2="0.644" xlink:href="#linear-gradient"/>
    <clipPath id="clip-path-6">
      <path id="Trazado_1052271" data-name="Trazado 1052271" d="M5.57,224.78c-7.659,42.163-6.638,56.089-1.647,60.467,3.256,2.857,20.291.2,40.135-2.458,15.665-2.1,33.08-4.2,46.85-3.582,7.221.322,191.717.322,198.937,0,13.77-.614,31.185,1.484,46.849,3.582,19.844,2.657,36.879,5.314,40.135,2.458,5.132-4.5,6.066-19.1-2.313-64.091-1.693,2.958-14.547,22.321-61.4,23.858-61.881,2.03-182.35,2.03-244.23,0-50.738-1.665-61.6-24.238-61.6-24.238s-.633,1.475-1.713,4" transform="translate(0 -220.776)" fill="none"/>
    </clipPath>
    <linearGradient id="linear-gradient-3" x1="-2.125" y1="0.583" x2="-2.112" y2="0.583" gradientUnits="objectBoundingBox">
      <stop offset="0" stop-color="#f69ca3"/>
      <stop offset="1" stop-color="#c5616d"/>
    </linearGradient>
    <clipPath id="clip-path-7">
      <path id="Trazado_1052272" data-name="Trazado 1052272" d="M312.986,280.019c28.273,2.537,59.325,9.191,63.843,5.227,4.487-3.935,5.765-15.59.414-48.533-13.647,18.894-40.182,34.9-64.257,43.306M5.57,224.78c-7.659,42.163-6.638,56.089-1.647,60.467,3.256,2.857,20.291.2,40.135-2.458,15.665-2.1,33.08-4.2,46.85-3.582.719.033,3.222.061,7.11.086-16.964-5.206-31.677-7.133-53.208-14.517-20.7-7.1-30.971-28.707-35.181-40.623a18.661,18.661,0,0,1-2.346-3.378s-.633,1.475-1.713,4" transform="translate(0 -220.776)" fill="none"/>
    </clipPath>
    <linearGradient id="linear-gradient-4" x1="0.011" y1="0.82" x2="0.013" y2="0.82" xlink:href="#linear-gradient-3"/>
    <clipPath id="clip-path-9">
      <path id="Trazado_1052282" data-name="Trazado 1052282" d="M68.413,204.341c-2.741,11.426-5.032,20.981-7.011,28.077,0,0,19.723.648,25.879.3,1.567-6.124,3.417-13.834,5.513-22.577C105.481,157.245,115.116,52,145.266,16.129L147.4,6.783C109.06,46.4,81.713,148.885,68.413,204.341" transform="translate(-61.402 -6.783)" fill="none"/>
    </clipPath>
    <linearGradient id="linear-gradient-5" x1="-0.28" y1="1.141" x2="-0.273" y2="1.141" gradientUnits="objectBoundingBox">
      <stop offset="0" stop-color="#f69ca3"/>
      <stop offset="0.56" stop-color="#f8b1b6"/>
      <stop offset="1" stop-color="#d2717b"/>
    </linearGradient>
    <clipPath id="clip-path-11">
      <path id="Trazado_1052287" data-name="Trazado 1052287" d="M235.015,13.63c32.565,30.345,42.35,141.159,55.648,196.6,2.1,8.743,3.946,16.452,5.513,22.577,6.156.348,25.879-.3,25.879-.3-1.977-7.1-4.27-16.651-7.011-28.077C301.2,146.713,276.67,44.461,235.466,8.237Z" transform="translate(-235.015 -8.237)" fill="none"/>
    </clipPath>
    <linearGradient id="linear-gradient-6" x1="-1.545" y1="1.141" x2="-1.538" y2="1.141" xlink:href="#linear-gradient-5"/>
    <clipPath id="clip-path-13">
      <path id="Trazado_1052292" data-name="Trazado 1052292" d="M177,0c-13.469,0-21.221,1.2-24.912,7.358s-7.749,15.911-5.35,16.6c1.978.564,33.579-.384,44.592-.734,11.012.35,42.614,1.3,44.592.734,2.4-.686-1.66-10.438-5.35-16.6S219.136,0,205.665,0Z" transform="translate(-146.022)" fill="none"/>
    </clipPath>
    <linearGradient id="linear-gradient-7" x1="-6.263" y1="3.251" x2="-6.229" y2="3.251" gradientUnits="objectBoundingBox">
      <stop offset="0" stop-color="#4a1348"/>
      <stop offset="0.33" stop-color="#5a2259"/>
      <stop offset="1"/>
    </linearGradient>
    <clipPath id="clip-path-15">
      <path id="Trazado_1052294" data-name="Trazado 1052294" d="M118.481,96.73s16.787-30.85,18.868-41.359,2.393-15.4,3.433-22.266a24.467,24.467,0,0,1,2.707-8.5C124.281,53.877,118.481,96.73,118.481,96.73m25.007-72.125q.4-.617.817-1.224a8.4,8.4,0,0,0-.817,1.224" transform="translate(-118.481 -23.381)" fill="none"/>
    </clipPath>
    <linearGradient id="linear-gradient-8" x1="-2.538" y1="3.272" x2="-2.515" y2="3.272" xlink:href="#linear-gradient-5"/>
    <clipPath id="clip-path-16">
      <path id="Trazado_1052295" data-name="Trazado 1052295" d="M246.784,33.1c1.042,6.867,1.353,11.757,3.435,22.266S269.084,96.73,269.084,96.73s-5.8-42.854-25.006-72.125a24.468,24.468,0,0,1,2.7,8.5m-2.7-8.5a8.4,8.4,0,0,0-.817-1.224c.275.406.546.813.817,1.224" transform="translate(-243.262 -23.381)" fill="none"/>
    </clipPath>
    <linearGradient id="linear-gradient-9" x1="-2.62" y1="5.745" x2="-2.608" y2="5.745" xlink:href="#linear-gradient-5"/>
    <clipPath id="clip-path-18">
      <rect id="Rectángulo_410266" data-name="Rectángulo 410266" width="55.138" height="73.23" fill="none"/>
    </clipPath>
    <clipPath id="clip-path-19">
      <rect id="Rectángulo_410267" data-name="Rectángulo 410267" width="55.137" height="73.23" fill="none"/>
    </clipPath>
    <clipPath id="clip-path-20">
      <rect id="Rectángulo_410268" data-name="Rectángulo 410268" width="37.164" height="43.524" fill="none"/>
    </clipPath>
    <clipPath id="clip-path-22">
      <rect id="Rectángulo_410270" data-name="Rectángulo 410270" width="168.755" height="50.015" fill="none"/>
    </clipPath>
  </defs>
  <g id="Grupo_1185843" data-name="Grupo 1185843" clip-path="url(#clip-path)">
    <g id="Grupo_1185797" data-name="Grupo 1185797" transform="translate(0 87.01)">
      <g id="Grupo_1185796" data-name="Grupo 1185796" clip-path="url(#clip-path-2)">
        <rect id="Rectángulo_410247" data-name="Rectángulo 410247" width="203.345" height="393.67" transform="translate(-11.01 185.065) rotate(-87.312)" fill="url(#linear-gradient)"/>
      </g>
    </g>
    <g id="Grupo_1185799" data-name="Grupo 1185799">
      <g id="Grupo_1185798" data-name="Grupo 1185798" clip-path="url(#clip-path)">
        <path id="Trazado_1052264" data-name="Trazado 1052264" d="M102.945,145.419s86.091,4.571,112.38,3.961,60.461-2.741,61.119-.3a19.607,19.607,0,0,1,.657,4.568s-37.9,1.826-80.615,1.522-93.979-3.654-93.979-3.654Z" transform="translate(-6.498 -9.218)" fill="#1b0c18" fill-rule="evenodd"/>
        <path id="Trazado_1052265" data-name="Trazado 1052265" d="M102.945,154.084s86.091,3.122,112.38,2.706,60.461-1.873,61.119-.209a9.447,9.447,0,0,1,.657,3.122s-37.9,1.248-80.615,1.04-93.979-2.5-93.979-2.5Z" transform="translate(-6.498 -9.767)" fill="#582d50" fill-rule="evenodd"/>
        <path id="Trazado_1052266" data-name="Trazado 1052266" d="M107.59,140.531s81.781,3.123,106.753,2.706,57.436-1.873,58.06-.209a9.878,9.878,0,0,1,.625,3.123s-36,1.247-76.58,1.04-89.274-2.5-89.274-2.5Z" transform="translate(-6.794 -8.908)" fill="#582d50" fill-rule="evenodd"/>
        <path id="Trazado_1052267" data-name="Trazado 1052267" d="M47.661,117.709c16-14.4,39.132-22.544,74.151-23.613,52.329-1.6,90.843-1.6,143.172,0,34.805,1.062,57.873,9.113,73.857,23.347l-.063.288s-16.558-10.088-35.911-10.3c-12.2-.13-59.386-.1-92.6-.053l-.006.053s-6.7-.014-17.047-.029h-.034l-17.046.029-.006-.053c-33.21-.043-80.395-.077-92.6.053-18.833.2-35.017,9.76-35.873,10.274" transform="translate(-3.021 -5.889)" fill="#73416b" fill-rule="evenodd"/>
        <path id="Trazado_1052268" data-name="Trazado 1052268" d="M85.072,104.789s21.851-2.912,43.908-3.538,149.206-.834,160.235.832,23.723,3.121,23.723,3.121-21.5-6-57.858-9.075c-45.644-3.864-112.9-3.967-170.009,8.66" transform="translate(-5.393 -5.948)" fill="#1b0c18" fill-rule="evenodd"/>
      </g>
    </g>
    <g id="Grupo_1185801" data-name="Grupo 1185801" transform="translate(0 158.779)">
      <g id="Grupo_1185800" data-name="Grupo 1185800" clip-path="url(#clip-path-4)">
        <rect id="Rectángulo_410249" data-name="Rectángulo 410249" width="126.36" height="388.139" transform="matrix(0.029, -1, 1, 0.029, -5.638, 115.234)" fill="url(#linear-gradient-2)"/>
      </g>
    </g>
    <g id="Grupo_1185803" data-name="Grupo 1185803">
      <g id="Grupo_1185802" data-name="Grupo 1185802" clip-path="url(#clip-path)">
        <path id="Trazado_1052270" data-name="Trazado 1052270" d="M4.641,229.1c1.5-8.748,3.42-18.856,5.818-30.547,1.348-6.568,2.784-12.844,4.367-18.816-.02.163-3.432,29.142,10.679,42.424,14.151,13.318,32.463,14.566,48.279,14.566s71.376,1.042,103.839,1.457,118.615,2.7,138.175-1.457,52.884-13.948,56.2-32.674c2.329,11.6,4.155,21.537,5.539,30.055h0s-11.795,12.815-20.119,14.9S127.3,259.5,127.3,259.5s-69.123-.5-72.452-2.169c-2.829-1.414-39.3-22.052-50.205-28.229" transform="translate(-0.294 -11.394)" fill="#2c1528" fill-rule="evenodd"/>
      </g>
    </g>
    <g id="Grupo_1185805" data-name="Grupo 1185805" transform="translate(0 206.781)">
      <g id="Grupo_1185804" data-name="Grupo 1185804" clip-path="url(#clip-path-6)">
        <rect id="Rectángulo_410251" data-name="Rectángulo 410251" width="72.545" height="385.863" transform="translate(-3.002 67.315) rotate(-89.223)" fill="url(#linear-gradient-3)"/>
      </g>
    </g>
    <g id="Grupo_1185807" data-name="Grupo 1185807" transform="translate(0 206.781)">
      <g id="Grupo_1185806" data-name="Grupo 1185806" clip-path="url(#clip-path-7)">
        <rect id="Rectángulo_410252" data-name="Rectángulo 410252" width="388.872" height="98.465" transform="translate(-7.452 0.423) rotate(-4.509)" fill="url(#linear-gradient-4)"/>
      </g>
    </g>
    <g id="Grupo_1185809" data-name="Grupo 1185809">
      <g id="Grupo_1185808" data-name="Grupo 1185808" clip-path="url(#clip-path)">
        <path id="Trazado_1052273" data-name="Trazado 1052273" d="M7.626,235.14a1.567,1.567,0,1,1,2.9-1.191c.007.019,2.816,6.837,13.643,11.666,19.264,8.593,94.717,7.572,140.539,6.951,11.258-.153,20.734-.28,27.179-.235,6.446-.045,15.922.082,27.179.236,45.822.62,121.273,1.642,140.537-6.952,10.826-4.829,13.635-11.648,13.643-11.666a1.568,1.568,0,1,1,2.9,1.191c-.008.022-3.293,8-15.265,13.338-19.891,8.873-95.77,7.845-141.853,7.222-11.252-.153-20.723-.281-27.136-.237h-.013c-6.413-.044-15.883.084-27.135.236-46.082.624-121.963,1.652-141.854-7.221-11.971-5.34-15.256-13.316-15.264-13.338" transform="translate(-0.476 -14.768)" fill="#a54853" fill-rule="evenodd"/>
        <path id="Trazado_1052274" data-name="Trazado 1052274" d="M198.773,254.244h1.6a.691.691,0,0,1,.689.689v1.246a.691.691,0,0,1-.689.689h-1.6a.692.692,0,0,1-.69-.689v-1.246a.692.692,0,0,1,.69-.689" transform="translate(-12.556 -16.116)" fill="#666" fill-rule="evenodd"/>
        <path id="Trazado_1052275" data-name="Trazado 1052275" d="M197.37,261.8c-.742-.887,1.217-5.767,1.217-5.767h1.864s1.958,4.88,1.217,5.767c-.506.605-3.791.605-4.3,0m2.149-3.511a1.57,1.57,0,1,0,1.207,1.528,1.4,1.4,0,0,0-1.207-1.528" transform="translate(-12.501 -16.23)" fill="#4d4d4d" fill-rule="evenodd"/>
        <path id="Trazado_1052276" data-name="Trazado 1052276" d="M199.581,258.242a1.278,1.278,0,0,1,1,.519,2.008,2.008,0,0,1,0,2.39,1.222,1.222,0,0,1-2,0,2.012,2.012,0,0,1,0-2.39,1.279,1.279,0,0,1,1-.519m.708.748a.855.855,0,0,0-1.416,0,1.645,1.645,0,0,0,0,1.93.855.855,0,0,0,1.417,0,1.647,1.647,0,0,0,0-1.93" transform="translate(-12.563 -16.37)" fill="#4d4d4d" fill-rule="evenodd"/>
        <rect id="Rectángulo_410253" data-name="Rectángulo 410253" width="0.728" height="2.402" transform="translate(186.654 238.62)" fill="#989898"/>
        <path id="Trazado_1052277" data-name="Trazado 1052277" d="M204.064,254.244h1.6a.692.692,0,0,1,.69.689v1.246a.692.692,0,0,1-.69.689h-1.6a.692.692,0,0,1-.69-.689v-1.246a.692.692,0,0,1,.69-.689" transform="translate(-12.892 -16.116)" fill="#666" fill-rule="evenodd"/>
        <path id="Trazado_1052278" data-name="Trazado 1052278" d="M202.662,261.8c-.742-.887,1.217-5.767,1.217-5.767h1.863s1.958,4.88,1.218,5.767c-.507.605-3.791.605-4.3,0m2.149-3.511a1.57,1.57,0,1,0,1.206,1.528,1.4,1.4,0,0,0-1.206-1.528" transform="translate(-12.836 -16.23)" fill="#4d4d4d" fill-rule="evenodd"/>
        <path id="Trazado_1052279" data-name="Trazado 1052279" d="M204.872,258.242a1.279,1.279,0,0,1,1,.519,2.008,2.008,0,0,1,0,2.39,1.222,1.222,0,0,1-2,0,2.008,2.008,0,0,1,0-2.39,1.279,1.279,0,0,1,1-.519m.708.748a.855.855,0,0,0-1.416,0,1.641,1.641,0,0,0,0,1.93.854.854,0,0,0,1.416,0,1.645,1.645,0,0,0,0-1.93" transform="translate(-12.898 -16.37)" fill="#4d4d4d" fill-rule="evenodd"/>
        <rect id="Rectángulo_410254" data-name="Rectángulo 410254" width="0.727" height="2.402" transform="translate(191.61 238.62)" fill="#989898"/>
        <path id="Trazado_1052280" data-name="Trazado 1052280" d="M94.986,273.532s45.366,3.121,73.25,3.954,114.037-1.458,132.974-2.706,9.78-7.908-.417-9.78-91.146,2.914-133.181,1.041-95.309-3.122-72.627,7.491" transform="translate(-5.678 -16.77)" fill="#f497a1" fill-rule="evenodd"/>
        <path id="Trazado_1052281" data-name="Trazado 1052281" d="M7.482,221.419l.274-.643s10.867,22.573,61.6,24.238c61.88,2.03,182.35,2.03,244.23,0,22.333-.732,36.936-5.516,46.293-10.641a60.26,60.26,0,0,1-17.122,8.452c-18,5.2-57.539,4.371-67.007,4.267s-119.656.1-131.622.626-66.58-2.456-76.892-1.769-21.434-1.353-38.5-6.139a32.768,32.768,0,0,1-21.26-18.39" transform="translate(-0.474 -13.995)" fill="#1b0c18" fill-rule="evenodd"/>
      </g>
    </g>
    <g id="Grupo_1185811" data-name="Grupo 1185811" transform="translate(57.51 6.353)">
      <g id="Grupo_1185810" data-name="Grupo 1185810" clip-path="url(#clip-path-9)">
        <rect id="Rectángulo_410256" data-name="Rectángulo 410256" width="128.842" height="238.781" transform="translate(-43.655 8.761) rotate(-11.348)" fill="url(#linear-gradient-5)"/>
      </g>
    </g>
    <g id="Grupo_1185813" data-name="Grupo 1185813">
      <g id="Grupo_1185812" data-name="Grupo 1185812" clip-path="url(#clip-path)">
        <path id="Trazado_1052283" data-name="Trazado 1052283" d="M66.776,213.444q.951-3.928,1.978-8.227C80.908,154.544,101.347,69.55,134.023,25.039c-9.5,14.024-25.075,48.459-28.435,57.549s-21.118,63.886-23.2,73.771C80.318,166.2,66.9,213.03,66.776,213.444M136.93,21.158c.151-.19.3-.369.456-.557-.138.184-.287.368-.456.557" transform="translate(-4.233 -1.306)" fill="#a54853" fill-rule="evenodd"/>
        <path id="Trazado_1052284" data-name="Trazado 1052284" d="M98.978,115.653l-.036,0a3.022,3.022,0,0,0-2.386.614.629.629,0,0,0,.82.955,1.43,1.43,0,0,1,.205-.142,1.937,1.937,0,0,1,1.229-.176l2.494.333a.629.629,0,0,0,.168-1.247Zm-2.669,4.7a.629.629,0,0,0-1.227-.28c-.143.793-.387,1.649-.57,2.443a.629.629,0,1,0,1.223.3c.194-.776.433-1.679.574-2.459m-1.514,6.135a.629.629,0,0,0-1.213-.332,23.8,23.8,0,0,1-.709,2.379.629.629,0,0,0,1.193.4c.269-.806.5-1.625.729-2.445m-1.554,5.783a.63.63,0,0,0-1.245.191,3.184,3.184,0,0,0,.335,1.033,2.853,2.853,0,0,0,.378.532l-.008-.008.041.043-.022-.023.056.058-.021-.021.057.056-.023-.023.027.026-.015-.013.1.087-.021-.019.069.057-.041-.033.066.05-.092-.076.1.078-.094-.073.092.076.074.044-.05-.037.333.1-.17-.023.112.021-.052-.007.055.007-.026,0,.053.008H93.3l.845.133a.63.63,0,0,0,.195-1.244c-.229-.043-.487-.083-.726-.116l-.095-.121.008.012-.054-.083.006.009a1.832,1.832,0,0,1-.143-.3,2.207,2.207,0,0,1-.1-.4m-.252,2,.018.014Zm.7-1.037-.01-.008Zm4.382.624a.629.629,0,0,0-.2,1.243l2.485.391a.628.628,0,0,0,.2-1.241Zm6.214.983a.63.63,0,0,0-.2,1.244c.26.034.527.085.788.125l.2-1.242c-.254-.046-.537-.094-.791-.127m3.819-2.251a.629.629,0,0,0,1.222.3c.188-.81.4-1.628.6-2.437a.63.63,0,0,0-1.219-.313c-.2.814-.417,1.634-.605,2.449m1.559-6.11a.629.629,0,0,0,1.214.329c.2-.806.459-1.607.678-2.408a.629.629,0,0,0-1.206-.357c-.245.781-.487,1.644-.686,2.436m1.679-5.978a.629.629,0,0,0,1.246.177c0-.349.072-.632.042-1.026a2.37,2.37,0,0,0-1.01-1.851.629.629,0,0,0-.718,1.033l.133.108.075.079a1.1,1.1,0,0,1,.158.253l.013.034a2.766,2.766,0,0,1,.061,1.193m-3.8-2.438a.629.629,0,0,0,.168-1.248l-2.494-.333a.629.629,0,0,0-.169,1.247Z" transform="translate(-5.831 -7.329)" fill="#a54853" fill-rule="evenodd"/>
        <path id="Trazado_1052285" data-name="Trazado 1052285" d="M99.44,117.881a.629.629,0,0,0-1.121.569l1.129-.555c.377.734.739,1.511,1.108,2.259a.629.629,0,0,1-1.129.556c-.359-.725-.783-1.518-1.1-2.25l.008.016-.013-.027,1.127-.554.022.045Zm7.011,17.545a.629.629,0,0,0,1.2-.381l-.017-.05a.63.63,0,0,0-1.192.4Zm-1.544-3.4a.629.629,0,0,0,1.136-.54l-1.086-2.275a.629.629,0,0,0-1.133.548c.366.751.727,1.511,1.083,2.268m-2.725-5.667a.629.629,0,0,0,1.132-.547c-.361-.751-.723-1.523-1.1-2.265a.629.629,0,0,0-1.13.55Z" transform="translate(-6.228 -7.451)" fill="#a54853" fill-rule="evenodd"/>
        <path id="Trazado_1052286" data-name="Trazado 1052286" d="M109.074,119.87a.629.629,0,0,1,.737,1.019l-.75-1.01c-.672.481-1.348,1.007-2.018,1.5a.629.629,0,0,0,.751,1.01c.649-.48,1.39-.994,2.008-1.5l-.016.01.025-.019-.75-1.009-.038.031Zm-14.25,12.407a.629.629,0,0,1-.893-.886l.037-.037a.63.63,0,0,1,.876.9Zm2.926-2.317a.629.629,0,0,1-.764-1l2-1.529a.629.629,0,0,1,.759,1c-.669.5-1.337,1.012-2,1.523m5.012-3.8a.629.629,0,0,1-.758-1c.664-.5,1.339-1.024,2.014-1.512a.63.63,0,0,1,.756,1.007Z" transform="translate(-5.942 -7.591)" fill="#a54853" fill-rule="evenodd"/>
      </g>
    </g>
    <g id="Grupo_1185815" data-name="Grupo 1185815" transform="translate(220.118 7.715)">
      <g id="Grupo_1185814" data-name="Grupo 1185814" clip-path="url(#clip-path-11)">
        <rect id="Rectángulo_410258" data-name="Rectángulo 410258" width="128.891" height="237.507" transform="translate(-42.674 8.411) rotate(-11.15)" fill="url(#linear-gradient-6)"/>
      </g>
    </g>
    <g id="Grupo_1185817" data-name="Grupo 1185817">
      <g id="Grupo_1185816" data-name="Grupo 1185816" clip-path="url(#clip-path)">
        <path id="Trazado_1052288" data-name="Trazado 1052288" d="M317.793,213.444q-.95-3.928-1.977-8.227c-12.153-50.673-32.545-135.661-65.222-180.173,9.5,14.024,25.207,48.937,28.387,57.543,3.538,9.572,21.119,63.886,23.2,73.771,2.071,9.842,15.494,56.671,15.613,57.085M247.64,21.158c-.151-.19-.305-.369-.456-.557.138.184.286.368.456.557" transform="translate(-15.669 -1.306)" fill="#a54853" fill-rule="evenodd"/>
        <path id="Trazado_1052289" data-name="Trazado 1052289" d="M288.4,115.653l.036,0a3.022,3.022,0,0,1,2.386.614.629.629,0,0,1-.82.955,1.429,1.429,0,0,0-.205-.142,1.938,1.938,0,0,0-1.23-.176l-2.494.333a.629.629,0,0,1-.167-1.247Zm2.669,4.7a.629.629,0,0,1,1.227-.28c.143.793.388,1.649.57,2.443a.629.629,0,1,1-1.223.3c-.194-.776-.433-1.679-.574-2.459m1.514,6.135a.629.629,0,0,1,1.213-.332,23.8,23.8,0,0,0,.709,2.379.629.629,0,0,1-1.194.4c-.269-.806-.5-1.625-.728-2.445m1.554,5.783a.63.63,0,0,1,1.245.191,3.184,3.184,0,0,1-.335,1.033,2.809,2.809,0,0,1-.378.532l.008-.008-.041.043.022-.023-.056.058.021-.021-.057.056.023-.023-.026.026.014-.013-.1.087.022-.019-.071.057.042-.033-.066.05.092-.076-.1.078.094-.073-.092.076-.074.044.05-.037-.332.1.17-.023-.113.021.052-.007-.054.007.026,0-.053.008h.007l-.845.133a.63.63,0,0,1-.195-1.244c.228-.043.487-.083.726-.116l.094-.121-.008.012.054-.083-.006.009a1.831,1.831,0,0,0,.143-.3,2.284,2.284,0,0,0,.1-.4m.252,2-.018.014Zm-.7-1.037.009-.008Zm-4.383.624a.629.629,0,0,1,.2,1.243l-2.484.391a.629.629,0,0,1-.2-1.241Zm-6.214.983a.63.63,0,0,1,.2,1.244c-.259.034-.527.085-.788.125l-.2-1.242c.255-.046.537-.094.791-.127m-3.819-2.251a.629.629,0,0,1-1.221.3c-.187-.81-.4-1.628-.6-2.437a.63.63,0,0,1,1.219-.313c.2.814.416,1.634.6,2.449m-1.558-6.11a.629.629,0,0,1-1.215.329c-.2-.806-.459-1.607-.677-2.408a.629.629,0,0,1,1.206-.357c.245.781.488,1.644.686,2.436m-1.679-5.978a.629.629,0,0,1-1.246.177c0-.349-.072-.632-.042-1.026a2.37,2.37,0,0,1,1.01-1.851.629.629,0,0,1,.718,1.033l-.133.108-.076.079a1.125,1.125,0,0,0-.157.253l-.014.034a2.781,2.781,0,0,0-.06,1.193m3.8-2.438a.629.629,0,0,1-.168-1.248l2.5-.333a.629.629,0,0,1,.167,1.247Z" transform="translate(-17.416 -7.329)" fill="#a54853" fill-rule="evenodd"/>
        <path id="Trazado_1052290" data-name="Trazado 1052290" d="M288.7,117.881a.629.629,0,0,1,1.121.569l-1.129-.555c-.377.734-.739,1.511-1.108,2.259a.629.629,0,0,0,1.129.556c.358-.725.783-1.518,1.1-2.25l-.008.016.013-.027-1.128-.554-.021.045Zm-7.011,17.545a.629.629,0,0,1-1.2-.381l.016-.05a.63.63,0,0,1,1.192.4Zm1.544-3.4a.629.629,0,0,1-1.136-.54l1.086-2.275a.629.629,0,0,1,1.133.548c-.366.751-.727,1.511-1.083,2.268m2.725-5.667a.629.629,0,0,1-1.132-.547c.36-.751.724-1.523,1.1-2.265a.629.629,0,0,1,1.131.55Z" transform="translate(-17.778 -7.451)" fill="#a54853" fill-rule="evenodd"/>
        <path id="Trazado_1052291" data-name="Trazado 1052291" d="M278.6,119.87a.629.629,0,0,0-.737,1.019l.75-1.01c.672.481,1.347,1.007,2.017,1.5a.629.629,0,0,1-.75,1.011c-.649-.48-1.39-.994-2.008-1.5l.014.01-.023-.019.749-1.009.039.031Zm14.249,12.408a.63.63,0,0,0,.894-.887l-.037-.037a.629.629,0,0,0-.876.9Zm-2.925-2.317a.629.629,0,0,0,.764-1l-2.005-1.529a.629.629,0,0,0-.759,1c.67.5,1.337,1.012,2,1.524m-5.012-3.8a.629.629,0,0,0,.757-1c-.664-.5-1.338-1.024-2.013-1.512a.63.63,0,0,0-.756,1.007Z" transform="translate(-17.597 -7.591)" fill="#a54853" fill-rule="evenodd"/>
      </g>
    </g>
    <g id="Grupo_1185819" data-name="Grupo 1185819" transform="translate(136.766)">
      <g id="Grupo_1185818" data-name="Grupo 1185818" clip-path="url(#clip-path-13)">
        <rect id="Rectángulo_410260" data-name="Rectángulo 410260" width="26.921" height="94.579" transform="matrix(0.026, -1, 1, 0.026, -2.307, 24.502)" fill="url(#linear-gradient-7)"/>
      </g>
    </g>
    <g id="Grupo_1185821" data-name="Grupo 1185821">
      <g id="Grupo_1185820" data-name="Grupo 1185820" clip-path="url(#clip-path)">
        <path id="Trazado_1052293" data-name="Trazado 1052293" d="M191.334,23.3c-11.013.349-42.614,1.3-44.592.733-2.4-.685,1.66-10.437,5.35-16.6.211-.352.436-.686.672-1.006l9.142-5.23c-.12.052-8.191,3.659-8.088,11.612.1,8.011,26.74,7.491,42.244,7.491s32.889-.631,33.7-6.749c.635-4.788-3.222-9.162-7.024-11.835a12.947,12.947,0,0,1,7.835,5.717c3.691,6.159,7.75,15.911,5.351,16.6-1.978.565-33.58-.384-44.592-.733" transform="translate(-9.256 -0.076)" fill="#251121" fill-rule="evenodd"/>
      </g>
    </g>
    <g id="Grupo_1185823" data-name="Grupo 1185823" transform="translate(110.971 21.899)">
      <g id="Grupo_1185822" data-name="Grupo 1185822" clip-path="url(#clip-path-15)">
        <rect id="Rectángulo_410262" data-name="Rectángulo 410262" width="40.784" height="77.156" transform="translate(-15.193 3.295) rotate(-12.237)" fill="url(#linear-gradient-8)"/>
      </g>
    </g>
    <g id="Grupo_1185825" data-name="Grupo 1185825" transform="translate(227.842 21.899)">
      <g id="Grupo_1185824" data-name="Grupo 1185824" clip-path="url(#clip-path-16)">
        <rect id="Rectángulo_410263" data-name="Rectángulo 410263" width="77.155" height="40.782" transform="translate(-15.193 70.054) rotate(-77.763)" fill="url(#linear-gradient-9)"/>
      </g>
    </g>
    <g id="Grupo_1185842" data-name="Grupo 1185842">
      <g id="Grupo_1185841" data-name="Grupo 1185841" clip-path="url(#clip-path)">
        <path id="Trazado_1052296" data-name="Trazado 1052296" d="M132.016,95.879h4.959a2.142,2.142,0,0,1,2.136,2.136v3.853A2.142,2.142,0,0,1,136.976,104h-4.959a2.142,2.142,0,0,1-2.136-2.135V98.015a2.142,2.142,0,0,1,2.136-2.136" transform="translate(-8.233 -6.078)" fill="#b2b2b2" fill-rule="evenodd"/>
        <path id="Trazado_1052297" data-name="Trazado 1052297" d="M130.231,119.612c-1.246-1.491,2.431-18.989,2.431-18.989h3.723s3.913,17.217,2.431,18.989c-1.011,1.208-7.34,1.491-8.586,0" transform="translate(-8.239 -6.378)" fill="#33333d" fill-rule="evenodd"/>
        <rect id="Rectángulo_410264" data-name="Rectángulo 410264" width="2.251" height="7.439" transform="translate(125.139 91.328)" fill="#989898"/>
        <path id="Trazado_1052298" data-name="Trazado 1052298" d="M268.464,148.306h3.511a1.517,1.517,0,0,1,1.513,1.512v2.728a1.517,1.517,0,0,1-1.513,1.513h-3.511a1.516,1.516,0,0,1-1.512-1.513v-2.728a1.515,1.515,0,0,1,1.512-1.512" transform="translate(-16.922 -9.401)" fill="#b2b2b2" fill-rule="evenodd"/>
        <path id="Trazado_1052299" data-name="Trazado 1052299" d="M267.762,163.914c-.731-.874,1.426-11.14,1.426-11.14h2.184s2.3,10.1,1.426,11.14c-.593.71-4.306.875-5.037,0" transform="translate(-16.964 -9.684)" fill="#33333d" fill-rule="evenodd"/>
        <rect id="Rectángulo_410265" data-name="Rectángulo 410265" width="1.593" height="5.267" transform="translate(252.501 139.985)" fill="#989898"/>
        <g id="Grupo_1185828" data-name="Grupo 1185828" transform="translate(26.615 109.741)" opacity="0.5">
          <g id="Grupo_1185827" data-name="Grupo 1185827">
            <g id="Grupo_1185826" data-name="Grupo 1185826" clip-path="url(#clip-path-18)">
              <path id="Trazado_1052300" data-name="Trazado 1052300" d="M29.5,155.85S41.15,134,53.844,124.22s32.671-8.948,29.341-.208S64.457,154.6,60.919,168.544s-7.491,22.057-11.237,21.85S23.253,165.63,29.5,155.85" transform="translate(-28.416 -117.168)" fill="#532a4c" fill-rule="evenodd"/>
            </g>
          </g>
        </g>
        <g id="Grupo_1185831" data-name="Grupo 1185831" transform="translate(300.255 109.741)" opacity="0.5">
          <g id="Grupo_1185830" data-name="Grupo 1185830">
            <g id="Grupo_1185829" data-name="Grupo 1185829" clip-path="url(#clip-path-19)">
              <path id="Trazado_1052301" data-name="Trazado 1052301" d="M374.633,155.85S362.98,134,350.286,124.22s-32.671-8.948-29.342-.208,18.729,30.589,22.267,44.532,7.491,22.057,11.236,21.85,26.428-24.764,20.186-34.544" transform="translate(-320.576 -117.168)" fill="#52294b" fill-rule="evenodd"/>
            </g>
          </g>
        </g>
        <g id="Grupo_1185834" data-name="Grupo 1185834" transform="translate(309.116 117.675)" opacity="0.5">
          <g id="Grupo_1185833" data-name="Grupo 1185833">
            <g id="Grupo_1185832" data-name="Grupo 1185832" clip-path="url(#clip-path-20)">
              <path id="Trazado_1052302" data-name="Trazado 1052302" d="M366.152,146.176s-8.932-12.6-17.557-17.645-20.915-2.957-18.167,2.187,14,17.443,17.288,25.79,6.374,13.053,8.675,12.629,14.394-17.4,9.76-22.961" transform="translate(-330.037 -125.639)" fill="#572d50" fill-rule="evenodd"/>
            </g>
          </g>
        </g>
        <g id="Grupo_1185837" data-name="Grupo 1185837" transform="translate(37.218 117.675)" opacity="0.5">
          <g id="Grupo_1185836" data-name="Grupo 1185836">
            <g id="Grupo_1185835" data-name="Grupo 1185835" clip-path="url(#clip-path-20)">
              <path id="Trazado_1052303" data-name="Trazado 1052303" d="M40.785,146.176s8.932-12.6,17.557-17.645,20.915-2.957,18.166,2.187-14,17.443-17.288,25.79-6.374,13.053-8.675,12.629-14.394-17.4-9.76-22.961" transform="translate(-39.737 -125.639)" fill="#613359" fill-rule="evenodd"/>
            </g>
          </g>
        </g>
        <g id="Grupo_1185840" data-name="Grupo 1185840" transform="translate(97.565 158.389)" opacity="0.5">
          <g id="Grupo_1185839" data-name="Grupo 1185839">
            <g id="Grupo_1185838" data-name="Grupo 1185838" clip-path="url(#clip-path-22)">
              <path id="Trazado_1052304" data-name="Trazado 1052304" d="M104.218,213.452s4.37-36.625,14.983-41.2,39.746-1.04,64.926-1.248c22.263-.185,69.563-9.354,79.581,14.409,4.614,10.942,10.2,26.793,9.069,30.748-1.665,5.826-24.14,1.456-64.927.416s-105.713,2.081-103.632-3.121" transform="translate(-104.168 -169.109)" fill="#532a4c" fill-rule="evenodd"/>
            </g>
          </g>
        </g>
        <path id="Trazado_1052305" data-name="Trazado 1052305" d="M160.039,111.979c5.827,0,72.627-1.04,85.944-.624s15.4,3.954,15.607,9.156-4.37,1.457-30.174-1.248-68.255-.417-75.332-1.249-16.412-5.511,3.954-6.035" transform="translate(-9.361 -7.053)" fill="#66375e" fill-rule="evenodd"/>
      </g>
    </g>
  </g>
</svg>
