<svg xmlns="http://www.w3.org/2000/svg" xmlns:xlink="http://www.w3.org/1999/xlink" width="445.107" height="287.744" viewBox="0 0 445.107 287.744">
  <defs>
    <clipPath id="clip-path">
      <rect id="Rectángulo_410277" data-name="Rectángulo 410277" width="445.107" height="287.745" fill="none"/>
    </clipPath>
  </defs>
  <g id="Grupo_1185852" data-name="Grupo 1185852" transform="translate(0 -0.003)">
    <g id="Grupo_1185851" data-name="Grupo 1185851" transform="translate(0 0.003)" clip-path="url(#clip-path)">
      <path id="Trazado_1053240" data-name="Trazado 1053240" d="M528.224,596.337a8.406,8.406,0,0,0,.922,9.954,9.637,9.637,0,0,0,9.873,2.5,9.463,9.463,0,0,0,5.7-4.957,8.142,8.142,0,0,0-.359-7.459c-3.343-5.479-12.714-5.248-16.139-.034" transform="translate(-386.498 -434.42)" fill="#b9a15b"/>
      <path id="Trazado_1053241" data-name="Trazado 1053241" d="M1330.865,222.657c-4.774-3.526-12.721-2.76-14.4,3.784a8.737,8.737,0,0,0,4.8,9.758,9.511,9.511,0,0,0,10.755-2.434,7.834,7.834,0,0,0,2.068-5.215,7.688,7.688,0,0,0-3.221-5.893" transform="translate(-965.312 -161.771)" fill="#b9a15b"/>
      <path id="Trazado_1053242" data-name="Trazado 1053242" d="M762.723,285.472c-4.306-18.315-13.108-36.237-27.687-56.391a1.306,1.306,0,0,0-.088-.122c-.142-.21-.285-.414-.441-.617-.027-.041-.061-.081-.088-.122-4.1-5.642-8.653-11.46-14.308-18.309l-.129.109-.129.109c.047.054.095.115.142.17.027.468.034.942.034,1.411-.027,9.581-5.371,22.147-14.314,26.385-3.12,1.485-6.212,3.045-9.317,4.564q-17.434,8.544-34.875,17.081-24.188,11.84-48.376,23.686l-52.1,25.51q-23.018,11.27-46.043,22.547-15.1,7.394-30.209,14.8-3.255,1.586-6.51,3.187c-7.466,3.655-14.993,7.147-23.3,6.863a38.316,38.316,0,0,1-19.2-6.015c-.021-.061-.041-.129-.061-.2l-.163.054-.163.054c1.39,4.279,2.475,7.561,3.513,10.653v.007l.095.278c.041.122.081.244.122.36v.007c2.434,7.194,4.679,13.44,6.869,19.109.007.02.014.034.02.054.074.2.149.4.237.59a.1.1,0,0,0,.014.041c6.544,16.83,13.209,30.243,20.987,42.2,4.57,7.039,11.013,15.4,20.3,17.59a21.6,21.6,0,0,0,4.991.577c8.036,0,16.064-4.177,23.673-8.565L751.148,319.8c6.713-.034,11.277-9.3,12.579-15.156,1.519-6.761.264-13.8-1-19.17" transform="translate(-319.317 -153.948)" fill="#1c1d19"/>
      <path id="Trazado_1053243" data-name="Trazado 1053243" d="M73.157,365.406l-.319-.122-.319-.122c-.014.041-.027.075-.041.115l-.5-.007h-.156c-12.551-.19-24.486-.353-35.5,5.357a40.31,40.31,0,0,0-4.109,2.434,44.235,44.235,0,0,0-16.39,19.733,30.657,30.657,0,0,0-.658,20.811,41.684,41.684,0,0,0,4,8.354c.02.231.041.454.061.685l.339-.034.339-.034A30.9,30.9,0,0,1,22.9,405.95c4.618-9.364,13.949-15.671,27.748-18.743a224.3,224.3,0,0,1,22.777-3.58c.075-.007.149-.021.224-.027l.135-.014.373-.047,1.146-.129-.3-.461a19.942,19.942,0,0,1-1.851-17.542" transform="translate(-10.022 -267.807)" fill="#1d1d1d"/>
      <path id="Trazado_1053244" data-name="Trazado 1053244" d="M555.907,359.978a51.383,51.383,0,0,1-8.259,1.336c-.122.013-.237.027-.359.034-.054.007-.115.007-.17.014s-.136.014-.2.014c-1.41.108-2.855.149-4.3.135h-.346c-.115,0-.237-.007-.353-.014-.739-.014-1.478-.041-2.2-.088-1.777-.108-3.6-.359-4.862-1.464-.088-.081-.176-.17-.271-.251a2.545,2.545,0,0,0-1.675-.916h-.014c-1.241.02-1.77,1.451-1.844,2.78-.231,3.892-.339,7.73-.326,11.412h.678v-.163L556.274,360.9l-.285-.59Z" transform="translate(-389.227 -263.126)" fill="#262523"/>
      <path id="Trazado_1053245" data-name="Trazado 1053245" d="M404.777,359.332a7.079,7.079,0,0,0-2.367-2.807c-.014.034-.027.061-.04.088a2.46,2.46,0,0,1-.509.773,1.164,1.164,0,0,1-1,.271.776.776,0,0,1-.569-.468,4.108,4.108,0,0,1-.373-.956v-.007l-.014-.339h-.061a120.242,120.242,0,0,1-22.2-1.356c-.007.1-.014.2-.014.3v.041c-.007.115-.014.224-.014.339a166.5,166.5,0,0,0,.238,19.6l.027.352-.359.007c-2.042.026-4.072.052-6.1.09a2.705,2.705,0,0,1-.049-.355l-.677.041a4.412,4.412,0,0,0,2.26,3.4,10.814,10.814,0,0,0,5.431.817l.221,0a119.925,119.925,0,0,1,14.755.751l.035-.337,12.125-5.8-.339-.021q.193-3.763.366-7.54c.1-2.1.23-4.719-.773-6.876" transform="translate(-271.866 -260.011)" fill="#262523"/>
      <path id="Trazado_1053246" data-name="Trazado 1053246" d="M338.76,332.956a11.01,11.01,0,0,0-4.2.556,4.612,4.612,0,0,0-2.746,3.112l-37.031-.631a3.771,3.771,0,0,0-.244.332c-.068.095-.129.19-.2.284-.244.366-.475.746-.685,1.139a176.916,176.916,0,0,0,27.145.149l.387-.027-.021.387q-.01.234-.02.448a120.262,120.262,0,0,0,22.2,1.356,5.824,5.824,0,0,1,1.478-4.93,7.148,7.148,0,0,1,1.2-1.051c.149-.1.3-.2.461-.292.142-.088.285-.17.434-.244-2.5-.278-5.764-.563-8.158-.59" transform="translate(-215.363 -244.186)" fill="#373737"/>
      <path id="Trazado_1053247" data-name="Trazado 1053247" d="M254.89,358.8c-.183-.088-.366-.176-.549-.271a15.6,15.6,0,0,1-6.639-21.272l.027-.339c.047.007.1.007.149.013.21-.393.441-.773.685-1.139.068-.095.129-.19.2-.285a3.767,3.767,0,0,1,.244-.332,14.683,14.683,0,0,1,2.109-2.339.33.33,0,0,0,.1-.352.352.352,0,0,0-.292-.238c-4.136-.42-8.822-.9-13.013.705a11.626,11.626,0,0,0-5.215,4.008,9.159,9.159,0,0,0-1.444,2.929c0,.007-.007.02-.007.027a.332.332,0,0,0,.244.386h.007a.327.327,0,0,0,.407-.237c0-.007.007-.014.007-.02.217.04.434.081.651.129a.342.342,0,0,1,.264.373.332.332,0,0,1-.332.3H232.4l.319.122a19.942,19.942,0,0,0,1.851,17.543l.3.461-1.146.129-.373.047-.135.013c-.075.007-.149.021-.224.027a5.155,5.155,0,0,0,2.265,2.116,12.526,12.526,0,0,0,5.079.888c.942.027,1.966.061,3.024.061,3.838,0,8.232-.414,11.589-2.875a.346.346,0,0,0,.135-.305.333.333,0,0,0-.2-.271m-.563-.271c-.226.006-.445.007-.671.013-.21,0-.42.007-.637.007.217,0,.427-.007.637-.007.226-.006.446-.007.671-.013m-15.144,2.935a13.572,13.572,0,0,1-2.007-.24,13.572,13.572,0,0,0,2.007.24m6.725.027q-.806.049-1.638.064.832-.016,1.638-.064m4.966-.839a20.209,20.209,0,0,1-4.61.815,20.209,20.209,0,0,0,4.61-.815M232.436,338.7a9.37,9.37,0,0,1,1.1-1.742,9.37,9.37,0,0,0-1.1,1.742m2.775,21.794a4.59,4.59,0,0,1-.573-.4,4.611,4.611,0,0,0,.573.4m6.058,1.042c.68.017,1.35.028,2.008.028-.659,0-1.328-.011-2.008-.028m12.815-2.385c-.22-.116-.433-.244-.65-.368.216.124.431.253.65.368" transform="translate(-169.588 -243.363)" fill="#1f1f1f"/>
      <path id="Trazado_1053248" data-name="Trazado 1053248" d="M508.192,335.065c-2.109-1.736-5.038-2.184-7.385-2.536q-3.641-.56-7.276-1.105a26.148,26.148,0,0,0-6.4-.441,10.214,10.214,0,0,0-3.777,1.071c-.149.075-.292.156-.434.244-.163.095-.312.19-.461.292a7.165,7.165,0,0,0-1.2,1.051,5.824,5.824,0,0,0-1.478,4.93h.061l.014.339v.007a4.1,4.1,0,0,0,.373.956.776.776,0,0,0,.57.468,1.164,1.164,0,0,0,1-.271,2.456,2.456,0,0,0,.508-.773c.014-.027.027-.054.041-.088-.007-.007-.02-.014-.027-.021l.163-.224.034-.054.075-.109h.007l.115-.17c.007,0,.007.007.013.014.773-.834,2.211-.929,3.553-.9q4.6.091,9.209.17c.482.007.963.02,1.444.027l.963.013a11.338,11.338,0,0,1,4.394.671,3.851,3.851,0,0,1,2.2,2.441c.115.007.237.013.353.013h.346c1.445.014,2.889-.027,4.3-.135a1.994,1.994,0,0,0,.2-.014c.054-.007.115-.007.17-.014.122-.007.237-.02.36-.034a5.818,5.818,0,0,0-2.028-5.818" transform="translate(-351.798 -242.695)" fill="#b9a15b"/>
      <path id="Trazado_1053249" data-name="Trazado 1053249" d="M315.537,352.543c0-.115.007-.224.014-.339v-.041c0-.095.007-.2.014-.3.007-.143.014-.292.02-.448l.021-.387-.387.027a176.916,176.916,0,0,1-27.145-.149c-.047-.007-.1-.007-.149-.013l-.027.339a15.6,15.6,0,0,0,6.639,21.272l.007.339,4.828-.081q4.791-.092,9.588-.163H309c2.143-.041,4.285-.068,6.442-.095l.359-.007-.027-.353a166.512,166.512,0,0,1-.238-19.6" transform="translate(-209.784 -257.344)" fill="#474747"/>
      <path id="Trazado_1053250" data-name="Trazado 1053250" d="M133.9,349.776q-15.236,0-30.46.013a8.7,8.7,0,0,0-3.526.5,5.992,5.992,0,0,0-3.243,4.6,9.934,9.934,0,0,0-.141,1.993l.678-.014c0-.051,0-.1,0-.146,10.307-4.78,22.621-6.073,35.237-3.651,0-.007.007-.02.007-.027a9.036,9.036,0,0,1,1.217-2.59h.227v-.678Z" transform="translate(-70.793 -256.523)" fill="#474747"/>
      <path id="Trazado_1053251" data-name="Trazado 1053251" d="M509.518,357.386a11.333,11.333,0,0,0-4.394-.671l-.963-.014c-.482-.007-.963-.02-1.444-.027q-4.608-.081-9.209-.169c-1.343-.027-2.78.068-3.553.9-.007-.007-.007-.014-.013-.014l-.115.17h-.007l-.075.108-.034.054-.163.224c.007.007.021.014.027.02a7.079,7.079,0,0,1,2.367,2.807c1,2.156.875,4.774.773,6.876q-.173,3.774-.366,7.54l.339.02.339.021c0-.061.007-.129.007-.19l7.832-3.743h-.339c-.014-3.682.095-7.52.326-11.412.074-1.329.6-2.76,1.844-2.78h.013l0-.215,0,.215a2.546,2.546,0,0,1,1.675.916c.095.081.183.17.271.251,1.261,1.105,3.085,1.356,4.862,1.465.725.047,1.465.075,2.2.088a3.851,3.851,0,0,0-2.2-2.441" transform="translate(-359.03 -261.455)" fill="#1d1d1d"/>
      <path id="Trazado_1053252" data-name="Trazado 1053252" d="M1505.859,171.925a28.619,28.619,0,0,0-16.9-14.789c.122.278.237.556.353.834a41.01,41.01,0,0,1,3.343,13.345l.129-.109c5.655,6.849,10.205,12.667,14.308,18.309.027.041.061.082.088.122.156.2.3.407.441.617a28.423,28.423,0,0,0-1.763-18.329" transform="translate(-1091.991 -115.243)" fill="#494946"/>
      <path id="Trazado_1053253" data-name="Trazado 1053253" d="M126.68,488.994c-2.19-5.669-4.435-11.914-6.869-19.109v-.007c-.041-.115-.081-.238-.122-.359l-.095-.278v-.007c-7.724,2.482-15.99,3.079-23.367,3.289-1.37.041-2.733.115-4.048.19-4.218.244-8.2.468-12.355-.475A123.128,123.128,0,0,1,62.7,467.017c-5.283-2.034-10.273-3.96-14.728-7.364a148.768,148.768,0,0,1-13.338-11.772,177.584,177.584,0,0,1-22.818-27.294c-.766-1.126-1.532-2.285-2.265-3.479l-.339.034c-.021-.231-.041-.455-.061-.685a41.725,41.725,0,0,1-4-8.354,30.66,30.66,0,0,1,.658-20.811A44.238,44.238,0,0,1,22.2,367.56a40.277,40.277,0,0,1,4.109-2.434c11.012-5.71,22.947-5.547,35.5-5.357h.156l.5.007c.013-.04.027-.075.041-.115l.319.122H62.9a.332.332,0,0,0,.332-.3.343.343,0,0,0-.264-.373c-.217-.047-.434-.088-.651-.129,0,.007-.007.014-.007.02a.327.327,0,0,1-.407.238H61.9a.332.332,0,0,1-.244-.387c-12.755-2.448-25.2-1.105-35.58,3.8q-1.688.793-3.3,1.716A46.113,46.113,0,0,0,2.445,388.391C1.062,392.257.8,395.932.526,399.817c-.081,1.153-.17,2.313-.278,3.5a55.056,55.056,0,0,0,.936,16.532c1.539,7.411,4.875,14.328,8.11,21.028a68.573,68.573,0,0,0,12.952,18.146A95.546,95.546,0,0,0,49.37,477.975a136.112,136.112,0,0,0,77.568,11.663c-.088-.19-.163-.386-.237-.59-.007-.021-.014-.034-.021-.054" transform="translate(0 -262.306)" fill="#474747"/>
      <path id="Trazado_1053254" data-name="Trazado 1053254" d="M642.735,56.353c-.048-.054-.1-.115-.143-.17l.129-.109a41.01,41.01,0,0,0-3.343-13.345c-.115-.278-.23-.556-.352-.834-1.132-2.665-2.434-5.276-3.75-7.832C628.97,21.838,621.592,10.208,612.363,0L520.82,44.3,409.1,97.778,384.23,109.686v.163h-.339l-8.178,3.913-12.125,5.8L330.05,135.623l24.778,58.059a35.3,35.3,0,0,0,3.472,2.543l.163-.054c.021.068.041.136.061.2a38.314,38.314,0,0,0,19.2,6.015c8.307.285,15.834-3.207,23.3-6.862q3.255-1.6,6.51-3.187,15.105-7.405,30.209-14.8,23.028-11.27,46.043-22.547l52.1-25.51q24.188-11.839,48.376-23.686,17.444-8.544,34.875-17.081c3.105-1.519,6.2-3.079,9.317-4.564,8.944-4.238,14.288-16.8,14.314-26.385,0-.468-.007-.943-.034-1.411M400.281,169.413a9.462,9.462,0,0,1-5.7,4.957,9.637,9.637,0,0,1-9.873-2.5,8.406,8.406,0,0,1-.922-9.954c3.424-5.215,12.8-5.445,16.139.034a8.141,8.141,0,0,1,.359,7.459M608.762,72a9.511,9.511,0,0,1-10.755,2.434,8.737,8.737,0,0,1-4.8-9.758c1.681-6.544,9.629-7.31,14.4-3.784a7.688,7.688,0,0,1,3.221,5.893A7.832,7.832,0,0,1,608.762,72" transform="translate(-242.056 -0.003)" fill="#333430"/>
    </g>
  </g>
</svg>
