<svg xmlns="http://www.w3.org/2000/svg" xmlns:xlink="http://www.w3.org/1999/xlink" width="118" height="118" viewBox="0 0 118 118">
  <defs>
    <filter id="Elipse_12115" x="0" y="0" width="118" height="118" filterUnits="userSpaceOnUse">
      <feOffset dy="3" input="SourceAlpha"/>
      <feGaussianBlur stdDeviation="3" result="blur"/>
      <feFlood flood-opacity="0.161"/>
      <feComposite operator="in" in2="blur"/>
      <feComposite in="SourceGraphic"/>
    </filter>
    <clipPath id="clip-path">
      <rect id="Rectángulo_410124" data-name="Rectángulo 410124" width="71.07" height="74.981" fill="none"/>
    </clipPath>
  </defs>
  <g id="Grupo_1185877" data-name="Grupo 1185877" transform="translate(-794.781 -5637.804)">
    <g id="Grupo_1181947" data-name="Grupo 1181947" transform="translate(-5 3094.804)">
      <g transform="matrix(1, 0, 0, 1, 799.78, 2543)" filter="url(#Elipse_12115)">
        <circle id="Elipse_12115-2" data-name="Elipse 12115" cx="50" cy="50" r="50" transform="translate(9 6)" fill="#f8de53"/>
      </g>
    </g>
    <g id="Grupo_1185546" data-name="Grupo 1185546" transform="translate(816.848 5656.048)">
      <g id="Grupo_1185545" data-name="Grupo 1185545" clip-path="url(#clip-path)">
        <path id="Trazado_1051895" data-name="Trazado 1051895" d="M56.79,133.464a1.254,1.254,0,0,0,1.083,1.273,10.377,10.377,0,0,1,4.183,1.776c3.093,2.173,6.157,4.387,9.233,6.585" transform="translate(-9.098 -68.116)" fill="#fefefe"/>
        <path id="Trazado_1051896" data-name="Trazado 1051896" d="M111.9,82.729c-3.076-2.2-6.14-4.412-9.233-6.585a10.377,10.377,0,0,0-4.183-1.776A1.254,1.254,0,0,1,97.4,73.1c.474-.939.821-1.1,1.878-.852a14.6,14.6,0,0,1,5.245,2.472c2.53,1.825,5.074,3.63,7.589,5.475.493.362.787.369,1.211-.1,1.535-1.7,3.091-3.392,4.685-5.04.541-.559.519-.922.031-1.517a55.85,55.85,0,0,1-9.581-15.948,22.017,22.017,0,0,1-1.246-12.047,37.285,37.285,0,0,1,3.634-9.964,68.449,68.449,0,0,1,7.33-11.243c.294-.37.493-.669.061-1.124-1.7-1.789-3.362-3.6-5.02-5.428a.681.681,0,0,0-1.057-.108c-1.249.848-2.523,1.659-3.789,2.48a1.25,1.25,0,0,1-1.883-.107c-.29-.883-.185-1.194.6-1.709,1.323-.868,2.645-1.736,3.977-2.59a2.632,2.632,0,0,1,3.726.481q2.474,2.647,4.932,5.308c1.353,1.459,1.4,2.646.175,4.205a60.387,60.387,0,0,0-8.961,14.969,22.46,22.46,0,0,0-1.834,9.372,24.988,24.988,0,0,0,2.435,9.161,59.294,59.294,0,0,0,8.434,13.176,2.674,2.674,0,0,1-.146,3.92c-1.578,1.7-3.137,3.413-4.737,5.089a16.75,16.75,0,0,1-1.578,1.305Z" transform="translate(-49.712 -7.748)" fill="#0d0b0a"/>
        <path id="Trazado_1051897" data-name="Trazado 1051897" d="M44.925,102.613a1.425,1.425,0,0,1-1.005,1.631,14.654,14.654,0,0,0-5.914,5.7,2.85,2.85,0,0,1-2.1,1.534,2.693,2.693,0,0,1-2.621-1.239,31.809,31.809,0,0,0-2.944-3.709c-3.774-3.793-8.151-4.107-12.5-1-2.576,1.838-5.14,3.694-7.717,5.532-.441.315-.919.578-1.38.865H7.284c-.977-.914-1.987-1.8-2.923-2.75-1.177-1.2-2.293-2.459-3.436-3.693a2.664,2.664,0,0,1-.112-3.861A57.053,57.053,0,0,0,9.837,87.065a21.239,21.239,0,0,0,1.833-9.5,26.454,26.454,0,0,0-.51-3.455,1.366,1.366,0,0,1,.687-1.714,1.167,1.167,0,0,1,1.415.859,20.832,20.832,0,0,1,.539,7.6A27.817,27.817,0,0,1,10.55,90.85c-1.64,3-3.538,5.859-5.322,8.779-.893,1.124-1.774,2.257-2.684,3.367A.645.645,0,0,0,2.58,104q2.507,2.666,4.975,5.368c.362.4.637.386,1.045.075.95-.723,1.928-1.41,2.9-2.1,2.109-1.488,4.145-3.1,6.354-4.423,4.4-2.635,8.833-2.255,12.843.907a18.857,18.857,0,0,1,4.021,4.516c.833,1.263.82,1.259,1.685-.026a16.692,16.692,0,0,1,6.559-6.094c.975-.465,1.247-.407,1.959.386" transform="translate(-0.02 -36.946)" fill="#0c0b0a"/>
        <path id="Trazado_1051898" data-name="Trazado 1051898" d="M47.3,75.8c-.713-.793-.985-.851-1.959-.386a16.693,16.693,0,0,0-6.559,6.094c-.865,1.285-.852,1.289-1.685.026a18.857,18.857,0,0,0-4.021-4.516c-4.01-3.162-8.441-3.542-12.843-.907-2.209,1.322-4.245,2.935-6.354,4.423-.976.688-1.954,1.375-2.9,2.1-.409.311-.683.323-1.045-.075Q7.47,79.849,4.959,77.186a.645.645,0,0,1-.035-1.005c.909-1.11,1.791-2.243,2.684-3.367a5.286,5.286,0,0,0,1.04.123c.955-.07,1.905-.195,2.857-.3l.363.459-1.187,1.821c-1.041-.348-1.4-.2-2.119.906-.409.624-.33,1.037.348,1.787.292.324.587.646.887.963.7.734,1.092.827,1.757.424,1.125-.683,1.3-1.061.972-2.084l1.841-1.2a1.222,1.222,0,0,0,1.711.042c.306-.238.621-.468.947-.678a1.22,1.22,0,0,0,.543-1.678l1.926-1.048a1.268,1.268,0,0,0,1.736.395,3.837,3.837,0,0,1,.822-.29,1.306,1.306,0,0,0,1.14-1.517l2.169-.2c.195.59.493,1.047,1.211,1.057a8.275,8.275,0,0,1,1.16.121,1.289,1.289,0,0,0,1.573-.85l2.1.585c-.137,1.04-.041,1.228.88,1.736a6.171,6.171,0,0,1,.689.4,1.313,1.313,0,0,0,1.882-.1l1.682,1.345c-.08.176-.172.349-.237.53-.285.8.307,1.256.785,1.653a1.566,1.566,0,0,0,1.227.327,1.759,1.759,0,0,0,1.019-2.51l1.68-1.346c1.055,1.034,1.832.014,2.7-.365a1.3,1.3,0,0,0,.768-1.666l2.084-.587A1.313,1.313,0,0,0,48.2,71.9,3.514,3.514,0,0,1,49,71.8a1.315,1.315,0,0,0,1.507-1.066l2.17.2a1.3,1.3,0,0,0,1.139,1.518,3.827,3.827,0,0,1,.822.289,1.27,1.27,0,0,0,1.737-.393l1.956.916c-.308,1.089-.249,1.256.694,1.939.235.17.477.333.706.513A1.248,1.248,0,0,0,61.5,75.71l1.842,1.2a1.144,1.144,0,0,0,.267,1.563c.544.4,1.116,1.139,1.839.6a13.606,13.606,0,0,0,1.992-2.09.968.968,0,0,0,.071-.7,1.743,1.743,0,0,0-2.326-1.364l-1.192-1.823a1.235,1.235,0,0,0,.082-1.815,5.743,5.743,0,0,1-.512-.792,1.293,1.293,0,0,0-1.752-.706l-1.1-1.868a1.273,1.273,0,0,0,.323-1.8c-.5-.846-.657-2.121-2.148-1.76l-.815-2a1.263,1.263,0,0,0,.547-1.735,7.082,7.082,0,0,1-.317-.956,1.244,1.244,0,0,0-1.464-1.071q-.223-1.084-.446-2.169a1.175,1.175,0,0,0,.83-1.234c-.032-.46-.134-.916-.171-1.375a1.224,1.224,0,0,0-1.224-1.277l0-2.208a1.207,1.207,0,0,0,1.261-1.081c.072-.455.109-.917.179-1.373a1.2,1.2,0,0,0-.745-1.419q.23-1.088.461-2.176a1.234,1.234,0,0,0,1.47-1.066,5.809,5.809,0,0,1,.305-.889,1.289,1.289,0,0,0-.537-1.805l.812-1.979c1.16.082,1.264.023,1.791-1.018.13-.257.25-.519.394-.769a1.217,1.217,0,0,0-.289-1.727l1.029-1.933c1.008.2,1.211.112,1.777-.779.168-.264.323-.538.507-.791a1.221,1.221,0,0,0-.111-1.751l1.226-1.839c.951.309,1.3.148,1.988-.913.427-.66.368-1.056-.259-1.737-.361-.392-.719-.789-1.082-1.18-.717-.771-1.13-.882-1.815-.5-1.161.653-1.326.98-1.037,2.049l-1.92,1.037a1.152,1.152,0,0,0-1.639-.1c-.259.18-.525.35-.79.521-.962.626-1.043.826-.772,1.91l-.478.145c.048-1.755.1-3.51.136-5.265,0-.1-.106-.2-.164-.3l1.653-1.168a1.249,1.249,0,0,0,1.882.107c1.267-.821,2.541-1.632,3.79-2.48a.681.681,0,0,1,1.057.108c1.657,1.824,3.324,3.639,5.019,5.428.431.455.233.754-.062,1.124a68.492,68.492,0,0,0-7.33,11.243A37.266,37.266,0,0,0,59.9,47.918a22.012,22.012,0,0,0,1.245,12.047,55.829,55.829,0,0,0,9.581,15.948c.489.6.509.959-.031,1.517-1.594,1.649-3.15,3.335-4.685,5.04-.424.472-.718.465-1.211.1-2.516-1.844-5.059-3.65-7.589-5.475a14.61,14.61,0,0,0-5.246-2.472c-1.056-.246-1.4-.086-1.878.852L47.3,75.8" transform="translate(-2.399 -10.131)" fill="#f8ab71"/>
        <path id="Trazado_1051899" data-name="Trazado 1051899" d="M57.543,15.74c.057.1.165.2.164.3-.037,1.755-.088,3.51-.136,5.265a.631.631,0,0,0-.028.1l-1.42.638a1.259,1.259,0,0,0-1.7-.508,7.214,7.214,0,0,1-1.04.312,1.157,1.157,0,0,0-1.006,1.08,10.03,10.03,0,0,1-1.549.278c-.226.008-.463-.271-.694-.42a3.362,3.362,0,0,0-.736-.726,9.392,9.392,0,0,0-1.313-.4,1.265,1.265,0,0,0-1.6.454l-1.833-1.1a1.343,1.343,0,0,0-.272-1.826,3.362,3.362,0,0,1-.519-.606,1.3,1.3,0,0,0-1.8-.575l-.884-1.955a1.241,1.241,0,0,0,.589-1.673,8.512,8.512,0,0,1-.244-.913c-.253-.982-.474-1.162-1.505-1.226l-.339-2.083c.88-.538.949-.833.638-2.092-.2-.8-.72-1.008-1.458-.977-.605.025-1.213.025-1.818,0-.738-.031-1.258.174-1.455.978-.31,1.267-.246,1.552.638,2.09l-.34,2.105c-1.028.042-1.253.223-1.508,1.212a8.119,8.119,0,0,1-.242.913,1.229,1.229,0,0,0,.587,1.67l-.881,1.964a1.3,1.3,0,0,0-1.8.565,3.425,3.425,0,0,1-.52.606,1.322,1.322,0,0,0-.276,1.821l-1.831,1.115a1.234,1.234,0,0,0-1.578-.478,6.439,6.439,0,0,1-.9.252,1.351,1.351,0,0,0-1.279,1.322,10.031,10.031,0,0,1-1.208-.014,5.743,5.743,0,0,1-.947-.283A1.137,1.137,0,0,0,22.5,21.85a7.765,7.765,0,0,1-1.039-.313,1.253,1.253,0,0,0-1.7.507l-1.9-1.025a1.215,1.215,0,0,0-.6-1.648c-.332-.2-.654-.41-.968-.635a1.2,1.2,0,0,0-1.743.157l-1.84-1.1c.306-1.044.155-1.361-.967-2.017-.707-.413-1.136-.313-1.829.43-.381.409-.746.835-1.139,1.232a1.2,1.2,0,0,0-.308,1.62c.646,1.073,1.042,1.3,1.946,1.064l1.34,1.794a1.22,1.22,0,0,0-.116,1.752,7.7,7.7,0,0,1,.54.856,1.292,1.292,0,0,0,1.743.71l1.034,1.936a1.22,1.22,0,0,0-.292,1.727c.155.27.284.556.425.834.491.971.65,1.057,1.756.941l.837,2.006c-.774.554-.873.842-.583,1.718.114.345.244.684.344,1.032a1.218,1.218,0,0,0,1.456,1l.577,2.148a1.189,1.189,0,0,0-.862,1.467c.056.358.11.717.148,1.078.1.925.351,1.2,1.295,1.352q0,1.113,0,2.225a1.155,1.155,0,0,0-1.205,1.17,7.878,7.878,0,0,1-.137,1.144A1.2,1.2,0,0,0,19.5,48.57q-.156,1.079-.312,2.158c-1.177.062-1.279.14-1.674,1.294-.086.25-.149.508-.247.753a1.217,1.217,0,0,0,.56,1.716l-.83,2.032c-1.028-.142-1.238-.04-1.691.834-.156.3-.311.6-.46.906a1.231,1.231,0,0,0,.339,1.789l-1.114,1.9a3.266,3.266,0,0,0-1.06-.021,3.836,3.836,0,0,0-1.486,2.858c-.952.1-1.9.228-2.857.3a5.324,5.324,0,0,1-1.04-.123c1.784-2.921,3.681-5.78,5.322-8.78A27.83,27.83,0,0,0,16.2,46.2a20.846,20.846,0,0,0-.539-7.6,1.167,1.167,0,0,0-1.416-.859q-.449-1.334-.9-2.667c.8-.6.886-.909.478-1.853-.183-.424-.363-.849-.559-1.267A66.088,66.088,0,0,0,5.023,18.882.815.815,0,0,1,5.08,17.59c1.57-1.637,3.092-3.32,4.632-4.985.727-.785.727-.783,1.593-.219,2.652,1.727,5.293,3.47,7.963,5.169a16.4,16.4,0,0,0,2.575,1.357c3.181,1.3,6.127.688,8.026-1.815a10.578,10.578,0,0,0,1.738-3.488c.764-2.761,1.322-5.579,1.932-8.38.119-.549.33-.772.918-.764,2.342.03,4.685.025,7.027,0a.728.728,0,0,1,.854.665c.431,2.02.885,4.035,1.331,6.051a13.852,13.852,0,0,0,2.044,5.566A6.04,6.04,0,0,0,52.2,19.4a19.624,19.624,0,0,0,3.909-1.521c.908-.422,1-.842.7-1.783l.738-.351" transform="translate(-2.415 -2.279)" fill="#fbc491"/>
        <path id="Trazado_1051900" data-name="Trazado 1051900" d="M54.39,13.812c.3.941.212,1.361-.7,1.783a19.624,19.624,0,0,1-3.909,1.521A6.041,6.041,0,0,1,43.3,14.471,13.858,13.858,0,0,1,41.255,8.9c-.447-2.016-.9-4.032-1.331-6.051a.728.728,0,0,0-.854-.665c-2.342.024-4.685.028-7.027,0-.588-.007-.8.215-.918.764-.61,2.8-1.167,5.62-1.932,8.38a10.576,10.576,0,0,1-1.738,3.488c-1.9,2.5-4.845,3.117-8.026,1.815a16.439,16.439,0,0,1-2.575-1.357c-2.67-1.7-5.312-3.443-7.964-5.169-.866-.565-.866-.567-1.593.219-1.541,1.665-3.063,3.348-4.632,4.985A.815.815,0,0,0,2.608,16.6a66.082,66.082,0,0,1,8.238,13.064c.2.418.376.843.559,1.267.407.944.326,1.254-.478,1.853a1.317,1.317,0,0,1-1.571-.969A61.8,61.8,0,0,0,.928,18.049c-1.277-1.634-1.252-2.782.17-4.312l4.832-5.2a2.669,2.669,0,0,1,3.895-.471c2.673,1.733,5.317,3.512,8.022,5.194a14.593,14.593,0,0,0,3.27,1.542,4.074,4.074,0,0,0,5.058-1.955,13.162,13.162,0,0,0,1.438-4.324c.475-2.056.9-4.124,1.365-6.183A2.654,2.654,0,0,1,31.92,0q3.7,0,7.392,0a2.5,2.5,0,0,1,2.682,2.083c.693,2.9,1.344,5.815,2.013,8.723.027.118.057.236.1.35,1.25,3.676,3.867,4.784,7.372,3.116a9.364,9.364,0,0,0,1.15-.629,1.24,1.24,0,0,1,1.765.166" transform="translate(0 0)" fill="#0c0b0b"/>
        <path id="Trazado_1051901" data-name="Trazado 1051901" d="M63.759,35.307a.64.64,0,0,1,.029-.1l.478-.145a1.415,1.415,0,0,0,1.97-.031c.26-.215.575-.362.85-.561a1.124,1.124,0,0,0,.381-1.734l1.92-1.037a10.135,10.135,0,0,1,1.3.385c.2.089.494.387.464.535a1.3,1.3,0,0,0,.435,1.359l-1.226,1.839c-.88-.332-1.265-.214-1.764.549-.2.3-.387.609-.574.918-.5.83-.474,1.115.164,1.854l-1.029,1.933c-.883-.271-1.234-.137-1.674.66-.165.3-.289.619-.468.907a1.382,1.382,0,0,0,.246,1.948l-.812,1.979a1.241,1.241,0,0,0-1.512.927c-.142.386-.282.775-.408,1.167-.27.835-.116,1.2.683,1.668q-.23,1.088-.461,2.176c-1.016-.008-1.3.225-1.457,1.211-.064.407-.1.819-.162,1.228a1.172,1.172,0,0,0,.923,1.434l0,2.208a1.249,1.249,0,0,0-1.013,1.569c.043.334.088.668.126,1,.112.969.46,1.286,1.452,1.316l.447,2.168c-.824.484-.954.812-.667,1.722.116.367.24.732.368,1.1.289.821.637,1.033,1.533.944l.815,2c-.709.77-.738.981-.262,1.934.131.261.265.52.4.78.449.875.688.995,1.69.85l1.1,1.868A1.275,1.275,0,0,0,67.9,77.7c.192.307.38.619.588.917.508.725.878.83,1.736.52l1.192,1.823c-.154.544-.308,1.088-.412,1.456l-1.431.54-1.842-1.2c.384-.849.3-1.222-.411-1.761-.252-.191-.53-.352-.768-.559a1.457,1.457,0,0,0-1.989-.124L62.606,78.4c.209-.9.008-1.3-.833-1.642-.359-.144-.725-.274-1.094-.392-.921-.293-1.225-.183-1.769.619l-2.17-.2c-.29-1.006-.5-1.172-1.535-1.144a9.518,9.518,0,0,0-1.152.122c-.961.142-1.181.383-1.259,1.345l-2.085.587c-.79-.706-1-.735-1.93-.238-.3.16-.591.336-.878.518-.831.524-.932.8-.657,1.751l-1.68,1.346a4.046,4.046,0,0,0-2.794,0l-1.682-1.345c.278-.954.15-1.279-.709-1.793-.27-.162-.54-.325-.818-.472-.936-.5-1.159-.469-1.924.233l-2.1-.585a1.131,1.131,0,0,0-.894-1.308,8.315,8.315,0,0,0-1.513-.16c-1.041-.033-1.247.135-1.538,1.141l-2.169.2c-.545-.8-.849-.912-1.77-.619-.369.118-.735.247-1.095.391-.842.337-1.044.745-.833,1.642L23.8,79.441a1.237,1.237,0,0,0-1.862-.112c-.3.207-.593.416-.884.633-.754.56-.846.929-.455,1.793l-1.841,1.2-1.408-.526c-.128-.427-.283-.948-.438-1.468l1.187-1.82a1.213,1.213,0,0,0,1.738-.517c.153-.214.3-.433.45-.65a1.989,1.989,0,0,0,.6.061A43.833,43.833,0,0,0,32.067,74.1,80.5,80.5,0,0,0,40.9,68.856,71.015,71.015,0,0,0,48.566,62.6a60.537,60.537,0,0,0,5.394-5.93,44.93,44.93,0,0,0,8.8-16.313c.471-1.643.674-3.363,1-5.047" transform="translate(-8.633 -16.176)" fill="#a5572c"/>
        <path id="Trazado_1051902" data-name="Trazado 1051902" d="M126.154,31.614a1.3,1.3,0,0,1-.435-1.359c.03-.147-.26-.446-.464-.535a10.135,10.135,0,0,0-1.3-.385c-.29-1.069-.124-1.4,1.037-2.049.684-.385,1.1-.273,1.814.5.364.391.721.787,1.082,1.18.626.681.686,1.077.259,1.737-.688,1.061-1.038,1.222-1.988.913" transform="translate(-63.198 -13.817)" fill="#100c07"/>
        <path id="Trazado_1051903" data-name="Trazado 1051903" d="M14.446,132.15l.438,1.468,1.408.526c.33,1.024.153,1.4-.971,2.084-.666.4-1.061.311-1.758-.424-.3-.316-.594-.639-.887-.963-.678-.75-.757-1.163-.348-1.787.723-1.1,1.078-1.254,2.119-.906" transform="translate(-6.164 -67.361)" fill="#100b07"/>
        <path id="Trazado_1051904" data-name="Trazado 1051904" d="M124.27,134.21l1.43-.54c.1-.368.259-.912.412-1.457a1.744,1.744,0,0,1,2.326,1.364.968.968,0,0,1-.071.7,13.607,13.607,0,0,1-1.992,2.09c-.723.543-1.295-.2-1.839-.6a1.144,1.144,0,0,1-.267-1.563" transform="translate(-63.329 -67.427)" fill="#100b07"/>
        <path id="Trazado_1051905" data-name="Trazado 1051905" d="M115.107,54.216a1.382,1.382,0,0,1-.246-1.948c.178-.288.3-.609.468-.907.44-.8.791-.931,1.674-.66a1.217,1.217,0,0,1,.289,1.727c-.143.249-.264.512-.394.769-.526,1.041-.631,1.1-1.791,1.018" transform="translate(-58.474 -25.811)" fill="#120c07"/>
        <path id="Trazado_1051906" data-name="Trazado 1051906" d="M111.572,102.72c-.9.089-1.244-.124-1.534-.944-.128-.363-.252-.728-.368-1.1-.287-.909-.157-1.238.667-1.722a1.244,1.244,0,0,1,1.463,1.071,7.084,7.084,0,0,0,.317.956,1.263,1.263,0,0,1-.547,1.735" transform="translate(-55.902 -50.5)" fill="#0f0a07"/>
        <path id="Trazado_1051907" data-name="Trazado 1051907" d="M59.183,125.046c.765-.7.988-.731,1.924-.233.278.148.547.311.818.473.86.514.987.839.709,1.793a1.314,1.314,0,0,1-1.883.1,6.082,6.082,0,0,0-.688-.4c-.921-.509-1.017-.7-.88-1.737" transform="translate(-30.18 -63.528)" fill="#0f0a07"/>
        <path id="Trazado_1051908" data-name="Trazado 1051908" d="M78.716,127.075c-.275-.952-.175-1.227.656-1.751.287-.182.579-.358.878-.518.93-.5,1.14-.468,1.93.238a1.3,1.3,0,0,1-.768,1.666c-.865.379-1.641,1.4-2.7.365" transform="translate(-40.105 -63.525)" fill="#0f0a07"/>
        <path id="Trazado_1051909" data-name="Trazado 1051909" d="M69.395,132.282a4.046,4.046,0,0,1,2.794,0,1.758,1.758,0,0,1-1.019,2.51,1.566,1.566,0,0,1-1.227-.327c-.478-.4-1.07-.852-.785-1.653.065-.182.158-.354.237-.531" transform="translate(-35.258 -67.386)" fill="#130d08"/>
        <path id="Trazado_1051910" data-name="Trazado 1051910" d="M34.834,124.8c-.211-.9-.009-1.3.833-1.642.359-.144.726-.273,1.095-.39.921-.292,1.225-.182,1.77.619a1.306,1.306,0,0,1-1.14,1.518,3.858,3.858,0,0,0-.822.289,1.267,1.267,0,0,1-1.736-.394" transform="translate(-17.739 -62.581)" fill="#100b07"/>
        <path id="Trazado_1051911" data-name="Trazado 1051911" d="M108.6,90.488c-.991-.029-1.341-.347-1.452-1.316-.038-.335-.083-.669-.126-1a1.248,1.248,0,0,1,1.013-1.568,1.224,1.224,0,0,1,1.224,1.277c.037.46.138.916.171,1.376a1.174,1.174,0,0,1-.83,1.234" transform="translate(-54.607 -44.199)" fill="#100c07"/>
        <path id="Trazado_1051912" data-name="Trazado 1051912" d="M121.1,43.243c-.638-.739-.665-1.024-.164-1.854.187-.309.377-.616.574-.919.5-.763.884-.88,1.764-.548a1.221,1.221,0,0,1,.111,1.751c-.184.253-.339.526-.507.791-.566.891-.769.98-1.777.779" transform="translate(-61.547 -20.286)" fill="#100b07"/>
        <path id="Trazado_1051913" data-name="Trazado 1051913" d="M102.676,123.386c.545-.8.848-.912,1.77-.619.369.118.735.248,1.094.392.841.337,1.042.744.833,1.642a1.27,1.27,0,0,1-1.737.393,3.8,3.8,0,0,0-.822-.289,1.305,1.305,0,0,1-1.138-1.518" transform="translate(-52.4 -62.582)" fill="#0f0a07"/>
        <path id="Trazado_1051914" data-name="Trazado 1051914" d="M116.582,114.233c-1,.145-1.24.025-1.69-.85-.133-.26-.267-.52-.4-.78-.476-.953-.447-1.164.262-1.934,1.491-.36,1.65.915,2.149,1.76a1.274,1.274,0,0,1-.323,1.8" transform="translate(-58.271 -56.45)" fill="#0f0a07"/>
        <path id="Trazado_1051915" data-name="Trazado 1051915" d="M110.641,65.783c-.8-.465-.953-.832-.683-1.667.127-.392.265-.78.408-1.167a1.242,1.242,0,0,1,1.513-.927,1.29,1.29,0,0,1,.537,1.806,5.773,5.773,0,0,0-.305.889,1.234,1.234,0,0,1-1.47,1.066" transform="translate(-56.057 -31.638)" fill="#0e0a07"/>
        <path id="Trazado_1051916" data-name="Trazado 1051916" d="M116.684,33.4a1.124,1.124,0,0,1-.381,1.734c-.274.2-.59.346-.849.561a1.414,1.414,0,0,1-1.97.031c-.272-1.084-.19-1.284.772-1.91.265-.172.531-.341.79-.521a1.152,1.152,0,0,1,1.639.1" transform="translate(-57.85 -16.843)" fill="#0f0a07"/>
        <path id="Trazado_1051917" data-name="Trazado 1051917" d="M46.9,122.587c.291-1.006.5-1.174,1.538-1.141a8.315,8.315,0,0,1,1.513.16,1.131,1.131,0,0,1,.894,1.308,1.289,1.289,0,0,1-1.573.851,8.359,8.359,0,0,0-1.161-.121c-.718-.009-1.015-.466-1.211-1.057" transform="translate(-23.934 -61.981)" fill="#0e0a07"/>
        <path id="Trazado_1051918" data-name="Trazado 1051918" d="M24.208,131.022c-.391-.864-.3-1.234.454-1.794.291-.216.587-.425.884-.632a1.238,1.238,0,0,1,1.863.112,1.221,1.221,0,0,1-.543,1.678c-.327.21-.641.439-.947.678a1.222,1.222,0,0,1-1.711-.042" transform="translate(-12.239 -65.444)" fill="#0f0a07"/>
        <path id="Trazado_1051919" data-name="Trazado 1051919" d="M114.055,128.6a1.457,1.457,0,0,1,1.989.124c.238.207.516.368.769.559.71.54.795.913.411,1.761a1.248,1.248,0,0,1-1.769.007c-.228-.179-.47-.342-.705-.512-.943-.683-1-.85-.694-1.939" transform="translate(-58.126 -65.461)" fill="#100b07"/>
        <path id="Trazado_1051920" data-name="Trazado 1051920" d="M90.191,122.913c.078-.962.3-1.2,1.259-1.346a9.7,9.7,0,0,1,1.152-.122c1.038-.027,1.246.138,1.535,1.145a1.314,1.314,0,0,1-1.506,1.066,3.541,3.541,0,0,0-.795.1,1.313,1.313,0,0,1-1.646-.842" transform="translate(-46.031 -61.981)" fill="#0e0a07"/>
        <path id="Trazado_1051921" data-name="Trazado 1051921" d="M123.011,125.026c-.858.31-1.228.2-1.736-.52-.209-.3-.4-.609-.589-.917a1.275,1.275,0,0,1,.142-1.876,1.293,1.293,0,0,1,1.752.706,5.711,5.711,0,0,0,.512.792,1.235,1.235,0,0,1-.082,1.815" transform="translate(-61.42 -62.062)" fill="#0e0a07"/>
        <path id="Trazado_1051922" data-name="Trazado 1051922" d="M21.136,123.934c-.15.217-.3.436-.45.65a1.213,1.213,0,0,1-1.738.517l-.363-.46a3.838,3.838,0,0,1,1.487-2.858,3.24,3.24,0,0,1,1.06.021c.646.723.647.951,0,2.131" transform="translate(-9.479 -62.132)" fill="#0d0a07"/>
        <path id="Trazado_1051923" data-name="Trazado 1051923" d="M108.136,78.053a1.172,1.172,0,0,1-.923-1.434c.058-.409.1-.82.162-1.227.155-.986.441-1.219,1.457-1.211a1.2,1.2,0,0,1,.745,1.419c-.07.456-.106.917-.179,1.372a1.206,1.206,0,0,1-1.261,1.081" transform="translate(-54.708 -37.86)" fill="#0d0907"/>
        <path id="Trazado_1051924" data-name="Trazado 1051924" d="M20,69.132c.642-1.18.642-1.408,0-2.131l1.114-1.9c.939.163,1.234.027,1.647-.768.156-.3.306-.6.455-.908.444-.9.4-1.144-.291-1.853l.83-2.033a1.172,1.172,0,0,0,1.505-.886c.116-.318.188-.654.323-.962a1.42,1.42,0,0,0-.468-1.913q.156-1.079.312-2.158c.968-.02,1.314-.324,1.439-1.27.048-.362.089-.725.132-1.088.1-.838-.164-1.234-1.008-1.515q0-1.113,0-2.225a1.157,1.157,0,0,0,.92-1.478c-.069-.379-.1-.765-.161-1.147-.154-.978-.382-1.192-1.339-1.273l-.577-2.148c.788-.442.949-.825.68-1.659q-.2-.62-.431-1.229a1.185,1.185,0,0,0-1.466-.857l-.837-2.006a1.359,1.359,0,0,0,.243-1.937c-.176-.288-.3-.607-.465-.9-.43-.788-.795-.93-1.667-.661L19.85,30.289c.635-.727.662-1.038.152-1.877q-.265-.437-.545-.865c-.519-.795-.88-.91-1.773-.576l-1.34-1.794a1.157,1.157,0,0,0,.522-1.376c-.124-.439.076-.555.519-.586a5.81,5.81,0,0,0,1.257-.368l1.84,1.1c-.313.829-.215,1.19.484,1.681.318.223.652.423.981.63.846.531,1.116.5,1.846-.186l1.9,1.025a1.17,1.17,0,0,0,.858,1.563c.407.144.827.254,1.246.36.986.25,1.447-.047,1.628-1.033a5.636,5.636,0,0,0,.947.283,9.832,9.832,0,0,0,1.208.014c.448.929.776,1.092,1.781.859.354-.082.706-.181,1.051-.3.911-.3,1.129-.7.921-1.658l1.831-1.115c.869.482,1.25.428,1.9-.29q.366-.4.7-.835c.59-.757.585-1.069-.008-1.867l.881-1.964c.952.089,1.26-.111,1.539-1.024.1-.323.142-.664.257-.981a1.355,1.355,0,0,0-.634-1.79q.17-1.052.34-2.1a5.378,5.378,0,0,0,1.227-.6.625.625,0,0,1,1,0,5.336,5.336,0,0,0,1.227.6q.17,1.041.339,2.083a1.4,1.4,0,0,0-.621,1.863c.1.271.13.566.212.844.286.969.532,1.138,1.57,1.1l.883,1.955c-.6.8-.607,1.108-.017,1.868.223.287.457.568.7.837.654.722,1.026.777,1.9.3l1.833,1.1c-.216.939.011,1.374.9,1.67.367.122.743.223,1.121.309,1.154.262,1.634-.126,1.634-1.305.232.149.468.427.694.42a10.023,10.023,0,0,0,1.55-.277c.2,1,.65,1.288,1.629,1.04.4-.1.792-.2,1.178-.334.849-.286,1.069-.673.938-1.59l1.42-.638c-.326,1.684-.529,3.4-1,5.047a44.929,44.929,0,0,1-8.8,16.313,60.537,60.537,0,0,1-5.394,5.93,71.013,71.013,0,0,1-7.663,6.259,80.5,80.5,0,0,1-8.837,5.243A43.834,43.834,0,0,1,20.6,69.193a2,2,0,0,1-.6-.061" transform="translate(-8.342 -7.331)" fill="#b6693c"/>
        <path id="Trazado_1051925" data-name="Trazado 1051925" d="M16.406,29.335a5.842,5.842,0,0,1-1.257.369c-.443.03-.642.147-.519.585a1.156,1.156,0,0,1-.522,1.376c-.9.237-1.3.009-1.946-1.064a1.2,1.2,0,0,1,.308-1.62c.394-.4.758-.823,1.139-1.232.693-.744,1.123-.843,1.829-.43,1.122.656,1.274.972.967,2.017" transform="translate(-6.105 -13.819)" fill="#100c09"/>
        <path id="Trazado_1051926" data-name="Trazado 1051926" d="M71.657,12.9a5.336,5.336,0,0,1-1.227-.6.625.625,0,0,0-1,0,5.4,5.4,0,0,1-1.227.6c-.884-.539-.948-.824-.638-2.09.2-.8.717-1.01,1.455-.978.605.025,1.213.025,1.818,0,.737-.031,1.259.175,1.457.977.311,1.259.243,1.554-.638,2.092" transform="translate(-34.397 -5.018)" fill="#0b0907"/>
        <path id="Trazado_1051927" data-name="Trazado 1051927" d="M25.068,50.712c.872-.269,1.237-.127,1.667.661.162.3.289.615.465.9a1.359,1.359,0,0,1-.243,1.937c-1.106.116-1.266.031-1.756-.941-.141-.279-.27-.564-.425-.834a1.221,1.221,0,0,1,.293-1.727" transform="translate(-12.526 -25.818)" fill="#110c08"/>
        <path id="Trazado_1051928" data-name="Trazado 1051928" d="M61.21,31.994c.593.8.6,1.11.008,1.867q-.335.43-.7.835c-.654.718-1.034.772-1.9.29a1.321,1.321,0,0,1,.276-1.821,3.442,3.442,0,0,0,.52-.606,1.3,1.3,0,0,1,1.8-.565" transform="translate(-29.789 -16.245)" fill="#110d09"/>
        <path id="Trazado_1051929" data-name="Trazado 1051929" d="M32.094,98.95a1.42,1.42,0,0,1,.468,1.913c-.135.308-.208.644-.323.962a1.172,1.172,0,0,1-1.505.886,1.216,1.216,0,0,1-.56-1.716c.1-.245.161-.5.246-.753.4-1.153.5-1.231,1.674-1.293" transform="translate(-15.326 -50.501)" fill="#0e0a07"/>
        <path id="Trazado_1051930" data-name="Trazado 1051930" d="M34.579,86.632c.845.282,1.109.677,1.008,1.515-.043.363-.084.726-.132,1.088-.125.946-.472,1.25-1.439,1.27a1.2,1.2,0,0,1-.779-1.559,7.878,7.878,0,0,0,.137-1.144,1.154,1.154,0,0,1,1.205-1.17" transform="translate(-16.935 -44.215)" fill="#110c08"/>
        <path id="Trazado_1051931" data-name="Trazado 1051931" d="M30.418,62.054a1.185,1.185,0,0,1,1.466.857c.155.4.3.816.431,1.228.269.834.108,1.217-.68,1.659a1.217,1.217,0,0,1-1.456-1c-.1-.348-.231-.687-.344-1.032-.289-.876-.191-1.164.583-1.718" transform="translate(-15.151 -31.653)" fill="#0e0b08"/>
        <path id="Trazado_1051932" data-name="Trazado 1051932" d="M27.93,35.578c-.731.69-1,.718-1.846.187-.329-.207-.663-.406-.981-.63-.7-.492-.8-.852-.484-1.681a1.2,1.2,0,0,1,1.743-.157c.313.224.636.438.967.635a1.215,1.215,0,0,1,.6,1.647" transform="translate(-12.478 -16.839)" fill="#0f0b08"/>
        <path id="Trazado_1051933" data-name="Trazado 1051933" d="M83.08,34.974c-.878.476-1.25.421-1.9-.3-.244-.269-.478-.55-.7-.837-.59-.76-.584-1.073.017-1.868a1.3,1.3,0,0,1,1.8.575,3.419,3.419,0,0,0,.519.606,1.342,1.342,0,0,1,.272,1.826" transform="translate(-40.848 -16.233)" fill="#110c08"/>
        <path id="Trazado_1051934" data-name="Trazado 1051934" d="M51.218,39.952c.208.956-.01,1.358-.921,1.659-.345.114-.7.213-1.051.3-1.005.233-1.333.071-1.781-.859a1.351,1.351,0,0,1,1.279-1.322,6.458,6.458,0,0,0,.9-.252,1.234,1.234,0,0,1,1.578.478" transform="translate(-24.225 -20.095)" fill="#100c08"/>
        <path id="Trazado_1051935" data-name="Trazado 1051935" d="M27.28,110.729c.695.709.734.958.291,1.853-.15.3-.3.607-.455.908-.413.795-.708.931-1.648.768a1.232,1.232,0,0,1-.339-1.79c.149-.3.3-.605.46-.906.453-.874.663-.976,1.691-.833" transform="translate(-12.702 -56.486)" fill="#100c08"/>
        <path id="Trazado_1051936" data-name="Trazado 1051936" d="M66.4,20.4a1.355,1.355,0,0,1,.634,1.79c-.115.316-.159.658-.258.981-.279.913-.588,1.113-1.539,1.024a1.23,1.23,0,0,1-.587-1.671,8.116,8.116,0,0,0,.242-.913c.254-.989.48-1.17,1.508-1.212" transform="translate(-32.93 -10.414)" fill="#0f0c08"/>
        <path id="Trazado_1051937" data-name="Trazado 1051937" d="M18.63,39.928c.894-.334,1.255-.218,1.774.576q.279.428.544.865c.51.84.483,1.15-.152,1.877a1.291,1.291,0,0,1-1.743-.711,7.735,7.735,0,0,0-.54-.856,1.22,1.22,0,0,1,.116-1.752" transform="translate(-9.288 -20.288)" fill="#100c09"/>
        <path id="Trazado_1051938" data-name="Trazado 1051938" d="M77.169,24.17c-1.037.033-1.283-.136-1.57-1.1-.082-.278-.114-.572-.212-.844a1.4,1.4,0,0,1,.621-1.863c1.031.063,1.252.244,1.505,1.226a8.512,8.512,0,0,0,.244.913,1.241,1.241,0,0,1-.589,1.673" transform="translate(-38.41 -10.391)" fill="#0f0c08"/>
        <path id="Trazado_1051939" data-name="Trazado 1051939" d="M105.784,39.706c.131.917-.09,1.3-.938,1.59-.387.13-.783.234-1.179.333-.979.248-1.424-.04-1.629-1.04a1.156,1.156,0,0,1,1.006-1.079,7.313,7.313,0,0,0,1.039-.311,1.26,1.26,0,0,1,1.7.507" transform="translate(-52.078 -19.937)" fill="#0f0b08"/>
        <path id="Trazado_1051940" data-name="Trazado 1051940" d="M33.921,74.128c.956.081,1.184.3,1.339,1.273.06.381.092.767.161,1.147a1.157,1.157,0,0,1-.92,1.478c-.944-.157-1.2-.427-1.295-1.352-.038-.361-.092-.72-.148-1.078a1.189,1.189,0,0,1,.863-1.467" transform="translate(-16.859 -37.833)" fill="#0d0a08"/>
        <path id="Trazado_1051941" data-name="Trazado 1051941" d="M39.123,40.586c-.182.986-.642,1.283-1.628,1.033-.419-.106-.839-.216-1.246-.36a1.169,1.169,0,0,1-.858-1.563,1.252,1.252,0,0,1,1.7-.507,7.774,7.774,0,0,0,1.04.313,1.136,1.136,0,0,1,.995,1.085" transform="translate(-18.038 -19.932)" fill="#0f0b08"/>
        <path id="Trazado_1051942" data-name="Trazado 1051942" d="M93.57,40.6c0,1.18-.48,1.567-1.634,1.305-.378-.086-.754-.187-1.121-.309-.887-.3-1.114-.731-.9-1.67a1.265,1.265,0,0,1,1.6-.454,9.488,9.488,0,0,1,1.314.4,3.361,3.361,0,0,1,.735.726" transform="translate(-45.852 -20.091)" fill="#100c09"/>
      </g>
    </g>
  </g>
</svg>
