<svg xmlns="http://www.w3.org/2000/svg" xmlns:xlink="http://www.w3.org/1999/xlink" width="118" height="118" viewBox="0 0 118 118">
  <defs>
    <filter id="Elipse_12115" x="0" y="0" width="118" height="118" filterUnits="userSpaceOnUse">
      <feOffset dy="3" input="SourceAlpha"/>
      <feGaussianBlur stdDeviation="3" result="blur"/>
      <feFlood flood-opacity="0.161"/>
      <feComposite operator="in" in2="blur"/>
      <feComposite in="SourceGraphic"/>
    </filter>
    <clipPath id="clip-path">
      <rect id="Rectángulo_410125" data-name="Rectángulo 410125" width="56.785" height="56.785" fill="none"/>
    </clipPath>
  </defs>
  <g id="Grupo_1181948" data-name="Grupo 1181948" transform="translate(-799.781 -2543)">
    <g transform="matrix(1, 0, 0, 1, 799.78, 2543)" filter="url(#Elipse_12115)">
      <circle id="Elipse_12115-2" data-name="Elipse 12115" cx="50" cy="50" r="50" transform="translate(9 6)" fill="#f8de53"/>
    </g>
    <g id="Grupo_1185548" data-name="Grupo 1185548" transform="translate(830.389 2570.608)">
      <g id="Grupo_1185547" data-name="Grupo 1185547" clip-path="url(#clip-path)">
        <path id="Trazado_1051946" data-name="Trazado 1051946" d="M4.292,15c-.509.484-.977.318-1.448-.075a8.086,8.086,0,0,1-2.6-3.95A3.835,3.835,0,0,0,0,10.443V7.129A9.444,9.444,0,0,1,3.818,1.961a8.121,8.121,0,0,1,8.893.4,7.91,7.91,0,0,1,3.026,8.271,1.875,1.875,0,0,0,.56,2.088c3.99,4.168,7.927,8.385,12.173,12.9a5.308,5.308,0,0,1,.581-1q5.73-6.12,11.5-12.205a1.278,1.278,0,0,0,.35-1.434,7.852,7.852,0,0,1,.9-6.436c.413-.686.882-.954,1.614-.5a5.807,5.807,0,0,1-.335,1.614,6.158,6.158,0,0,0,.59,7.031l.24.262-.013,0a6.245,6.245,0,1,0,8.69-8.917,5.954,5.954,0,0,0-6.123-1.162c-.581.189-1.112.346-1.579-.2-.153-.769.235-1.109.925-1.365A7.984,7.984,0,0,1,56.238,6.554a7.894,7.894,0,0,1-6.045,10.035,12.9,12.9,0,0,1-3.783-.169,1.462,1.462,0,0,0-1.432.387q-2.356,2.328-4.829,4.534a4.6,4.6,0,0,1-1.448.568,1.129,1.129,0,0,1,.218-1.719c1.193-1.085,2.342-2.217,3.51-3.329l1.365-1.21-1.952-2.164-1.429,1.585a.968.968,0,0,0-.178.12Q27.645,28.588,15.064,41.988a2.906,2.906,0,0,0-.331.567l.211.183c.336-.3.677-.6,1.007-.908q9.686-9.118,19.364-18.246c.558-.527,1.071-.919,1.786-.294a4.377,4.377,0,0,1-.609,1.5c-1.47,1.489-3.026,2.893-4.643,4.416.279.315.528.612.794.893Q44.133,42.3,55.627,54.5c1.161,1.232,1.055,2-.388,2.788h-.663L28.293,32.521c-2.915,2.737-5.781,5.422-8.641,8.113Q11.415,48.388,3.178,56.143c-.44.413-.939.763-1.411,1.143H0V55.518q4.877-5.169,9.752-10.339Q16.79,37.7,23.817,30.207c.275-.294.543-.594.9-.988L11.079,16.347c-1.2.172-2.305.362-3.422.482a1.167,1.167,0,0,1-1.424-1.046c.328-.782,1-.7,1.668-.7a6.449,6.449,0,0,0,5.982-4.065A6.172,6.172,0,0,0,11.947,4a10.9,10.9,0,0,0-1.155-.808A6.292,6.292,0,0,0,2.935,5.042a6.129,6.129,0,0,0,.348,7.842c.3.722,1.565.982,1.009,2.112M31.851,31.859l-1.189-1.506-1.174,1.053,1.409,1.2,11.4,10.8.278-.272c-.226-.26-.443-.529-.679-.78-1.306-1.394-2.606-2.794-3.928-4.173-2.029-2.116-4.075-4.216-6.113-6.323M14.134,16.867l10.353,9.724,1.29,1.525,1.426-1.5-1.334-1.18L16.151,15.074l-1.378-1.511-2.126,1.983,1.487,1.321m-.387,26.957.166-.208c-.049-.035-.117-.111-.144-.1a1.206,1.206,0,0,0-.224.17l.2.137" transform="translate(0 -0.5)" fill="#0e0d0e"/>
        <path id="Trazado_1051947" data-name="Trazado 1051947" d="M114.914,5.465c.466.548,1,.39,1.579.2a5.954,5.954,0,0,1,6.123,1.161,17.172,17.172,0,0,1,0,2.362c-.567,4.21-3.181,6.485-7.374,6.489-.438,0-.876.043-1.315.067l.013,0-.24-.262a6.158,6.158,0,0,1-.59-7.031,5.8,5.8,0,0,0,.335-1.614l1.471-1.375" transform="translate(-70.027 -3.301)" fill="#a8c772"/>
        <path id="Trazado_1051948" data-name="Trazado 1051948" d="M61.517,46.941c-.716-.625-1.229-.233-1.786.294Q50.059,56.37,40.365,65.48c-.329.31-.671.606-1.007.908l-.211-.183a2.912,2.912,0,0,1,.332-.567q12.578-13.4,25.169-26.794a.976.976,0,0,1,.178-.121l2.016,1.788c-1.167,1.112-2.317,2.244-3.51,3.329a1.13,1.13,0,0,0-.218,1.719l-1.6,1.379" transform="translate(-24.415 -24.152)" fill="#c9dadf"/>
        <path id="Trazado_1051949" data-name="Trazado 1051949" d="M17.389,9.3a6.172,6.172,0,0,1,1.936,7.022,6.449,6.449,0,0,1-5.983,4.065c-.67,0-1.34-.085-1.668.7l-1.941-.787c.556-1.13-.711-1.39-1.009-2.112.552,0,1.1-.009,1.656-.006a6.769,6.769,0,0,0,6.529-4.162A7.25,7.25,0,0,0,17.389,9.3" transform="translate(-5.442 -5.798)" fill="#c51754"/>
        <path id="Trazado_1051950" data-name="Trazado 1051950" d="M14.742,6.832a7.25,7.25,0,0,1-.479,4.717A6.769,6.769,0,0,1,7.734,15.71c-.552,0-1.1,0-1.656.006A6.128,6.128,0,0,1,5.73,7.875a6.292,6.292,0,0,1,7.858-1.851,10.951,10.951,0,0,1,1.155.808" transform="translate(-2.795 -3.333)" fill="#d6316a"/>
        <path id="Trazado_1051951" data-name="Trazado 1051951" d="M116.65,18.291c.438-.023.876-.066,1.314-.067,4.193,0,6.807-2.279,7.374-6.489a17.106,17.106,0,0,0,0-2.361,6.245,6.245,0,1,1-8.69,8.917" transform="translate(-72.751 -5.846)" fill="#8db25c"/>
        <path id="Trazado_1051952" data-name="Trazado 1051952" d="M47.91,50.243,37.556,40.519l2.018-1.793,9.718,10.36L47.91,50.243" transform="translate(-23.423 -24.152)" fill="#cbdce2"/>
        <path id="Trazado_1051953" data-name="Trazado 1051953" d="M83.055,83.327c2.039,2.107,4.084,4.207,6.113,6.323,1.322,1.379,2.622,2.779,3.928,4.173.236.251.453.52.679.78l-.278.272-11.4-10.8.954-.747" transform="translate(-51.204 -51.969)" fill="#c4d4d9"/>
        <path id="Trazado_1051954" data-name="Trazado 1051954" d="M37.11,36.222l-2.018,1.793-1.487-1.321,2.126-1.983,1.378,1.511" transform="translate(-20.959 -21.648)" fill="#b4c5d1"/>
        <path id="Trazado_1051955" data-name="Trazado 1051955" d="M109.4,37.885,107.385,36.1l1.429-1.585,1.951,2.164L109.4,37.885" transform="translate(-66.973 -21.524)" fill="#b3c4d0"/>
        <path id="Trazado_1051956" data-name="Trazado 1051956" d="M65.068,67.411l1.383-1.157,1.334,1.18-1.427,1.5-1.29-1.525" transform="translate(-40.581 -41.321)" fill="#b1c2ce"/>
        <path id="Trazado_1051957" data-name="Trazado 1051957" d="M80.72,80.832l-.954.747-1.409-1.2,1.174-1.053,1.189,1.505" transform="translate(-48.869 -49.474)" fill="#abbcc7"/>
        <path id="Trazado_1051958" data-name="Trazado 1051958" d="M36.195,114.611l-.2-.137a1.206,1.206,0,0,1,.224-.17c.027-.012.095.064.144.1l-.166.208" transform="translate(-22.448 -71.287)" fill="#c9dadf"/>
        <path id="Trazado_1051959" data-name="Trazado 1051959" d="M116.047,32.379l.24.262-.24-.262" transform="translate(-72.375 -20.194)" fill="#8db25c"/>
      </g>
    </g>
  </g>
</svg>
