<svg xmlns="http://www.w3.org/2000/svg" xmlns:xlink="http://www.w3.org/1999/xlink" width="118" height="118" viewBox="0 0 118 118">
  <defs>
    <filter id="Elipse_12115" x="0" y="0" width="118" height="118" filterUnits="userSpaceOnUse">
      <feOffset dy="3" input="SourceAlpha"/>
      <feGaussianBlur stdDeviation="3" result="blur"/>
      <feFlood flood-opacity="0.161"/>
      <feComposite operator="in" in2="blur"/>
      <feComposite in="SourceGraphic"/>
    </filter>
    <clipPath id="clip-path">
      <rect id="Rectángulo_410104" data-name="Rectángulo 410104" width="61.023" height="61.023" fill="none"/>
    </clipPath>
  </defs>
  <g id="Grupo_1182011" data-name="Grupo 1182011" transform="translate(-799.781 -1970)">
    <g id="Grupo_1181939" data-name="Grupo 1181939" transform="translate(808.781 1976)">
      <g transform="matrix(1, 0, 0, 1, -9, -6)" filter="url(#Elipse_12115)">
        <circle id="Elipse_12115-2" data-name="Elipse 12115" cx="50" cy="50" r="50" transform="translate(9 6)" fill="#95c072"/>
      </g>
    </g>
    <g id="Grupo_1185523" data-name="Grupo 1185523" transform="translate(828.27 1995.489)">
      <g id="Grupo_1185522" data-name="Grupo 1185522" transform="translate(1 1)" clip-path="url(#clip-path)">
        <path id="Trazado_1051854" data-name="Trazado 1051854" d="M61.285,34.571c-.258.8-.521,1.593-.775,2.392a21.641,21.641,0,0,1-3.371,6.456,2.955,2.955,0,0,0-.494,1.809c.111,1.929.381,3.848.549,5.774a4.493,4.493,0,0,1-4.321,5.006,4.377,4.377,0,0,1-4.476-4.95c.021-.312.046-.624.055-.748a21.958,21.958,0,0,1-3.961-.038,4.647,4.647,0,0,1-3.6-6.777c.874-2.056,2-4,2.958-6.025a12.08,12.08,0,0,0,.916-2.647c.258-1.236-.373-2.2-1.574-2.1a59.9,59.9,0,0,0-6.237,1.07c-.177.034-.4.456-.4.7-.021,7.237-.017,14.474-.017,21.757a3.284,3.284,0,0,1,2.435,2.464,3.081,3.081,0,0,1-2.929,3.837q-16.2.06-32.4.007A3.171,3.171,0,0,1,.52,60.005a3.258,3.258,0,0,1,1.869-3.487,1.423,1.423,0,0,0,.662-1.013q.05-19.049,0-38.1a1.457,1.457,0,0,0-.7-1.007A3.243,3.243,0,0,1,.529,12.89,3.238,3.238,0,0,1,3.7,10.373q16.141-.024,32.282,0a3.145,3.145,0,0,1,3.063,2.61c.3,1.573-.575,2.91-2.457,3.7V31.741a50.87,50.87,0,0,1,5.819-.915c3.362-.155,5.061,2.167,3.94,5.35a53.929,53.929,0,0,1-2.368,4.986,27.931,27.931,0,0,0-1.468,3.319,2.9,2.9,0,0,0,2.847,4.074,21.645,21.645,0,0,0,3.284-.357c.348-3.727.679-7.3,1.015-10.869q.678-7.192,1.364-14.384c.079-.822.185-1.641.269-2.462a1.356,1.356,0,0,1,1.523-1.319,1.523,1.523,0,0,1,1.545,1.5c.277,2.749.5,5.5.75,8.256.376,4.08.763,8.158,1.172,12.52a17.135,17.135,0,0,0,3.169-10.187,1.639,1.639,0,0,1,.506-1.287c.295-.162.877.2,1.331.327Zm-9.23-2.856q-.024.477-.049.954a.814.814,0,0,0-.089.218c-.581,6.121-1.2,12.239-1.715,18.366A2.491,2.491,0,0,0,53.446,54a2.419,2.419,0,0,0,1.893-2.715c-.1-1.745-.319-3.483-.492-5.274a1.966,1.966,0,0,0-1.185,2.177,10.1,10.1,0,0,1-.045,1.538c-.409.117-.937.442-1.2.3a1.571,1.571,0,0,1-.556-1.162c-.064-1.484-.019-2.972-.027-4.459-.006-.933.4-1.394,1.367-1.26l.645,1.113c.746-.455.777-1.095.687-1.925-.418-3.888-.74-7.786-1.1-11.68-.172-1.849-.36-3.7-.541-5.546l-.287.006q-.269,3.189-.537,6.378a.226.226,0,0,0-.013.224M33.484,16.786a15.769,15.769,0,0,1-2.571-.1c-.471-.089-.867-.571-1.3-.876.158-.775.691-.958,1.4-.953,1.543.011,3.085-.017,4.627-.03,1,.107,1.634-.379,1.59-1.348a1.218,1.218,0,0,0-1.6-1.208c-.157-.014-.314-.039-.472-.039q-15.545,0-31.089,0c-.158,0-.317,0-.475.008-.815.045-1.357.573-1.207,1.281.108.509.733.952,1.21,1.317.2.153.614.029.93.029q10.858,0,21.715,0c.751,0,1.454.01,1.624.959-.159.8-.73.918-1.422.913-1.967-.015-3.933-.005-5.9-.005,3.034,1.108,6.105,1.929,9.108,2.949a5.056,5.056,0,0,0,3.824-.323l1.121-.305V16.786Zm.019,11.37L22.594,31.1c2.456.695,4.606,1.2,6.681,1.923a5.24,5.24,0,0,0,4.312-.289c.55-.067,1.123-.068,1.107-.885-.025-1.323-.007-2.647-.007-4.106l-1.183.412m-.031,19.433,1.114.264V41.2l-1.114.3L23.121,44.431c.01.089.02.178.03.267l10.322,2.892m.006-12.744c-1.7.461-3.4.909-5.1,1.386C22.69,37.835,17,39.45,11.227,41.086c.178.156.251.27.348.3q3.683,1.068,7.373,2.112a1.328,1.328,0,0,0,.688.027q6.923-1.988,13.839-4c.4-.259,1.128-.487,1.156-.781.125-1.348.055-2.713.055-4.241l-1.207.346m.048-8.8c.386-.277,1.078-.526,1.106-.837.124-1.343.053-2.7.053-4.138l-1.245.3L10.878,27.762c2,.58,3.732.994,5.4,1.584a8.813,8.813,0,0,0,5.964.037c3.724-1.227,7.519-2.238,11.285-3.339M35.64,60.665a1.209,1.209,0,0,0,1.6-1.2c.031-.96-.577-1.472-1.594-1.353-2.982-.013-5.964-.045-8.946-.024-.767.005-1.3-.194-1.519-.969.534-.3,1.056-.835,1.606-.865,1.934-.107,3.879-.042,5.82-.042-3.679-1.257-7.372-2.326-11.08-3.345a2.768,2.768,0,0,0-1.368.1c-2.276.611-4.544,1.255-6.811,1.9-1.325.377-2.643.776-3.964,1.165,4.23.182,8.417.191,12.6.173.732,0,1.348.082,1.566.911-.165.846-.76.974-1.5.968-2.806-.02-5.611-.008-8.417-.008-3.2,0-6.4-.008-9.6,0-1.237,0-1.866.619-1.647,1.581.193.851.812,1.059,1.605,1.056,4.07-.013,8.141,0,12.211-.007q9.72-.014,19.439-.041M33.586,49.7a8.235,8.235,0,0,0-.964-.411q-10.287-2.946-20.578-5.872c-2.338-.665-4.683-1.3-7.167-1.995,0,1.327.06,2.507-.019,3.678-.06.889.275,1.2,1.117,1.435,5.728,1.588,11.433,3.256,17.154,4.87,3.443.971,6.9,1.892,10.35,2.836l1.158.335V49.871L33.586,49.7M4.878,27.983c0,1.544-.045,2.847.034,4.143a1.229,1.229,0,0,0,.716.819c1,.367,2.066.541,3.036.956.381.163.572.768.85,1.172-.45.18-.931.563-1.344.5a30.869,30.869,0,0,1-3.232-.826v4.785c.914.237,1.863.8,2.646.626,2.709-.606,5.361-1.47,8.335-2.322-1.365-.391-2.408-.682-3.446-.991-.639-.19-1.462-.331-1.207-1.258.27-.977,1.088-.691,1.766-.5,1.516.424,3.032.849,4.53,1.332a5.167,5.167,0,0,0,3.313.062c2.183-.7,4.4-1.295,6.868-2.008L4.878,27.983m.045-11.1a8.2,8.2,0,0,1-.052,1.039c-.189,1.093.236,1.571,1.342,1.847,2.973.743,5.9,1.682,8.862,2.461,2.082.547,4.071,1.62,6.392.681,1.893-.765,3.923-1.191,5.893-1.768-2.381-.964-4.782-1.563-7.088-2.417A32.626,32.626,0,0,0,4.923,16.886m0,38.475,12.358-3.5c.006-.072.013-.143.02-.215l-12.378-3.5ZM15.941,24.413,4.88,21.265c0,1.527-.013,2.933.015,4.338,0,.2.173.526.32.561a6.75,6.75,0,0,0,2.728.473c2.577-.573,5.1-1.4,8-2.224" transform="translate(-0.263 -5.84)" fill="#120b0c"/>
        <path id="Trazado_1051855" data-name="Trazado 1051855" d="M39.144,94.365c-3.451-.943-6.908-1.864-10.351-2.836-5.721-1.614-11.426-3.282-17.154-4.87-.842-.233-1.177-.547-1.117-1.436.079-1.171.019-2.352.019-3.678,2.483.69,4.828,1.331,7.166,1.995Q28,86.466,38.285,89.413a8.2,8.2,0,0,1,.964.411q-.053,2.271-.106,4.542" transform="translate(-5.927 -45.961)" fill="#c31652"/>
        <path id="Trazado_1051856" data-name="Trazado 1051856" d="M10.559,50.742l22.865,6.489c-2.466.713-4.685,1.3-6.868,2.007a5.164,5.164,0,0,1-3.313-.062c-1.5-.483-3.014-.908-4.53-1.332-.678-.19-1.5-.476-1.766.5-.256.926.567,1.068,1.206,1.258,1.038.309,2.082.6,3.446.991-2.974.852-5.626,1.715-8.336,2.322-.783.175-1.732-.39-2.646-.626V57.5a30.869,30.869,0,0,0,3.232.826c.413.063.894-.32,1.344-.5-.278-.4-.469-1.009-.85-1.172-.97-.415-2.041-.589-3.036-.956a1.229,1.229,0,0,1-.716-.819c-.078-1.3-.034-2.6-.034-4.143" transform="translate(-5.944 -28.6)" fill="#c21652"/>
        <path id="Trazado_1051857" data-name="Trazado 1051857" d="M30.337,18.239c-.17-.949-.873-.96-1.623-.959q-10.858.012-21.715,0c-.316,0-.73.124-.93-.029-.477-.364-1.1-.808-1.21-1.317-.15-.707.393-1.235,1.207-1.281.158-.009.316-.008.474-.008q15.545,0,31.09,0c.158,0,.315.026.472.039q0,1.278.007,2.557c-1.543.012-3.085.041-4.627.03-.712-.005-1.245.178-1.4.953l-1.742.008" transform="translate(-2.725 -8.257)" fill="#fed43a"/>
        <path id="Trazado_1051858" data-name="Trazado 1051858" d="M27.6,117.5c.219.775.752.974,1.519.969,2.982-.021,5.964.011,8.946.024q0,1.278-.006,2.555-9.719.022-19.438.042c-4.07.006-8.141-.006-12.211.007-.794,0-1.412-.206-1.605-1.056-.219-.961.41-1.576,1.647-1.581,3.2-.012,6.4,0,9.6,0,2.806,0,5.611-.012,8.417.008.742.005,1.337-.122,1.5-.968l1.627,0" transform="translate(-2.686 -66.224)" fill="#fed43a"/>
        <path id="Trazado_1051859" data-name="Trazado 1051859" d="M46.975,40.261c-3.766,1.1-7.561,2.112-11.285,3.339a8.813,8.813,0,0,1-5.964-.037c-1.667-.59-3.395-1-5.4-1.584l22.561-6.393q.044,2.337.087,4.674" transform="translate(-13.711 -20.058)" fill="#c41653"/>
        <path id="Trazado_1051860" data-name="Trazado 1051860" d="M47.374,71.144q-6.918,2.006-13.839,4a1.321,1.321,0,0,1-.687-.027q-3.691-1.041-7.373-2.112c-.1-.028-.171-.142-.348-.3,5.776-1.636,11.462-3.251,17.152-4.854,1.7-.478,3.4-.925,5.1-1.386q0,2.338,0,4.676" transform="translate(-14.162 -37.463)" fill="#c41653"/>
        <path id="Trazado_1051861" data-name="Trazado 1051861" d="M10.556,25.016A32.622,32.622,0,0,1,25.9,26.86c2.307.853,4.708,1.452,7.088,2.417-1.969.576-4,1-5.892,1.768-2.321.939-4.31-.135-6.392-.682-2.965-.779-5.889-1.718-8.862-2.46-1.107-.277-1.531-.754-1.342-1.847a8.189,8.189,0,0,0,.052-1.039" transform="translate(-5.896 -13.97)" fill="#c31653"/>
        <path id="Trazado_1051862" data-name="Trazado 1051862" d="M10.675,104.157V96.938l12.378,3.5c-.007.072-.013.143-.019.215l-12.359,3.5" transform="translate(-6.017 -54.637)" fill="#c11552"/>
        <path id="Trazado_1051863" data-name="Trazado 1051863" d="M36.7,111.949l-1.627,0c-.218-.829-.835-.914-1.566-.911-4.186.017-8.373.008-12.6-.173,1.321-.389,2.639-.788,3.964-1.165,2.267-.645,4.534-1.288,6.811-1.9a2.771,2.771,0,0,1,1.369-.1c3.708,1.019,7.4,2.087,11.08,3.345-1.941,0-3.885-.065-5.82.041-.55.031-1.072.563-1.606.866" transform="translate(-11.781 -60.672)" fill="#c31653"/>
        <path id="Trazado_1051864" data-name="Trazado 1051864" d="M117.431,71.958c-.967-.134-1.373.327-1.368,1.26.009,1.487-.036,2.975.028,4.459a1.57,1.57,0,0,0,.556,1.162c.261.147.788-.179,1.2-.3a3.215,3.215,0,0,1,.32.46c.643,1.372-.2,2.558-.492,3.814a2.491,2.491,0,0,1-3.243-2.751c.516-6.127,1.134-12.245,1.715-18.366a.819.819,0,0,1,.089-.218c.163.18.455.35.47.542.263,3.31.492,6.622.728,9.934" transform="translate(-64.489 -34.653)" fill="#dbd6db"/>
        <path id="Trazado_1051865" data-name="Trazado 1051865" d="M21.637,38.5c-2.9.828-5.421,1.651-8,2.224a6.75,6.75,0,0,1-2.728-.473c-.147-.035-.317-.364-.32-.561-.027-1.405-.015-2.811-.015-4.338L21.637,38.5" transform="translate(-5.959 -19.923)" fill="#c01551"/>
        <path id="Trazado_1051866" data-name="Trazado 1051866" d="M62.734,87.806,52.413,84.914c-.01-.089-.02-.178-.03-.267l10.351-2.932q0,3.046,0,6.091" transform="translate(-29.524 -46.057)" fill="#c21552"/>
        <path id="Trazado_1051867" data-name="Trazado 1051867" d="M62.167,55.719a5.237,5.237,0,0,1-4.311.289c-2.075-.723-4.225-1.228-6.681-1.923l10.91-2.946.082,4.579" transform="translate(-28.843 -28.824)" fill="#c31653"/>
        <path id="Trazado_1051868" data-name="Trazado 1051868" d="M53.821,22.865l1.742-.008c.43.3.826.787,1.3.876a15.822,15.822,0,0,0,2.571.1q0,1.284,0,2.569a5.056,5.056,0,0,1-3.824.323c-3-1.02-6.075-1.84-9.109-2.949,1.967,0,3.933-.01,5.9.005.692.005,1.263-.118,1.422-.913" transform="translate(-26.208 -12.883)" fill="#c31653"/>
        <path id="Trazado_1051869" data-name="Trazado 1051869" d="M119.776,62.19c-.236-3.312-.465-6.624-.728-9.934-.015-.192-.307-.362-.47-.542l.048-.954c.029-.02.086-.047.083-.058a1.063,1.063,0,0,0-.069-.165q.268-3.19.536-6.379l.287-.006c.181,1.848.368,3.7.541,5.546.363,3.894.686,7.792,1.1,11.68.089.83.058,1.47-.688,1.925l-.644-1.113" transform="translate(-66.834 -24.885)" fill="#c8c1c8"/>
        <path id="Trazado_1051870" data-name="Trazado 1051870" d="M121.876,100.056c.291-1.256,1.135-2.442.491-3.815a3.2,3.2,0,0,0-.32-.46,10.041,10.041,0,0,0,.045-1.538,1.965,1.965,0,0,1,1.185-2.177c.172,1.79.391,3.529.492,5.274a2.42,2.42,0,0,1-1.893,2.715" transform="translate(-68.693 -51.891)" fill="#c9c2c9"/>
        <path id="Trazado_1051871" data-name="Trazado 1051871" d="M76.1,87.424q0-3.046,0-6.091l1.114-.3v6.65L76.1,87.424" transform="translate(-42.894 -45.675)" fill="#76092d"/>
        <path id="Trazado_1051872" data-name="Trazado 1051872" d="M76.109,70.7q0-2.338,0-4.676l1.207-.346c0,1.528.07,2.893-.055,4.241-.027.294-.752.523-1.155.782" transform="translate(-42.897 -37.016)" fill="#76092d"/>
        <path id="Trazado_1051873" data-name="Trazado 1051873" d="M76.115,39.874q-.044-2.337-.087-4.674l1.246-.3c0,1.434.071,2.795-.053,4.138-.028.31-.72.559-1.106.837" transform="translate(-42.851 -19.671)" fill="#76082d"/>
        <path id="Trazado_1051874" data-name="Trazado 1051874" d="M76.258,55.186l-.082-4.579,1.183-.412c0,1.459-.018,2.783.007,4.106.016.817-.557.818-1.108.885" transform="translate(-42.935 -28.291)" fill="#76092d"/>
        <path id="Trazado_1051875" data-name="Trazado 1051875" d="M76.121,105.057q.053-2.271.106-4.542l1.052.169v4.708l-1.158-.335" transform="translate(-42.904 -56.653)" fill="#76092d"/>
        <path id="Trazado_1051876" data-name="Trazado 1051876" d="M81.079,17.259,81.072,14.7a1.218,1.218,0,0,1,1.6,1.207c.044.97-.586,1.456-1.591,1.349" transform="translate(-45.694 -8.268)" fill="#f4a700"/>
        <path id="Trazado_1051877" data-name="Trazado 1051877" d="M81.072,122.317q0-1.277.006-2.555c1.017-.119,1.624.394,1.594,1.353a1.208,1.208,0,0,1-1.6,1.2" transform="translate(-45.694 -67.491)" fill="#f7a900"/>
        <path id="Trazado_1051878" data-name="Trazado 1051878" d="M76.134,27.653q0-1.284,0-2.569h1.123v2.263l-1.121.305" transform="translate(-42.909 -14.138)" fill="#76092d"/>
        <path id="Trazado_1051879" data-name="Trazado 1051879" d="M118.673,58.783a1.023,1.023,0,0,1,.069.165c0,.012-.054.039-.082.058a.226.226,0,0,1,.013-.224" transform="translate(-66.866 -33.132)" fill="#dbd6db"/>
      </g>
    </g>
  </g>
</svg>
