<svg xmlns="http://www.w3.org/2000/svg" xmlns:xlink="http://www.w3.org/1999/xlink" width="118" height="118" viewBox="0 0 118 118">
  <defs>
    <filter id="Elipse_12115" x="0" y="0" width="118" height="118" filterUnits="userSpaceOnUse">
      <feOffset dy="3" input="SourceAlpha"/>
      <feGaussianBlur stdDeviation="3" result="blur"/>
      <feFlood flood-opacity="0.161"/>
      <feComposite operator="in" in2="blur"/>
      <feComposite in="SourceGraphic"/>
    </filter>
  </defs>
  <g id="Grupo_1181944" data-name="Grupo 1181944" transform="translate(-799.781 -1970)">
    <g id="Grupo_1181939" data-name="Grupo 1181939" transform="translate(808.781 1976)">
      <g transform="matrix(1, 0, 0, 1, -9, -6)" filter="url(#Elipse_12115)">
        <circle id="Elipse_12115-2" data-name="Elipse 12115" cx="50" cy="50" r="50" transform="translate(9 6)" fill="#95c072"/>
      </g>
    </g>
    <g id="Grupo_1185518" data-name="Grupo 1185518" transform="translate(826.888 1994.106)">
      <g id="Grupo_1185519" data-name="Grupo 1185519">
        <path id="Trazado_1051821" data-name="Trazado 1051821" d="M0,63.786V0M20.847,10.175c-1.444,0-2.761-.01-4.078,0A12.169,12.169,0,0,0,5.2,19.691a15,15,0,0,0,1.073,8.573,8.384,8.384,0,0,1-.184,6.59c-.7,1.59-1.645,3.226-.9,5.066a1.167,1.167,0,0,1-.371,1.47,11.353,11.353,0,0,0-3.559,7.165C.984,52.916,1.062,57.3,1,61.676c-.005.356.035.713.053,1.046H24.808c.064-2.678-.212-5.33.846-7.912H62.48V1.307H20.847v8.868Z" fill="#fff"/>
        <path id="Trazado_1051822" data-name="Trazado 1051822" d="M21.689,11.281V2.412H63.321v53.5H26.5c-1.058,2.582-.782,5.234-.846,7.912H1.889c-.018-.333-.058-.69-.053-1.046.067-4.375-.011-8.76.268-13.122A11.351,11.351,0,0,1,5.663,42.5a1.168,1.168,0,0,0,.371-1.47c-.744-1.839.2-3.475.9-5.065a8.384,8.384,0,0,0,.183-6.59C6.089,26.607,5.4,23.807,6.046,20.8a12.168,12.168,0,0,1,11.566-9.514c1.316-.011,2.633,0,4.078,0m.988,24.811H21.611c.381,1.085-.582,2.313.8,3a36.7,36.7,0,0,0,3.333,2.93,12.1,12.1,0,0,0,3.684,1.867c3.966,1.046,9.366-3.256,7.647-7.754-.939-2.458-.631-4.68,1.664-6.335-4.329-3.142-5-7.695-3.256-11.41A8.84,8.84,0,0,1,44.6,13.349a8.965,8.965,0,0,1,7.779,7.663,8.8,8.8,0,0,1-4.928,9.162,1.435,1.435,0,0,0-.959,1.581c.058,2.025.015,4.053.021,6.08a3.15,3.15,0,0,1-1.5,2.806,2.034,2.034,0,0,0-.754,1.129A13,13,0,0,1,31.51,51.984c-1.275.017-2.551,0-3.828,0-.13.7-.242,1.294-.357,1.908h34V4.415H23.676c0,2.23-.033,4.379.032,6.525a1.419,1.419,0,0,0,.693,1.051,10.475,10.475,0,0,1,5.005,4.417c1.765,2.9,1.59,5.775-.527,8.065a19.829,19.829,0,0,1-1.535,1.364c2.548,3.338.828,5.118-1.687,5.423a4.4,4.4,0,0,1-2.981,4.833m-4.715,12.37a17.974,17.974,0,0,1-6.234-7.693c-4.5,1.973-7.309,5.2-7.71,10.027-.3,3.614-.129,7.268-.159,10.9,0,.06.1.12.127.147H9.732A13.885,13.885,0,0,0,8.7,55.153c-1.735-3.907-.841-7.469,2.351-9.677L12.4,46.755c-.18.207-.332.4-.5.574-2.351,2.446-2.586,4.082-1.306,7.161A19.021,19.021,0,0,1,11.7,58.651a20.467,20.467,0,0,1,.034,3.261H23.709a16.577,16.577,0,0,1,1.452-8.336,4.906,4.906,0,0,0-1.089-5.7c-.356-.389-.717-.774-1.152-1.243l1.607-1.462L27.954,50c.884,0,2.205.052,3.522-.01,4.472-.209,7.919-2.144,9.956-6.217.644-1.287,1.513-2.686-.282-3.962-.441-.314-.712-.956-1.327-.692a1.887,1.887,0,0,0-.808,1.023,8.944,8.944,0,0,1-13.572,4.25c-.842-.575-1.6-1.265-2.276-1.8l-5.2,5.871M26.655,23.7c1.127-.923,2-1.767,1.9-3.08a7.72,7.72,0,0,0-6.718-7.15,22.309,22.309,0,0,0-3.822-.184A10.137,10.137,0,0,0,8.464,26.925,34.357,34.357,0,0,1,9.73,31.813C10.075,34.018,9.109,36,8.316,38a17.565,17.565,0,0,0-.564,2.512C8.7,40,9.228,39.684,9.787,39.429c.6-.272,1.215-.507,1.837-.719,2.12-.724,2.142-.718,2.114-2.959-.014-1.073.193-2.111-.794-3.073-2.19-2.133-1.274-5.4,1.633-6.4a4.266,4.266,0,0,0,1.528-.936,19.733,19.733,0,0,0,4.08-6,3.357,3.357,0,0,1,6.469,1.5c.007.867,0,1.733,0,2.864m.046,5.328c-.1-.432-.091-.582-.161-.661-1.841-2.081-2.072-4.576-1.874-7.189.068-.911-.188-1.7-1.179-1.9-.911-.187-1.288.479-1.612,1.206a21.485,21.485,0,0,1-5.106,7.06,1.9,1.9,0,0,1-.887.582c-.919.113-1.678.336-1.991,1.345-.332,1.071.334,1.694.949,2.37.322.354.839.743.852,1.131.08,2.338.04,4.68.04,6.978l-2.01.306A14.444,14.444,0,0,0,17.908,45.8l3.67-4.829c-2.559-1.011-1.7-3.089-1.92-4.877H17.78V34.115c1.209,0,2.358.017,3.507,0a2.112,2.112,0,0,0,2.384-2.352c.022-.852,0-1.705,0-2.544l3.027-.184m16.712.105a6.993,6.993,0,0,0,7.053-6.815,6.94,6.94,0,1,0-7.053,6.815m-2.887,3.985a22.23,22.23,0,0,0,2.959-.043c.371-.051.676-.576,1.011-.886-.331-.349-.621-.933-1-1a8.476,8.476,0,0,0-2.588,0,2.526,2.526,0,0,0-2.22,3.209c.2.841.433,1.673.661,2.507.017.062.113.1.154.137h1.024Zm2.017,2.019a18.529,18.529,0,0,0,.042,2.773c.065.417.574.765.881,1.144.351-.379.934-.718,1.006-1.144a17.57,17.57,0,0,0,.048-2.866l-1.977.092" transform="translate(-0.841 -1.105)" fill="#0c0909"/>
        <path id="Trazado_1051823" data-name="Trazado 1051823" d="M40.083,37.786a4.4,4.4,0,0,0,2.981-4.833c2.514-.3,4.235-2.085,1.687-5.423a20.045,20.045,0,0,0,1.535-1.364c2.118-2.29,2.292-5.166.527-8.065a10.48,10.48,0,0,0-5.005-4.417,1.42,1.42,0,0,1-.693-1.051c-.065-2.146-.032-4.295-.032-6.524H78.728v49.48h-34c.115-.615.226-1.212.357-1.909,1.277,0,2.553.015,3.828,0A13,13,0,0,0,61.668,43.465a2.041,2.041,0,0,1,.755-1.129,3.148,3.148,0,0,0,1.5-2.806c-.005-2.027.038-4.055-.021-6.08a1.435,1.435,0,0,1,.959-1.581,8.8,8.8,0,0,0,4.929-9.162,8.965,8.965,0,0,0-7.779-7.663,8.84,8.84,0,0,0-9.117,5.039c-1.746,3.716-1.074,8.268,3.256,11.41-2.295,1.654-2.6,3.877-1.664,6.335,1.719,4.5-3.682,8.8-7.647,7.755a12.1,12.1,0,0,1-3.684-1.867,36.789,36.789,0,0,1-3.333-2.93q.133-1.5.265-3M56.928,8.074h-13.8v5.831h13.8Zm19.853.02H59.039v1.82H76.781ZM76.8,35.88H65.975v1.845H76.8ZM65.953,41.715H76.771V39.832H65.953Zm-.022,3.95H76.746v-1.84H65.931Zm0,3.973h10.82V47.794H65.928Zm0,3.971h10.82V51.765H65.929Zm1.017-39.692h9.826V12.034H66.946Z" transform="translate(-18.248 -2.8)" fill="#dfe3e8"/>
        <path id="Trazado_1051824" data-name="Trazado 1051824" d="M19.654,79.461l5.2-5.872c.672.535,1.434,1.225,2.276,1.8a8.944,8.944,0,0,0,13.572-4.249,1.888,1.888,0,0,1,.808-1.023c.615-.264.885.378,1.327.692,1.8,1.276.926,2.674.282,3.962-2.037,4.073-5.484,6.008-9.957,6.217-1.316.061-2.638.009-3.521.009l-3.428-4.829-1.607,1.463c.435.469.8.853,1.152,1.243a4.907,4.907,0,0,1,1.089,5.7A16.579,16.579,0,0,0,25.4,92.912H13.426a20.467,20.467,0,0,0-.034-3.261,19.005,19.005,0,0,0-1.106-4.162c-1.28-3.079-1.046-4.715,1.3-7.162.168-.175.321-.366.5-.573l-1.346-1.28c-3.192,2.209-4.086,5.77-2.351,9.678a13.884,13.884,0,0,1,1.029,6.692H5.678c-.024-.026-.128-.087-.127-.146.03-3.636-.141-7.29.159-10.9.4-4.828,3.209-8.053,7.71-10.027a17.977,17.977,0,0,0,6.234,7.693m.7,1.6H18.487V82.9h1.869Zm-1.84,5.817h1.795V84.991H18.517Zm-.034,3.978h1.835V89H18.482Z" transform="translate(-2.534 -32.105)" fill="#c51653"/>
        <path id="Trazado_1051825" data-name="Trazado 1051825" d="M31.659,32.892c0-1.131.005-2,0-2.864a3.357,3.357,0,0,0-6.468-1.5,19.744,19.744,0,0,1-4.08,6,4.262,4.262,0,0,1-1.528.936c-2.907,1-3.823,4.267-1.633,6.4.988.962.78,2,.794,3.073.029,2.242.007,2.235-2.114,2.959-.622.212-1.239.447-1.836.719-.56.256-1.09.575-2.037,1.083a17.565,17.565,0,0,1,.564-2.512c.794-2,1.759-3.982,1.415-6.187a34.427,34.427,0,0,0-1.265-4.888,10.137,10.137,0,0,1,9.553-13.636,22.309,22.309,0,0,1,3.822.184,7.72,7.72,0,0,1,6.718,7.15c.1,1.313-.777,2.158-1.9,3.08" transform="translate(-5.845 -10.294)" fill="#a36434"/>
        <path id="Trazado_1051826" data-name="Trazado 1051826" d="M36.755,43.277l-3.026.184c0,.839.018,1.692,0,2.544a2.112,2.112,0,0,1-2.384,2.352c-1.148.022-2.3,0-3.506,0v1.976h1.877c.224,1.787-.639,3.865,1.92,4.877l-3.67,4.829a14.437,14.437,0,0,1-4.186-5.535l2.01-.307c0-2.3.04-4.64-.04-6.978-.013-.387-.53-.777-.852-1.131-.616-.676-1.282-1.3-.949-2.371.313-1.008,1.071-1.231,1.99-1.345a1.906,1.906,0,0,0,.888-.582,21.5,21.5,0,0,0,5.106-7.06c.323-.727.7-1.393,1.611-1.206.991.2,1.248.988,1.179,1.9-.2,2.612.034,5.107,1.874,7.189.07.08.061.23.161.661" transform="translate(-10.896 -15.351)" fill="#edc3a3"/>
        <path id="Trazado_1051827" data-name="Trazado 1051827" d="M72.81,40a6.942,6.942,0,1,1,7.053-6.815A7.028,7.028,0,0,1,72.81,40M72.946,28.1a4.961,4.961,0,1,0,4.943,4.94,4.971,4.971,0,0,0-4.943-4.94" transform="translate(-30.239 -11.968)" fill="#f8cf39"/>
        <path id="Trazado_1051828" data-name="Trazado 1051828" d="M71.632,57.384v3.923H70.608c-.041-.035-.138-.075-.154-.137-.228-.834-.465-1.666-.661-2.508a2.525,2.525,0,0,1,2.219-3.209,8.459,8.459,0,0,1,2.588,0c.38.066.67.65,1,1-.335.31-.64.834-1.011.886a22.227,22.227,0,0,1-2.958.042" transform="translate(-31.947 -25.369)" fill="#ebc1a1"/>
        <path id="Trazado_1051829" data-name="Trazado 1051829" d="M76.953,62.75l1.977-.092a17.569,17.569,0,0,1-.048,2.866c-.072.426-.655.765-1.006,1.144-.308-.379-.816-.727-.881-1.144a18.53,18.53,0,0,1-.042-2.773" transform="translate(-35.251 -28.715)" fill="#808b96"/>
        <path id="Trazado_1051830" data-name="Trazado 1051830" d="M39.406,64.584q-.132,1.5-.265,3c-1.383-.685-.42-1.914-.8-3Z" transform="translate(-17.571 -29.598)" fill="#fefefe"/>
        <path id="Trazado_1051831" data-name="Trazado 1051831" d="M59.731,15.568h-13.8V9.737h13.8ZM47.9,13.585h9.82V11.72H47.9Z" transform="translate(-21.051 -4.462)" fill="#040506"/>
        <rect id="Rectángulo_410092" data-name="Rectángulo 410092" width="17.742" height="1.82" transform="translate(40.791 5.295)" fill="#040506"/>
        <rect id="Rectángulo_410093" data-name="Rectángulo 410093" width="10.82" height="1.845" transform="translate(47.727 33.081)" fill="#040506"/>
        <rect id="Rectángulo_410094" data-name="Rectángulo 410094" width="10.818" height="1.883" transform="translate(47.705 37.032)" fill="#040506"/>
        <rect id="Rectángulo_410095" data-name="Rectángulo 410095" width="10.815" height="1.84" transform="translate(47.683 41.025)" fill="#040506"/>
        <rect id="Rectángulo_410096" data-name="Rectángulo 410096" width="10.82" height="1.845" transform="translate(47.68 44.994)" fill="#040506"/>
        <rect id="Rectángulo_410097" data-name="Rectángulo 410097" width="10.82" height="1.844" transform="translate(47.681 48.965)" fill="#040506"/>
        <rect id="Rectángulo_410098" data-name="Rectángulo 410098" width="9.826" height="1.883" transform="translate(48.698 9.234)" fill="#040506"/>
        <rect id="Rectángulo_410099" data-name="Rectángulo 410099" width="1.869" height="1.847" transform="translate(15.954 48.952)" fill="#040506"/>
        <rect id="Rectángulo_410100" data-name="Rectángulo 410100" width="1.795" height="1.884" transform="translate(15.983 52.886)" fill="#040506"/>
        <rect id="Rectángulo_410101" data-name="Rectángulo 410101" width="1.835" height="1.857" transform="translate(15.949 56.89)" fill="#040506"/>
        <path id="Trazado_1051832" data-name="Trazado 1051832" d="M74.622,29.788a4.961,4.961,0,1,1-4.981,4.906,4.949,4.949,0,0,1,4.981-4.906m-.043,7.925a2.964,2.964,0,1,0-2.947-2.919,3.059,3.059,0,0,0,2.947,2.919" transform="translate(-31.915 -13.651)" fill="#111107"/>
        <rect id="Rectángulo_410102" data-name="Rectángulo 410102" width="9.82" height="1.865" transform="translate(26.848 7.258)" fill="#fed43a"/>
        <path id="Trazado_1051833" data-name="Trazado 1051833" d="M76.263,39.4a2.964,2.964,0,1,1,2.987-3,3.075,3.075,0,0,1-2.987,3" transform="translate(-33.599 -15.34)" fill="#8cb15c"/>
      </g>
    </g>
  </g>
</svg>
