<svg id="Grupo_1185858" data-name="Grupo 1185858" xmlns="http://www.w3.org/2000/svg" xmlns:xlink="http://www.w3.org/1999/xlink" width="424.951" height="207.327" viewBox="0 0 424.951 207.327">
  <defs>
    <clipPath id="clip-path">
      <rect id="Rectángulo_410298" data-name="Rectángulo 410298" width="424.951" height="207.327" fill="none"/>
    </clipPath>
  </defs>
  <g id="Grupo_1185857" data-name="Grupo 1185857" transform="translate(0 0)" clip-path="url(#clip-path)">
    <path id="Trazado_1053282" data-name="Trazado 1053282" d="M140,184.341h-.075l-4.278-.056a5.345,5.345,0,0,1,.067-10.69h.075l4.278.056a5.345,5.345,0,0,1-.067,10.69m12.746-.916a5.347,5.347,0,0,1-1.14-10.57,36.852,36.852,0,0,0,3.6-.986,5.348,5.348,0,0,1,3.339,10.162,48.186,48.186,0,0,1-4.649,1.268,5.4,5.4,0,0,1-1.151.126m15.509-6.949a5.348,5.348,0,0,1-3.126-9.69,36.379,36.379,0,0,0,2.9-2.327,5.345,5.345,0,0,1,7.105,7.988,46.809,46.809,0,0,1-3.766,3.023,5.318,5.318,0,0,1-3.115,1.006m11.48-12.511a5.346,5.346,0,0,1-4.571-8.108,37.02,37.02,0,0,0,1.757-3.283,5.345,5.345,0,1,1,9.673,4.551,47.092,47.092,0,0,1-2.274,4.255,5.347,5.347,0,0,1-4.585,2.584m5.649-16.026a5.335,5.335,0,0,1-5.3-6.066,35.175,35.175,0,0,0,.3-3.7,5.287,5.287,0,0,1,5.507-5.18,5.349,5.349,0,0,1,5.183,5.507,45.743,45.743,0,0,1-.4,4.817,5.34,5.34,0,0,1-5.289,4.624m-1.062-16.976a5.348,5.348,0,0,1-5.242-4.325c-.271-1.389-.55-2.752-.838-4.1a5.347,5.347,0,1,1,10.461-2.218q.448,2.108.872,4.278a5.344,5.344,0,0,1-5.253,6.368m-3.783-16.672a5.345,5.345,0,0,1-5.169-4q-.536-2.049-1.087-4.046a5.347,5.347,0,1,1,10.3-2.858q.574,2.079,1.129,4.208a5.346,5.346,0,0,1-3.825,6.521,5.252,5.252,0,0,1-1.352.173M175.7,97.9a5.346,5.346,0,0,1-5.068-3.646q-.671-1.995-1.363-3.962a5.348,5.348,0,0,1,10.086-3.56c.481,1.361.947,2.735,1.414,4.118A5.35,5.35,0,0,1,175.7,97.9m-5.954-16.018a5.341,5.341,0,0,1-4.948-3.319c-.534-1.3-1.073-2.584-1.623-3.875a5.347,5.347,0,1,1,9.838-4.191q.851,2,1.679,4.012a5.347,5.347,0,0,1-4.945,7.373m-6.918-15.638a5.353,5.353,0,0,1-4.836-3.059q-.9-1.9-1.824-3.814a5.347,5.347,0,0,1,9.625-4.66c.631,1.3,1.249,2.6,1.864,3.895a5.351,5.351,0,0,1-4.828,7.639m-7.569-15.328A5.344,5.344,0,0,1,150.49,48l-1.945-3.777a5.348,5.348,0,0,1,9.5-4.909l1.964,3.825a5.349,5.349,0,0,1-4.755,7.778m-7.9-15.163a5.351,5.351,0,0,1-4.739-2.864l-1.989-3.769a5.348,5.348,0,0,1,9.458-5l2,3.794a5.351,5.351,0,0,1-4.73,7.834m-7.982-15.124a5.345,5.345,0,0,1-4.739-2.861l-1.987-3.783a5.346,5.346,0,1,1,9.463-4.976L144.1,12.8a5.349,5.349,0,0,1-4.727,7.834" transform="translate(233.876 11.036)" fill="#91a5b6"/>
    <path id="Trazado_1053283" data-name="Trazado 1053283" d="M34.755,184.775c-.394,0-.81-.011-1.229-.028a5.35,5.35,0,0,1-5.119-5.566,5.284,5.284,0,0,1,5.566-5.119c.307.011.626.025.914.02l3.1-.025h.047a5.345,5.345,0,0,1,.045,10.69l-3.152.025c-.053,0-.112,0-.168,0m16.1-.137a5.345,5.345,0,0,1-.042-10.69l4.278-.036h.045a5.346,5.346,0,0,1,.042,10.693l-4.278.034Zm17.108-.145a5.345,5.345,0,0,1-.045-10.69l4.278-.036h.048a5.345,5.345,0,0,1,.045,10.69l-4.278.036Zm17.108-.145a5.345,5.345,0,0,1-.042-10.69l4.278-.036h.045a5.345,5.345,0,0,1,.042,10.69l-4.278.036Zm17.108-.145a5.345,5.345,0,0,1-.045-10.69l4.278-.039h.048a5.345,5.345,0,0,1,.045,10.69l-4.278.039Zm-80.746-2.665a5.319,5.319,0,0,1-2.431-.59,34.848,34.848,0,0,1-4.317-2.624,5.347,5.347,0,0,1,6.205-8.709,24.42,24.42,0,0,0,2.984,1.816,5.347,5.347,0,0,1-2.442,10.106M9.229,169.9a5.341,5.341,0,0,1-4.641-2.685,34.4,34.4,0,0,1-2.193-4.551,5.346,5.346,0,1,1,9.947-3.923,24.667,24.667,0,0,0,1.517,3.149,5.349,5.349,0,0,1-4.63,8.01m-3.878-16.42c-.1,0-.2,0-.307-.008a5.345,5.345,0,0,1-5.035-5.641,34.6,34.6,0,0,1,.645-5,5.345,5.345,0,0,1,10.477,2.123,25.235,25.235,0,0,0-.45,3.481,5.341,5.341,0,0,1-5.331,5.04M11.042,137.6a5.349,5.349,0,0,1-4.3-8.519,35.77,35.77,0,0,1,3.266-3.833,5.348,5.348,0,0,1,7.625,7.5,24.33,24.33,0,0,0-2.28,2.674,5.343,5.343,0,0,1-4.311,2.177M24.49,127.412a5.347,5.347,0,0,1-1.875-10.354c.43-.162.866-.316,1.3-.458.939-.31,1.852-.631,2.76-.967a5.347,5.347,0,1,1,3.7,10.033q-1.534.57-3.1,1.084c-.3.1-.606.21-.911.324a5.4,5.4,0,0,1-1.875.338m15.752-6.627a5.348,5.348,0,0,1-2.5-10.081q1.79-.939,3.523-1.959a5.346,5.346,0,0,1,5.4,9.229q-1.949,1.14-3.948,2.193a5.3,5.3,0,0,1-2.481.617M54.575,111.5a5.346,5.346,0,0,1-3.294-9.558q1.6-1.245,3.132-2.559a5.346,5.346,0,0,1,6.94,8.133q-1.71,1.463-3.487,2.853a5.331,5.331,0,0,1-3.291,1.132M67.047,99.835a5.349,5.349,0,0,1-3.979-8.918c.9-1,1.774-2.023,2.629-3.065a5.346,5.346,0,1,1,8.273,6.773q-1.429,1.752-2.942,3.434a5.326,5.326,0,0,1-3.981,1.777M77.265,86.145a5.347,5.347,0,0,1-4.543-8.15c.7-1.148,1.391-2.311,2.048-3.492a5.347,5.347,0,0,1,9.337,5.211q-1.1,1.974-2.285,3.889a5.337,5.337,0,0,1-4.557,2.543m7.653-15.28a5.35,5.35,0,0,1-4.973-7.306q.738-1.878,1.4-3.794a5.346,5.346,0,1,1,10.114,3.47q-.733,2.142-1.562,4.241a5.348,5.348,0,0,1-4.976,3.389m4.842-16.4a5.286,5.286,0,0,1-1.137-.123,5.343,5.343,0,0,1-4.093-6.356l.905-4.18a5.347,5.347,0,0,1,10.452,2.263l-.908,4.18a5.349,5.349,0,0,1-5.219,4.216M93.381,37.75a5.279,5.279,0,0,1-1.134-.123,5.342,5.342,0,0,1-4.1-6.354l.9-4.18A5.345,5.345,0,1,1,99.5,29.351l-.9,4.18a5.344,5.344,0,0,1-5.219,4.219M97,21.028a5.267,5.267,0,0,1-1.137-.123,5.346,5.346,0,0,1-4.093-6.356l.905-4.18a5.346,5.346,0,1,1,10.449,2.263l-.905,4.18A5.349,5.349,0,0,1,97,21.028" transform="translate(0 11.036)" fill="#91a5b6"/>
    <path id="Trazado_1053284" data-name="Trazado 1053284" d="M136.9,16.6a2.144,2.144,0,0,1-1.894-1.14l-1.5-2.841a2.139,2.139,0,0,1,3.783-2l1.5,2.839A2.141,2.141,0,0,1,136.9,16.6" transform="translate(239.066 17.013)" fill="#d9eaeb"/>
    <path id="Trazado_1053285" data-name="Trazado 1053285" d="M147.8,164.845a2.138,2.138,0,0,1-.69-4.163,39.556,39.556,0,0,0,5.789-2.509,2.139,2.139,0,0,1,2.009,3.777,43.863,43.863,0,0,1-6.418,2.78,2.127,2.127,0,0,1-.69.115m15.1-9.083a2.139,2.139,0,0,1-1.464-3.7,39.954,39.954,0,0,0,4.258-4.669,2.139,2.139,0,1,1,3.378,2.626,44.658,44.658,0,0,1-4.711,5.163,2.126,2.126,0,0,1-1.461.578m10.078-14.467a2.137,2.137,0,0,1-1.97-2.967,39.514,39.514,0,0,0,1.981-5.993,2.138,2.138,0,1,1,4.155,1.011,43.906,43.906,0,0,1-2.2,6.641,2.132,2.132,0,0,1-1.97,1.308m3.266-17.323a2.139,2.139,0,0,1-2.137-2.084,40.808,40.808,0,0,0-.659-6.286,2.139,2.139,0,0,1,4.208-.774,45.6,45.6,0,0,1,.729,6.949,2.138,2.138,0,0,1-2.082,2.193l-.059,0m-2.909-17.493a2.143,2.143,0,0,1-2.084-1.676q-.729-3.286-1.509-6.429a2.139,2.139,0,0,1,4.152-1.028q.792,3.2,1.531,6.53a2.141,2.141,0,0,1-1.626,2.554,2.182,2.182,0,0,1-.464.05m-4.406-17.194a2.136,2.136,0,0,1-2.051-1.539q-.939-3.206-1.942-6.3a2.139,2.139,0,0,1,4.071-1.316q1.023,3.16,1.973,6.421a2.137,2.137,0,0,1-1.45,2.654,2.257,2.257,0,0,1-.6.084m-5.6-16.842a2.144,2.144,0,0,1-2.006-1.394q-1.148-3.1-2.38-6.152a2.139,2.139,0,1,1,3.967-1.6q1.253,3.11,2.425,6.261a2.141,2.141,0,0,1-1.26,2.749,2.115,2.115,0,0,1-.746.134m-6.739-16.417a2.136,2.136,0,0,1-1.953-1.268q-1.337-3-2.752-6.015a2.139,2.139,0,1,1,3.872-1.819c.956,2.04,1.883,4.065,2.786,6.094a2.136,2.136,0,0,1-1.953,3.009m-7.6-16.04a2.144,2.144,0,0,1-1.917-1.187q-1.458-2.929-2.99-5.926a2.139,2.139,0,0,1,3.811-1.942q1.538,3.013,3.009,5.962a2.142,2.142,0,0,1-1.914,3.093m-8.1-15.8a2.139,2.139,0,0,1-1.9-1.146l-3.093-5.89a2.137,2.137,0,1,1,3.78-1.995l3.1,5.9a2.137,2.137,0,0,1-.9,2.886,2.108,2.108,0,0,1-.989.246" transform="translate(243.36 25.141)" fill="#d9eaeb"/>
    <path id="Trazado_1053286" data-name="Trazado 1053286" d="M136.92,71.6c-.215,0-.43,0-.648,0a2.139,2.139,0,0,1,.031-4.278c.2-.011.414.006.618.006.83,0,1.651-.028,2.467-.075a2.175,2.175,0,0,1,2.258,2.009,2.134,2.134,0,0,1-2.006,2.26q-1.349.08-2.719.081" transform="translate(240.689 120.624)" fill="#d9eaeb"/>
    <path id="Trazado_1053287" data-name="Trazado 1053287" d="M35.6,17.343a2.081,2.081,0,0,1-.453-.05,2.137,2.137,0,0,1-1.64-2.54l.676-3.135a2.138,2.138,0,1,1,4.18.9l-.676,3.135A2.138,2.138,0,0,1,35.6,17.343" transform="translate(60.031 17.809)" fill="#d9eaeb"/>
    <path id="Trazado_1053288" data-name="Trazado 1053288" d="M40.687,165.846a2.139,2.139,0,0,1-.022-4.278l6.555-.067h.022a2.139,2.139,0,0,1,.022,4.278l-6.557.067Zm-10.919-.084c-.073,0-.145-.006-.224-.011a31.862,31.862,0,0,1-6.851-1.489,2.139,2.139,0,0,1,1.363-4.054,27.418,27.418,0,0,0,5.929,1.288,2.139,2.139,0,0,1-.218,4.266m28.4-.095a2.139,2.139,0,0,1-.02-4.278l6.555-.07a2.114,2.114,0,0,1,2.163,2.118,2.142,2.142,0,0,1-2.118,2.163l-6.557.067Zm17.482-.179a2.14,2.14,0,0,1-.022-4.28l6.555-.064H82.2a2.139,2.139,0,0,1,.022,4.278l-6.555.067ZM13.9,159.068a2.139,2.139,0,0,1-1.375-.5,32.3,32.3,0,0,1-4.856-5.051,2.138,2.138,0,1,1,3.389-2.607,27.858,27.858,0,0,0,4.213,4.378,2.14,2.14,0,0,1-1.372,3.78M4.43,144.679a2.136,2.136,0,0,1-2.051-1.54,31.841,31.841,0,0,1-1.221-6.9,2.138,2.138,0,1,1,4.266-.279,27.925,27.925,0,0,0,1.056,5.979,2.136,2.136,0,0,1-1.45,2.652,2.043,2.043,0,0,1-.6.087m.148-17.228a2.139,2.139,0,0,1-2.042-2.774,31.818,31.818,0,0,1,2.816-6.423,2.14,2.14,0,0,1,3.7,2.143,27.537,27.537,0,0,0-2.439,5.554,2.136,2.136,0,0,1-2.04,1.5m9.7-14.235a2.14,2.14,0,0,1-1.341-3.805,31.639,31.639,0,0,1,5.915-3.769,2.138,2.138,0,1,1,1.883,3.839,27.169,27.169,0,0,0-5.113,3.261,2.141,2.141,0,0,1-1.344.475m15.7-7.446a2.138,2.138,0,0,1-.813-4.116c1.947-.8,3.912-1.693,5.828-2.643a2.139,2.139,0,0,1,1.9,3.833c-2.009.995-4.06,1.925-6.1,2.763a2.09,2.09,0,0,1-.813.162M45.44,97.678a2.139,2.139,0,0,1-1.162-3.937c1.791-1.157,3.562-2.389,5.261-3.657A2.14,2.14,0,0,1,52.1,93.515c-1.777,1.324-3.627,2.61-5.5,3.819a2.129,2.129,0,0,1-1.157.344M59.183,86.924a2.139,2.139,0,0,1-1.467-3.7c1.551-1.456,3.071-2.987,4.518-4.546a2.139,2.139,0,0,1,3.135,2.911c-1.512,1.629-3.1,3.227-4.722,4.75a2.126,2.126,0,0,1-1.464.581M70.767,73.868a2.14,2.14,0,0,1-1.718-3.409c1.266-1.718,2.484-3.5,3.624-5.286a2.138,2.138,0,1,1,3.607,2.3C75.089,69.339,73.815,71.2,72.491,73a2.139,2.139,0,0,1-1.724.872m9.039-14.937a2.113,2.113,0,0,1-.933-.218,2.134,2.134,0,0,1-.983-2.858c.925-1.894,1.8-3.864,2.612-5.853a2.138,2.138,0,0,1,3.962,1.609c-.844,2.079-1.763,4.138-2.733,6.122a2.139,2.139,0,0,1-1.925,1.2M86,42.609a2.163,2.163,0,0,1-.573-.081A2.138,2.138,0,0,1,83.944,39.9q.742-2.661,1.33-5.378l.187-.872a2.138,2.138,0,0,1,4.18.9l-.187.872q-.616,2.846-1.389,5.621A2.14,2.14,0,0,1,86,42.609m3.864-17.052a2.146,2.146,0,0,1-2.093-2.59l1.386-6.407a2.138,2.138,0,1,1,4.18.9L91.954,23.87a2.136,2.136,0,0,1-2.087,1.688" transform="translate(2.069 26.679)" fill="#d9eaeb"/>
    <path id="Trazado_1053289" data-name="Trazado 1053289" d="M35.483,71.482a2.139,2.139,0,0,1-.022-4.278l3.21-.034h.022a2.139,2.139,0,0,1,.02,4.278l-3.207.034Z" transform="translate(59.817 120.504)" fill="#d9eaeb"/>
    <rect id="Rectángulo_410280" data-name="Rectángulo 410280" width="6.418" height="18.141" transform="translate(357.565 10.899)" fill="#d98882"/>
    <rect id="Rectángulo_410281" data-name="Rectángulo 410281" width="6.418" height="18.141" transform="translate(109.2 10.899)" fill="#d98882"/>
    <path id="Trazado_1053290" data-name="Trazado 1053290" d="M47.552,22.388A11.194,11.194,0,1,1,58.748,11.2a11.207,11.207,0,0,1-11.2,11.193m0-18.111A6.917,6.917,0,1,0,54.47,11.2a6.925,6.925,0,0,0-6.918-6.918" transform="translate(65.224 0)" fill="#d98882"/>
    <path id="Trazado_1053291" data-name="Trazado 1053291" d="M136.314,22.388a11.194,11.194,0,1,1,11.2-11.193,11.207,11.207,0,0,1-11.2,11.193m0-18.111a6.917,6.917,0,1,0,6.915,6.918,6.925,6.925,0,0,0-6.915-6.918" transform="translate(224.459 0)" fill="#d98882"/>
    <path id="Trazado_1053292" data-name="Trazado 1053292" d="M302.548,188.941H58.829a27.3,27.3,0,0,1-27.3-27.3V37.546a27.3,27.3,0,0,1,27.3-27.3H302.548a27.3,27.3,0,0,1,27.3,27.3v124.1a27.3,27.3,0,0,1-27.3,27.3" transform="translate(56.568 18.387)" fill="#eba895"/>
    <path id="Trazado_1053293" data-name="Trazado 1053293" d="M33.063,36.3V34.8a23.046,23.046,0,0,1,23.02-23.02H299.8a23.046,23.046,0,0,1,23.02,23.02V36.3a963.64,963.64,0,0,0-289.758,0" transform="translate(59.314 21.132)" fill="#ffccb0"/>
    <path id="Trazado_1053294" data-name="Trazado 1053294" d="M322.821,64.114v.894A23.046,23.046,0,0,1,299.8,88.03H56.083a23.046,23.046,0,0,1-23.02-23.022v-.894c94.819,11.321,191.469,10.919,289.758,0" transform="translate(59.314 115.02)" fill="#dc9284"/>
    <path id="Trazado_1053295" data-name="Trazado 1053295" d="M39.324,135.248V10.81a27.485,27.485,0,0,1,5.526-.562H288.569a27.457,27.457,0,0,1,4.526.405V135.248a19.439,19.439,0,0,1-19.438,19.438H58.762a19.439,19.439,0,0,1-19.438-19.438" transform="translate(70.547 18.385)" fill="#dc9284"/>
    <path id="Trazado_1053296" data-name="Trazado 1053296" d="M41.412,130.359V10.34H52.1c11.944-5.04,24.1-4.878,36.436,0a47.479,47.479,0,0,1,36.839,0c12.2-4.987,24.484-4.929,36.836,0,12.2-4.987,24.484-4.929,36.836,0,12.2-4.99,24.484-4.929,36.836,0a47.225,47.225,0,0,1,36.741,0h10.7V130.359a14.708,14.708,0,0,1-14.708,14.708H56.12a14.708,14.708,0,0,1-14.708-14.708" transform="translate(74.292 11.878)" fill="#eba895"/>
    <path id="Trazado_1053297" data-name="Trazado 1053297" d="M262.435,133.053H49.942a5.089,5.089,0,0,1-5.085-5.085V7.953H47V127.968a2.947,2.947,0,0,0,2.945,2.945H262.435a2.949,2.949,0,0,0,2.948-2.945V7.953h2.137V127.968a5.089,5.089,0,0,1-5.085,5.085" transform="translate(80.473 14.268)" fill="#d98882"/>
    <rect id="Rectángulo_410282" data-name="Rectángulo 410282" width="2.14" height="54.499" transform="matrix(0.749, -0.663, 0.663, 0.749, 125.596, 106.664)" fill="#d98882"/>
    <rect id="Rectángulo_410283" data-name="Rectángulo 410283" width="2.14" height="110.944" transform="matrix(0.749, -0.663, 0.663, 0.749, 125.035, 64.384)" fill="#d98882"/>
    <rect id="Rectángulo_410284" data-name="Rectángulo 410284" width="2.141" height="166.292" transform="translate(125.198 22.929) rotate(-41.495)" fill="#d98882"/>
    <rect id="Rectángulo_410285" data-name="Rectángulo 410285" width="2.141" height="166.292" transform="translate(162.035 22.929) rotate(-41.495)" fill="#d98882"/>
    <rect id="Rectángulo_410286" data-name="Rectángulo 410286" width="2.141" height="166.292" transform="translate(198.87 22.929) rotate(-41.495)" fill="#d98882"/>
    <rect id="Rectángulo_410287" data-name="Rectángulo 410287" width="2.14" height="164.381" transform="translate(235.709 22.928) rotate(-41.494)" fill="#d98882"/>
    <rect id="Rectángulo_410288" data-name="Rectángulo 410288" width="2.141" height="110.943" transform="matrix(0.749, -0.663, 0.663, 0.749, 272.542, 22.93)" fill="#d98882"/>
    <rect id="Rectángulo_410289" data-name="Rectángulo 410289" width="2.14" height="55.346" transform="translate(309.377 22.929) rotate(-41.496)" fill="#d98882"/>
    <rect id="Rectángulo_410290" data-name="Rectángulo 410290" width="55.348" height="2.14" transform="matrix(0.662, -0.749, 0.749, 0.662, 309.392, 146.08)" fill="#d98882"/>
    <rect id="Rectángulo_410291" data-name="Rectángulo 410291" width="110.944" height="2.14" transform="matrix(0.662, -0.749, 0.749, 0.662, 272.572, 146.093)" fill="#d98882"/>
    <rect id="Rectángulo_410292" data-name="Rectángulo 410292" width="166.292" height="2.141" transform="matrix(0.662, -0.749, 0.749, 0.662, 235.753, 146.107)" fill="#d98882"/>
    <rect id="Rectángulo_410293" data-name="Rectángulo 410293" width="166.292" height="2.141" transform="matrix(0.662, -0.749, 0.749, 0.662, 198.915, 146.107)" fill="#d98882"/>
    <rect id="Rectángulo_410294" data-name="Rectángulo 410294" width="166.292" height="2.141" transform="matrix(0.662, -0.749, 0.749, 0.662, 162.08, 146.106)" fill="#d98882"/>
    <rect id="Rectángulo_410295" data-name="Rectángulo 410295" width="163.966" height="2.139" transform="matrix(0.662, -0.749, 0.749, 0.662, 126.785, 144.364)" fill="#d98882"/>
    <path id="Trazado_1053298" data-name="Trazado 1053298" d="M46.561,92.842l-1.609-1.405L117.894,7.7,119.5,9.106Z" transform="translate(80.642 13.815)" fill="#d98882"/>
    <rect id="Rectángulo_410296" data-name="Rectángulo 410296" width="55.346" height="2.14" transform="matrix(0.662, -0.749, 0.749, 0.662, 125.05, 62.98)" fill="#d98882"/>
    <rect id="Rectángulo_410297" data-name="Rectángulo 410297" width="37.001" height="39.532" transform="translate(217.76 85.46)" fill="#d98882"/>
    <path id="Trazado_1053299" data-name="Trazado 1053299" d="M71.917,50.029,88.907,30.82,105.9,50.029,88.907,69.237Z" transform="translate(129.017 55.291)" fill="#eba895"/>
    <path id="Trazado_1053300" data-name="Trazado 1053300" d="M92.538,35.018,75.548,54.227l-16.716-18.9L75.693,15.974Z" transform="translate(105.543 28.658)" fill="#eba895"/>
    <path id="Trazado_1053301" data-name="Trazado 1053301" d="M105.9,35.124,88.907,54.333,71.917,35.124,88.91,15.915Z" transform="translate(129.017 28.552)" fill="#eba895"/>
    <path id="Trazado_1053302" data-name="Trazado 1053302" d="M65.325,42.577l16.99-19.209L99.308,42.577,82.315,61.785Z" transform="translate(117.192 41.922)" fill="#eba895"/>
    <path id="Trazado_1053303" data-name="Trazado 1053303" d="M69.131,8.463,86.267,27.833,69.405,47.19,52.141,27.671Z" transform="translate(93.54 15.182)" fill="#eba895"/>
    <path id="Trazado_1053304" data-name="Trazado 1053304" d="M58.733,50.029,75.723,30.82,92.716,50.029,75.723,69.237Z" transform="translate(105.366 55.291)" fill="#eba895"/>
    <path id="Trazado_1053305" data-name="Trazado 1053305" d="M99.22,27.668,82.227,46.876,65.373,27.821,82.235,8.465Z" transform="translate(117.279 15.186)" fill="#eba895"/>
    <path id="Trazado_1053306" data-name="Trazado 1053306" d="M145.452,35.124l-16.99,19.209L111.469,35.124l16.99-19.209Z" transform="translate(199.973 28.552)" fill="#eba895"/>
    <path id="Trazado_1053307" data-name="Trazado 1053307" d="M134.056,45.031l-16-18.083,16-18.083Z" transform="translate(211.798 15.906)" fill="#eba895"/>
    <path id="Trazado_1053308" data-name="Trazado 1053308" d="M125.676,27.672,108.686,46.88,91.693,27.672,108.686,8.463Z" transform="translate(164.495 15.183)" fill="#eba895"/>
    <path id="Trazado_1053309" data-name="Trazado 1053309" d="M119.084,35.124l-16.99,19.209L85.1,35.124l16.99-19.209Z" transform="translate(152.668 28.553)" fill="#eba895"/>
    <path id="Trazado_1053310" data-name="Trazado 1053310" d="M138.86,27.672,121.87,46.88,104.877,27.672l16.99-19.209Z" transform="translate(188.147 15.183)" fill="#eba895"/>
    <path id="Trazado_1053311" data-name="Trazado 1053311" d="M62.606,29.355,45.819,10.378v-.045H45.78l-.268-.3c11.274-4.546,22.729-4.473,34.355-.19Z" transform="translate(81.648 11.887)" fill="#eba895"/>
    <path id="Trazado_1053312" data-name="Trazado 1053312" d="M111.469,50.029l16.99-19.209,16.993,19.209L128.459,69.237Z" transform="translate(199.973 55.291)" fill="#eba895"/>
    <path id="Trazado_1053313" data-name="Trazado 1053313" d="M45.749,50.347,62.608,30.993,79.173,49.718,62.183,68.927Z" transform="translate(82.072 55.601)" fill="#eba895"/>
    <path id="Trazado_1053314" data-name="Trazado 1053314" d="M85.856,42.368,68.866,61.577,52.29,42.84,69.151,23.483Z" transform="translate(93.807 42.129)" fill="#eba895"/>
    <path id="Trazado_1053315" data-name="Trazado 1053315" d="M118.061,56.758l16-18.083V72.854a2.908,2.908,0,0,1-.427,1.5Z" transform="translate(211.799 69.382)" fill="#eba895"/>
    <path id="Trazado_1053316" data-name="Trazado 1053316" d="M95.5,46.881,78.509,27.672,95.5,8.463l16.99,19.209Z" transform="translate(140.844 15.183)" fill="#eba895"/>
    <path id="Trazado_1053317" data-name="Trazado 1053317" d="M134.054,59.933l-15.993-18.08,15.993-18.083Z" transform="translate(211.8 42.645)" fill="#eba895"/>
    <path id="Trazado_1053318" data-name="Trazado 1053318" d="M85.1,50.029l16.99-19.209,16.993,19.209L102.091,69.237Z" transform="translate(152.669 55.291)" fill="#eba895"/>
    <path id="Trazado_1053319" data-name="Trazado 1053319" d="M91.693,42.576l16.99-19.209,16.993,19.209-16.99,19.209Z" transform="translate(164.495 41.921)" fill="#eba895"/>
    <path id="Trazado_1053320" data-name="Trazado 1053320" d="M78.509,42.576,95.5,23.368l16.993,19.209L95.5,61.785Z" transform="translate(140.843 41.921)" fill="#eba895"/>
    <path id="Trazado_1053321" data-name="Trazado 1053321" d="M98.285,50.029l16.99-19.209,16.993,19.209-16.99,19.209Z" transform="translate(176.321 55.291)" fill="#eba895"/>
    <path id="Trazado_1053322" data-name="Trazado 1053322" d="M104.877,42.576l16.99-19.209L138.86,42.576,121.87,61.785Z" transform="translate(188.147 41.921)" fill="#eba895"/>
    <path id="Trazado_1053323" data-name="Trazado 1053323" d="M132.268,35.124l-16.99,19.209L98.285,35.124l16.993-19.209Z" transform="translate(176.321 28.552)" fill="#eba895"/>
    <path id="Trazado_1053324" data-name="Trazado 1053324" d="M75.972,29.486,58.669,9.925a47.214,47.214,0,0,1,34.413-.081Z" transform="translate(105.251 11.908)" fill="#eba895"/>
    <path id="Trazado_1053325" data-name="Trazado 1053325" d="M102.206,29.336,85.037,9.926a47.207,47.207,0,0,1,34.411-.084Z" transform="translate(152.555 11.907)" fill="#eba895"/>
    <path id="Trazado_1053326" data-name="Trazado 1053326" d="M89.022,29.335,71.853,9.925a47.221,47.221,0,0,1,34.411-.084Z" transform="translate(128.903 11.907)" fill="#eba895"/>
    <path id="Trazado_1053327" data-name="Trazado 1053327" d="M45.622,9.123,60.983,26.487,45.622,43.852Z" transform="translate(81.845 16.366)" fill="#eba895"/>
    <path id="Trazado_1053328" data-name="Trazado 1053328" d="M128.572,29.335,111.406,9.928a46.994,46.994,0,0,1,34.388-.064Z" transform="translate(199.86 11.907)" fill="#eba895"/>
    <path id="Trazado_1053329" data-name="Trazado 1053329" d="M45.622,34.892,62.408,15.915l17.275,19.53L62.822,54.8l-17.2-19.446Z" transform="translate(81.845 28.552)" fill="#eba895"/>
    <path id="Trazado_1053330" data-name="Trazado 1053330" d="M115.39,29.335,98.221,9.925a47.207,47.207,0,0,1,34.411-.081Z" transform="translate(176.207 11.908)" fill="#eba895"/>
    <path id="Trazado_1053331" data-name="Trazado 1053331" d="M46.213,62.838,61.351,45.725,76.765,63.151H47.509a2.9,2.9,0,0,1-1.3-.313" transform="translate(82.905 82.03)" fill="#eba895"/>
    <path id="Trazado_1053332" data-name="Trazado 1053332" d="M45.622,24.028,61.405,41.873,45.622,59.992Z" transform="translate(81.845 43.106)" fill="#eba895"/>
    <path id="Trazado_1053333" data-name="Trazado 1053333" d="M95.351,76.522,78.509,57.481,95.5,38.272l16.993,19.209L95.647,76.522Z" transform="translate(140.844 68.66)" fill="#eba895"/>
    <path id="Trazado_1053334" data-name="Trazado 1053334" d="M108.537,76.522,91.692,57.481l16.993-19.209,16.993,19.209L108.833,76.522Z" transform="translate(164.494 68.66)" fill="#eba895"/>
    <path id="Trazado_1053335" data-name="Trazado 1053335" d="M101.081,45.724,116.5,63.153H85.664Z" transform="translate(153.68 82.029)" fill="#eba895"/>
    <path id="Trazado_1053336" data-name="Trazado 1053336" d="M121.719,76.522,104.877,57.481l16.99-19.209L138.86,57.481,122.015,76.522Z" transform="translate(188.147 68.66)" fill="#eba895"/>
    <path id="Trazado_1053337" data-name="Trazado 1053337" d="M114.266,45.725l15.417,17.429H98.848Z" transform="translate(177.332 82.029)" fill="#eba895"/>
    <path id="Trazado_1053338" data-name="Trazado 1053338" d="M87.9,45.724l15.417,17.429H72.48Z" transform="translate(130.028 82.029)" fill="#eba895"/>
    <path id="Trazado_1053339" data-name="Trazado 1053339" d="M82.169,76.522,65.324,57.481,82.317,38.272,99.31,57.481,82.465,76.522Z" transform="translate(117.19 68.66)" fill="#eba895"/>
    <path id="Trazado_1053340" data-name="Trazado 1053340" d="M112.033,63.153,127.45,45.724l15.3,17.3a2.974,2.974,0,0,1-.824.131Z" transform="translate(200.985 82.028)" fill="#eba895"/>
    <path id="Trazado_1053341" data-name="Trazado 1053341" d="M45.622,72.393V38.932L60.983,56.3,45.823,73.438a2.9,2.9,0,0,1-.2-1.045" transform="translate(81.845 69.844)" fill="#eba895"/>
    <path id="Trazado_1053342" data-name="Trazado 1053342" d="M68.983,76.522,52.141,57.481l16.99-19.209,16.99,19.209L69.279,76.522Z" transform="translate(93.54 68.66)" fill="#eba895"/>
    <path id="Trazado_1053343" data-name="Trazado 1053343" d="M74.713,45.725,90.13,63.153H59.3Z" transform="translate(106.376 82.029)" fill="#eba895"/>
    <path id="Trazado_1053344" data-name="Trazado 1053344" d="M67.682,27.185l-6.815,2.99,11.2-12.85L83.175,29.884l-7.069-2.7Z" transform="translate(109.196 31.082)" fill="#ffccb0"/>
    <path id="Trazado_1053345" data-name="Trazado 1053345" d="M81.029,27.309l-7.069,2.7L85.24,17.257,96.522,30.008l-7.069-2.7Z" transform="translate(132.684 30.958)" fill="#ffccb0"/>
    <path id="Trazado_1053346" data-name="Trazado 1053346" d="M76.911,22.742,65.466,9.8,54.184,22.558l11.531,6.619Z" transform="translate(97.206 17.587)" fill="#ffccb0"/>
    <path id="Trazado_1053347" data-name="Trazado 1053347" d="M89.857,22.534,78.605,9.816,67.41,22.668l11.165,6.205Z" transform="translate(120.932 17.61)" fill="#ffccb0"/>
    <path id="Trazado_1053348" data-name="Trazado 1053348" d="M120.584,27.309l-7.072,2.7,11.282-12.752,11.282,12.752L129,27.309Z" transform="translate(203.639 30.958)" fill="#ffccb0"/>
    <path id="Trazado_1053349" data-name="Trazado 1053349" d="M126.112,11.938,120.1,18.73l6.007,6.792Z" transform="translate(215.465 21.416)" fill="#ffccb0"/>
    <path id="Trazado_1053350" data-name="Trazado 1053350" d="M116.3,22.558,105.018,9.8,93.736,22.558l11.282,6.34Z" transform="translate(168.16 17.588)" fill="#ffccb0"/>
    <path id="Trazado_1053351" data-name="Trazado 1053351" d="M94.215,27.309l-7.072,2.7L98.426,17.257l11.282,12.755-7.069-2.7Z" transform="translate(156.334 30.958)" fill="#ffccb0"/>
    <path id="Trazado_1053352" data-name="Trazado 1053352" d="M129.484,22.558,118.2,9.8,106.92,22.558,118.2,28.895Z" transform="translate(191.812 17.588)" fill="#ffccb0"/>
    <path id="Trazado_1053353" data-name="Trazado 1053353" d="M67.4,8.3a42.775,42.775,0,0,0-9.561-1.112,40.263,40.263,0,0,0-9.634,1.179l9.569,10.818Z" transform="translate(86.479 12.894)" fill="#ffccb0"/>
    <path id="Trazado_1053354" data-name="Trazado 1053354" d="M103.116,22.558,91.834,9.8,80.552,22.558,91.834,28.9Z" transform="translate(144.509 17.588)" fill="#ffccb0"/>
    <path id="Trazado_1053355" data-name="Trazado 1053355" d="M107.4,27.309l-7.072,2.7L111.61,17.257l11.282,12.752-7.072-2.7Z" transform="translate(179.987 30.958)" fill="#ffccb0"/>
    <path id="Trazado_1053356" data-name="Trazado 1053356" d="M80.636,8.313A43.034,43.034,0,0,0,71.013,7.2a42.01,42.01,0,0,0-9.628,1.134l9.687,10.955Z" transform="translate(110.124 12.913)" fill="#ffccb0"/>
    <path id="Trazado_1053357" data-name="Trazado 1053357" d="M106.945,8.3a43.031,43.031,0,0,0-9.567-1.1,41.986,41.986,0,0,0-9.625,1.134l9.581,10.832Z" transform="translate(157.427 12.913)" fill="#ffccb0"/>
    <path id="Trazado_1053358" data-name="Trazado 1053358" d="M93.76,8.3A42.963,42.963,0,0,0,84.2,7.2a42.207,42.207,0,0,0-9.631,1.134l9.583,10.832Z" transform="translate(133.774 12.913)" fill="#ffccb0"/>
    <path id="Trazado_1053359" data-name="Trazado 1053359" d="M52.526,18.269l-5.373-6.074V24.343Z" transform="translate(84.592 21.877)" fill="#ffccb0"/>
    <path id="Trazado_1053360" data-name="Trazado 1053360" d="M133.306,8.3a41.57,41.57,0,0,0-19.183.036L123.7,19.165Z" transform="translate(204.734 12.913)" fill="#ffccb0"/>
    <path id="Trazado_1053361" data-name="Trazado 1053361" d="M54.663,27.309l-7.072,2.7L58.874,17.257l11.587,13.1-6.666-3.043Z" transform="translate(85.379 30.958)" fill="#ffccb0"/>
    <path id="Trazado_1053362" data-name="Trazado 1053362" d="M120.127,8.3a42.987,42.987,0,0,0-9.564-1.1,41.986,41.986,0,0,0-9.625,1.134l9.581,10.829Z" transform="translate(181.081 12.913)" fill="#ffccb0"/>
    <path id="Trazado_1053363" data-name="Trazado 1053363" d="M95.524,39.268,84.851,51.333,74.178,39.268l10.673,2.137Z" transform="translate(133.074 70.447)" fill="#dc9284"/>
    <path id="Trazado_1053364" data-name="Trazado 1053364" d="M82.34,39.268,71.667,51.333,60.994,39.268l10.673,2.137Z" transform="translate(109.422 70.447)" fill="#dc9284"/>
    <path id="Trazado_1053365" data-name="Trazado 1053365" d="M135.074,39.268,124.4,51.333l-10.67-12.064,10.7,2.137Z" transform="translate(204.031 70.447)" fill="#dc9284"/>
    <path id="Trazado_1053366" data-name="Trazado 1053366" d="M69.155,39.268,58.482,51.333,47.811,39.268l10.67,2.137Z" transform="translate(85.773 70.447)" fill="#dc9284"/>
    <path id="Trazado_1053367" data-name="Trazado 1053367" d="M126.112,44.043,120.1,50.835l6.007,6.789Z" transform="translate(215.465 79.012)" fill="#dc9284"/>
    <path id="Trazado_1053368" data-name="Trazado 1053368" d="M108.708,39.268,98.035,51.333,87.362,39.268l10.673,2.137Z" transform="translate(156.726 70.447)" fill="#dc9284"/>
    <path id="Trazado_1053369" data-name="Trazado 1053369" d="M121.892,39.268,111.219,51.333,100.546,39.268l10.676,2.137Z" transform="translate(180.377 70.447)" fill="#dc9284"/>
    <path id="Trazado_1053370" data-name="Trazado 1053370" d="M61.352,56.057l-5.92-6.694-5.92,6.694Z" transform="translate(88.822 88.555)" fill="#dc9284"/>
    <path id="Trazado_1053371" data-name="Trazado 1053371" d="M103.116,48.865,91.834,45.141,80.552,48.865,91.834,61.617Z" transform="translate(144.509 80.982)" fill="#dc9284"/>
    <path id="Trazado_1053372" data-name="Trazado 1053372" d="M116.3,48.865l-11.282-3.724L93.736,48.865l11.282,12.752Z" transform="translate(168.16 80.982)" fill="#dc9284"/>
    <path id="Trazado_1053373" data-name="Trazado 1053373" d="M100.908,56.057l-5.923-6.694-5.923,6.694Z" transform="translate(159.775 88.555)" fill="#dc9284"/>
    <path id="Trazado_1053374" data-name="Trazado 1053374" d="M129.484,48.865,118.2,45.141,106.92,48.865,118.2,61.617Z" transform="translate(191.812 80.982)" fill="#dc9284"/>
    <path id="Trazado_1053375" data-name="Trazado 1053375" d="M114.091,56.057l-5.92-6.694-5.923,6.694Z" transform="translate(183.429 88.555)" fill="#dc9284"/>
    <path id="Trazado_1053376" data-name="Trazado 1053376" d="M87.724,56.057,81.8,49.362l-5.923,6.694Z" transform="translate(136.124 88.555)" fill="#dc9284"/>
    <path id="Trazado_1053377" data-name="Trazado 1053377" d="M89.932,48.865,78.65,45.141,67.368,48.865,78.65,61.617Z" transform="translate(120.857 80.982)" fill="#dc9284"/>
    <path id="Trazado_1053378" data-name="Trazado 1053378" d="M127.275,56.057l-5.923-6.694-5.92,6.694Z" transform="translate(207.081 88.555)" fill="#dc9284"/>
    <path id="Trazado_1053379" data-name="Trazado 1053379" d="M52.526,50.374,47.153,44.3V56.448Z" transform="translate(84.592 79.474)" fill="#dc9284"/>
    <path id="Trazado_1053380" data-name="Trazado 1053380" d="M76.747,48.866,65.464,45.141,54.185,48.866,65.464,61.618Z" transform="translate(97.207 80.983)" fill="#dc9284"/>
    <path id="Trazado_1053381" data-name="Trazado 1053381" d="M103.116,33.967,91.834,30.243,80.552,33.967,91.834,46.719Z" transform="translate(144.509 54.256)" fill="#dc9284"/>
    <path id="Trazado_1053382" data-name="Trazado 1053382" d="M116.3,31.576l-11.282,4.113L93.736,31.576l11.282,12.752Z" transform="translate(168.16 56.647)" fill="#dc9284"/>
    <path id="Trazado_1053383" data-name="Trazado 1053383" d="M129.484,31.576,118.2,35.689,106.92,31.576,118.2,44.328Z" transform="translate(191.812 56.647)" fill="#dc9284"/>
    <path id="Trazado_1053384" data-name="Trazado 1053384" d="M89.932,31.576,78.65,35.689,67.368,31.576,78.65,44.328Z" transform="translate(120.857 56.647)" fill="#dc9284"/>
    <path id="Trazado_1053385" data-name="Trazado 1053385" d="M76.747,31.576,65.464,35.689,54.185,31.576,65.464,44.328Z" transform="translate(97.207 56.648)" fill="#dc9284"/>
    <path id="Trazado_1053386" data-name="Trazado 1053386" d="M74.538,56.057l-5.923-6.694-5.92,6.694Z" transform="translate(112.472 88.555)" fill="#dc9284"/>
    <path id="Trazado_1053387" data-name="Trazado 1053387" d="M124.666,38.083c0,7.013-10.936,12.7-24.422,12.7S75.819,45.1,75.819,38.083s10.936-12.7,24.425-12.7,24.422,5.683,24.422,12.7" transform="translate(136.018 45.544)" fill="#d98882"/>
    <path id="Trazado_1053388" data-name="Trazado 1053388" d="M119.592,36.583c0,5.722-9.553,10.36-21.332,10.36s-21.335-4.638-21.335-10.36,9.553-10.36,21.335-10.36,21.332,4.638,21.332,10.36" transform="translate(138.002 47.044)" fill="#ffccb0"/>
    <path id="Trazado_1053389" data-name="Trazado 1053389" d="M136.784,14.132a2.131,2.131,0,0,1-1.6-.721l-4.252-4.806a2.139,2.139,0,0,1,3.2-2.833l4.25,4.8a2.139,2.139,0,0,1-1.6,3.557" transform="translate(233.924 9.059)" fill="#d9eaeb"/>
    <path id="Trazado_1053390" data-name="Trazado 1053390" d="M38.051,12.979a2.14,2.14,0,0,1-1.4-3.755l4.845-4.2A2.139,2.139,0,0,1,44.3,8.252l-4.845,4.2a2.15,2.15,0,0,1-1.4.522" transform="translate(64.424 8.071)" fill="#d9eaeb"/>
  </g>
</svg>
