<svg xmlns="http://www.w3.org/2000/svg" xmlns:xlink="http://www.w3.org/1999/xlink" width="118" height="118" viewBox="0 0 118 118">
  <defs>
    <filter id="Elipse_12115" x="0" y="0" width="118" height="118" filterUnits="userSpaceOnUse">
      <feOffset dy="3" input="SourceAlpha"/>
      <feGaussianBlur stdDeviation="3" result="blur"/>
      <feFlood flood-opacity="0.161"/>
      <feComposite operator="in" in2="blur"/>
      <feComposite in="SourceGraphic"/>
    </filter>
    <clipPath id="clip-path">
      <rect id="Rectángulo_410021" data-name="Rectángulo 410021" width="74.729" height="74.729" fill="none"/>
    </clipPath>
  </defs>
  <g id="Grupo_1185337" data-name="Grupo 1185337" transform="translate(-742.501 -3316.159)">
    <g id="Grupo_1181944" data-name="Grupo 1181944" transform="translate(-57.28 1346.159)">
      <g id="Grupo_1181939" data-name="Grupo 1181939" transform="translate(808.781 1976)">
        <g transform="matrix(1, 0, 0, 1, -9, -6)" filter="url(#Elipse_12115)">
          <circle id="Elipse_12115-2" data-name="Elipse 12115" cx="50" cy="50" r="50" transform="translate(9 6)" fill="#95c072"/>
        </g>
      </g>
    </g>
    <g id="Grupo_1185336" data-name="Grupo 1185336" transform="translate(762.635 3334.795)">
      <g id="Grupo_1185335" data-name="Grupo 1185335" clip-path="url(#clip-path)">
        <path id="Trazado_1051557" data-name="Trazado 1051557" d="M45.793,54.553c-2.018.456-3.991.893-5.957,1.359a.814.814,0,0,0-.489.41,7.394,7.394,0,0,1-3.793,3.838.634.634,0,0,0-.453.69c.035.8.011,1.6.011,2.456h-2.3V61.043H30.465v2.275H28.14V60.391a7.508,7.508,0,0,1-4.617-5.211c-.125,1.741-.206,3.372-.369,5-.184,1.83-.431,3.654-.68,5.477a.66.66,0,0,0,.363.8,5.668,5.668,0,0,1,2.948,5.161c0,.728.01,1.457,0,2.185a1.111,1.111,0,0,1-1.224,1.213q-6.921.011-13.843,0a1.123,1.123,0,0,1-1.249-1.26c-.01-.7.01-1.408,0-2.112a5.551,5.551,0,0,1,1.881-4.395.839.839,0,0,0,.271-.95c-1.07-4.259-2.177-8.509-3.169-12.786a25.643,25.643,0,0,1-.408-4.042c-.285-4.187-.609-8.374-.777-12.567a34.124,34.124,0,0,1,.425-4.649,4.282,4.282,0,0,0-.374.359,9.9,9.9,0,0,0-2.5,6.577c-.035,5.317-.008,10.635-.021,15.953a.648.648,0,0,0,.448.709,18.5,18.5,0,0,1,1.685.841A4.562,4.562,0,0,1,9.464,60.94c0,1.53-.01,3.06.005,4.589.005.532-.122,1.048-.644,1.17A1.873,1.873,0,0,1,7.5,66.529c-1.13-.748-2.208-1.581-3.269-2.427a4.478,4.478,0,0,1-1.762-3.662q0-10.526,0-21.052a12.441,12.441,0,0,1,7.788-11.721,4.827,4.827,0,0,0,1.154-.712,12.224,12.224,0,0,1,7.025-2.795c2.949-.23,5.892-.542,8.838-.811,2.367-.216,4.734-.422,7.1-.631.214-.019.429-.036.733-.061,0-.667,0-1.313,0-1.959A6.128,6.128,0,0,1,41.248,14.4c.067,0,.134-.016.035,0a19.242,19.242,0,0,1-1.344-3.161A5.919,5.919,0,0,1,42.1,5.077a23.765,23.765,0,0,1,2.685-1.992A1.936,1.936,0,0,1,46.114,2.9c.525.115.646.631.666,1.16a10.227,10.227,0,0,0,1.275,4.8,76.786,76.786,0,0,1,13.762-.028,10.153,10.153,0,0,0,1.254-4.687,1.276,1.276,0,0,1,.652-1.271,1.291,1.291,0,0,1,1.469.268c.764.6,1.559,1.155,2.324,1.75a6.259,6.259,0,0,1,1.055,9.183c-.069.085-.143.165-.255.293a6.128,6.128,0,0,1,6,3.988,6.863,6.863,0,0,1,.413,2.116c.067,1.064.027,2.136.014,3.2A1.109,1.109,0,0,1,73.6,24.893a7.305,7.305,0,0,1-4.972-1.108c-.1,1.136-.2,2.156-.268,3.178-.21,2.952-.377,5.907-.624,8.856a6.337,6.337,0,0,1-3.515,5.03,1.944,1.944,0,0,0-1.207,1.825,15.065,15.065,0,0,1-2.036,6.667,1.759,1.759,0,0,0-.215.815A65.079,65.079,0,0,1,58.759,65.68a.675.675,0,0,0,.373.867,5.646,5.646,0,0,1,2.792,5.031c0,.753.014,1.505,0,2.258a1.1,1.1,0,0,1-1.187,1.174q-6.958.013-13.916.006c-.652,0-1.148-.32-1.181-.939a22.1,22.1,0,0,1,.054-3.561,5.384,5.384,0,0,1,1.638-3.17.884.884,0,0,0,.254-.662,83.931,83.931,0,0,1-1.727-11.772,3.233,3.233,0,0,0-.06-.36M23.321,48.714,21.669,52.2a38.667,38.667,0,0,0,9.113,1.739,38.118,38.118,0,0,0,14.34-1.75.63.63,0,0,0,.537-.76c-.046-1.014-.015-2.032-.015-3.1l2.275-.135a83.7,83.7,0,0,0,1.9,17.582h3.153q.471-8.2.939-16.367h2.207v2.257A14.052,14.052,0,0,0,60.708,42.2c-1.518,0-2.972.087-4.409-.032a9.052,9.052,0,0,0-2.56-.028,11.066,11.066,0,0,1-8.794-1.751,6.1,6.1,0,0,1-2.821-4.543c-.248-3-.416-6-.624-9-.069-.986-.159-1.971-.23-2.828a28.68,28.68,0,0,1-3.154.845c-1.1.17-2.226.1-3.338.185-1.246.09-2.488.227-3.776.348,1.219,3.322.676,6.217-2.04,8.446a6.427,6.427,0,0,1-7.292.858c-3.314-1.63-4.45-4.446-3.907-8.017-4.586.34-8.862,4.988-8.089,10.993a7.06,7.06,0,0,1,6.763,6.409c.269,2.874-1.3,6.516-5.958,7.609.946,4.75,2.329,9.4,3.411,14.119l1.334-.143c.8-3.127,1.512-6.207,2.382-9.242a45.972,45.972,0,0,1,3.652-8.745l2.062,1.032M44.135,30.9c.107-.023.164-.017.2-.043A11.076,11.076,0,0,1,53.044,28.5a10.046,10.046,0,0,0,2.625.158,14.486,14.486,0,0,1,5.342,0A10.432,10.432,0,0,1,65.716,31c.1-1.371.192-2.631.282-3.862-4.5.456-8.11-.986-10.542-4.735s-2.223-7.624.012-11.491c-1.476,0-2.88-.011-4.283,0a7.9,7.9,0,0,0-7.876,8.826c.182,1.809.269,3.628.4,5.442.14,1.9.283,3.8.425,5.718m7.6,9.175c.545-.094,1.421-.281,2.307-.385a5.159,5.159,0,0,1,1.757,0,9.087,9.087,0,0,0,7.953-1.364,3.433,3.433,0,0,0,.011-5.872,9.084,9.084,0,0,0-7.951-1.375,3.9,3.9,0,0,1-1.754,0,9.084,9.084,0,0,0-8.012,1.406,3.448,3.448,0,0,0-.017,5.8,9.367,9.367,0,0,0,5.706,1.789m12.52-15.14a8.1,8.1,0,0,1,1.146-.156c.542,0,.775-.178.787-.762.016-.819.181-1.633.21-2.453a25.3,25.3,0,0,0,.026-3.972,7.672,7.672,0,0,0-7.251-6.65,1.315,1.315,0,0,0-.936.38,7.647,7.647,0,0,0-2.013,6.557,8.233,8.233,0,0,0,8.031,7.055M24.761,33.054c.19-.031.549-.079.9-.148a4.641,4.641,0,0,0,2.9-6.934A.74.74,0,0,0,28,25.691c-2.357.2-4.711.444-7.069.639a.7.7,0,0,0-.7.565,4.713,4.713,0,0,0,4.535,6.159M9.817,40.128c.2,3.057.392,6.055.588,9.062a4.575,4.575,0,0,0-.588-9.062m4.3,30.266h2.354v2.236h2.242a3.8,3.8,0,0,0-1.639-4.088,3.432,3.432,0,0,0-3.891.207,3.67,3.67,0,0,0-1.265,3.877h2.2Zm40.723,2.259a3.8,3.8,0,0,0-1.62-4.106,3.426,3.426,0,0,0-3.892.195,3.718,3.718,0,0,0-1.278,3.887h2.223V70.416h2.354v2.237Zm3.473-19.791a17.059,17.059,0,0,1-1.681,1.382,1.479,1.479,0,0,0-.7,1.382c-.1,2.153-.254,4.3-.406,6.453-.084,1.2-.2,2.39-.309,3.612.289,0,.5,0,.719,0,.119,0,.238-.01.393-.017a64.194,64.194,0,0,0,1.98-12.811m-37.06,1.656-.467-.1a51.392,51.392,0,0,0-3.03,11.6l2.479-.442c.336-3.653.677-7.356,1.018-11.059m5.075,1.468a5.756,5.756,0,0,0,4.812,2.677,6.094,6.094,0,0,0,5.416-2.2l-10.227-.479M37.518,22.64a6.15,6.15,0,0,0,1.571-.388A6.709,6.709,0,0,0,40.9,20.858c.223-.258.048-.863.051-1.31,0-.556-.012-1.113.008-1.668.014-.366.078-.729.122-1.118-2.828.434-3.978,2.324-3.559,5.879m31.3-5.866c0,1.308,0,2.556,0,3.8a.591.591,0,0,0,.08.27,3.805,3.805,0,0,0,3.471,1.619c.323-3.479-.815-5.328-3.555-5.692M44.551,6.267c-2.529,1.293-3.234,4.217-1.536,6.126l2.812-2.468L44.551,6.267M64.026,9.915l2.834,2.5a3.911,3.911,0,0,0-1.566-6.1l-1.268,3.6M23.372,72.656c.378-2.545-1.221-4.741-3.3-4.506a6.8,6.8,0,0,1,1.054,4.506Zm32.787-4.572a6.816,6.816,0,0,1,1.113,4.544h2.251c.34-2.568-.984-4.413-3.364-4.544M7.08,63.156c.316-3.037-.364-4.453-2.212-4.727-.325,2.042-.028,3.818,2.212,4.727" transform="translate(-1.307 -1.451)" fill="#090909"/>
        <path id="Trazado_1051558" data-name="Trazado 1051558" d="M31.33,72.665l-2.061-1.031a45.938,45.938,0,0,0-3.652,8.745c-.871,3.035-1.583,6.116-2.382,9.242l-1.334.143c-1.082-4.722-2.465-9.37-3.411-14.119,4.655-1.093,6.227-4.735,5.958-7.609a7.059,7.059,0,0,0-6.763-6.409c-.773-6.005,3.5-10.653,8.089-10.992-.543,3.571.593,6.387,3.907,8.016a6.427,6.427,0,0,0,7.292-.858c2.716-2.229,3.26-5.124,2.04-8.446,1.288-.121,2.53-.258,3.776-.348,1.112-.08,2.242-.015,3.337-.185a28.556,28.556,0,0,0,3.154-.845c.07.857.161,1.841.229,2.828.209,3,.376,6,.625,9a6.1,6.1,0,0,0,2.821,4.543,11.065,11.065,0,0,0,8.793,1.751,9.038,9.038,0,0,1,2.561.028c1.437.119,2.891.032,4.409.032a14.052,14.052,0,0,1-4.585,9.458V73.356H61.927q-.469,8.164-.939,16.366H57.834a83.7,83.7,0,0,1-1.9-17.582l-2.275.135c0,1.069-.032,2.087.014,3.1a.629.629,0,0,1-.537.76,38.127,38.127,0,0,1-14.339,1.751,38.641,38.641,0,0,1-9.113-1.74l1.651-3.483m14.016-8.7c-.907-3.145-3.536-5.018-6.436-4.606a5.868,5.868,0,0,0,.826,11.686c.9,3.135,3.618,5.045,6.5,4.565a5.862,5.862,0,0,0,5.038-6.207c-.159-2.979-2.58-5.22-5.928-5.438" transform="translate(-9.317 -25.403)" fill="#dcddde"/>
        <path id="Trazado_1051559" data-name="Trazado 1051559" d="M90.061,40.087c-.142-1.913-.285-3.815-.424-5.718-.133-1.814-.219-3.633-.4-5.442A7.9,7.9,0,0,1,97.111,20.1c1.4-.013,2.807,0,4.284,0-2.236,3.867-2.44,7.748-.013,11.491s6.037,5.192,10.542,4.735c-.09,1.232-.182,2.491-.282,3.862a10.429,10.429,0,0,0-4.7-2.331,14.474,14.474,0,0,0-5.342-.005A10.069,10.069,0,0,1,98.97,37.7a11.074,11.074,0,0,0-8.713,2.349c-.032.026-.088.021-.2.043m3.218-8.333a1.748,1.748,0,1,0-1.75-1.748,1.761,1.761,0,0,0,1.75,1.748" transform="translate(-47.233 -10.642)" fill="#dbdcdd"/>
        <path id="Trazado_1051560" data-name="Trazado 1051560" d="M99,71.582A9.365,9.365,0,0,1,93.3,69.794,3.448,3.448,0,0,1,93.314,64a9.082,9.082,0,0,1,8.012-1.406,3.916,3.916,0,0,0,1.754,0,9.084,9.084,0,0,1,7.951,1.375,3.433,3.433,0,0,1-.011,5.872,9.086,9.086,0,0,1-7.953,1.364,5.171,5.171,0,0,0-1.757,0c-.886.1-1.761.291-2.307.385m-1.47-5.264a1.748,1.748,0,1,0-1.753,1.744,1.739,1.739,0,0,0,1.753-1.744m12.824.017a1.749,1.749,0,1,0-1.771,1.727,1.74,1.74,0,0,0,1.771-1.727" transform="translate(-48.575 -32.962)" fill="#b7544d"/>
        <path id="Trazado_1051561" data-name="Trazado 1051561" d="M124.658,34.158a8.234,8.234,0,0,1-8.031-7.055,7.647,7.647,0,0,1,2.013-6.558,1.313,1.313,0,0,1,.936-.38,7.672,7.672,0,0,1,7.251,6.649,25.359,25.359,0,0,1-.026,3.973c-.03.819-.194,1.634-.21,2.453-.012.583-.245.762-.787.762a8.186,8.186,0,0,0-1.146.156m0-4.132a1.748,1.748,0,1,0-1.732,1.765,1.738,1.738,0,0,0,1.732-1.765" transform="translate(-61.71 -10.678)" fill="#414549"/>
        <path id="Trazado_1051562" data-name="Trazado 1051562" d="M44.471,58.888a4.713,4.713,0,0,1-4.535-6.159.7.7,0,0,1,.7-.565c2.358-.2,4.711-.439,7.069-.639a.74.74,0,0,1,.564.281,4.641,4.641,0,0,1-2.9,6.934c-.355.07-.714.118-.9.148" transform="translate(-21.017 -27.285)" fill="#414549"/>
        <path id="Trazado_1051563" data-name="Trazado 1051563" d="M18.09,82.215a4.575,4.575,0,0,1,.588,9.061c-.195-3.006-.39-6-.588-9.061" transform="translate(-9.58 -43.538)" fill="#414548"/>
        <path id="Trazado_1051564" data-name="Trazado 1051564" d="M24.61,143.9v2.231h-2.2a3.67,3.67,0,0,1,1.265-3.877,3.432,3.432,0,0,1,3.891-.206,3.8,3.8,0,0,1,1.639,4.088H26.964V143.9Z" transform="translate(-11.796 -74.955)" fill="#414549"/>
        <path id="Trazado_1051565" data-name="Trazado 1051565" d="M106.012,146.156H103.8v-2.238h-2.354v2.213H99.222a3.718,3.718,0,0,1,1.278-3.886,3.426,3.426,0,0,1,3.892-.195,3.8,3.8,0,0,1,1.62,4.106" transform="translate(-52.474 -74.953)" fill="#414549"/>
        <path id="Trazado_1051566" data-name="Trazado 1051566" d="M117.707,109.284a64.19,64.19,0,0,1-1.98,12.811c-.155.007-.274.016-.393.018-.215,0-.43,0-.719,0,.106-1.222.225-2.415.309-3.612.151-2.15.3-4.3.406-6.453a1.479,1.479,0,0,1,.7-1.382,16.99,16.99,0,0,0,1.681-1.382" transform="translate(-60.696 -57.873)" fill="#949eab"/>
        <path id="Trazado_1051567" data-name="Trazado 1051567" d="M38.472,112.694c-.341,3.7-.682,7.405-1.018,11.059l-2.479.442a51.368,51.368,0,0,1,3.03-11.6l.467.1" transform="translate(-18.522 -59.627)" fill="#949eab"/>
        <path id="Trazado_1051568" data-name="Trazado 1051568" d="M53.2,115.925l10.227.479a6.094,6.094,0,0,1-5.415,2.2,5.756,5.756,0,0,1-4.812-2.677" transform="translate(-28.171 -61.39)" fill="#b5534c"/>
        <path id="Trazado_1051569" data-name="Trazado 1051569" d="M76.88,38.425c-.419-3.554.73-5.445,3.559-5.879-.044.389-.108.753-.122,1.118-.021.555-.006,1.112-.009,1.668,0,.447.173,1.052-.051,1.31a6.7,6.7,0,0,1-1.807,1.394,6.142,6.142,0,0,1-1.57.388" transform="translate(-40.668 -17.235)" fill="#b6544d"/>
        <path id="Trazado_1051570" data-name="Trazado 1051570" d="M143.5,32.574c2.739.364,3.878,2.212,3.555,5.691a3.8,3.8,0,0,1-3.471-1.618.593.593,0,0,1-.08-.27c-.005-1.248,0-2.5,0-3.8" transform="translate(-75.992 -17.25)" fill="#b6544d"/>
        <path id="Trazado_1051571" data-name="Trazado 1051571" d="M89.15,10.237l1.276,3.657-2.812,2.468c-1.7-1.909-.993-4.833,1.536-6.126" transform="translate(-45.907 -5.421)" fill="#e9ac84"/>
        <path id="Trazado_1051572" data-name="Trazado 1051572" d="M133.321,13.938l1.268-3.6a3.911,3.911,0,0,1,1.566,6.1l-2.834-2.5" transform="translate(-70.602 -5.474)" fill="#e8ac84"/>
        <path id="Trazado_1051573" data-name="Trazado 1051573" d="M43.19,146.268H40.946a6.8,6.8,0,0,0-1.055-4.506c2.078-.234,3.677,1.962,3.3,4.506" transform="translate(-21.125 -75.063)" fill="#414548"/>
        <path id="Trazado_1051574" data-name="Trazado 1051574" d="M116.6,141.641c2.38.132,3.7,1.977,3.364,4.544h-2.251a6.816,6.816,0,0,0-1.113-4.544" transform="translate(-61.746 -75.008)" fill="#414548"/>
        <path id="Trazado_1051575" data-name="Trazado 1051575" d="M9.656,125.843c-2.24-.91-2.538-2.686-2.212-4.727,1.849.274,2.528,1.69,2.212,4.727" transform="translate(-3.884 -64.139)" fill="#414548"/>
        <path id="Trazado_1051576" data-name="Trazado 1051576" d="M63.589,76.732c3.348.218,5.769,2.459,5.928,5.438a5.863,5.863,0,0,1-5.038,6.207c-2.882.48-5.6-1.43-6.5-4.565a5.868,5.868,0,0,1-.826-11.687c2.9-.412,5.529,1.461,6.436,4.607m-9.218,1.22a3.457,3.457,0,0,0,4.08,3.362c1.174-.218,1.708.2,1.749,1.357a3.481,3.481,0,1,0,6.9-.714,3.392,3.392,0,0,0-3.957-2.762c-1.212.236-1.73-.167-1.784-1.385a3.5,3.5,0,0,0-6.991.143" transform="translate(-27.56 -38.165)" fill="#080809"/>
        <path id="Trazado_1051577" data-name="Trazado 1051577" d="M95.91,40.944a1.748,1.748,0,1,1,1.746-1.75,1.762,1.762,0,0,1-1.746,1.75" transform="translate(-49.864 -19.832)" fill="#090a0a"/>
        <path id="Trazado_1051578" data-name="Trazado 1051578" d="M100.133,68.931a1.749,1.749,0,1,1-1.743-1.752,1.743,1.743,0,0,1,1.743,1.752" transform="translate(-51.175 -35.576)" fill="#0f0807"/>
        <path id="Trazado_1051579" data-name="Trazado 1051579" d="M127.391,68.949a1.749,1.749,0,1,1-1.726-1.77,1.746,1.746,0,0,1,1.726,1.77" transform="translate(-65.61 -35.576)" fill="#0f0807"/>
        <path id="Trazado_1051580" data-name="Trazado 1051580" d="M129.87,39.179a1.748,1.748,0,1,1-1.764-1.731,1.738,1.738,0,0,1,1.764,1.731" transform="translate(-66.923 -19.831)" fill="#070708"/>
        <path id="Trazado_1051581" data-name="Trazado 1051581" d="M56.991,80.61a3.5,3.5,0,0,1,6.991-.143c.054,1.218.572,1.621,1.784,1.385a3.392,3.392,0,0,1,3.957,2.762,3.481,3.481,0,1,1-6.9.714c-.041-1.161-.574-1.575-1.749-1.357a3.457,3.457,0,0,1-4.08-3.362" transform="translate(-30.18 -40.824)" fill="#414549"/>
      </g>
    </g>
  </g>
</svg>
