<svg xmlns="http://www.w3.org/2000/svg" xmlns:xlink="http://www.w3.org/1999/xlink" width="118" height="118" viewBox="0 0 118 118">
  <defs>
    <filter id="Elipse_12115" x="0" y="0" width="118" height="118" filterUnits="userSpaceOnUse">
      <feOffset dy="3" input="SourceAlpha"/>
      <feGaussianBlur stdDeviation="3" result="blur"/>
      <feFlood flood-opacity="0.161"/>
      <feComposite operator="in" in2="blur"/>
      <feComposite in="SourceGraphic"/>
    </filter>
  </defs>
  <g id="Grupo_1185333" data-name="Grupo 1185333" transform="translate(-799.781 -1970)">
    <g id="Grupo_1181939" data-name="Grupo 1181939" transform="translate(808.781 1976)">
      <g transform="matrix(1, 0, 0, 1, -9, -6)" filter="url(#Elipse_12115)">
        <circle id="Elipse_12115-2" data-name="Elipse 12115" cx="50" cy="50" r="50" transform="translate(9 6)" fill="#95c072"/>
      </g>
    </g>
    <g id="Grupo_1185342" data-name="Grupo 1185342" transform="translate(823.951 1989.779)">
      <g id="Grupo_1185343" data-name="Grupo 1185343">
        <path id="Trazado_1051597" data-name="Trazado 1051597" d="M69.66,41.105" fill="#fffefe"/>
        <path id="Trazado_1051598" data-name="Trazado 1051598" d="M69.724,41.241a.933.933,0,0,1-1.15.538c-1.175-.288-2.343-.6-3.424-.886-.525,1.3-1.1,2.72-1.67,4.137a1.683,1.683,0,0,1-.258.54,3.8,3.8,0,0,0-.873,3,28.975,28.975,0,0,1-.085,3.994,6.746,6.746,0,0,1-2.526,4.686,1.133,1.133,0,0,0-.326.787c-.02,3.933-.049,7.867,0,11.8a2.4,2.4,0,0,1-2.635,2.618c-.72-.056-1.447-.009-2.171-.009-1,0-1.154-.16-1.177-1.181,0-.081-.008-.162-.022-.422a2.484,2.484,0,0,1-2.734,1.612c-.766-.048-1.543.041-2.3-.035-.284-.028-.765-.347-.768-.54a22.61,22.61,0,0,1,.188-2.79.732.732,0,0,1,.34-.484c.776-.412.7-1.02.57-1.755-.462-2.685-.856-5.381-1.275-8.073a1.051,1.051,0,0,0-.666-.891,6.517,6.517,0,0,1-3.512-4.612c-.055-.214-.1-.431-.151-.664H32.776v.749q0,8.205,0,16.411c0,1.842-.84,2.674-2.691,2.675h-2.1c-1,0-1.155-.16-1.165-1.185,0-.09,0-.18,0-.486a2.622,2.622,0,0,1-3.009,1.679c-.676-.046-1.36.03-2.034-.027a1.1,1.1,0,0,1-.768-.4,3.718,3.718,0,0,1,.588-3.479c.633-.464.613-.928.5-1.594-.481-2.772-.891-5.557-1.361-8.331a1.069,1.069,0,0,0-.506-.671A6.436,6.436,0,0,1,16.516,52.1c-.11-2.618-.032-5.243-.054-7.865a1.721,1.721,0,0,0-.2-.828,19.69,19.69,0,0,1-2.761-10.026,3.809,3.809,0,0,0-2.941-3.805v.709q0,5.018,0,10.037a3.979,3.979,0,0,1-.052.809.741.741,0,0,1-.845.668c-2.214-.071-5.346-1.874-6.056-4.573a13.249,13.249,0,0,1-.44-2.781C3.1,32.8,3.15,31.157,3.15,29.487a2.594,2.594,0,0,0-.3-.045C.944,29.4.2,28.65.2,26.757a8.3,8.3,0,0,1,.116-3.015c.375-.892,1.361-1.529,2.083-2.275,1.394-1.441,2.793-2.876,4.184-4.32.763-.792,1.525-1.586,2.26-2.4a1.329,1.329,0,0,0,.307-.711,15.654,15.654,0,0,1,2.48-7.06A16.741,16.741,0,0,1,15.446,3,14.376,14.376,0,0,1,31.5,2.422a15.089,15.089,0,0,1,7,11.078,14.748,14.748,0,0,1-2.049,10.111,31.748,31.748,0,0,1-2.718,3.414A11.869,11.869,0,0,1,29.359,29.9a7,7,0,0,0,4.677,2.522,16.389,16.389,0,0,0,2.031.1q12.524.01,25.048,0a7.964,7.964,0,0,1,4.693,1.245,8.513,8.513,0,0,1,3.641,5.6c.069.36.182.711.275,1.066ZM44.614,51.683a6.778,6.778,0,0,0,.082,1,5.253,5.253,0,0,0,3.269,4.072,1.242,1.242,0,0,1,.844,1.043c.5,3.192,1,6.384,1.514,9.573a.63.63,0,0,0,.384.434,7.229,7.229,0,0,0,1.162.021,2.292,2.292,0,0,0,.061-.313c0-3.186.01-6.372,0-9.558a.736.736,0,0,0-.263-.556,4.772,4.772,0,0,1-2.1-3.1c-.272-.925-.576-1.841-.865-2.761-.151-.588-.276-1.184-.46-1.762-.414-1.3-.564-2.7-1.473-3.813-1.059-1.3-2.307-2.068-4.056-1.611-1.733.451-3.463.912-5.2,1.343a5.8,5.8,0,0,0-4.355,5.191H43.328c.593,0,1.151.059,1.286.8M14.184,9.353c.747.3,1.169.024,1.73-.575a13.9,13.9,0,0,1,3.395-2.816,9.929,9.929,0,0,1,9.006-.142c.3.219.594.456.91.655a9.942,9.942,0,0,1,3.562,3.707,10.841,10.841,0,0,1,.086,10.734,10.158,10.158,0,0,1-4.555,4.474,10.727,10.727,0,0,1-4.9.958c-.987-.045-1.978,0-2.967.006H18.429a4.506,4.506,0,0,0,4.2,3,3.825,3.825,0,0,0,.533.074,12.722,12.722,0,0,0,8.343-2.545,14.732,14.732,0,0,0,3.186-3.27,14.277,14.277,0,0,0-1.635-18,13.154,13.154,0,0,0-4.74-3.03,11.407,11.407,0,0,0-7.291-.464c-.77.271-1.553.511-2.308.821a12.362,12.362,0,0,0-5.554,4.475,13.389,13.389,0,0,0-2.529,7.5,4.339,4.339,0,0,1-.411.6c-1.2,1.258-2.4,2.517-3.622,3.747A1.417,1.417,0,0,0,6.151,20.4c.029,1.174.018,2.35.007,3.525a2.246,2.246,0,0,1-2.419,2.4c-.668.006-1.337,0-1.99,0-.144,1.417.025,1.613,1.284,1.613q3.19,0,6.38,0c3.369,0,5.477,2.163,5.62,5.532a22.731,22.731,0,0,0,.739,4.992,17.126,17.126,0,0,0,4.324,7.4,1.23,1.23,0,0,1,.431,1.328.829.829,0,0,1-1.342-.075c-.342-.375-.7-.739-1.046-1.108A56.353,56.353,0,0,0,18,51.7a5.249,5.249,0,0,0,3.364,5.059,1.318,1.318,0,0,1,.84,1.118q.734,4.755,1.508,9.5a.625.625,0,0,0,.392.424,7.63,7.63,0,0,0,1.186.02c.016-.281.033-.437.033-.594,0-3.072.014-6.144-.019-9.215a1.734,1.734,0,0,0-.446-.884,22.887,22.887,0,0,1-1.54-1.917c-1.2-1.982-1.129-4.162-.83-6.357.257-.138.633-.454.749-.378a2.418,2.418,0,0,1,.657.862,1.2,1.2,0,0,1,.039.533q.006.916,0,1.831A5.275,5.275,0,0,0,27.3,56.791a1.154,1.154,0,0,1,.751.938c.348,2.2.711,4.4,1.07,6.6.19,1.167.383,2.334.57,3.473h1.585v-.835c0-4.409.031-8.817-.016-13.225a8.637,8.637,0,0,1,.91-4.773,2.062,2.062,0,0,0,.1-.321c.8-2.084,2.022-3.8,4.3-4.414,2.045-.549,4.11-1.043,6.189-1.443A4.967,4.967,0,0,1,46.947,43.9a8.328,8.328,0,0,1,2.534,4.519c.562,1.971,1.068,3.96,1.7,5.908a2.677,2.677,0,0,0,2.579,2.12.875.875,0,0,1,.863.815c.3,1.753.564,3.511.844,5.266s.564,3.5.848,5.266H57.9v-.77c0-3.142.016-6.285-.013-9.427a1.683,1.683,0,0,1,.735-1.468A5.167,5.167,0,0,0,60.775,52.1c.016-1.65-.008-3.3.028-4.951a2.708,2.708,0,0,1,.308-1.143c.351-.678.8-1.3,1.171-1.974A13.964,13.964,0,0,0,63.771,36.7c-.045-1.774-.888-2.655-2.653-2.655q-12.763,0-25.526,0c-.429,0-.858-.029-1.285-.058A11.224,11.224,0,0,1,29.672,32.4c-.547-.555-1.087-1.117-1.646-1.659a.684.684,0,0,0-.459-.219c-.775.093-1.54.273-2.316.34a11.993,11.993,0,0,1-3.171.1,15.2,15.2,0,0,1-3.011-1.243,7.075,7.075,0,0,1-2.3-3.113c-.383-1.064.03-1.758,1.158-1.772,1.356-.017,2.713,0,4.069,0h2.51c-.3-.617-.545-1.144-.815-1.657-.933-1.775-1.893-3.537-2.811-5.32A3.763,3.763,0,0,0,16.537,15.7a1.366,1.366,0,0,0-.038.192c-.054.98-.276,1.352-.791,1.328S15,16.8,15,15.825c0-1.265.013-2.53-.006-3.794-.011-.734-.347-1.046-.929-.915-.52.117-.549.535-.55.954,0,1.378.006,2.756-.006,4.133,0,.5-.118,1.008-.744,1s-.716-.52-.742-1.016c-.022-.428-.02-.857-.029-1.286.01-.876.026-1.752.028-2.628a2.617,2.617,0,0,1,2.166-2.925M17.323,14.1a4.949,4.949,0,0,1,4.6,2.471c1.314,2.3,2.495,4.673,3.729,7.018.172.327.317.667.474,1a10.548,10.548,0,0,0,1.034-.38c.307-.151.578-.373.877-.542a8.692,8.692,0,0,0,4.629-7.722,8.728,8.728,0,0,0-4.447-8.3A7.53,7.53,0,0,0,22.5,6.672a7.276,7.276,0,0,0-4.15,1.756c-1.26,1-2.284,2.14-1.873,3.974a7.647,7.647,0,0,1,.019,1.649,2.5,2.5,0,0,0,.289.051c.18,0,.36,0,.54-.006M8.986,32.363a1.341,1.341,0,0,0-1.324,1.348c-.013.315.011.633-.01.947a.922.922,0,0,1-1.232.934c-.56-.13-1.106-.32-1.654-.481-.279,1.863,1.838,4.9,4.22,4.859Zm-4.3-2.893c0,.906-.041,1.739.012,2.565A1.851,1.851,0,0,0,6.09,33.695a3.546,3.546,0,0,1,2.874-3.136V29.471ZM67.907,40.022c.1-1.431-1.389-4.2-2.66-4.5,0,1.044-.006,2.081.006,3.119a.585.585,0,0,0,.143.417,4.656,4.656,0,0,0,2.511.962M53.468,69.249c.39-.366.815-.74,1.2-1.149a.659.659,0,0,0,.074-.481c-.155-1.046-.326-2.09-.5-3.133q-.348-2.121-.7-4.24l-.076.016ZM26.934,60.3l-.073.015v8.959c.32-.337.671-.67.974-1.042a.979.979,0,0,0,.256-.63c-.122-1-.295-2-.456-3q-.347-2.149-.7-4.3M1.607,24.574l.162.249c.742,0,1.485.029,2.223-.02.188-.013.506-.268.514-.425.05-.9.024-1.808.024-2.713l-.156-.049L1.607,24.574M28.4,70.949c.712,0,1.388.026,2.062-.008.575-.028.841-.437.837-1.1,0-.623-.443-.506-.813-.515-.294-.007-.588,0-.882,0-1.117.01-1.414.382-1.205,1.621m26.584-.082a.722.722,0,0,0,.172.067c.518.008,1.036.017,1.554.016,1.066,0,1.416-.517,1.06-1.623-.476,0-.97,0-1.463,0-.976,0-1.433.059-1.324,1.54m-32.438.083c.663,0,1.292.012,1.92,0s.821-.319.872-1.024c.052-.728-.42-.591-.832-.6-.226,0-.452,0-.678,0-1.213,0-1.467.3-1.282,1.625m26.639,0a12.758,12.758,0,0,1,1.516.01c1.02.126,1.5-.472,1.1-1.636H50.41c-1.2,0-1.476.344-1.23,1.626" transform="translate(-0.064 -0.136)" fill="#0b0a0a"/>
        <path id="Trazado_1051599" data-name="Trazado 1051599" d="M13.824,27.425c.008.429.006.858.029,1.286.025.5.116,1.011.741,1.016s.74-.5.744-1c.012-1.378,0-2.755.006-4.133,0-.418.03-.837.551-.954.581-.131.918.18.928.915.019,1.264.006,2.529.006,3.794,0,.972.205,1.371.712,1.395s.737-.348.792-1.328a1.371,1.371,0,0,1,.038-.193,3.763,3.763,0,0,1,4.344,2.156c.918,1.784,1.877,3.545,2.811,5.321.27.513.513,1.04.815,1.657H23.83c-1.356,0-2.713-.013-4.069,0-1.129.014-1.541.708-1.159,1.771a7.073,7.073,0,0,0,2.3,3.113,4.732,4.732,0,0,0,3.056,3.093,10.548,10.548,0,0,0,5.659.193,12.548,12.548,0,0,0,1.887-.605A11.231,11.231,0,0,0,36.14,46.5c.428.029.857.058,1.285.058q12.763,0,25.526,0c1.765,0,2.608.881,2.653,2.655a13.957,13.957,0,0,1-1.489,7.334c-.371.669-.82,1.3-1.171,1.974a2.71,2.71,0,0,0-.307,1.144c-.037,1.649-.013,3.3-.028,4.95a5.17,5.17,0,0,1-2.155,4.031,1.684,1.684,0,0,0-.735,1.468c.028,3.142.013,6.285.013,9.428v.769H58.148c-.284-1.765-.568-3.515-.847-5.266s-.548-3.513-.844-5.265a.875.875,0,0,0-.863-.816,2.677,2.677,0,0,1-2.58-2.12c-.632-1.948-1.137-3.937-1.7-5.907a8.327,8.327,0,0,0-2.534-4.519A4.966,4.966,0,0,0,44.6,55.306c-2.079.4-4.144.894-6.189,1.443-2.279.611-3.5,2.33-4.3,4.414a2.008,2.008,0,0,1-.1.321,8.634,8.634,0,0,0-.909,4.773c.046,4.408.015,8.817.015,13.226v.835H31.525c-.187-1.139-.379-2.306-.57-3.473-.359-2.2-.721-4.4-1.07-6.6a1.153,1.153,0,0,0-.751-.937,5.275,5.275,0,0,1-3.369-5.079c0-.61,0-1.221,0-1.831a1.206,1.206,0,0,0-.039-.534A2.417,2.417,0,0,0,25.068,61c-.116-.076-.491.24-.749.378L22.36,59.714a1.23,1.23,0,0,0-.431-1.328,17.127,17.127,0,0,1-4.324-7.4A22.763,22.763,0,0,1,16.866,46c-.143-3.369-2.25-5.529-5.62-5.532q-3.19,0-6.379,0c-1.259,0-1.428-.2-1.284-1.613.652,0,1.321.006,1.99,0a2.245,2.245,0,0,0,2.419-2.4c.011-1.175.021-2.351-.007-3.525a1.418,1.418,0,0,1,.454-1.132c1.226-1.23,2.424-2.489,3.622-3.747a4.372,4.372,0,0,0,.411-.6l1.353-.017m-1.645,4.591.323.026c.212-.266.6-.543.589-.8-.017-.276-.409-.53-.638-.794-.26.23-.674.428-.732.7-.052.244.29.571.458.862" transform="translate(-1.898 -12.656)" fill="#745338"/>
        <path id="Trazado_1051601" data-name="Trazado 1051601" d="M44.57,7.53a9.928,9.928,0,0,0-9.006.142,13.883,13.883,0,0,0-3.395,2.816c-.561.6-.982.879-1.73.574a1.6,1.6,0,0,1,.11-.452,14.308,14.308,0,0,1,4.6-5.3c.737-.453,1.426-.984,2.137-1.48a11.408,11.408,0,0,1,7.29.463,13.153,13.153,0,0,1,4.741,3.03,14.277,14.277,0,0,1,1.635,18,14.732,14.732,0,0,1-3.186,3.27A12.722,12.722,0,0,1,39.42,31.14a3.825,3.825,0,0,1-.533-.074c-.125-.121-.246-.248-.376-.363A4.381,4.381,0,0,1,36.7,28.063c.989-.005,1.98-.051,2.967-.006a10.724,10.724,0,0,0,4.9-.959c.1.028.21.1.3.079A9.25,9.25,0,0,0,50.824,23.2a9.84,9.84,0,0,0,1.558-8.273,8.84,8.84,0,0,0-3.1-5.147,25.076,25.076,0,0,0-3.315-2.033,4.272,4.272,0,0,0-1.4-.214" transform="translate(-16.32 -1.846)" fill="#9c896a"/>
        <path id="Trazado_1051602" data-name="Trazado 1051602" d="M82.8,102.5c-.135-.739-.693-.8-1.286-.8H71.343A5.8,5.8,0,0,1,75.7,96.507c1.738-.431,3.468-.892,5.2-1.343,1.749-.456,3,.314,4.056,1.612.91,1.116,1.059,2.514,1.473,3.813.184.578.309,1.174.46,1.762a2.977,2.977,0,0,1-.632.144c-1.152.013-2.3,0-3.456,0" transform="translate(-38.25 -50.95)" fill="#5b402e"/>
        <path id="Trazado_1051603" data-name="Trazado 1051603" d="M41.169,100.08l1.958,1.668c-.3,2.2-.368,4.375.83,6.358a22.888,22.888,0,0,0,1.54,1.917,1.73,1.73,0,0,1,.446.884c.033,3.071.02,6.143.019,9.215,0,.157-.017.313-.033.594a7.63,7.63,0,0,1-1.186-.02.625.625,0,0,1-.392-.424q-.778-4.748-1.508-9.5a1.318,1.318,0,0,0-.84-1.118,5.25,5.25,0,0,1-3.364-5.06A56.358,56.358,0,0,1,38.78,98.9c.349.369.7.733,1.046,1.108a.828.828,0,0,0,1.342.075" transform="translate(-20.706 -53.023)" fill="#472f26"/>
        <path id="Trazado_1051604" data-name="Trazado 1051604" d="M96.041,110.956c1.152,0,2.3.011,3.456,0a2.977,2.977,0,0,0,.632-.144c.289.92.593,1.836.865,2.761a4.774,4.774,0,0,0,2.1,3.1.736.736,0,0,1,.263.556c.014,3.186.008,6.372,0,9.558a2.29,2.29,0,0,1-.061.313,7.229,7.229,0,0,1-1.162-.021.629.629,0,0,1-.384-.434c-.519-3.189-1.016-6.381-1.514-9.573a1.243,1.243,0,0,0-.844-1.044,5.254,5.254,0,0,1-3.269-4.072,6.777,6.777,0,0,1-.082-1" transform="translate(-51.491 -59.41)" fill="#472f26"/>
        <path id="Trazado_1051605" data-name="Trazado 1051605" d="M60.9,12.253a4.272,4.272,0,0,1,1.4.214A25.076,25.076,0,0,1,65.614,14.5a8.84,8.84,0,0,1,3.1,5.147,9.84,9.84,0,0,1-1.558,8.273A9.25,9.25,0,0,1,61.207,31.9c-.092.017-.2-.051-.3-.079a10.153,10.153,0,0,0,4.555-4.473,10.842,10.842,0,0,0-.086-10.734,9.945,9.945,0,0,0-3.562-3.707c-.316-.2-.607-.435-.91-.655" transform="translate(-32.652 -6.569)" fill="#b8a181"/>
        <path id="Trazado_1051606" data-name="Trazado 1051606" d="M51.573,66.463a12.548,12.548,0,0,1-1.887.605,10.553,10.553,0,0,1-5.659-.193,4.732,4.732,0,0,1-3.056-3.093,15.149,15.149,0,0,0,3.011,1.243,11.991,11.991,0,0,0,3.171-.1c.776-.067,1.542-.247,2.317-.34a.685.685,0,0,1,.459.219c.559.542,1.1,1.1,1.645,1.659" transform="translate(-21.966 -34.197)" fill="#5b402e"/>
        <path id="Trazado_1051607" data-name="Trazado 1051607" d="M33.185,4.283c-.711.5-1.4,1.027-2.137,1.48a14.313,14.313,0,0,0-4.6,5.3,1.616,1.616,0,0,0-.11.452,2.617,2.617,0,0,0-2.166,2.925c0,.876-.019,1.752-.028,2.628l-1.353.017a13.389,13.389,0,0,1,2.529-7.5A12.362,12.362,0,0,1,30.877,5.1c.754-.31,1.538-.549,2.308-.821" transform="translate(-12.221 -2.296)" fill="#b6a080"/>
        <path id="Trazado_1051608" data-name="Trazado 1051608" d="M14.327,69.475v7.607c-2.382.044-4.5-3-4.221-4.859.548.162,1.094.352,1.654.481a.922.922,0,0,0,1.232-.934c.021-.314,0-.632.01-.947a1.341,1.341,0,0,1,1.325-1.348" transform="translate(-5.405 -37.248)" fill="#5b402e"/>
        <path id="Trazado_1051609" data-name="Trazado 1051609" d="M41.3,14.089a10.761,10.761,0,0,0-3.176,2.656,9.619,9.619,0,0,0-2,4.768c-.18,0-.36.008-.541.006a2.412,2.412,0,0,1-.289-.051,7.677,7.677,0,0,0-.018-1.649c-.411-1.834.613-2.978,1.873-3.974A7.279,7.279,0,0,1,41.3,14.089" transform="translate(-18.862 -7.554)" fill="#72614a"/>
        <path id="Trazado_1051610" data-name="Trazado 1051610" d="M9.948,63.238h4.277v1.089a3.545,3.545,0,0,0-2.875,3.136A1.851,1.851,0,0,1,9.96,65.8c-.053-.826-.012-1.658-.012-2.565" transform="translate(-5.325 -33.904)" fill="#472f26"/>
        <path id="Trazado_1051611" data-name="Trazado 1051611" d="M143.182,80.787a4.657,4.657,0,0,1-2.511-.963.585.585,0,0,1-.143-.417c-.012-1.037-.006-2.074-.006-3.119,1.271.294,2.762,3.067,2.66,4.5" transform="translate(-75.338 -40.901)" fill="#462e25"/>
        <path id="Trazado_1051614" data-name="Trazado 1051614" d="M3.326,49.264l2.768-2.959.156.05c0,.9.026,1.811-.024,2.713-.008.157-.326.412-.514.425-.738.049-1.482.02-2.223.02l-.163-.249" transform="translate(-1.783 -24.826)" fill="#3d261d"/>
        <path id="Trazado_1051615" data-name="Trazado 1051615" d="M41.61,56.52a4.377,4.377,0,0,0,1.808,2.639c.13.116.251.242.376.363a4.505,4.505,0,0,1-4.2-3Z" transform="translate(-21.226 -30.303)" fill="#706048"/>
        <path id="Trazado_1051616" data-name="Trazado 1051616" d="M61.006,150.78c-.209-1.239.087-1.611,1.2-1.621.294,0,.588-.006.882,0,.369.009.809-.108.813.515,0,.661-.262,1.069-.838,1.1-.674.033-1.351.008-2.062.008" transform="translate(-32.674 -79.968)" fill="#3a241d"/>
        <path id="Trazado_1051617" data-name="Trazado 1051617" d="M118.369,150.7c-.109-1.481.347-1.544,1.324-1.54.494,0,.987,0,1.463,0,.356,1.106.006,1.62-1.06,1.623-.518,0-1.037-.008-1.555-.016a.694.694,0,0,1-.172-.066" transform="translate(-63.454 -79.971)" fill="#3a241d"/>
        <path id="Trazado_1051618" data-name="Trazado 1051618" d="M48.395,150.776c-.186-1.328.069-1.624,1.282-1.625.226,0,.452,0,.678,0,.413.006.885-.131.832.6-.05.7-.244,1.009-.872,1.024s-1.257,0-1.92,0" transform="translate(-25.917 -79.962)" fill="#2a1d18"/>
        <path id="Trazado_1051619" data-name="Trazado 1051619" d="M105.792,150.784c-.245-1.282.033-1.624,1.23-1.626h1.39c.394,1.164-.083,1.762-1.1,1.636a12.76,12.76,0,0,0-1.516-.01" transform="translate(-56.675 -79.969)" fill="#2a1d18"/>
        <path id="Trazado_1051620" data-name="Trazado 1051620" d="M21.628,39.93c-.168-.29-.51-.618-.458-.862.058-.273.472-.47.732-.7.229.263.621.517.638.794.015.252-.376.529-.589.8l-.323-.026" transform="translate(-11.347 -20.571)" fill="#2f201a"/>
      </g>
    </g>
  </g>
</svg>
