<svg xmlns="http://www.w3.org/2000/svg" xmlns:xlink="http://www.w3.org/1999/xlink" width="118" height="118" viewBox="0 0 118 118">
  <defs>
    <filter id="Elipse_12115" x="0" y="0" width="118" height="118" filterUnits="userSpaceOnUse">
      <feOffset dy="3" input="SourceAlpha"/>
      <feGaussianBlur stdDeviation="3" result="blur"/>
      <feFlood flood-opacity="0.161"/>
      <feComposite operator="in" in2="blur"/>
      <feComposite in="SourceGraphic"/>
    </filter>
    <clipPath id="clip-path">
      <rect id="Rect치ngulo_410024" data-name="Rect치ngulo 410024" width="75.717" height="75.717" fill="none"/>
    </clipPath>
  </defs>
  <g id="Grupo_1185875" data-name="Grupo 1185875" transform="translate(-1611.451 8291.169)">
    <g id="Grupo_1185332" data-name="Grupo 1185332" transform="translate(811.669 -10261.169)">
      <g id="Grupo_1181939" data-name="Grupo 1181939" transform="translate(808.781 1976)">
        <g transform="matrix(1, 0, 0, 1, -9, -6)" filter="url(#Elipse_12115)">
          <circle id="Elipse_12115-2" data-name="Elipse 12115" cx="50" cy="50" r="50" transform="translate(9 6)" fill="#95c072"/>
        </g>
      </g>
    </g>
    <g id="Grupo_1185345" data-name="Grupo 1185345" transform="translate(1632.842 -8273.027)">
      <g id="Grupo_1185344" data-name="Grupo 1185344" transform="translate(-2 1)" clip-path="url(#clip-path)">
        <path id="Trazado_1051622" data-name="Trazado 1051622" d="M75.848,54.866c-.136.876-.246,1.756-.412,2.627-.6,3.173-1.206,6.347-1.853,9.513-.533,2.613-1.12,5.214-1.7,7.817a1.39,1.39,0,0,1-1.594,1.28c-1.6.008-3.2.013-4.8,0a1.388,1.388,0,0,1-1.452-2c.258-.815.57-1.616.778-2.443a1.389,1.389,0,0,0-.147-.972c-.422-.681-.933-1.306-1.458-2.02-.624,2.027-1.231,4-1.835,5.967-.378,1.233-.7,1.469-2.005,1.47-1.476,0-2.951.007-4.427,0-1.325-.008-1.908-.825-1.5-2.088.3-.905.9-1.837.817-2.7-.079-.8-.915-1.522-1.374-2.3-.433-.737-.808-1.506-1.213-2.27h-8.54q-.769,3.6-1.542,7.221c-.067.311-.117.626-.2.934A1.42,1.42,0,0,1,39.875,76.1c-1.648.013-3.3.018-4.943,0a1.384,1.384,0,0,1-1.419-1.927c.27-.889.593-1.761.87-2.648a.8.8,0,0,0,0-.594c-.671-.988-1.378-1.953-2.106-2.969q-.5,2.33-1,4.654c-.159.742-.3,1.487-.463,2.228A1.431,1.431,0,0,1,29.25,76.1c-1.623.011-3.246.015-4.869,0-1.252-.011-1.815-.815-1.434-2.022.273-.861.581-1.711.828-2.58a.889.889,0,0,0-.114-.7A15.26,15.26,0,0,1,20.176,62c-1.4-.593-2.759-1.277-4.192-1.744-1.034-.336-2.2-.27-3.242-.579A12.709,12.709,0,0,1,4.121,51.7c-.273-.7-.533-1.409-.811-2.142-.553,0-1.093.007-1.632,0a1.273,1.273,0,0,1-1.4-1.357q-.016-3.948,0-7.895a1.33,1.33,0,0,1,1.174-1.374,46.958,46.958,0,0,0,4.584-1.258,9.888,9.888,0,0,0,4.025-3.019,14.963,14.963,0,0,1,4.4-3.532.821.821,0,0,0,.409-.509,5.3,5.3,0,0,1,1.359-3.04,41.111,41.111,0,0,1,3.038-2.877,1.348,1.348,0,0,1,1.82-.013,12.023,12.023,0,0,1,3.781,4.159.794.794,0,0,0,.831.512q6.857-.22,13.714-.4c4.769-.127,9.537-.324,14.306-.341A22.132,22.132,0,0,1,74.644,43.741c.5,1.522.712,3.14,1.062,4.713.017.077.094.142.142.213ZM24.058,36.451,21.76,34.9c1.887-4.091,1.053-5.327-1.61-7.485-2.834,2.328-3.377,3.509-1.569,7.491l-2.216,1.484L15.19,33.777a11.648,11.648,0,0,0-3.124,2.644,14.078,14.078,0,0,1-7.1,4.5c-.655.181-1.325.307-1.988.459V46.9h7.874v2.673H6.243a10.276,10.276,0,0,0,7.993,7.712,31.141,31.141,0,0,1,3.275.7c1.575.528,3.068,1.3,4.646,1.819,2.831.922,5.7,1.726,8.652,2.609V57.562h2.643c0,1.255,0,2.457,0,3.658a11.946,11.946,0,0,0,3.38,8.39,1.647,1.647,0,0,1,.395,1.936c-.233.577-.38,1.188-.592,1.867.726,0,1.341.038,1.945-.022a.738.738,0,0,0,.486-.476c.57-2.559,1.108-5.126,1.654-7.69.285-1.333.573-2.665.868-4.035l2.58.564c-.145.766-.283,1.5-.423,2.232a2.33,2.33,0,0,0,.273.055,57,57,0,0,0,16.744-1.488c.444-.108.516-.3.5-.709-.034-.995-.011-1.991-.011-2.975h2.571c.035.075.07.116.071.159.008.319.022.639.01.959a12.753,12.753,0,0,0,3.58,9.806,1.407,1.407,0,0,1,.287,1.569c-.232.657-.43,1.327-.652,2.023h2.314c.031-.112.061-.2.081-.294.714-3.305,1.413-6.614,2.145-9.915,1.056-4.762,1.872-9.547,1.38-14.453a17.178,17.178,0,0,0-1.429-5.414,9.206,9.206,0,0,1-5.035.941,10.849,10.849,0,0,0-1.475.014A2.581,2.581,0,0,0,62.8,45.949a2.467,2.467,0,0,0,.57,2.787,2.512,2.512,0,0,0,2.717.643,2.7,2.7,0,0,0,1.846-2.452h2.588a5.759,5.759,0,0,1,0,.674,5.325,5.325,0,0,1-10.58-.252,5.234,5.234,0,0,1,4.188-5.6c1.223-.207,2.5-.069,3.744-.181.85-.076,1.686-.314,2.729-.519-.854-1.135-1.489-2.1-2.245-2.966a18.867,18.867,0,0,0-12.865-6.673,50.585,50.585,0,0,0-5.741-.027q-11.8.289-23.6.624c-.24.006-.48.028-.541.032l-1.546,4.413m1.949,36.961c.747,0,1.359.037,1.962-.022a.742.742,0,0,0,.485-.474c.328-1.382.61-2.775.905-4.164.269-1.263.535-2.527.806-3.811l-7.159-1.947c.024.171.033.288.055.4a12.25,12.25,0,0,0,3.212,6.259,1.576,1.576,0,0,1,.391,1.81c-.227.589-.407,1.2-.658,1.947m30.495,0c.7,0,1.292-.031,1.878.01.461.032.635-.167.759-.579.715-2.39,1.456-4.771,2.182-7.157a2.259,2.259,0,0,0,.051-.435L54.4,66.5c.793,1.067,1.5,2.117,2.311,3.072a1.757,1.757,0,0,1,.415,1.942c-.224.588-.393,1.2-.62,1.9" transform="translate(-0.131 -11.62)" fill="#0b090a"/>
        <path id="Trazado_1051623" data-name="Trazado 1051623" d="M99.868,27.8a23.241,23.241,0,0,0-9.911-3.143c-2.59-.18-5.2-.05-7.806,0-3.56.067-7.118.189-10.764.289V22.261c1.967-.06,3.95-.123,5.933-.181,2.873-.085,5.748-.144,8.62-.255a28.131,28.131,0,0,1,14.649,3.3c.189.1.371.214.61.352L99.868,27.8" transform="translate(-34.093 -10.411)" fill="#0d0c0e"/>
        <path id="Trazado_1051624" data-name="Trazado 1051624" d="M134.314,33.9,132.5,35.875,130.33,34.1l1.582-2.163,2.4,1.963" transform="translate(-62.244 -15.25)" fill="#0e0e10"/>
        <path id="Trazado_1051625" data-name="Trazado 1051625" d="M26.527,39.273l1.546-4.413c.061,0,.3-.026.541-.032q11.8-.317,23.6-.624a50.585,50.585,0,0,1,5.741.027A18.867,18.867,0,0,1,70.818,40.9c.755.863,1.391,1.831,2.245,2.966-1.042.205-1.879.443-2.729.519-1.244.112-2.521-.026-3.744.181a5.234,5.234,0,0,0-4.188,5.6,5.325,5.325,0,0,0,10.58.252,5.753,5.753,0,0,0,0-.674H70.4A2.7,2.7,0,0,1,68.551,52.2a2.512,2.512,0,0,1-2.717-.643,2.467,2.467,0,0,1-.57-2.787,2.581,2.581,0,0,1,2.307-1.686,10.841,10.841,0,0,1,1.474-.014,9.206,9.206,0,0,0,5.035-.941,17.164,17.164,0,0,1,1.429,5.414C76,56.449,75.187,61.234,74.131,66c-.732,3.3-1.431,6.61-2.146,9.915-.02.092-.05.182-.08.294H69.59c.223-.7.42-1.366.652-2.023a1.406,1.406,0,0,0-.286-1.569,12.754,12.754,0,0,1-3.58-9.806c.011-.319,0-.639-.01-.959,0-.043-.036-.084-.071-.159H63.724c0,.984-.024,1.98.011,2.975.015.409-.058.6-.5.709A57.01,57.01,0,0,1,46.49,66.862a2.327,2.327,0,0,1-.273-.055c.139-.737.277-1.466.423-2.232l-2.58-.564c-.295,1.37-.583,2.7-.868,4.035-.547,2.564-1.084,5.131-1.654,7.69a.738.738,0,0,1-.486.476c-.6.06-1.219.022-1.944.022.211-.678.359-1.29.591-1.867a1.646,1.646,0,0,0-.395-1.936,11.946,11.946,0,0,1-3.38-8.39c0-1.2,0-2.4,0-3.658H33.279v4.851c-2.952-.883-5.821-1.687-8.652-2.609-1.579-.514-3.071-1.291-4.646-1.819a31.16,31.16,0,0,0-3.275-.7,10.276,10.276,0,0,1-7.994-7.712h4.606V49.717H5.444V44.2c.663-.152,1.333-.277,1.988-.459a14.08,14.08,0,0,0,7.1-4.5A11.638,11.638,0,0,1,17.659,36.6l1.175,2.615,2.216-1.484c-1.808-3.982-1.264-5.163,1.569-7.491,2.663,2.158,3.5,3.395,1.61,7.485l2.3,1.549M16.066,44.36h2.557V41.781H16.066Z" transform="translate(-2.6 -14.441)" fill="#f3ae87"/>
        <path id="Trazado_1051626" data-name="Trazado 1051626" d="M46.789,108.758c.251-.75.43-1.357.657-1.947A1.575,1.575,0,0,0,47.055,105a12.246,12.246,0,0,1-3.212-6.259c-.022-.115-.032-.231-.055-.4l7.159,1.947c-.272,1.283-.538,2.547-.806,3.81-.3,1.39-.578,2.782-.906,4.164a.739.739,0,0,1-.485.474c-.6.06-1.215.022-1.961.022" transform="translate(-20.912 -46.966)" fill="#e3796a"/>
        <path id="Trazado_1051627" data-name="Trazado 1051627" d="M105.978,110.823c.226-.7.4-1.309.62-1.9a1.757,1.757,0,0,0-.415-1.942c-.815-.954-1.518-2.005-2.311-3.072l6.976-1.25a2.259,2.259,0,0,1-.051.435c-.726,2.386-1.467,4.768-2.182,7.157-.124.412-.3.612-.759.579-.586-.041-1.176-.01-1.878-.01" transform="translate(-49.608 -49.03)" fill="#e2796a"/>
        <rect id="Rect치ngulo_410023" data-name="Rect치ngulo 410023" width="2.557" height="2.579" transform="translate(13.466 27.34)" fill="#0a0907"/>
      </g>
    </g>
  </g>
</svg>
