<svg xmlns="http://www.w3.org/2000/svg" xmlns:xlink="http://www.w3.org/1999/xlink" width="118" height="118" viewBox="0 0 118 118">
  <defs>
    <filter id="Elipse_12115" x="0" y="0" width="118" height="118" filterUnits="userSpaceOnUse">
      <feOffset dy="3" input="SourceAlpha"/>
      <feGaussianBlur stdDeviation="3" result="blur"/>
      <feFlood flood-opacity="0.161"/>
      <feComposite operator="in" in2="blur"/>
      <feComposite in="SourceGraphic"/>
    </filter>
  </defs>
  <g id="Grupo_1185876" data-name="Grupo 1185876" transform="translate(-1925.451 8291.169)">
    <g id="Grupo_1185334" data-name="Grupo 1185334" transform="translate(1125.669 -10261.169)">
      <g id="Grupo_1181939" data-name="Grupo 1181939" transform="translate(808.781 1976)">
        <g transform="matrix(1, 0, 0, 1, -9, -6)" filter="url(#Elipse_12115)">
          <circle id="Elipse_12115-2" data-name="Elipse 12115" cx="50" cy="50" r="50" transform="translate(9 6)" fill="#95c072"/>
        </g>
      </g>
    </g>
    <g id="Grupo_1185347" data-name="Grupo 1185347" transform="translate(1945.488 -8277.695)">
      <g id="Grupo_1185348" data-name="Grupo 1185348" transform="translate(0 24.307)">
        <path id="Trazado_1051628" data-name="Trazado 1051628" d="M.146,42.444A15.78,15.78,0,0,0,6.075,52.677a1.2,1.2,0,0,0,1.764.031L9.2,53.822c-1.5.01-3.009,0-4.512.044a4.8,4.8,0,0,0-1.48.285C1.148,54.9.15,56.623.18,59.269c.012,1.094.386,1.474,1.465,1.475q5.164,0,10.328,0a6.215,6.215,0,0,0,6.135-4.261c.059-.156.136-.306.2-.447,3.375,0,6.69,0,10,0,.986,0,1.242-.209,1.429-1.1l1.18,0a6.272,6.272,0,0,0,6.4,5.811q4.479.009,8.958,0c1.081,0,1.518-.384,1.455-1.473-.062-1.07-.266-2.133-.413-3.235h.624c3.522,0,7.044-.01,10.566.008.8,0,1.336-.252,1.457-1.1l1.274-.008a1.146,1.146,0,0,0,1.292,1.105c1.913-.012,3.827.03,5.738-.031a4.978,4.978,0,0,0,4.717-3.861c.13-.568.261-1.422-.038-1.743-.683-.733-.451-1.482-.482-2.314h.552c1.326,0,2.653.008,3.979,0,1.08-.009,1.418-.355,1.422-1.41q0-.8,0-1.607a6.019,6.019,0,0,0-4.481-5.923,1.25,1.25,0,0,1-.9-.844,4.13,4.13,0,0,0-3.617-2.655,4.224,4.224,0,0,0-4.136,2.079,9.873,9.873,0,0,0-.547,1.107H52.63a5.809,5.809,0,0,0-9.687-2.99,1.3,1.3,0,0,1-.819.253q-2.869.032-5.738,0a1.281,1.281,0,0,0-1.478,1.109l-1.64,0c-.207-.856-.518-1.1-1.456-1.1q-7.424,0-14.848,0h-.881a4.731,4.731,0,0,1,3.586-3.227c3.63-.639,7.283-1.141,10.927-1.7,1.634-.25,3.269-.5,4.9-.755a1.029,1.029,0,0,0,.934-1.042,1.048,1.048,0,0,0-.859-1.109c-.2-.054-.393-.1-.591-.146C31.587,27.376,28.2,26.6,24.8,25.879a64.33,64.33,0,0,0-7.844-1.516A15.716,15.716,0,0,0,.59,35.852C.381,36.591.2,37.336,0,38.079" transform="translate(0 -24.308)" fill="#fff"/>
        <path id="Trazado_1051629" data-name="Trazado 1051629" d="M0,63.91c.2-.743.381-1.488.59-2.227A15.716,15.716,0,0,1,16.953,50.194,64.328,64.328,0,0,1,24.8,51.71c3.4.723,6.789,1.5,10.183,2.25.2.044.4.091.591.146a1.048,1.048,0,0,1,.859,1.109,1.029,1.029,0,0,1-.934,1.042c-1.633.258-3.267.5-4.9.755-3.644.559-7.3,1.061-10.927,1.7a4.731,4.731,0,0,0-3.586,3.227h.881q7.424,0,14.848,0c.938,0,1.249.243,1.456,1.1-.173.844-.494,1.131-1.336,1.15-.652.015-1.3,0-2.017,0,0,.868.008,1.629,0,2.389-.013.915-.373,1.344-1.1,1.336s-1.084-.464-1.09-1.353c-.005-.78,0-1.561,0-2.324H22.688c0,.831.008,1.616,0,2.4-.011.852-.374,1.272-1.077,1.276s-1.08-.419-1.089-1.261c-.009-.806,0-1.613,0-2.463h-.859q-5.964,0-11.928,0c-.852,0-1.347-.438-1.344-1.127s.5-1.1,1.354-1.117c.738-.015,1.477-.023,2.215-.034,1.019.01,2.04-.006,3.058.039a.8.8,0,0,0,.965-.669,7.01,7.01,0,0,1,2.255-3.3c1.58-1.354,3.518-1.612,5.467-1.888,2.428-.343,4.851-.725,7.275-1.089,0-.032,0-.064,0-.1l-3.561-.773c-1.636-.367-3.279-.709-4.907-1.107a16.509,16.509,0,0,0-7.854-.311,13.672,13.672,0,0,0-5.269,24c.826.674.88.932.456,1.816a1.2,1.2,0,0,1-1.764-.03A15.78,15.78,0,0,1,.146,68.275c-.012-.082-.1-.153-.146-.23V63.91" transform="translate(0 -50.139)" fill="#080c0a"/>
        <path id="Trazado_1051630" data-name="Trazado 1051630" d="M12.982,65.011c-.738.011-1.477.018-2.215.034-.859.018-1.351.427-1.354,1.117s.492,1.125,1.344,1.127q5.965.011,11.929,0h.858c0,.85-.007,1.657,0,2.463.01.842.383,1.265,1.09,1.261s1.065-.424,1.076-1.276c.01-.785,0-1.57,0-2.4h5.036c0,.764,0,1.544,0,2.324.006.888.378,1.345,1.09,1.353s1.085-.421,1.1-1.336c.01-.76,0-1.521,0-2.389.713,0,1.365.012,2.017,0,.842-.019,1.163-.306,1.336-1.15l1.64,0c.008,1.224,0,2.449.03,3.672a1.113,1.113,0,0,0,1.478,1.156,1.21,1.21,0,0,0,.755-1.291c.006-.779,0-1.558,0-2.349h4.168c-.048.565-.13,1.091-.127,1.616a1.081,1.081,0,0,0,2.154.134,8.452,8.452,0,0,1,.242-1.272,3.492,3.492,0,0,1,3.587-2.413,3.566,3.566,0,0,1,3.318,3.323c.147,1.076.44,1.334,1.531,1.339.752,0,1.5,0,2.3,0,0,.707-.013,1.291,0,1.875.022.768.432,1.208,1.088,1.2a1.108,1.108,0,0,0,1.08-1.219c.011-.6,0-1.208,0-1.81h1.559v.879c0,.281-.009.562,0,.842.034.81.443,1.293,1.1,1.309.684.016,1.13-.49,1.148-1.332.013-.574,0-1.148,0-1.71h1.551c0,.615-.008,1.2,0,1.777.013.783.457,1.278,1.118,1.265s1.041-.445,1.065-1.231c.018-.6,0-1.2,0-1.847.5,0,.879,0,1.26,0,1.078-.006,1.394-.278,1.57-1.346a2.1,2.1,0,0,1,2.1-1.924A2.159,2.159,0,0,1,74.2,68.653c.241,1.212.36,1.32,1.563,1.417a3.945,3.945,0,0,1,3.388,4.751h-24.1c-1.1,0-2.2-.024-3.292.007a3.065,3.065,0,0,0,.369,6.119q10.336.007,20.672,0h.835a2.718,2.718,0,0,1-2.763,1.829c-1.735.013-3.471.022-5.206,0a1.208,1.208,0,0,0-1.4,1.091L63,83.873a1.207,1.207,0,0,0-1.383-1.1c-6.174.016-12.347.007-18.521.01-.9,0-1.336.382-1.32,1.112.015.7.433,1.047,1.3,1.056.995.01,1.991-.024,2.985.01a2.306,2.306,0,0,1,2.4,2.465.929.929,0,0,1-.216.052c-2.628,0-5.256.034-7.882-.022a5.092,5.092,0,0,1-2.05-.493A4.015,4.015,0,0,1,40,79.39c.841-.036,1.685.008,2.525-.034a1.112,1.112,0,1,0-.007-2.22c-.509-.023-1.022.017-1.53-.009a6.661,6.661,0,0,0-5.983,2.743c-1.282.118-2.563.262-3.847.347-1.716.113-3.434.251-5.152.244-1.793-.008-3.585-.176-5.377-.274a6.48,6.48,0,0,0-4.744-3,25.962,25.962,0,0,0-2.828-.051c-.828,0-1.293.392-1.319,1.06-.028.721.424,1.144,1.291,1.169.815.023,1.633-.01,2.448.031a4.018,4.018,0,0,1,3.784,3.879,3.9,3.9,0,0,1-3.592,4.111c-3.183.132-6.373.077-9.56.1-.2,0-.393-.028-.606-.044a2.109,2.109,0,0,1-.028-.338,2.459,2.459,0,0,1,2.63-2.144c1.837-.013,3.673,0,5.51-.01A1.119,1.119,0,0,0,14.8,83.9a1.135,1.135,0,0,0-1.2-1.113c-.458-.016-.916-.021-1.375-.031l-1.359-1.115c.424-.885.369-1.143-.456-1.817a13.671,13.671,0,0,1,5.269-24,16.5,16.5,0,0,1,7.854.311c1.628.4,3.271.74,4.907,1.107a1.724,1.724,0,0,1-.349.119c-1.809.21-3.649.272-5.422.648-4.234.9-7.759,2.874-9.687,7.007m38.437,4.6h-.006a9.2,9.2,0,0,0-.012-1.295,1.044,1.044,0,0,0-1.081-.979.954.954,0,0,0-1.061.886,18.028,18.028,0,0,0-.005,2.657.951.951,0,0,0,1.121.892,1.037,1.037,0,0,0,1.035-1.018,9.122,9.122,0,0,0,.009-1.143m21.625-.348A1.022,1.022,0,0,0,71.992,68.2a1.041,1.041,0,0,0-1.109,1.091,1.111,1.111,0,0,0,1.059,1.087,1.082,1.082,0,0,0,1.1-1.113" transform="translate(-3.027 -53.239)" fill="#44a05c"/>
        <path id="Trazado_1051631" data-name="Trazado 1051631" d="M109.685,94.541a1.209,1.209,0,0,1,1.4-1.091c1.735.027,3.47.017,5.206,0a2.718,2.718,0,0,0,2.763-1.829h-.835q-10.336,0-20.672,0a3.065,3.065,0,0,1-.369-6.119c1.1-.031,2.195-.006,3.292-.006h24.1a3.945,3.945,0,0,0-3.388-4.751c-1.2-.1-1.323-.206-1.563-1.417a2.159,2.159,0,0,0-2.175-1.868,2.1,2.1,0,0,0-2.1,1.924c-.175,1.068-.492,1.34-1.57,1.346-.381,0-.762,0-1.26,0,0,.645.015,1.246,0,1.847-.024.786-.41,1.218-1.065,1.231s-1.1-.482-1.118-1.265c-.01-.581,0-1.161,0-1.776h-1.551c0,.562.01,1.136,0,1.71-.019.842-.464,1.349-1.148,1.332-.655-.016-1.064-.5-1.1-1.309-.012-.28,0-.561,0-.842v-.878H104.96c0,.6.008,1.206,0,1.81a1.108,1.108,0,0,1-1.08,1.218c-.656,0-1.065-.436-1.088-1.2-.017-.583,0-1.168,0-1.875-.8,0-1.55,0-2.3,0-1.091,0-1.385-.262-1.531-1.339a3.566,3.566,0,0,0-3.318-3.322,3.492,3.492,0,0,0-3.587,2.412,8.467,8.467,0,0,0-.242,1.272,1.081,1.081,0,0,1-2.154-.134c0-.525.08-1.051.127-1.616H85.612c0,.792,0,1.57,0,2.349a1.209,1.209,0,0,1-.755,1.291,1.113,1.113,0,0,1-1.479-1.156c-.028-1.224-.021-2.448-.03-3.672a1.281,1.281,0,0,1,1.478-1.108q2.869.031,5.738,0a1.3,1.3,0,0,0,.819-.253,5.809,5.809,0,0,1,9.687,2.99h12.11a9.917,9.917,0,0,1,.547-1.107,4.225,4.225,0,0,1,4.136-2.078,4.129,4.129,0,0,1,3.617,2.654,1.25,1.25,0,0,0,.9.844,6.02,6.02,0,0,1,4.481,5.924q0,.8,0,1.607c0,1.055-.342,1.4-1.422,1.41-1.326.011-2.652,0-3.979,0h-.552c.031.832-.2,1.581.482,2.313.3.322.168,1.175.038,1.743a4.978,4.978,0,0,1-4.717,3.861c-1.911.061-3.825.019-5.738.031a1.147,1.147,0,0,1-1.292-1.106m-7.208-6.866c-1.729,0-3.429-.021-5.128.013a.8.8,0,0,0-.833.9.814.814,0,0,0,.9.842c1.675.026,3.351.01,5.066.01Zm16.2.035h-3.735v1.677h3.735Zm-6.054,0h-3.331v1.7h3.331Zm-5.582.014H104.76V89.4h2.281Z" transform="translate(-48.439 -63.916)" fill="#070a09"/>
        <path id="Trazado_1051632" data-name="Trazado 1051632" d="M9.446,112.794c.458.01.917.015,1.375.031a1.135,1.135,0,0,1,1.2,1.113,1.119,1.119,0,0,1-1.18,1.05c-1.837.014-3.673,0-5.509.01a2.459,2.459,0,0,0-2.63,2.144,2.068,2.068,0,0,0,.029.338c.212.016.409.045.606.044,3.187-.021,6.377.033,9.56-.1a3.9,3.9,0,0,0,3.592-4.111,4.018,4.018,0,0,0-3.784-3.879c-.814-.041-1.632-.007-2.448-.031-.867-.025-1.318-.449-1.291-1.169.026-.668.491-1.058,1.319-1.06a25.962,25.962,0,0,1,2.828.051,6.48,6.48,0,0,1,4.744,3l.951,2.593c3.242,0,6.53.008,9.819-.006.781,0,1.277.273,1.366,1.1-.187.888-.443,1.1-1.429,1.1-3.315.005-6.629,0-10,0-.063.141-.14.29-.2.447a6.215,6.215,0,0,1-6.135,4.26q-5.164.006-10.327,0c-1.08,0-1.453-.381-1.466-1.475-.03-2.646.969-4.365,3.026-5.118a4.8,4.8,0,0,1,1.481-.285c1.5-.046,3.008-.034,4.512-.044" transform="translate(-0.248 -83.279)" fill="#060a08"/>
        <path id="Trazado_1051633" data-name="Trazado 1051633" d="M74.873,109.9a6.661,6.661,0,0,1,5.983-2.743c.509.026,1.021-.013,1.53.009a1.112,1.112,0,1,1,.007,2.22c-.84.042-1.684,0-2.524.034a4.015,4.015,0,0,0-1.691,7.573,5.092,5.092,0,0,0,2.05.493c2.626.057,5.255.024,7.882.022a.933.933,0,0,0,.216-.052,2.306,2.306,0,0,0-2.4-2.465c-.993-.034-1.989,0-2.985-.01-.864-.009-1.282-.359-1.3-1.055-.016-.73.424-1.112,1.32-1.113,6.174,0,12.347.005,18.521-.01a1.207,1.207,0,0,1,1.383,1.1c-.12.851-.653,1.107-1.457,1.1-3.522-.018-7.044-.008-10.566-.008h-.624c.147,1.1.351,2.165.413,3.235.063,1.088-.374,1.472-1.455,1.473q-4.479,0-8.958,0a6.272,6.272,0,0,1-6.4-5.811,6.723,6.723,0,0,1,1.059-3.994" transform="translate(-42.893 -83.27)" fill="#060a08"/>
        <path id="Trazado_1051634" data-name="Trazado 1051634" d="M56.407,113.723a6.723,6.723,0,0,0-1.059,3.994l-1.18,0c-.09-.822-.586-1.1-1.367-1.1-3.289.014-6.578.006-9.819.006l-.951-2.593c1.793.1,3.585.267,5.378.274,1.717.008,3.436-.132,5.152-.244,1.285-.084,2.565-.229,3.847-.347" transform="translate(-24.427 -87.092)" fill="#358d4a"/>
        <path id="Trazado_1051635" data-name="Trazado 1051635" d="M23.77,67.458c1.927-4.133,5.453-6.109,9.687-7.007,1.773-.376,3.613-.438,5.422-.649a1.688,1.688,0,0,0,.349-.118l3.561.773c0,.032,0,.064,0,.1-2.425.365-4.847.747-7.275,1.09-1.949.275-3.887.534-5.467,1.887a7.01,7.01,0,0,0-2.254,3.3.8.8,0,0,1-.965.669c-1.019-.046-2.039-.029-3.058-.039" transform="translate(-13.814 -55.687)" fill="#358c4a"/>
        <path id="Trazado_1051636" data-name="Trazado 1051636" d="M112.475,86.07a9.2,9.2,0,0,1-.009,1.143,1.037,1.037,0,0,1-1.035,1.018.95.95,0,0,1-1.121-.892,17.975,17.975,0,0,1,.005-2.657.954.954,0,0,1,1.061-.885,1.044,1.044,0,0,1,1.081.978,9.2,9.2,0,0,1,.012,1.295h.006" transform="translate(-64.082 -69.7)" fill="#03110a"/>
        <path id="Trazado_1051637" data-name="Trazado 1051637" d="M164.174,86.915a1.082,1.082,0,0,1-1.1,1.113,1.111,1.111,0,0,1-1.059-1.087,1.041,1.041,0,0,1,1.109-1.091,1.022,1.022,0,0,1,1.052,1.065" transform="translate(-94.157 -70.893)" fill="#020d08"/>
        <path id="Trazado_1051638" data-name="Trazado 1051638" d="M120.751,106.857v1.763c-1.715,0-3.39.017-5.066-.01a.814.814,0,0,1-.9-.842.8.8,0,0,1,.833-.9c1.7-.034,3.4-.013,5.128-.013" transform="translate(-66.713 -83.098)" fill="#d3d2d2"/>
        <rect id="Rectángulo_410025" data-name="Rectángulo 410025" width="3.735" height="1.677" transform="translate(66.503 23.794)" fill="#d0d0d0"/>
        <rect id="Rectángulo_410026" data-name="Rectángulo 410026" width="3.331" height="1.703" transform="translate(60.852 23.796)" fill="#d2d2d2"/>
        <rect id="Rectángulo_410027" data-name="Rectángulo 410027" width="2.281" height="1.675" transform="translate(56.321 23.81)" fill="#cac9ca"/>
      </g>
    </g>
  </g>
</svg>
