<svg xmlns="http://www.w3.org/2000/svg" xmlns:xlink="http://www.w3.org/1999/xlink" width="118" height="118" viewBox="0 0 118 118">
  <defs>
    <filter id="Elipse_12115" x="0" y="0" width="118" height="118" filterUnits="userSpaceOnUse">
      <feOffset dy="3" input="SourceAlpha"/>
      <feGaussianBlur stdDeviation="3" result="blur"/>
      <feFlood flood-opacity="0.161"/>
      <feComposite operator="in" in2="blur"/>
      <feComposite in="SourceGraphic"/>
    </filter>
    <clipPath id="clip-path">
      <rect id="Rectángulo_410103" data-name="Rectángulo 410103" width="76.96" height="76.96" fill="none"/>
    </clipPath>
  </defs>
  <g id="Grupo_1181941" data-name="Grupo 1181941" transform="translate(-799.781 -1970)">
    <g id="Grupo_1181939" data-name="Grupo 1181939" transform="translate(808.781 1976)">
      <g transform="matrix(1, 0, 0, 1, -9, -6)" filter="url(#Elipse_12115)">
        <circle id="Elipse_12115-2" data-name="Elipse 12115" cx="50" cy="50" r="50" transform="translate(9 6)" fill="#95c072"/>
      </g>
    </g>
    <g id="Grupo_1185521" data-name="Grupo 1185521" transform="translate(824.907 1992.126)">
      <g id="Grupo_1185520" data-name="Grupo 1185520" transform="translate(-4.212 -11.212)" clip-path="url(#clip-path)">
        <path id="Trazado_1051835" data-name="Trazado 1051835" d="M77.113,68.289a18.348,18.348,0,0,1-1.424,1.967A4.957,4.957,0,0,1,71.9,71.9q-33-.034-66.006-.02A5.181,5.181,0,0,1,1.107,64.1c2.87-5.73,5.735-11.463,8.648-17.171a3.176,3.176,0,0,0,.089-3.1c-1.981-4.146.339-7.784,4.969-7.842,2.737-.034,5.473-.006,8.257-.006a36.585,36.585,0,0,1,5.592-14.2c1.931-2.749,4.339-4.993,7.675-5.85,4.317-1.108,7.8.626,10.739,3.644,3.869,3.976,5.743,8.971,7.026,14.239.152.625.27,1.258.463,2.163,2.59,0,5.277-.142,7.939.058a9.1,9.1,0,0,1,4.124,1.3,4.42,4.42,0,0,1,1.348,5.82,3.953,3.953,0,0,0,.072,4.172c2.753,5.331,5.416,10.709,8.114,16.07l.952,1.893ZM43.861,20.374l.018.013c-3.071-2.863-7.212-2.829-10.43.044-3.457,3.086-5.243,7.133-6.614,11.415-.424,1.322-.706,2.689-1.093,4.193l1.642-.112H51.735c-.236-1.022-.4-1.982-.682-2.907-1.4-4.57-3.039-9.012-6.739-12.325l-.454-.322M7.056,62.948H4.734c-.356.707-.693,1.362-1.016,2.024-1.34,2.741-.307,4.32,2.721,4.167h9.518c-.427-.767-.755-1.421-1.141-2.038-.88-1.4-1.492-3.359-2.769-4.029-1.32-.694-3.3-.135-4.99-.124m64.1,6.194c2.307.1,3.609-.762,3.307-2.469a7.881,7.881,0,0,0-1.586-3.433c-.355-.441-1.539-.216-2.347-.292-1.544-.016-3.09-.066-4.631-.021a1.469,1.469,0,0,0-1.074.537c-1.091,1.816-2.1,3.68-3.225,5.678ZM14.911,38.686c-2.622-.093-3.9,1.51-2.776,3.691a6.072,6.072,0,0,1-.193,6.052C9.926,52.276,8.05,56.2,6.061,60.2H8.539a17.919,17.919,0,0,1,2.237.078c1.354.208,2.038-.387,2.633-1.574,1.067-2.129,2.327-4.163,3.529-6.224.815-1.4,1.829-1.4,2.681.032,1.349,2.263,2.6,4.584,3.992,6.822a2.13,2.13,0,0,0,1.476.886c2.29.095,4.589.095,6.879,0a2.087,2.087,0,0,0,1.422-.909c1.353-2.2,2.583-4.475,3.894-6.7.9-1.532,2.023-1.526,2.9,0,1.29,2.24,2.507,4.523,3.851,6.729a2.107,2.107,0,0,0,1.467.877c2.141.1,4.291-.035,6.43.072A2.079,2.079,0,0,0,54.1,58.961c1.157-2.137,2.373-4.243,3.6-6.341.924-1.575,1.955-1.567,2.852-.012A32.588,32.588,0,0,1,63.1,57.161c1.107,2.935,3.165,3.6,5.952,3.033H71.54c-.359-.744-.624-1.319-.91-1.882-1.657-3.276-3.3-6.561-4.988-9.82a6.427,6.427,0,0,1-.249-5.979c1.059-2.328-.067-3.877-2.651-3.822H54.965c.15,2.125.293,4.148.44,6.209.5.03,1.045-.093,1.367.119a2.327,2.327,0,0,1,1.09,1.319,1.563,1.563,0,0,1-1,1.183,39.852,39.852,0,0,1-5.524,0,1.607,1.607,0,0,1-1.025-1.2c-.012-.427.531-.993.974-1.271a4.134,4.134,0,0,1,1.567-.187c-.205-2.135-.4-4.17-.6-6.218H43.874c0,1.424.025,2.71-.005,4a6.316,6.316,0,0,1-5.744,6.171,6.2,6.2,0,0,1-6.877-5.393c-.2-1.555-.207-3.134-.3-4.7H25.271c-.179,2.073-.352,4.082-.532,6.169.5.031.844.05,1.182.075.881.064,1.537.569,1.338,1.405a1.964,1.964,0,0,1-1.386,1.184,26,26,0,0,1-4.926-.01,1.9,1.9,0,0,1-1.238-1.29c-.065-.344.656-.943,1.139-1.246.325-.2.85-.09,1.317-.12.144-2.093.282-4.107.425-6.2Zm21.5,30.446c-1.118-1.952-2.139-3.81-3.254-5.61a1.65,1.65,0,0,0-1.2-.593c-2.242-.058-4.488-.05-6.731-.006a1.513,1.513,0,0,0-1.118.473c-1.136,1.845-2.189,3.742-3.335,5.737Zm20.43.02c-1.159-2.05-2.18-3.914-3.278-5.731a1.452,1.452,0,0,0-1.073-.5c-2.292-.045-4.586-.039-6.878-.006a1.388,1.388,0,0,0-1.025.376c-1.152,1.89-2.231,3.825-3.4,5.858ZM33.721,38.7c0,1.478-.1,2.869.025,4.239A3.62,3.62,0,0,0,37.392,46.2a3.493,3.493,0,0,0,3.74-2.75,43.363,43.363,0,0,0,.037-4.752Zm5.071,16.607c-1.193,2.1-2.222,3.853-3.176,5.645a1.476,1.476,0,0,0-.008,1.2c.976,1.821,2.028,3.6,3.175,5.608,1.163-2.042,2.242-3.91,3.28-5.8a.976.976,0,0,0-.03-.8c-1.005-1.864-2.046-3.709-3.241-5.854M18.355,67.8c1.178-2.086,2.212-3.882,3.2-5.7a1.2,1.2,0,0,0,.06-.972c-1.033-1.909-2.121-3.788-3.275-5.822-1.219,2.193-3.2,4.21-3.226,6.248-.02,1.98,1.976,3.98,3.242,6.249m40.856-.03c1.165-2.039,2.208-3.833,3.209-5.65a1.136,1.136,0,0,0,.075-.918c-1.036-1.927-2.124-3.828-3.293-5.91-1.123,2.012-2.15,3.812-3.124,5.64a1.372,1.372,0,0,0-.1,1.092c1,1.867,2.069,3.7,3.233,5.746" transform="translate(-0.152 -5.404)" fill="#0e0e08"/>
        <path id="Trazado_1051836" data-name="Trazado 1051836" d="M73.341,72.409c-2.787.567-4.845-.1-5.952-3.033a32.519,32.519,0,0,0-2.541-4.552c-.9-1.555-1.927-1.563-2.851.012-1.229,2.1-2.446,4.2-3.6,6.34A2.08,2.08,0,0,1,56.227,72.5c-2.139-.107-4.29.025-6.43-.073a2.107,2.107,0,0,1-1.467-.876c-1.344-2.207-2.561-4.49-3.851-6.729-.882-1.531-2-1.537-2.9,0-1.311,2.227-2.541,4.5-3.894,6.7a2.084,2.084,0,0,1-1.422.909c-2.29.1-4.588.1-6.878,0a2.129,2.129,0,0,1-1.476-.885c-1.388-2.239-2.643-4.559-3.992-6.822-.852-1.429-1.866-1.427-2.681-.032-1.2,2.06-2.462,4.094-3.529,6.224-.595,1.186-1.28,1.782-2.633,1.573a18.036,18.036,0,0,0-2.236-.077q3.1-6.294,6.2-12.586c.646-1.305,1.044-2.63.222-3.979A4.594,4.594,0,0,1,19.2,50.9h7.68c-.144,2.092-.282,4.107-.425,6.2-.467.03-.992-.084-1.317.12-.483.3-1.2.9-1.139,1.246a1.9,1.9,0,0,0,1.237,1.289,25.957,25.957,0,0,0,4.927.01,1.963,1.963,0,0,0,1.386-1.184c.2-.835-.457-1.341-1.338-1.4-.339-.025-.678-.043-1.182-.075.18-2.086.353-4.1.532-6.169h5.676c.095,1.568.1,3.147.3,4.7a6.2,6.2,0,0,0,6.877,5.393,6.316,6.316,0,0,0,5.744-6.171c.03-1.285.005-2.571.005-4h8.378c.2,2.048.392,4.084.6,6.219a4.121,4.121,0,0,0-1.567.187c-.442.277-.986.844-.974,1.271a1.609,1.609,0,0,0,1.025,1.2,40.065,40.065,0,0,0,5.525,0,1.564,1.564,0,0,0,1-1.184,2.331,2.331,0,0,0-1.09-1.319c-.322-.212-.865-.089-1.367-.119-.146-2.06-.29-4.083-.441-6.208h7.778a3.766,3.766,0,0,1,.159,4.107,4.775,4.775,0,0,0,.061,5.069c2.1,4.073,4.065,8.214,6.086,12.328" transform="translate(-4.445 -17.618)" fill="#fdd33a"/>
        <path id="Trazado_1051838" data-name="Trazado 1051838" d="M47.195,94.195H31.556c1.146-1.995,2.2-3.892,3.335-5.737a1.512,1.512,0,0,1,1.118-.473c2.243-.044,4.488-.052,6.731.006a1.65,1.65,0,0,1,1.2.593c1.114,1.8,2.135,3.658,3.254,5.61" transform="translate(-10.931 -30.466)" fill="#fdd33a"/>
        <path id="Trazado_1051839" data-name="Trazado 1051839" d="M78.444,94.216H62.792c1.166-2.033,2.245-3.967,3.4-5.858a1.384,1.384,0,0,1,1.025-.376c2.292-.033,4.586-.039,6.878.005a1.453,1.453,0,0,1,1.073.5c1.1,1.816,2.119,3.681,3.278,5.731" transform="translate(-21.751 -30.468)" fill="#fdd339"/>
        <path id="Trazado_1051840" data-name="Trazado 1051840" d="M101.781,72.432c-2.02-4.114-3.987-8.254-6.086-12.328a4.775,4.775,0,0,1-.061-5.069,3.766,3.766,0,0,0-.159-4.107c2.584-.056,3.709,1.493,2.651,3.821a6.428,6.428,0,0,0,.249,5.98c1.691,3.258,3.331,6.544,4.988,9.82.285.564.55,1.138.909,1.882Z" transform="translate(-32.885 -17.641)" fill="#ea742a"/>
        <path id="Trazado_1051841" data-name="Trazado 1051841" d="M103.566,94.216H94.01c1.122-2,2.134-3.862,3.226-5.678A1.468,1.468,0,0,1,98.309,88c1.542-.045,3.088.005,4.632.021,1.047,1.98,2.289,3.941.625,6.195" transform="translate(-32.565 -30.477)" fill="#fdd339"/>
        <path id="Trazado_1051843" data-name="Trazado 1051843" d="M9.864,87.924c1.69-.011,3.669-.571,4.989.124,1.277.671,1.888,2.625,2.769,4.029.387.617.714,1.271,1.141,2.038H9.245a4.029,4.029,0,0,1-.4-3.777c.324-.81.678-1.61,1.019-2.414" transform="translate(-2.96 -30.38)" fill="#fed43b"/>
        <path id="Trazado_1051844" data-name="Trazado 1051844" d="M51.34,50.941h7.447a43.2,43.2,0,0,1-.037,4.752,3.493,3.493,0,0,1-3.739,2.75,3.618,3.618,0,0,1-3.646-3.263c-.126-1.37-.025-2.761-.025-4.239m5.672,3.85c-.88-.675-1.39-1.366-1.827-1.322-.5.049-.927.756-1.386,1.176.424.445.8,1.165,1.284,1.253.437.079,1-.539,1.929-1.107" transform="translate(-17.771 -17.646)" fill="#7eae3f"/>
        <path id="Trazado_1051845" data-name="Trazado 1051845" d="M57.365,76.35C58.56,78.5,59.6,80.34,60.606,82.2a.978.978,0,0,1,.03.8c-1.039,1.89-2.118,3.758-3.28,5.8-1.148-2.007-2.2-3.787-3.176-5.609a1.473,1.473,0,0,1,.009-1.2c.954-1.792,1.982-3.544,3.176-5.644" transform="translate(-18.725 -26.448)" fill="#7dad3f"/>
        <path id="Trazado_1051846" data-name="Trazado 1051846" d="M26.131,88.841c-1.265-2.269-3.261-4.269-3.241-6.249.02-2.038,2.007-4.056,3.225-6.249,1.154,2.035,2.242,3.914,3.275,5.823a1.2,1.2,0,0,1-.059.972c-.987,1.822-2.022,3.618-3.2,5.7" transform="translate(-7.929 -26.445)" fill="#7ead3f"/>
        <path id="Trazado_1051847" data-name="Trazado 1051847" d="M88.606,88.806c-1.164-2.048-2.234-3.878-3.233-5.746a1.372,1.372,0,0,1,.1-1.092c.973-1.828,2-3.628,3.124-5.64,1.169,2.082,2.258,3.983,3.293,5.91a1.136,1.136,0,0,1-.075.918c-1,1.817-2.044,3.61-3.209,5.65" transform="translate(-29.547 -26.44)" fill="#7ead3f"/>
        <path id="Trazado_1051848" data-name="Trazado 1051848" d="M57.287,21.8c-6-1.733-9.85-.005-13.063,6.354a84.8,84.8,0,0,0-3.433,9.186l-1.642.113c.388-1.505.67-2.872,1.093-4.193,1.371-4.282,3.158-8.329,6.614-11.416,3.218-2.873,7.36-2.907,10.43-.044" transform="translate(-13.561 -6.813)" fill="#fad13c"/>
        <path id="Trazado_1051850" data-name="Trazado 1051850" d="M108.3,94.237c1.663-2.254.422-4.214-.625-6.195.808.076,1.992-.149,2.346.292a7.89,7.89,0,0,1,1.586,3.433c.3,1.707-1,2.567-3.307,2.469" transform="translate(-37.298 -30.498)" fill="#eb752a"/>
        <path id="Trazado_1051851" data-name="Trazado 1051851" d="M67.327,23.227l-.454-.322.454.322" transform="translate(-23.165 -7.934)" fill="#fad13c"/>
        <path id="Trazado_1051852" data-name="Trazado 1051852" d="M58.335,56.129c-.929.569-1.492,1.186-1.929,1.107-.488-.088-.861-.808-1.284-1.253.459-.421.89-1.127,1.386-1.176.437-.044.947.647,1.827,1.322" transform="translate(-19.094 -18.985)" fill="#0f1709"/>
      </g>
    </g>
  </g>
</svg>
