<svg id="Grupo_1185848" data-name="Grupo 1185848" xmlns="http://www.w3.org/2000/svg" xmlns:xlink="http://www.w3.org/1999/xlink" width="304.219" height="317.558" viewBox="0 0 304.219 317.558">
  <defs>
    <clipPath id="clip-path">
      <rect id="Rect치ngulo_410275" data-name="Rect치ngulo 410275" width="304.219" height="317.558" fill="none"/>
    </clipPath>
  </defs>
  <g id="Grupo_1185847" data-name="Grupo 1185847" clip-path="url(#clip-path)">
    <path id="Trazado_1052314" data-name="Trazado 1052314" d="M298.815,193.429a431.53,431.53,0,0,0-20.767-77.44c-12.373-33.388-29.466-64.671-57.411-87.62C201.858,12.946,176.922.5,152.109,0,127.3.5,102.36,12.946,83.587,28.369,55.642,51.318,38.544,82.6,26.17,115.989A431.568,431.568,0,0,0,5.4,193.429c-4.358,25.556-9.253,53.689-.7,78.879,3.451,10.151,9.974,17.83,18.1,23.639a82.629,82.629,0,0,0,24.21,11.383c33.554,10.121,70.375,10.227,105.09,10.227s71.542-.106,105.1-10.227q3.53-1.062,6.977-2.371c15.724-5.981,29.673-15.99,35.329-32.651,8.558-25.19,3.662-53.323-.7-78.879M64.95,101.268c8.805-71,65.626-81.457,87.159-81.457s78.355,10.457,87.166,81.457c4.51,36.385-18.5,55.712-42,65.908a113.652,113.652,0,0,1-90.327,0c-23.5-10.2-46.509-29.523-42-65.907" transform="translate(0)" fill="#393d62"/>
    <path id="Trazado_1052315" data-name="Trazado 1052315" d="M155.59,318.06c-33.162,0-70.748,0-104.238-10.1A79.575,79.575,0,0,1,28,297c-8.311-5.941-14.038-13.406-17.023-22.189-8.254-24.295-3.49-52.222.713-76.863l.1-.571a429.421,429.421,0,0,1,20.624-76.911C46.936,81.286,64.9,53.843,88.939,34.1,109.82,16.945,134.108,6.852,155.59,6.4c21.479.452,45.77,10.545,66.656,27.7,24.038,19.74,42,47.183,56.517,86.366a429.375,429.375,0,0,1,20.626,76.912l.1.571c4.2,24.641,8.967,52.568.713,76.864-4.673,13.768-15.973,24.145-33.585,30.843-2.209.841-4.489,1.615-6.779,2.3-33.492,10.1-71.081,10.1-104.246,10.1m0-297.746c-6.362,0-28.766,1.05-49.94,14.567C82.93,49.384,69.422,72.759,65.5,104.356c-3.85,31.038,11.278,54.889,43.749,68.976a116.6,116.6,0,0,0,92.674,0c32.472-14.087,47.6-37.939,43.756-68.977-3.921-31.6-17.43-54.972-40.15-69.476-21.174-13.516-43.58-14.567-49.943-14.567" transform="translate(-3.481 -3.451)" fill="#494e73"/>
    <path id="Trazado_1052316" data-name="Trazado 1052316" d="M322.529,444.365H290.84a4.165,4.165,0,0,1-4.165-4.165v-2.354a4.165,4.165,0,0,1,4.165-4.165h31.69a4.165,4.165,0,0,1,4.165,4.165V440.2a4.165,4.165,0,0,1-4.165,4.165" transform="translate(-154.573 -233.838)" fill="#c6c6c6"/>
    <rect id="Rect치ngulo_410274" data-name="Rect치ngulo 410274" width="37.65" height="8.315" rx="4.157" transform="translate(133.286 201.028)" fill="#b2b1af"/>
  </g>
</svg>
