<svg xmlns="http://www.w3.org/2000/svg" xmlns:xlink="http://www.w3.org/1999/xlink" width="118" height="118" viewBox="0 0 118 118">
  <defs>
    <filter id="Elipse_12115" x="0" y="0" width="118" height="118" filterUnits="userSpaceOnUse">
      <feOffset dy="3" input="SourceAlpha"/>
      <feGaussianBlur stdDeviation="3" result="blur"/>
      <feFlood flood-opacity="0.161"/>
      <feComposite operator="in" in2="blur"/>
      <feComposite in="SourceGraphic"/>
    </filter>
    <clipPath id="clip-path">
      <rect id="Rectángulo_410131" data-name="Rectángulo 410131" width="60.633" height="60.633" fill="none"/>
    </clipPath>
  </defs>
  <g id="Grupo_1185878" data-name="Grupo 1185878" transform="translate(-8478.359 5683.959)">
    <g id="Grupo_1185549" data-name="Grupo 1185549" transform="translate(7678.578 -8226.959)">
      <g transform="matrix(1, 0, 0, 1, 799.78, 2543)" filter="url(#Elipse_12115)">
        <circle id="Elipse_12115-2" data-name="Elipse 12115" cx="50" cy="50" r="50" transform="translate(9 6)" fill="#f8de53"/>
      </g>
    </g>
    <g id="Grupo_1185552" data-name="Grupo 1185552" transform="translate(8505.895 -5658.275)">
      <g id="Grupo_1185551" data-name="Grupo 1185551" clip-path="url(#clip-path)">
        <path id="Trazado_1051960" data-name="Trazado 1051960" d="M0,30.867v-.944l2.36-.693v-.9c0-3.765-.01-7.529,0-11.294a3.3,3.3,0,0,1,3.274-3.546c.69-.059,1.388-.009,2.173-.009,0-.665-.025-1.206.005-1.744A1.95,1.95,0,0,1,9.779,9.678a30.383,30.383,0,0,1,3.528,0c1.477.092,2.029.753,2.062,2.279.01.462,0,.924,0,1.5a11.564,11.564,0,0,1,2.285.036,5.445,5.445,0,0,1,1.478.856c-.19.806-.739.969-1.5.963-3.81-.028-7.62-.018-11.43-.01-1.344,0-1.956.409-1.972,1.482-.047,3.169-.017,6.339-.017,9.6h1.35q14.082,0,28.164,0a7.165,7.165,0,0,1,7.607,6.6c0,.076.007.152.01.228q0,6.251,0,12.5v2.065H54.725a3.15,3.15,0,0,0,.056-.4q0-15.1,0-30.19c0-1.48-.53-1.9-2.17-1.866-.43-.013-.861-.036-1.291-.036q-14.179,0-28.359,0c-.737,0-1.454.033-1.562-.96.167-.8.766-.892,1.435-.89,1.533,0,3.066,0,4.6,0H37.465V4.466c-.493-.721-1.086-1.2-1.06-1.634.054-.907.92-.751,1.574-.752,2.712,0,5.424,0,8.136,0,.632,0,1.434-.092,1.468.734.018.447-.545.918-1.03,1.66v9.06c2.393,0,4.716-.1,7.024.032a3.131,3.131,0,0,1,3.039,3.377c.022,1.089,0,2.178,0,3.334.934,0,1.752.011,2.57,0s1.22.347,1.217,1.2q-.022,6.308,0,12.617c0,.828-.41,1.139-1.137,1.161-.853.026-1.708.006-2.593.006V47.849c.446,0,.833,0,1.219,0,1.764.015,2.493.737,2.5,2.49.005,1.415,0,2.83,0,4.245A2.231,2.231,0,0,1,59,56.691a2.674,2.674,0,0,0-.966,1.064,5.054,5.054,0,0,0-.485,1.438c-.236,1.114-.859,1.434-2.006,1.432-16.508-.04-33.015-.018-49.524-.036-3.082,0-2.452.587-3.623-2.752-.123-.352-.2-.8-.464-1A18.373,18.373,0,0,0,0,55.639V49.033a3.541,3.541,0,0,1,3.276-1.2c1.32.088,2.65.019,3.99.019V40.67c-.815-.333-2.217.418-2.23-.949s1.409-.817,2.235-1.057v-1.9c-.887,0-1.707.009-2.526,0A2.163,2.163,0,0,1,2.363,34.35c-.014-1,0-2,0-2.762L0,30.867M42.927,3.949H39.458l-.263.287c.287.32.515.783.872.931.923.381,1.9.622,2.861.919l1.647.617V3.949ZM42.919,9.9l1.656.622c.085-2.315.369-1.784-1.647-2.471L39.4,6.877V8.836L42.919,9.9m.031,2.047-3.5-1.255v2.744h5.117c.289-1.46-.9-1.215-1.617-1.489m9.662,46.776c.467.019.933.054,1.4.055,1.919.007,1.919,0,2.216-1.928H52.606a3.7,3.7,0,0,1-1.272-.076,5.358,5.358,0,0,1-1.142-.913c.469-.3.917-.816,1.411-.865,1.347-.134,2.714-.072,4.072-.087h2.848V49.717H55.674c-.468-.023-.936-.067-1.4-.067q-18.134-.005-36.268,0a2.674,2.674,0,0,1-1.047-.039,4.606,4.606,0,0,1-.967-.818c.046-.964.728-.945,1.426-.944q8.492.009,16.984,0h1.274c0-4.751.008-9.35,0-13.949,0-1.445-.445-1.86-1.919-1.861-4.01-.006-8.032.183-12.026-.067-2.69-.168-4.431.548-5.172,3.21a.7.7,0,0,1-.046.107,2.362,2.362,0,0,1-2.42,1.493c-1.6-.054-3.2-.013-4.829-.013V47.849c1.107,0,2.161.026,3.213-.009a1.027,1.027,0,0,1,1.228.951c-.307.734-.905.868-1.628.863-2.987-.018-5.974-.01-8.96,0-.418,0-.836.035-1.249.053v5.249H6.253q19.926,0,39.851-.006c.778,0,1.52-.009,1.8.923-.249,1.077-1.108.931-1.883.931q-20.265,0-40.531,0h-1.4c.466,1.983.466,1.983,2.338,1.983q22.387,0,44.773,0c.469,0,.938-.041,1.407-.063M39.453,47.79c.022-.4.057-.742.057-1.086,0-4.2-.079-8.409.027-12.61a5.535,5.535,0,0,0-5.921-5.9c-9.388.122-18.778.042-28.167.045-.38,0-.76.035-1.168.055v6.646c2.566,0,5.082-.158,7.566.049,2.11.176,3.343-.449,4.033-2.5a3.382,3.382,0,0,1,3.476-2.319c4.871,0,9.743-.015,14.614.008a3.307,3.307,0,0,1,3.545,3.634q.008,6.364,0,12.728V47.79ZM58.517,22.219H56.71V33.347h1.806Zm-45-10.609H9.753v1.8h3.766Z" transform="translate(0 -1.14)" fill="#111212"/>
        <path id="Trazado_1051963" data-name="Trazado 1051963" d="M24.284,29.378l2.263,0c.108.993.825.96,1.562.96q14.179-.011,28.359,0c.431,0,.861.023,1.291.036,0,1.589.024,3.179-.006,4.767-.019.992-.121,1.982-.186,2.974-.12-.2-.233-.4-.361-.6a4.77,4.77,0,0,0-6.106-1.63,4.64,4.64,0,0,0-2.289,5.755,4.449,4.449,0,0,0,3.816,3.057,4.685,4.685,0,0,0,4.951-2.8,1.28,1.28,0,0,1,.167.425Q57.73,47,57.694,51.7c-.15-.269-.29-.544-.452-.806a4.674,4.674,0,1,0-7.12,5.887,4.711,4.711,0,0,0,7.46-1.677c.06,1.161.153,2.321.171,3.482.028,1.788-.364,2.168-2.208,2.174-3.015.01-6.031,0-9.047,0q0-6.25,0-12.5c.024-.023.071-.053.067-.068a.952.952,0,0,0-.077-.16,7.165,7.165,0,0,0-7.607-6.6q-14.082-.009-28.164,0H9.364c0-3.266-.03-6.436.017-9.6.016-1.073.628-1.478,1.972-1.482,3.81-.009,7.62-.018,11.43.01.761.005,1.31-.157,1.5-.963m-4.74,6.511c0-.511,0-1.021,0-1.532-.015-1.407-.506-1.919-1.88-1.949q-.883-.02-1.767,0c-1.326.03-1.892.529-1.954,1.811-.049,1.019-.026,2.042-.008,3.063.026,1.509.562,2.045,2.05,2.087,3.446.1,3.56-.013,3.56-3.48m13.393.015c-.647-.458-1.029-.939-1.375-.915s-.9.565-.9.874a1.279,1.279,0,0,0,.86.931c.343.039.744-.441,1.411-.89m6.228-1.388c-.458.639-.957,1.033-.917,1.362.043.357.587.655.912.979.313-.326.836-.626.879-.984.039-.329-.437-.721-.873-1.358" transform="translate(-5.15 -16.17)" fill="#dff0f9"/>
        <path id="Trazado_1051965" data-name="Trazado 1051965" d="M15.973,106h2.291a4.6,4.6,0,0,0,.967.817,2.674,2.674,0,0,0,1.047.039q18.134,0,36.268,0c.468,0,.936.044,1.4.067v5.188c-1.359.016-2.725-.047-4.072.087-.494.049-.942.563-1.411.865l-2.286.011c-.282-.932-1.024-.923-1.8-.922q-19.926.011-39.851.005H4.135v-5.248c.413-.019.831-.053,1.249-.054,2.987,0,5.974-.013,8.96.005.723,0,1.322-.129,1.628-.864" transform="translate(-2.276 -58.353)" fill="#e0f1fa"/>
        <path id="Trazado_1051966" data-name="Trazado 1051966" d="M44.695,79.781H42.759V78.534q0-6.365,0-12.729a3.307,3.307,0,0,0-3.545-3.634c-4.871-.022-9.742-.005-14.614-.007a3.381,3.381,0,0,0-3.476,2.319c-.69,2.049-1.923,2.674-4.033,2.5-2.484-.207-5-.049-7.566-.049V60.287c.408-.02.788-.054,1.168-.054,9.389,0,18.779.076,28.167-.045a5.535,5.535,0,0,1,5.921,5.9c-.106,4.2-.023,8.406-.027,12.61,0,.343-.035.687-.057,1.086" transform="translate(-5.242 -33.132)" fill="#8cb25c"/>
        <path id="Trazado_1051967" data-name="Trazado 1051967" d="M52.919,121.736l2.286-.011a5.374,5.374,0,0,0,1.142.913,3.7,3.7,0,0,0,1.272.076q0,.936.006,1.872c-.469.022-.938.063-1.407.063q-22.387,0-44.773,0c-1.873,0-1.873,0-2.339-1.982h1.4q20.265,0,40.531,0c.776,0,1.635.145,1.883-.931" transform="translate(-5.013 -67.007)" fill="#a7b7c4"/>
        <path id="Trazado_1051968" data-name="Trazado 1051968" d="M91.983,61.965c3.016,0,6.031.014,9.047,0,1.844-.006,2.237-.386,2.208-2.174-.018-1.162-.111-2.322-.171-3.482q.055-1.7.111-3.4.029-4.691.051-9.382a1.285,1.285,0,0,0-.167-.425,5.63,5.63,0,0,0-.01-3.781c.065-.991.166-1.982.186-2.974.031-1.589.007-3.178.006-4.767,1.639-.037,2.168.386,2.17,1.866q.016,15.1,0,30.19a3.238,3.238,0,0,1-.055.4H91.983Z" transform="translate(-50.635 -17.383)" fill="#c8e5f4"/>
        <rect id="Rectángulo_410128" data-name="Rectángulo 410128" width="1.806" height="11.128" transform="translate(56.71 21.079)" fill="#8db35d"/>
        <path id="Trazado_1051969" data-name="Trazado 1051969" d="M123.853,113.252q0-2.594,0-5.188H126.7v5.188Z" transform="translate(-68.178 -59.487)" fill="#c9e6f6"/>
        <rect id="Rectángulo_410129" data-name="Rectángulo 410129" width="3.766" height="1.805" transform="translate(9.753 10.47)" fill="#8aaf5b"/>
        <path id="Trazado_1051970" data-name="Trazado 1051970" d="M91.237,23.983H87.759V21.238l3.5,1.256-.023,1.489" transform="translate(-48.31 -11.691)" fill="#bc5f9e"/>
        <path id="Trazado_1051971" data-name="Trazado 1051971" d="M91.163,15.781l-3.523-1.06V12.762l3.532,1.17-.009,1.848" transform="translate(-48.244 -7.025)" fill="#b85c9b"/>
        <path id="Trazado_1051972" data-name="Trazado 1051972" d="M117.033,125.8q0-.936-.006-1.872h3.623c-.3,1.93-.3,1.934-2.217,1.927-.467,0-.933-.036-1.4-.055" transform="translate(-64.421 -68.218)" fill="#8c9cac"/>
        <path id="Trazado_1051973" data-name="Trazado 1051973" d="M90.928,8.385c-.957-.3-1.938-.538-2.861-.919-.358-.147-.586-.611-.873-.93l.263-.288h3.469q0,1.069,0,2.137" transform="translate(-47.999 -3.439)" fill="#bd5f9f"/>
        <path id="Trazado_1051974" data-name="Trazado 1051974" d="M95.5,8.385q0-1.068,0-2.137h1.649V9L95.5,8.385" transform="translate(-52.569 -3.439)" fill="#b2438c"/>
        <path id="Trazado_1051975" data-name="Trazado 1051975" d="M95.477,17.213l.009-1.848c2.016.686,1.732.155,1.647,2.471l-1.656-.622" transform="translate(-52.558 -8.458)" fill="#ac3f88"/>
        <path id="Trazado_1051976" data-name="Trazado 1051976" d="M95.5,25.52l.023-1.489c.713.274,1.906.029,1.617,1.489Z" transform="translate(-52.569 -13.229)" fill="#b0428b"/>
        <path id="Trazado_1051977" data-name="Trazado 1051977" d="M91.955,70.86a.954.954,0,0,1,.078.16c0,.015-.044.045-.067.068,0-.076-.007-.152-.01-.228" transform="translate(-50.619 -39.007)" fill="#c8e5f4"/>
        <path id="Trazado_1051978" data-name="Trazado 1051978" d="M105.525,45.458a5.63,5.63,0,0,1,.01,3.781,4.685,4.685,0,0,1-4.951,2.8,4.449,4.449,0,0,1-3.816-3.057,4.64,4.64,0,0,1,2.289-5.755,4.77,4.77,0,0,1,6.106,1.63c.128.194.241.4.362.6m-1.454,1.933a2.893,2.893,0,1,0-2.908,2.895,2.883,2.883,0,0,0,2.908-2.895" transform="translate(-53.107 -23.521)" fill="#0e1011"/>
        <path id="Trazado_1051979" data-name="Trazado 1051979" d="M105.654,75.255q-.056,1.7-.111,3.4a4.711,4.711,0,0,1-7.46,1.677,4.672,4.672,0,1,1,7.119-5.887c.162.262.3.537.452.806m-1.58,1.579a2.878,2.878,0,0,0-2.8-2.894,2.9,2.9,0,1,0-.111,5.8,2.892,2.892,0,0,0,2.912-2.909" transform="translate(-53.11 -39.73)" fill="#0e0f10"/>
        <path id="Trazado_1051980" data-name="Trazado 1051980" d="M25.126,39.595c0,3.467-.113,3.578-3.56,3.48-1.487-.042-2.024-.578-2.05-2.087-.017-1.02-.041-2.044.008-3.063.061-1.282.628-1.781,1.954-1.81q.883-.02,1.767,0c1.374.03,1.865.543,1.88,1.949.006.51,0,1.021,0,1.532M23.22,37.909H21.436V41.3H23.22Z" transform="translate(-10.732 -19.875)" fill="#100d10"/>
        <path id="Trazado_1051981" data-name="Trazado 1051981" d="M59.035,42.783c-.667.449-1.068.929-1.411.89a1.279,1.279,0,0,1-.86-.931c0-.309.555-.849.9-.874s.728.456,1.375.915" transform="translate(-31.247 -23.047)" fill="#17191a"/>
        <path id="Trazado_1051982" data-name="Trazado 1051982" d="M74.545,40.816c.436.637.912,1.028.873,1.358-.043.358-.565.658-.879.984-.325-.324-.869-.622-.912-.979-.04-.33.459-.724.917-1.362" transform="translate(-40.529 -22.468)" fill="#17191a"/>
        <path id="Trazado_1051983" data-name="Trazado 1051983" d="M106.287,49.578a2.866,2.866,0,0,1-2.908,2.895,2.887,2.887,0,1,1,2.908-2.895m-1.5-.047c-.671-.431-1.083-.9-1.423-.856a1.287,1.287,0,0,0-.833.959c0,.292.581.81.924.825s.709-.467,1.331-.928" transform="translate(-55.323 -25.707)" fill="#8999a8"/>
        <path id="Trazado_1051984" data-name="Trazado 1051984" d="M106.27,79a2.892,2.892,0,0,1-2.911,2.909,2.9,2.9,0,1,1,.111-5.8A2.877,2.877,0,0,1,106.27,79M103.3,80.4c.509-.672,1.028-1.063.987-1.382a1.459,1.459,0,0,0-.937-.932c-.2-.059-.81.514-.842.841-.036.357.381.759.792,1.474" transform="translate(-55.306 -41.892)" fill="#8998a8"/>
        <rect id="Rectángulo_410130" data-name="Rectángulo 410130" width="1.784" height="3.394" transform="translate(10.704 18.035)" fill="#ba5d9c"/>
        <path id="Trazado_1051985" data-name="Trazado 1051985" d="M107.273,51.945c-.622.461-.988.944-1.331.928s-.927-.533-.924-.825a1.287,1.287,0,0,1,.833-.959c.339-.047.752.425,1.423.856" transform="translate(-57.81 -28.122)" fill="#111314"/>
        <path id="Trazado_1051986" data-name="Trazado 1051986" d="M105.8,82.824c-.411-.715-.828-1.117-.792-1.474.032-.327.64-.9.842-.841a1.459,1.459,0,0,1,.937.932c.041.319-.478.709-.987,1.382" transform="translate(-57.804 -44.317)" fill="#0e1011"/>
      </g>
    </g>
  </g>
</svg>
