<svg xmlns="http://www.w3.org/2000/svg" xmlns:xlink="http://www.w3.org/1999/xlink" width="118" height="118" viewBox="0 0 118 118">
  <defs>
    <filter id="Elipse_12115" x="0" y="0" width="118" height="118" filterUnits="userSpaceOnUse">
      <feOffset dy="3" input="SourceAlpha"/>
      <feGaussianBlur stdDeviation="3" result="blur"/>
      <feFlood flood-opacity="0.161"/>
      <feComposite operator="in" in2="blur"/>
      <feComposite in="SourceGraphic"/>
    </filter>
    <clipPath id="clip-path">
      <rect id="Rectángulo_410135" data-name="Rectángulo 410135" width="64.764" height="64.764" fill="none"/>
    </clipPath>
  </defs>
  <g id="Grupo_1185550" data-name="Grupo 1185550" transform="translate(-799.782 -2543)">
    <g transform="matrix(1, 0, 0, 1, 799.78, 2543)" filter="url(#Elipse_12115)">
      <circle id="Elipse_12115-2" data-name="Elipse 12115" cx="50" cy="50" r="50" transform="translate(9 6)" fill="#f8de53"/>
    </g>
    <g id="Grupo_1185554" data-name="Grupo 1185554" transform="translate(826.4 2566.618)">
      <g id="Grupo_1185553" data-name="Grupo 1185553" clip-path="url(#clip-path)">
        <path id="Trazado_1051988" data-name="Trazado 1051988" d="M88.573,66.833a10.572,10.572,0,0,1-2.014.392q-23.313.034-46.625.012c-.81,0-1.749.2-2.053-.943.165-1.032.925-1.007,1.716-1.007q20.325.012,40.65,0c1.341,0,2.683-.029,4.025-.044h2.261V63.125H84.272c-2.151-.015-4.3-.04-6.453-.04-.659,0-1.265-.024-1.435-.833.055-1.392,1.337-.929,2.093-1.308,0-10.809.065-21.577-.04-32.345-.031-3.2-3.123-5.878-6.246-5.871-3.426-.018-6.854.026-10.277-.079a4.617,4.617,0,0,0-3.89,1.786,6.264,6.264,0,0,1-2.987,1.811,14.724,14.724,0,0,1-4.231.181c-.379-.017-.73-.617-1.094-.95a5.213,5.213,0,0,1,1.345-.956,4.559,4.559,0,0,1,1.749-.029,4.449,4.449,0,0,0,4.422-1.976,4.671,4.671,0,0,1,4.067-1.825c.545,0,1.09,0,1.808,0-.083-2.074-.149-4.246,3.042-4.059,0-1.617.017-3.2-.008-4.779-.011-.711.144-1.324.952-1.341.876-.019,1.064.619,1.055,1.38-.02,1.543-.006,3.087-.006,4.614,2.082.244,3.113.315,3.08,4.153a8.737,8.737,0,0,1,6.861,2.711,9.337,9.337,0,0,1,2.406,7.107H82.55q0-2.252,0-4.5c0-2.155.657-3.35,2.111-3.858,1.427-.5,2.578.045,3.912,1.847V47.417a8.906,8.906,0,0,1-1.622,1.555c-2.039,1.15-4.33-.356-4.392-2.857-.045-1.786-.009-3.573-.009-5.322H80.556V61.129c1.793,0,3.512-.046,5.227.018a26.133,26.133,0,0,1,2.79.39Zm-4.035-31.2c0,3.439.007,6.879-.006,10.318,0,.741.126,1.4,1.006,1.43s1.086-.593,1.085-1.351q-.007-10.318,0-20.637c0-.71-.091-1.426-1.01-1.429-.959,0-1.082.685-1.078,1.476.016,3.4.007,6.795.007,10.192m-3.988,3.086h1.954V32.6H80.551Zm-11.418-20.1H65.109v2.009h4.025Z" transform="translate(-23.809 -6.606)" fill="#121111"/>
        <path id="Trazado_1051990" data-name="Trazado 1051990" d="M29.6,45.958c.364.332.715.932,1.094.95a14.726,14.726,0,0,0,4.231-.181,6.266,6.266,0,0,0,2.987-1.811,4.617,4.617,0,0,1,3.89-1.786c3.424.105,6.851.062,10.278.079a22.187,22.187,0,0,1,2.027,1.82,8,8,0,0,1,1.732,5.491c.036,7.834.01,15.669.017,23.5,0,2.848.037,5.7.057,8.543l-2.086.011c-.528-.32-1.032-.854-1.59-.917a33.992,33.992,0,0,0-3.775-.044H42.506c0-.62,0-1.075,0-1.53,0-4.116.043-8.233-.022-12.349-.064-4.051-3.517-8-7.354-8.1-6.209-.171-12.426-.117-18.639-.077a3.356,3.356,0,0,0-3.484,3.122c-.3,1.717-.562,3.441-.837,5.138H5.891V60.2q0-7.372,0-14.743c0-2,.324-2.3,2.354-2.3a16.1,16.1,0,0,0,2.139-.015,2.957,2.957,0,0,1,3.356,1.775,3.6,3.6,0,0,0,3.48,2.043c2.814,0,5.627-.014,8.44.007.763.006,1.315-.2,1.5-1.008H29.6M25.4,50.221c-3.148,0-6.3-.016-9.444.007a1.941,1.941,0,0,0-2.2,2.149c-.022.5-.021,1.008-.009,1.511.04,1.561.749,2.358,2.3,2.365q9.381.044,18.762,0c1.6-.009,2.341-.854,2.388-2.456.011-.378.01-.756,0-1.134-.043-1.712-.749-2.426-2.477-2.435-3.106-.016-6.212,0-9.318,0M55.39,54.445a4.808,4.808,0,0,0-4.41-5.2,4.955,4.955,0,0,0-5.521,4.7A5.04,5.04,0,0,0,50.268,59.3c2.785.137,5.429-2.453,5.122-4.851m0,14.119a4.836,4.836,0,0,0-4.421-5.2,4.978,4.978,0,0,0-5.514,4.72,5.049,5.049,0,0,0,4.7,5.335c2.655.2,5.54-2.275,5.235-4.859" transform="translate(-3.702 -27.089)" fill="#c41553"/>
        <path id="Trazado_1051991" data-name="Trazado 1051991" d="M23.808,32.4c-.185.806-.737,1.014-1.5,1.008-2.813-.021-5.627-.011-8.44-.007a3.6,3.6,0,0,1-3.48-2.043,2.957,2.957,0,0,0-3.356-1.774,16.155,16.155,0,0,1-2.138.015c-2.03,0-2.351.3-2.354,2.3q-.008,7.372,0,14.744v7.624H8.817c.275-1.7.535-3.421.837-5.138a3.356,3.356,0,0,1,3.484-3.121c6.213-.04,12.429-.094,18.639.077,3.837.105,7.29,4.051,7.354,8.1.065,4.116.019,8.233.022,12.349,0,.455,0,.91,0,1.53h5.961a33.991,33.991,0,0,1,3.775.044c.557.063,1.061.6,1.59.917-.206,1-.955.989-1.749.988Q26.711,70,4.693,70.006H2.658v2.216c2.708,0,5.3.012,7.9-.007.748-.005,1.355.1,1.4,1.018-.472.312-.937.88-1.418.894-2.853.085-5.709.043-8.564.041-.966,0-1.471-.4-1.409-1.458a24.862,24.862,0,0,0,0-3.148c-.076-1.129.476-1.512,1.489-1.5.8.005,1.594,0,2.48,0V56.335c-.847,0-1.749-.012-2.65,0C1,56.354.569,55.984.57,55.063c.013-8.063,0-16.126.019-24.19A3.43,3.43,0,0,1,3.8,27.629c.408-.026.818,0,1.321,0,0-1.643.01-3.188,0-4.733-.006-.684.074-1.322.925-1.357.912-.037,1.08.6,1.074,1.351-.012,1.544,0,3.088,0,4.782,2.515-.479,3.864.9,5.049,2.756a2.605,2.605,0,0,0,1.86.942c2.767.1,5.541.058,8.311.034.76-.006,1.312.182,1.473,1M37.16,68.04c0-4.684.062-9.256-.021-13.825a6.335,6.335,0,0,0-5.9-6.22c-.708-.069-1.422-.112-2.134-.114q-7.562-.014-15.124,0c-1.973,0-2.288.316-2.561,2.281-.224,1.615-.533,3.22-.712,4.838a1.321,1.321,0,0,1-1.585,1.342c-.824-.026-1.649-.006-2.459-.006v1.982c.886.28,2.341-.41,2.4,1,.072,1.655-1.58.792-2.384,1.169V68.04Z" transform="translate(-0.348 -13.535)" fill="#140f11"/>
        <path id="Trazado_1051992" data-name="Trazado 1051992" d="M15.513,153.566c-.042-.923-.649-1.023-1.4-1.018-2.6.019-5.191.007-7.9.007V150.34H8.253q22.018,0,44.036.006c.793,0,1.543.01,1.749-.988l2.085-.011.36.166c.171.809.776.833,1.436.833,2.151,0,4.3.025,6.453.04v2.121c-1.341.016-2.683.044-4.024.044q-20.325.005-40.651,0c-.792,0-1.551-.025-1.716,1.007l-2.467.01" transform="translate(-3.908 -93.869)" fill="#b3683b"/>
        <path id="Trazado_1051993" data-name="Trazado 1051993" d="M134.434,82.921l-.36-.166c-.019-2.847-.053-5.695-.056-8.542-.008-7.835.019-15.669-.018-23.5a8,8,0,0,0-1.731-5.491,22.341,22.341,0,0,0-2.027-1.82c3.122-.007,6.214,2.676,6.245,5.871.1,10.767.04,21.536.04,32.345-.755.379-2.038-.084-2.092,1.308" transform="translate(-81.861 -27.276)" fill="#ab003b"/>
        <path id="Trazado_1051994" data-name="Trazado 1051994" d="M163.471,58.4c0-3.4.009-6.795-.007-10.192,0-.791.119-1.48,1.078-1.477.919,0,1.01.72,1.01,1.429q0,10.318,0,20.637c0,.758-.2,1.385-1.085,1.351s-1.009-.689-1.006-1.429c.013-3.439.006-6.879.006-10.318" transform="translate(-102.741 -29.374)" fill="#8eb45d"/>
        <rect id="Rectángulo_410132" data-name="Rectángulo 410132" width="1.954" height="6.119" transform="translate(56.742 25.996)" fill="#8b9bab"/>
        <rect id="Rectángulo_410133" data-name="Rectángulo 410133" width="4.025" height="2.009" transform="translate(41.299 12.011)" fill="#8897a6"/>
        <path id="Trazado_1051995" data-name="Trazado 1051995" d="M162.765,154.267v-2.121h2.261v2.121Z" transform="translate(-102.302 -95.628)" fill="#9d5831"/>
        <path id="Trazado_1051996" data-name="Trazado 1051996" d="M38.663,62.261c3.106,0,6.212-.012,9.318,0,1.728.009,2.434.723,2.477,2.435.009.378.011.756,0,1.133-.047,1.6-.793,2.448-2.388,2.457q-9.381.05-18.761,0c-1.554-.007-2.262-.8-2.3-2.365-.013-.5-.014-1.008.008-1.511a1.941,1.941,0,0,1,2.2-2.149c3.148-.023,6.3-.007,9.444-.007m9.722,1.988H28.944v2.02H48.385Z" transform="translate(-16.968 -39.129)" fill="#0f0508"/>
        <path id="Trazado_1051997" data-name="Trazado 1051997" d="M122.329,64.823c.307,2.4-2.337,4.987-5.121,4.851A5.04,5.04,0,0,1,112.4,64.32a4.955,4.955,0,0,1,5.521-4.7,4.808,4.808,0,0,1,4.41,5.2m-1.824-.228a3.115,3.115,0,0,0-6.229.04,3.222,3.222,0,0,0,3.2,3.056,3.167,3.167,0,0,0,3.026-3.1" transform="translate(-70.641 -37.467)" fill="#100a08"/>
        <path id="Trazado_1051998" data-name="Trazado 1051998" d="M122.323,102.834c.3,2.584-2.58,5.058-5.235,4.859a5.049,5.049,0,0,1-4.7-5.335,4.979,4.979,0,0,1,5.514-4.721,4.836,4.836,0,0,1,4.421,5.2m-4.9-3.246a3.159,3.159,0,0,0-3.156,2.958,3.125,3.125,0,0,0,6.247.182,3.166,3.166,0,0,0-3.091-3.14" transform="translate(-70.634 -61.359)" fill="#100a08"/>
        <rect id="Rectángulo_410134" data-name="Rectángulo 410134" width="19.441" height="2.02" transform="translate(11.976 25.119)" fill="#86aa58"/>
        <path id="Trazado_1052000" data-name="Trazado 1052000" d="M123.693,67.9a3.167,3.167,0,0,1-3.026,3.1,3.222,3.222,0,0,1-3.2-3.056,3.115,3.115,0,0,1,6.229-.04M120.6,66.451c-.5.7-1.021,1.116-.975,1.457.052.388.615.707.956,1.055.351-.343.925-.652.985-1.041.052-.339-.475-.768-.966-1.472" transform="translate(-73.828 -40.776)" fill="#8aaf5b"/>
        <path id="Trazado_1052001" data-name="Trazado 1052001" d="M120.6,102.911a3.166,3.166,0,0,1,3.091,3.14,3.125,3.125,0,0,1-6.247-.182,3.159,3.159,0,0,1,3.156-2.958m1.446,3.1c-.661-.483-1.061-1-1.426-.979s-.721.577-1.079.9c.331.357.63.953,1,1s.8-.462,1.5-.922" transform="translate(-73.818 -64.682)" fill="#8bb05b"/>
        <path id="Trazado_1052002" data-name="Trazado 1052002" d="M124.252,69.115c.491.7,1.018,1.133.966,1.472-.06.388-.634.7-.985,1.04-.341-.349-.9-.668-.956-1.055-.046-.341.479-.759.975-1.457" transform="translate(-77.481 -43.441)" fill="#11160d"/>
        <path id="Trazado_1052003" data-name="Trazado 1052003" d="M125.6,109.592c-.7.46-1.14.97-1.5.922s-.671-.646-1-1c.358-.321.7-.873,1.079-.9s.765.5,1.426.979" transform="translate(-77.368 -68.265)" fill="#12180d"/>
      </g>
    </g>
  </g>
</svg>
