<svg id="Grupo_1185438" data-name="Grupo 1185438" xmlns="http://www.w3.org/2000/svg" xmlns:xlink="http://www.w3.org/1999/xlink" width="116.496" height="102.335" viewBox="0 0 116.496 102.335">
  <defs>
    <clipPath id="clip-path">
      <rect id="Rectángulo_410062" data-name="Rectángulo 410062" width="116.496" height="102.335" fill="none"/>
    </clipPath>
    <clipPath id="clip-path-2">
      <rect id="Rectángulo_410061" data-name="Rectángulo 410061" width="116.496" height="102.335" transform="translate(0 0)" fill="none"/>
    </clipPath>
    <clipPath id="clip-path-3">
      <rect id="Rectángulo_410055" data-name="Rectángulo 410055" width="115.503" height="87.261" transform="translate(0.499 0.493)" fill="none"/>
    </clipPath>
    <clipPath id="clip-path-4">
      <rect id="Rectángulo_410056" data-name="Rectángulo 410056" width="73.753" height="60.882" transform="translate(27.954 41.384)" fill="none"/>
    </clipPath>
    <clipPath id="clip-path-5">
      <rect id="Rectángulo_410057" data-name="Rectángulo 410057" width="106.165" height="78.596" transform="translate(7.244 4.088)" fill="none"/>
    </clipPath>
    <clipPath id="clip-path-6">
      <rect id="Rectángulo_410058" data-name="Rectángulo 410058" width="105.776" height="44.779" transform="translate(6.867 42.975)" fill="none"/>
    </clipPath>
    <clipPath id="clip-path-7">
      <rect id="Rectángulo_410059" data-name="Rectángulo 410059" width="23.138" height="47.705" transform="translate(92.376 9.996)" fill="none"/>
    </clipPath>
    <clipPath id="clip-path-8">
      <rect id="Rectángulo_410060" data-name="Rectángulo 410060" width="38.856" height="17.467" transform="translate(55.192 0.752)" fill="none"/>
    </clipPath>
  </defs>
  <g id="Grupo_1185437" data-name="Grupo 1185437" clip-path="url(#clip-path)">
    <g id="Grupo_1185436" data-name="Grupo 1185436">
      <g id="Grupo_1185435" data-name="Grupo 1185435" clip-path="url(#clip-path-2)">
        <path id="Trazado_1051709" data-name="Trazado 1051709" d="M115.457,55.489a14.207,14.207,0,0,0-2.315-5.115,13.065,13.065,0,0,0,.8-1.931,16.029,16.029,0,0,0,.217-8.079,10.593,10.593,0,0,0-1.63-3.783,29.9,29.9,0,0,0,1.116-10.107,18.382,18.382,0,0,0-2.7-8.815,18.751,18.751,0,0,0-6.385-5.893A27.035,27.035,0,0,0,90.944,8.1a28.494,28.494,0,0,0-3.462.23,12.577,12.577,0,0,0-3.721-4.7C79.507.3,73.217.146,68.24,1.721a17.255,17.255,0,0,0-4.821,2.4A22.825,22.825,0,0,0,57.87,1.559a21.685,21.685,0,0,0-10.59-.7A27.9,27.9,0,0,0,38.6,4.387c-.378.229-.777.489-1.177.77a9.7,9.7,0,0,0-4.717.017,27.933,27.933,0,0,0-8.538,3.483,17.7,17.7,0,0,0-5.745,6.188c-.481.8-.926,1.622-1.333,2.468a14.956,14.956,0,0,0-7.6,6.018,15.322,15.322,0,0,0-2.138,7.476,22.143,22.143,0,0,0,.221,5.622c-.095.074-.2.141-.29.218a18.3,18.3,0,0,0-6.017,9.175C-.4,51.96.606,58.744,4.682,63.666a13.381,13.381,0,0,0,1.34,5.177,16.758,16.758,0,0,0,6,6.906,10.857,10.857,0,0,0,1.764.894A26.709,26.709,0,0,0,24.94,84.98c8.342,3.543,18.555,3.914,26.775-.186a27.6,27.6,0,0,0,5.79,2.023,25.632,25.632,0,0,0,18.356-2.685A29.521,29.521,0,0,0,89.885,84.1a33.435,33.435,0,0,0,11.637-5.024c.184-.084.371-.159.552-.246a25.562,25.562,0,0,0,11.267-9.918,19.285,19.285,0,0,0,2.613-8.128,16.086,16.086,0,0,0-.5-5.3" fill="#fff"/>
        <path id="Trazado_1051710" data-name="Trazado 1051710" d="M38.507,88.269a35.349,35.349,0,0,1-13.76-2.834,27.494,27.494,0,0,1-11.281-8.387,11.58,11.58,0,0,1-1.713-.881,17.232,17.232,0,0,1-6.176-7.11,13.961,13.961,0,0,1-1.379-5.2A20.341,20.341,0,0,1,.785,45.694a18.757,18.757,0,0,1,6.18-9.427.779.779,0,0,1,.063-.051,23.074,23.074,0,0,1-.173-5.443A16.029,16.029,0,0,1,9.07,23.064a15.4,15.4,0,0,1,7.663-6.149c.391-.8.816-1.579,1.267-2.325a17.989,17.989,0,0,1,5.911-6.356A28.553,28.553,0,0,1,32.6,4.69a10.335,10.335,0,0,1,4.73-.072c.344-.236.685-.456,1.01-.653A28.294,28.294,0,0,1,47.179.38a22.113,22.113,0,0,1,10.835.707A23.5,23.5,0,0,1,63.4,3.531a17.806,17.806,0,0,1,4.686-2.28C72.717-.214,79.341-.459,84.065,3.242a13.126,13.126,0,0,1,3.712,4.552,30.307,30.307,0,0,1,3.161-.189l.295,0a27.513,27.513,0,0,1,13.572,3.736,19.287,19.287,0,0,1,6.55,6.05,18.769,18.769,0,0,1,2.785,9.051,30.174,30.174,0,0,1-1.074,10.05,11.075,11.075,0,0,1,1.576,3.766,16.475,16.475,0,0,1-.227,8.333,12.425,12.425,0,0,1-.7,1.726,15.381,15.381,0,0,1,2.217,5.054,16.561,16.561,0,0,1,.51,5.457,19.917,19.917,0,0,1-2.679,8.337,26.139,26.139,0,0,1-11.48,10.114c-.112.053-.225.1-.34.152l-.221.1a33.822,33.822,0,0,1-11.733,5.056,30.137,30.137,0,0,1-14.057.08A25.991,25.991,0,0,1,57.4,87.3a28,28,0,0,1-5.677-1.955,30.166,30.166,0,0,1-13.211,2.926M35.34,5.364a12.345,12.345,0,0,0-2.534.293,27.5,27.5,0,0,0-8.384,3.422A17.056,17.056,0,0,0,18.844,15.1c-.469.775-.91,1.592-1.312,2.426l-.088.185-.194.068A14.384,14.384,0,0,0,9.9,23.6,15.107,15.107,0,0,0,7.84,30.842a21.564,21.564,0,0,0,.213,5.494l.055.294-.379.294c-.045.034-.091.067-.135.1a17.791,17.791,0,0,0-5.857,8.924,19.332,19.332,0,0,0,3.326,17.4l.1.127.007.163a12.822,12.822,0,0,0,1.291,4.988,16.245,16.245,0,0,0,5.813,6.7,10.618,10.618,0,0,0,1.685.855l.131.052.084.114a26.429,26.429,0,0,0,10.954,8.174C33.8,88.207,43.9,88.14,51.493,84.353l.217-.108.218.1a27.046,27.046,0,0,0,5.686,1.987,25.286,25.286,0,0,0,17.993-2.627l.178-.107.2.053a29.019,29.019,0,0,0,13.786-.035,33.087,33.087,0,0,0,11.467-4.948l.315-.15c.1-.043.205-.088.305-.136a25.152,25.152,0,0,0,11.055-9.723,18.894,18.894,0,0,0,2.547-7.92,15.63,15.63,0,0,0-.485-5.135,14.13,14.13,0,0,0-2.22-4.924l-.2-.246.14-.283a12.68,12.68,0,0,0,.774-1.858,15.5,15.5,0,0,0,.205-7.824,10,10,0,0,0-1.551-3.607l-.136-.193.063-.226a29.292,29.292,0,0,0,1.1-9.939,17.818,17.818,0,0,0-2.625-8.581,18.322,18.322,0,0,0-6.218-5.733,26.5,26.5,0,0,0-13.078-3.6l-.283,0a27.783,27.783,0,0,0-3.4.227l-.367.049-.15-.337a12.049,12.049,0,0,0-3.577-4.512C79.033.553,72.576.868,68.387,2.192a16.834,16.834,0,0,0-4.682,2.333l-.272.193-.28-.179a22.491,22.491,0,0,0-5.429-2.508,21.084,21.084,0,0,0-10.346-.684,27.281,27.281,0,0,0-8.524,3.462c-.369.224-.758.478-1.15.753l-.2.139-.233-.073a6.5,6.5,0,0,0-1.933-.264" fill="#dee0e1"/>
        <g id="Grupo_1185419" data-name="Grupo 1185419" opacity="0.47" style="mix-blend-mode: multiply;isolation: isolate">
          <g id="Grupo_1185418" data-name="Grupo 1185418">
            <g id="Grupo_1185417" data-name="Grupo 1185417" clip-path="url(#clip-path-3)">
              <path id="Trazado_1051711" data-name="Trazado 1051711" d="M115.456,55.489a14.2,14.2,0,0,0-2.315-5.115,13.032,13.032,0,0,0,.8-1.932,16.025,16.025,0,0,0,.217-8.078,10.6,10.6,0,0,0-1.63-3.784,29.9,29.9,0,0,0,1.116-10.106,18.382,18.382,0,0,0-2.7-8.816,18.758,18.758,0,0,0-6.385-5.892A27.046,27.046,0,0,0,90.943,8.1a28.48,28.48,0,0,0-3.461.231,12.581,12.581,0,0,0-3.722-4.7C79.506.3,73.217.146,68.239,1.721a17.253,17.253,0,0,0-4.821,2.4,22.859,22.859,0,0,0-5.549-2.563,21.673,21.673,0,0,0-10.59-.7A27.878,27.878,0,0,0,38.6,4.386c-.378.23-.777.489-1.177.771a9.717,9.717,0,0,0-4.717.016,27.933,27.933,0,0,0-8.538,3.483,17.7,17.7,0,0,0-5.744,6.189c-.481.8-.927,1.621-1.334,2.468a14.942,14.942,0,0,0-7.6,6.017,15.327,15.327,0,0,0-2.139,7.477,22.179,22.179,0,0,0,.221,5.621c-.095.075-.2.142-.29.219a18.3,18.3,0,0,0-6.017,9.175C-.4,51.96.605,58.743,4.682,63.666a13.38,13.38,0,0,0,1.339,5.177,16.761,16.761,0,0,0,5.995,6.9,10.943,10.943,0,0,0,1.764.895A26.72,26.72,0,0,0,24.94,84.98c8.341,3.543,18.554,3.914,26.774-.186a27.619,27.619,0,0,0,5.79,2.023A25.631,25.631,0,0,0,75.86,84.132,29.546,29.546,0,0,0,89.884,84.1a33.472,33.472,0,0,0,11.637-5.024c.184-.084.371-.159.553-.246a25.571,25.571,0,0,0,11.266-9.918,19.289,19.289,0,0,0,2.613-8.129,16.056,16.056,0,0,0-.5-5.3M10.1,28.412a14.905,14.905,0,0,1,3.75-6.774,10.851,10.851,0,0,1,6.142-3.68,11.113,11.113,0,0,1,1.523-3.69c4.578-7.058,16.2-8.867,21.842-2.126a.5.5,0,0,1-.218.825A28.93,28.93,0,0,0,38.923,14.3c-4.805,1.923-11.381,6.023-9.528,12.143a.5.5,0,0,1-.476.625,12.9,12.9,0,0,0-5.485,1.489c-5.752,3.141-7.886,10.281-8.6,16.363a.5.5,0,0,1-.843.349,12.831,12.831,0,0,1-3.057-4.352,10.122,10.122,0,0,1,.237-8.015A14.455,14.455,0,0,1,16.4,27c-1.867-.439-4.123,1.052-5.574,1.972a.5.5,0,0,1-.725-.558M33.19,60.684A3.28,3.28,0,0,1,31.26,62.8a3.089,3.089,0,0,1-2.488-.262,7.749,7.749,0,0,1-3.545-4.627,4.742,4.742,0,0,1-.09-2.723,2.985,2.985,0,0,1,1.849-1.9.4.4,0,0,1,.379.024,1.8,1.8,0,0,1,1.017-.1,5.183,5.183,0,0,1,2.6,1.641c1.389,1.434,2.8,3.744,2.2,5.825m-18.209,7.6a3.089,3.089,0,0,1-2.752.961,3.064,3.064,0,0,1-2.048-2.158,8.354,8.354,0,0,1-.341-3.663,8.618,8.618,0,0,1,.284-1.476,2.756,2.756,0,0,1-1.266.076,3.962,3.962,0,0,1-2.185-1.371,12.82,12.82,0,0,1-2.491-5.021,8.23,8.23,0,0,1-.129-5.091C4.613,49,5.936,47.4,7.689,47.306a2.374,2.374,0,0,1,.6.05,1.991,1.991,0,0,1,.91-.615,2.763,2.763,0,0,1,2.463.656A6.042,6.042,0,0,1,13.9,51.639a2.556,2.556,0,0,1,2.4-.438,4.256,4.256,0,0,1,2.753,3.277,13.765,13.765,0,0,1-.71,7.561c-.732,2.169-1.657,4.633-3.356,6.24M34.652,83.09a10.687,10.687,0,0,1-4.754-.959c-4.961-2.209-8.32-7.8-6.956-13.1a7.663,7.663,0,0,0-2.392,4.195.5.5,0,0,1-.9.118,7.722,7.722,0,0,1-.843-2.818,16.063,16.063,0,0,1-.124-3.863c.164-1.716.746-4.11,2.563-4.612-.078-.495.637-.859.9-.343a3.418,3.418,0,0,0,.243.4.488.488,0,0,1,.09.146,6.739,6.739,0,0,0,3.693,2.1c2.578.756,6.808,1.3,7.247,4.629a8.826,8.826,0,0,1-.434,3.243,8.43,8.43,0,0,0-.142,3.563,41.677,41.677,0,0,0,2.292,6.683.5.5,0,0,1-.476.625M85.91,29.653a4.992,4.992,0,0,1-3-.068,8.856,8.856,0,0,0-3.921-.029,17.221,17.221,0,0,0-4.324,1.71,15.785,15.785,0,0,0-2.546,1.6,20.182,20.182,0,0,0-3.575,3.822c-.018.027-.042.059-.064.09a11.858,11.858,0,0,1,9.46-.066,7.47,7.47,0,0,1,3.808,3.826,9.461,9.461,0,0,1,.269,6.061,13.9,13.9,0,0,1-6.632,8.144c-2.7,1.556-6.258,2.573-9.3,1.443-3.007-1.116-4.215-3.985-4.392-6.95-1.754,2.59-1.676,6.015-.845,8.983a.5.5,0,0,1-.725.558,10.959,10.959,0,0,1-6.2-9.939c-2.35,3.842-2.2,8.8-.775,12.985a.5.5,0,0,1-.607.607,9.605,9.605,0,0,1-5.317-3.818,13.63,13.63,0,0,1-2.177-5.5A13.846,13.846,0,0,1,45.2,47c.878-3.079,3.166-5.283,5.644-7.171a14.444,14.444,0,0,0-6.83,4.293.5.5,0,0,1-.843-.349A11.1,11.1,0,0,1,45.9,36.845a15.4,15.4,0,0,1,3.4-3.206,12.619,12.619,0,0,0-5.566,2.526A17.2,17.2,0,0,0,38.9,43.416a.5.5,0,0,1-.825.218A7.637,7.637,0,0,1,35.733,39.1a14.17,14.17,0,0,1,.082-4.967,10.059,10.059,0,0,1,5.631-7.7,13.388,13.388,0,0,1,1.82-.709,4.262,4.262,0,0,1-.576-4.45,8.332,8.332,0,0,1,3.526-3.886,7.369,7.369,0,0,1,4.441-.869,9.577,9.577,0,0,1,1.052.166,12.026,12.026,0,0,1,.532-2.917,8.5,8.5,0,0,1,6.673-5.823,9.794,9.794,0,0,1,8.759,2.6A6.543,6.543,0,0,1,69.4,14.072a5.188,5.188,0,0,1,3.193-1c1.888.062,3.895,1.218,4.194,3.2a6.5,6.5,0,0,1-.121,2.33c.4-.185.8-.362,1.2-.522,2.9-1.154,6.549-1.551,8.808,1.056a8.293,8.293,0,0,1,1.983,5.514c-.062,1.923-.866,4.169-2.749,5m5.048-.6A5.848,5.848,0,0,1,94.044,25.9a3.549,3.549,0,0,1,1.333-.233c1.884-.507,3.76,1.215,4.8,2.713,1.4,2.007,2.54,4.961,1.81,7.417-.96,3.232-4.862,2.8-7.357,1.841a6.48,6.48,0,0,1-4-3.847,6.6,6.6,0,0,1,.325-4.744m.507,15.268a2.706,2.706,0,0,1,.288-2.352,3.658,3.658,0,0,1,2-1.559,3.438,3.438,0,0,1,2.741.324.452.452,0,0,1,.219.277,2.61,2.61,0,0,1,.64.828,3.6,3.6,0,0,1-.091,3.358,2.53,2.53,0,0,1-1.4,1.1,3.618,3.618,0,0,1-2.191-.115,3.385,3.385,0,0,1-2.2-1.864m18.32,24.391a10.516,10.516,0,0,1-4.1,4.088,11.835,11.835,0,0,1-6.158,1.932,5.143,5.143,0,0,1-4.7-2.856,7.179,7.179,0,0,1-.363-5.18,12.5,12.5,0,0,1,7.4-7.791,7.2,7.2,0,0,1,4.815-.27,6.46,6.46,0,0,1,3.743,3.734.514.514,0,0,1,.01.392,8.551,8.551,0,0,1-.65,5.951" fill="#d8dadb"/>
            </g>
          </g>
        </g>
        <path id="Trazado_1051712" data-name="Trazado 1051712" d="M101.372,52.174a9.853,9.853,0,0,0-.081-5.387c-.081-.3-.168-.591-.254-.886A6.334,6.334,0,0,1,99.7,50.436a14.145,14.145,0,0,1-4.816,3.514c-3.983,2-8.347,3.252-11.632,6.42a14.935,14.935,0,0,0-3.63,5.68,35.266,35.266,0,0,0-1.5,7.483,17.763,17.763,0,0,1-2.292,7.49,11.629,11.629,0,0,1-6.656,4.466,10.748,10.748,0,0,1-7.678-.563A12.66,12.66,0,0,1,57.766,82a8.927,8.927,0,0,0-1.617-2.756,9.1,9.1,0,0,0-5.562-2.488c-1.994-.321-4.26-.4-5.994-1.552-2.1-1.394-2.47-4.057-2.223-6.382.286-2.707,1.231-5.345,1.163-8.088-.137-5.5-5.09-8.7-8.977-11.764-.473-.373-.944-.75-1.392-1.15A24.093,24.093,0,0,1,29.9,44.61a12.426,12.426,0,0,1-2.289-4.159,15.122,15.122,0,0,0-.713,3.911A9.244,9.244,0,0,0,29.156,50.6c1.48,1.777,3.387,3.124,4.912,4.853a10.93,10.93,0,0,1,2.712,5.6c.677,4.461-1.43,8.685-1.9,13.049-.483,4.5.576,9.34,4.5,12.07a9.429,9.429,0,0,0,6.8,1.366c1.214-.163,2.4-.473,3.617-.642a6.009,6.009,0,0,1,3.65.3.5.5,0,0,0,.411,0,3.071,3.071,0,0,0,.959.319,3.787,3.787,0,0,1-1.986.677c-1.286.12-2.587,0-3.867.211a11.359,11.359,0,0,0-7.723,4.923,6.84,6.84,0,0,0-.827,5.086c.111.5.815.272,1.041.019,1.165-1.3,1.946-2.9,3.216-4.113a10.2,10.2,0,0,1,4.942-2.284,15.84,15.84,0,0,1,4.869-.133,11.489,11.489,0,0,0,4.106-.056,4.778,4.778,0,0,0,.664-.236,19.34,19.34,0,0,0-.77,3.676c-.261,2.259-.214,5.156,1.493,6.89a.769.769,0,0,0,1.22-.539,11.679,11.679,0,0,1,6.459-10.879,13.038,13.038,0,0,1,17.718,6.2c.224.467,1.119-.072,1.084-.48l-.012-.124h0v0c-.251-2.879-.652-5.874-2.61-8.149a7.665,7.665,0,0,0-3.847-2.49c-.721-.19-1.481-.284-2.232-.408A14.214,14.214,0,0,0,83.093,83.7a7.445,7.445,0,0,0,3.38-4.33,14.694,14.694,0,0,0,.117-5.708,19.46,19.46,0,0,1-.178-5.834,8.278,8.278,0,0,1,2.98-4.669c2.773-2.345,6.3-3.539,9.183-5.731a15.713,15.713,0,0,0,2.8-5.25" fill="#a17357"/>
        <g id="Grupo_1185422" data-name="Grupo 1185422" style="mix-blend-mode: multiply;isolation: isolate">
          <g id="Grupo_1185421" data-name="Grupo 1185421">
            <g id="Grupo_1185420" data-name="Grupo 1185420" clip-path="url(#clip-path-4)">
              <path id="Trazado_1051713" data-name="Trazado 1051713" d="M101.529,47.852A17.091,17.091,0,0,1,101,51.345a9.286,9.286,0,0,1-4.067,5.437c-3.6,2.359-8.31,3.091-11.387,6.234A6.784,6.784,0,0,0,83.7,67.591a59.873,59.873,0,0,1-.3,6.855,13.9,13.9,0,0,1-7.572,9.994c-1.945.967-4.76,1.776-6.987,1.126a10.656,10.656,0,0,1-7.353-.639A12.663,12.663,0,0,1,57.765,82a8.891,8.891,0,0,0-1.617-2.755,9.1,9.1,0,0,0-5.562-2.489c-1.993-.32-4.26-.4-5.994-1.551-2.1-1.394-2.469-4.057-2.223-6.383.286-2.707,1.231-5.344,1.163-8.088-.137-5.5-5.089-8.7-8.977-11.764-.473-.373-.943-.75-1.392-1.15A23.912,23.912,0,0,1,29.9,44.61a12.773,12.773,0,0,1-1.943-3.226,12.337,12.337,0,0,0,1.951,4.439,37.473,37.473,0,0,0,5.3,5.494A12.318,12.318,0,0,1,38.615,56.7,17.579,17.579,0,0,1,39,63.138c-.3,3.75-1.191,7.829.086,11.49a5.845,5.845,0,0,0,3.4,3.631,26.433,26.433,0,0,0,4.917,1.123c3.262.589,6.876,1.508,8.084,4.994a.5.5,0,0,1-.345.607A35.8,35.8,0,0,1,48.9,85.991a29.783,29.783,0,0,1-5.192.258,9.537,9.537,0,0,1-5.728-2.457,12.285,12.285,0,0,1-2.853-4.283,10.636,10.636,0,0,0,4.246,6.661,9.434,9.434,0,0,0,6.8,1.365c1.214-.163,2.4-.473,3.617-.641a6.009,6.009,0,0,1,3.65.3.5.5,0,0,0,.412,0,3.067,3.067,0,0,0,.958.32,3.8,3.8,0,0,1-1.986.677c-1.285.119-2.587,0-3.867.211-.263.042-.527.107-.791.17a15.726,15.726,0,0,1,7.2.483c.319.1.528.583.218.825A12.256,12.256,0,0,1,51.662,91.8a20.69,20.69,0,0,1,2.818.1,11.449,11.449,0,0,0,4.107-.056,4.847,4.847,0,0,0,.663-.235c-.087.271-.142.55-.215.826a7.8,7.8,0,0,1,1.89-2.048,15.659,15.659,0,0,1,4.663-2.2c.449-.145.869.511.48.825-3.877,3.134-6.973,8.466-5.358,13.26a.717.717,0,0,0,.483-.633,11.678,11.678,0,0,1,6.459-10.878,13.024,13.024,0,0,1,17.641,6.053c-1.8-4.5-5.954-8.071-10.947-8.2a.5.5,0,0,1-.131-.969,10.31,10.31,0,0,1,8.706.732,10.847,10.847,0,0,1,2.156,1.771A8.626,8.626,0,0,0,83.832,88.2a7.666,7.666,0,0,0-3.846-2.491c-.722-.189-1.481-.284-2.233-.407A14.227,14.227,0,0,0,83.092,83.7a7.443,7.443,0,0,0,3.38-4.331,14.69,14.69,0,0,0,.117-5.707,19.5,19.5,0,0,1-.178-5.835,8.283,8.283,0,0,1,2.98-4.669c2.774-2.345,6.305-3.539,9.184-5.73a15.715,15.715,0,0,0,2.8-5.251,9.4,9.4,0,0,0,.158-4.322" fill="#a17357"/>
            </g>
          </g>
        </g>
        <g id="Grupo_1185425" data-name="Grupo 1185425" opacity="0.47" style="mix-blend-mode: multiply;isolation: isolate">
          <g id="Grupo_1185424" data-name="Grupo 1185424">
            <g id="Grupo_1185423" data-name="Grupo 1185423" clip-path="url(#clip-path-5)">
              <path id="Trazado_1051714" data-name="Trazado 1051714" d="M35.169,29.877c-.073-.585-.2-1.165-.275-1.752a9.792,9.792,0,0,1,.243-3.185,11.906,11.906,0,0,1,2.519-5.012,13.95,13.95,0,0,1,6.806-4.39,17.79,17.79,0,0,1,1.829-.91,10.616,10.616,0,0,0-4.407.956A14.725,14.725,0,0,0,36.916,19.3,13.129,13.129,0,0,0,34,24.813a10.99,10.99,0,0,0-.31,3.255,10.371,10.371,0,0,0,.405,1.986,4.185,4.185,0,0,0-.956-.222,8.036,8.036,0,0,0-2.851.285,17.426,17.426,0,0,0-5.134,2.251,11.939,11.939,0,0,0-2.662,16.978.261.261,0,0,0,.23.1,6.344,6.344,0,0,0,.112.645,8.036,8.036,0,0,0,.557,1.6,4.7,4.7,0,0,0-1.419,2.776,8.6,8.6,0,0,0,.077,4c.045.159.114.308.17.463.044.084.083.171.13.254a7.335,7.335,0,0,0,2.185,2.586,6.454,6.454,0,0,0,2.4.89,4,4,0,0,0,1.166.052c-2.048-1.025-4.015-2.161-4.8-4.465a7.987,7.987,0,0,1-.328-3.341,6.054,6.054,0,0,1,.747-2.6A4.442,4.442,0,0,0,25.4,53.966a11.562,11.562,0,0,1-1.7-8.224,4.423,4.423,0,0,0-.99,2.412,12.088,12.088,0,0,1-.991-10.164c1.327-3.385,4.278-5.382,7.593-6.545a10.555,10.555,0,0,1,2.861-.617,6.21,6.21,0,0,1,2.111.311,2.917,2.917,0,0,0-.167.267,9.86,9.86,0,0,0-1.1,4.634,10.009,10.009,0,0,0,.313,2.424,5.792,5.792,0,0,0,.5,1.359,9.733,9.733,0,0,1-.085-1.956,15.27,15.27,0,0,1,1.379-5.723c.033-.08.056-.162.092-.241a6.955,6.955,0,0,1,.8-1.309,9.67,9.67,0,0,1,.947-1.195,19.658,19.658,0,0,1,4.147-3.106c.281-.173.572-.345.867-.513a7.694,7.694,0,0,0-4.431,1.877,14.642,14.642,0,0,0-2.378,2.22" fill="#d8dadb"/>
              <path id="Trazado_1051715" data-name="Trazado 1051715" d="M45.671,44.2A5.384,5.384,0,0,0,43.4,46.99,6.384,6.384,0,0,1,42.1,43.739a7.265,7.265,0,0,1,4.622-7.147,13.541,13.541,0,0,0-2.195.269,7.751,7.751,0,0,0-2.458,2.622c-1.5,2.608-1.827,6.637,1.045,8.456-.01.043-.025.088-.033.131a6.247,6.247,0,0,0,.408,3.413,9.26,9.26,0,0,0,1.218,2.295,13.606,13.606,0,0,1-.517-5.2c0-.052-.007-.1-.005-.154A5.181,5.181,0,0,1,44.466,47a8.808,8.808,0,0,1,1.205-2.8" fill="#d8dadb"/>
              <path id="Trazado_1051716" data-name="Trazado 1051716" d="M20.644,74.247a4.437,4.437,0,0,0-.577,2.34A5.406,5.406,0,0,0,20.3,77.86a8.582,8.582,0,0,1-1.823-1.594,9.447,9.447,0,0,1-1.931-3.94,11.893,11.893,0,0,1-.176-3.875,8.809,8.809,0,0,1,.379-1.856,8.039,8.039,0,0,0-1.436,4.8,12.443,12.443,0,0,0,.148,1.724c.7,2.857,2.787,5.8,5.73,6.524a8.705,8.705,0,0,0,1.922,1.943,4.838,4.838,0,0,0,2.73,1.1.325.325,0,0,0,.11-.02,8.05,8.05,0,0,1-5.313-8.417" fill="#d8dadb"/>
              <path id="Trazado_1051717" data-name="Trazado 1051717" d="M9,43.509a23.14,23.14,0,0,1-.384-4.853A7.362,7.362,0,0,1,8.8,35.5a10.688,10.688,0,0,1,1.025-2.321,15.537,15.537,0,0,1,2.505-3.924A12.144,12.144,0,0,0,7.6,35.481a8.743,8.743,0,0,0,.06,5.142,14.167,14.167,0,0,0,1.384,3.152c-.017-.091-.034-.185-.048-.266" fill="#d8dadb"/>
              <path id="Trazado_1051718" data-name="Trazado 1051718" d="M59.032,6.446c.158-.062.324-.111.487-.167a7.791,7.791,0,0,1,5.311-.857,5.713,5.713,0,0,1,2.365,1.123A8.575,8.575,0,0,1,70.849,10.7,7.069,7.069,0,0,0,67.09,4.788a8.61,8.61,0,0,0-8.022.684A6.585,6.585,0,0,0,56.705,7.83a8.062,8.062,0,0,1,2.327-1.384" fill="#d8dadb"/>
              <path id="Trazado_1051719" data-name="Trazado 1051719" d="M103.865,26.106a12.107,12.107,0,0,0-1.824-4.012,8.4,8.4,0,0,0-8.29-3.516c0-.017.014-.034.01-.051a10.072,10.072,0,0,0-5.217-6.817,7.573,7.573,0,0,0-5.294-.424,10.7,10.7,0,0,0-2.552.99c-.163.091-.325.188-.487.285a4.946,4.946,0,0,0-1.168,1.191,38.291,38.291,0,0,1,3.7-1.313,7.133,7.133,0,0,1,5.131.49,9.779,9.779,0,0,1,3,2.582c.809,1.018,1.442,2.156,2.205,3.2a10.553,10.553,0,0,0-2.325.859,17.963,17.963,0,0,0-2.628,1.8c-.211.158-.045.393.177.253a16.775,16.775,0,0,1,3.133-1.443,9.269,9.269,0,0,1,3.064-.6,7.443,7.443,0,0,1,5.129,1.937,8.792,8.792,0,0,1,.887.952l.009.007a12.136,12.136,0,0,1,2.694,2.947,12,12,0,0,1,.836,1.521c-.058-.288-.121-.572-.189-.843" fill="#d8dadb"/>
              <path id="Trazado_1051720" data-name="Trazado 1051720" d="M85.188,42.107c1.971-2.368.312-6.272-1.408-8.289a6,6,0,0,0-3.19-2.143,9.322,9.322,0,0,0-3.06-.121,7,7,0,0,0-2.512,1.416,6.566,6.566,0,0,1,1.368-.351,9.09,9.09,0,0,1,3.432.1c2.365.555,4.014,3.123,4.665,5.314a6.09,6.09,0,0,1,.113,3.192,2.512,2.512,0,0,0-2.1-.915c-.144.013-.448.316-.18.376a2.986,2.986,0,0,1,1.8,1.955,5.386,5.386,0,0,1,.443,2.711A5.937,5.937,0,0,1,83,48.369a4.568,4.568,0,0,1-1.325.992,4.482,4.482,0,0,1-1.023.334c.066.015.127.041.2.05a2.875,2.875,0,0,0,1.549-.288,7.771,7.771,0,0,0,2.844-2.48,5.251,5.251,0,0,0,.592-2.732,5.7,5.7,0,0,0-.645-2.138" fill="#d8dadb"/>
              <path id="Trazado_1051721" data-name="Trazado 1051721" d="M73.934,62.244c.014-.078.038-.158.048-.235a3.618,3.618,0,0,0-.054-1.2,7.43,7.43,0,0,1-.633.8A6.963,6.963,0,0,1,71.951,62.7a6.007,6.007,0,0,1-3.29.944,4.8,4.8,0,0,1-3.216-1.279c-.906-.84-1.734-2.255-1.318-3.519.069-.209-.256-.161-.31-.005a4.149,4.149,0,0,0,.509,3.905,7.245,7.245,0,0,1-5.231-.5A5.447,5.447,0,0,1,56.305,58a7.128,7.128,0,0,0,1.625,4.949A6.838,6.838,0,0,0,62.072,64.1a6.912,6.912,0,0,0,2.806-.7,4.965,4.965,0,0,0,3.4,1.367,7.259,7.259,0,0,0,4.172-1.231,7.45,7.45,0,0,0,1.486-1.294" fill="#d8dadb"/>
              <path id="Trazado_1051722" data-name="Trazado 1051722" d="M112.445,47.2a5.446,5.446,0,0,0-1.654-1.608c.132.234.257.471.366.71a11.6,11.6,0,0,1,.945,7.285,11.094,11.094,0,0,1-1.16,3.2,7.983,7.983,0,0,0,1.551-2.194,8.5,8.5,0,0,0,.916-3.773,6.689,6.689,0,0,0-.964-3.619" fill="#d8dadb"/>
            </g>
          </g>
        </g>
        <g id="Grupo_1185428" data-name="Grupo 1185428" opacity="0.47" style="mix-blend-mode: multiply;isolation: isolate">
          <g id="Grupo_1185427" data-name="Grupo 1185427">
            <g id="Grupo_1185426" data-name="Grupo 1185426" clip-path="url(#clip-path-6)">
              <path id="Trazado_1051723" data-name="Trazado 1051723" d="M107.062,74.84a32.2,32.2,0,0,1-7.519,3.314,19.364,19.364,0,0,1-8.348.987c-.286-.041-.382-.37-.344-.607.4-2.517-.69-4.784-1.89-6.917a16.464,16.464,0,0,1-2.39-5.642,8.635,8.635,0,0,1,2.033-6.4c2.2-2.843,5.512-4.59,7.935-7.147a17.255,17.255,0,0,1-3.966,1.831C87.247,56.005,80.978,56.38,77.7,61.6a17.566,17.566,0,0,0-2.454,9.063c-.025,2.778.271,6.073-1.917,8.182a.5.5,0,0,1-.7,0,7.2,7.2,0,0,1-1.7-5.545,7.783,7.783,0,0,0-2.649,2.57c-.827,1.295-1.452,2.708-2.247,4.022-.281.464-1.106.156-.9-.38a7.724,7.724,0,0,0-1.12-6.864,16.286,16.286,0,0,0-5.875-5.04c-1.7-.927-4.169-1.89-5.879-.734a34.361,34.361,0,0,1,4.79,2.846c2.187,1.592,4.495,3.762,4.632,6.647a.5.5,0,0,1-.92.249,5.893,5.893,0,0,0-5.289-3.037c-1.951-.109-3.887.282-5.839.054a6.015,6.015,0,0,1-3.325-1.259,4.536,4.536,0,0,1-1.415-2.963,17.653,17.653,0,0,1,.522-5.025,15.9,15.9,0,0,0-.217-6.355,12.806,12.806,0,0,0-2.894-5.58,17.5,17.5,0,0,0-5.013-3.626c-1.733-.9-3.538-1.66-5.2-2.68a14.894,14.894,0,0,1-3.7-3.175,10.908,10.908,0,0,0,1.884,7.154c1.359,2.184,3.047,4.142,4.4,6.329a13.987,13.987,0,0,1,2.3,7.643c-.042,3.337-1.051,6.512-1.679,9.76a17.576,17.576,0,0,0-.357,4.671,12.506,12.506,0,0,0,1.608,5.125.5.5,0,0,1-.426.743,27.606,27.606,0,0,1-7.213-.858,20.37,20.37,0,0,1-10.687-6.91,10.744,10.744,0,0,1-2.2-6.057,32.6,32.6,0,0,1,.053-3.591c-.156.224-.319.442-.492.649a19.2,19.2,0,0,0,.377,8.935.5.5,0,0,1-.725.558,30.985,30.985,0,0,1-4.714-3.2,30.457,30.457,0,0,1-3.659-3.546,16.294,16.294,0,0,0,5.15,5.365,10.943,10.943,0,0,0,1.764.895A26.717,26.717,0,0,0,24.94,84.98c8.342,3.543,18.555,3.914,26.775-.186a27.6,27.6,0,0,0,5.79,2.023,25.633,25.633,0,0,0,18.356-2.685A29.542,29.542,0,0,0,89.884,84.1a33.45,33.45,0,0,0,11.638-5.024c.183-.084.371-.159.552-.246a26,26,0,0,0,10.569-8.842,22.563,22.563,0,0,1-5.581,4.851" fill="#d8dadb"/>
            </g>
          </g>
        </g>
        <g id="Grupo_1185431" data-name="Grupo 1185431" opacity="0.47" style="mix-blend-mode: multiply;isolation: isolate">
          <g id="Grupo_1185430" data-name="Grupo 1185430">
            <g id="Grupo_1185429" data-name="Grupo 1185429" clip-path="url(#clip-path-7)">
              <path id="Trazado_1051724" data-name="Trazado 1051724" d="M106.058,16.349a27.4,27.4,0,0,1,3.288,13.341.5.5,0,0,1-.92.249,16.977,16.977,0,0,0-2.4-3.443,20.953,20.953,0,0,0-6.962-5.413,7.167,7.167,0,0,0-6.693-.048,51.109,51.109,0,0,1,6.339,2.682,17.538,17.538,0,0,1,5.2,3.987,15.943,15.943,0,0,1,3.141,6.239,24.013,24.013,0,0,1-1.461,15.884,12.6,12.6,0,0,0,2.91-2.632.5.5,0,0,1,.776.1c1.975,3.06,1.341,7.164,0,10.407,1.214-.266,2.031-1.926,2.929-2.627,1.253-.978,2.4-.348,3.311.7-.023-.1-.033-.193-.057-.289a14.21,14.21,0,0,0-2.316-5.115,13.134,13.134,0,0,0,.8-1.931,16.025,16.025,0,0,0,.216-8.078,10.572,10.572,0,0,0-1.63-3.784,29.874,29.874,0,0,0,1.117-10.107,18.372,18.372,0,0,0-2.705-8.815,18.745,18.745,0,0,0-6.384-5.892,27.436,27.436,0,0,0-3.7-1.771,23.881,23.881,0,0,1,5.2,6.353" fill="#d8dadb"/>
            </g>
          </g>
        </g>
        <g id="Grupo_1185434" data-name="Grupo 1185434" opacity="0.47" style="mix-blend-mode: multiply;isolation: isolate">
          <g id="Grupo_1185433" data-name="Grupo 1185433">
            <g id="Grupo_1185432" data-name="Grupo 1185432" clip-path="url(#clip-path-8)">
              <path id="Trazado_1051725" data-name="Trazado 1051725" d="M61.024,3.321c-2.708.192-5.408,2.935-5.831,5.672a15.739,15.739,0,0,1,4.565-1.721,11.966,11.966,0,0,1,8.524,1.506,15.928,15.928,0,0,1,4.54,4.315,5.205,5.205,0,0,1,.7.1,12.421,12.421,0,0,0-1.238-2.771,14.733,14.733,0,0,0-4.136-4.553.5.5,0,0,1-.1-.775A8.078,8.078,0,0,1,72.221,3.18a12.8,12.8,0,0,1,7.961,1.9,17.366,17.366,0,0,1,6,5.528.5.5,0,0,1-.427.743,8.9,8.9,0,0,0-7.3,3.328,13.083,13.083,0,0,1,8.1-.3,29.921,29.921,0,0,1,7.49,3.839,10.9,10.9,0,0,0-2.631-4.042c-.789-.757-2.165-1.751-2.233-2.948a3.59,3.59,0,0,1,1.429-2.836c.122-.1.257-.2.386-.293l-.056,0a28.5,28.5,0,0,0-3.462.231,12.587,12.587,0,0,0-3.721-4.7C79.507.3,73.217.146,68.239,1.721a17.236,17.236,0,0,0-4.82,2.4c-.632-.4-1.29-.763-1.957-1.1a.516.516,0,0,1-.438.3" fill="#d8dadb"/>
            </g>
          </g>
        </g>
      </g>
    </g>
  </g>
</svg>
