<svg xmlns="http://www.w3.org/2000/svg" xmlns:xlink="http://www.w3.org/1999/xlink" width="118" height="118" viewBox="0 0 118 118">
  <defs>
    <filter id="Elipse_12115" x="0" y="0" width="118" height="118" filterUnits="userSpaceOnUse">
      <feOffset dy="3" input="SourceAlpha"/>
      <feGaussianBlur stdDeviation="3" result="blur"/>
      <feFlood flood-opacity="0.161"/>
      <feComposite operator="in" in2="blur"/>
      <feComposite in="SourceGraphic"/>
    </filter>
    <clipPath id="clip-path">
      <rect id="Rect치ngulo_410106" data-name="Rect치ngulo 410106" width="61.237" height="61.237" fill="none"/>
    </clipPath>
  </defs>
  <g id="Grupo_1185516" data-name="Grupo 1185516" transform="translate(-799.782 -1970)">
    <g id="Grupo_1181939" data-name="Grupo 1181939" transform="translate(808.781 1976)">
      <g transform="matrix(1, 0, 0, 1, -9, -6)" filter="url(#Elipse_12115)">
        <circle id="Elipse_12115-2" data-name="Elipse 12115" cx="50" cy="50" r="50" transform="translate(9 6)" fill="#95c072"/>
      </g>
    </g>
    <g id="Grupo_1185525" data-name="Grupo 1185525" transform="translate(828.163 1995.382)">
      <g id="Grupo_1185524" data-name="Grupo 1185524" clip-path="url(#clip-path)">
        <path id="Trazado_1051880" data-name="Trazado 1051880" d="M28.826,0h3.813c.074.075.142.208.225.217A10.339,10.339,0,0,1,39.39,3.734a12.085,12.085,0,0,1,3.02,9.081c-.047,1.446-.008,2.9-.008,4.354,4.814,0,9.454,0,14.094,0,1.712,0,2.368.6,2.537,2.288.023.236.022.475.037.712.259,4.033.511,8.066.78,12.1q.562,8.42,1.155,16.838c.1,1.347.307,2.686.465,4.03v4.289c-1.058,2.723-3.057,3.632-5.94,3.617C38.859,60.958,22.189,61,5.519,61,2.339,61,.38,59.078.488,55.887c.1-2.972.348-5.938.549-8.906.364-5.381.744-10.76,1.111-16.14.262-3.838.492-7.678.776-11.514.116-1.566.806-2.149,2.4-2.156,2.381-.01,4.763,0,7.145,0h7.066c0-2.009,0-3.905,0-5.8A11.367,11.367,0,0,1,27.691.474,10.9,10.9,0,0,0,28.826,0M11.21,19.1H4.848V20.94h14.61V19.1Zm7.371,13.288c.889.252.924.951.922,1.7-.009,3.45,0,6.9-.007,10.349,0,.7.131,1.335.979,1.321.824-.012.978-.625.976-1.334-.011-3.331-.005-6.662-.005-9.992q0-2.9,0-5.8h-1.9l.253.263-1.215,1.624c-.316-.347-.833-.654-.915-1.05-.448-2.157-.789-4.335-1.175-6.556H4.6c-.11,1.35-.227,2.57-.307,3.791-.27,4.112-.515,8.225-.792,12.336-.367,5.454-.792,10.9-1.117,16.361-.167,2.813.786,3.735,3.587,3.735q24.4,0,48.8,0c.674,0,1.35.016,2.023-.011a2.708,2.708,0,0,0,2.768-2.893c-.1-2.018-.174-4.039-.307-6.055q-.663-9.971-1.362-19.939c-.169-2.439-.354-4.877-.535-7.375-2.354,0-4.613.047-6.867-.04-.454-.018-1.2-.485-1.268-.847-.149-.794.529-1.005,1.251-1,2.211.012,4.423,0,6.634,0V19.135H42.494V20.98c1.041,0,1.991,0,2.94,0,.747,0,1.687-.138,1.69.96,0,1.016-.907.895-1.606.953-.063.005-.122.075.007-.009-.29,1.379-.539,2.6-.807,3.817a7.954,7.954,0,0,0-.39,1.552c-.029,5.437-.008,10.875-.024,16.313a2.847,2.847,0,1,1-5.678.047c-.038-2.9-.007-5.795-.013-8.692-.009-4.351.339-8.733-1.344-12.992H24.47c-.207,1.2-.385,2.316-.6,3.428a14.546,14.546,0,0,0-.523,2.481c-.049,5.08-.022,10.16-.026,15.241,0,2.134-1.121,3.543-2.826,3.576s-2.866-1.39-2.868-3.508c0-3.413.01-6.826-.009-10.24,0-.745.107-1.35.962-1.52M21.3,17.11h19.2c0-2.11.014-4.164-.009-6.216a8.32,8.32,0,0,0-.2-1.4A9.421,9.421,0,0,0,31.25,1.87c-4.591-.1-8.768,2.912-9.528,7.272A63.642,63.642,0,0,0,21.3,17.11m19.182,2.016H21.5V20.9H40.485Zm.057,9.468c-.017.248-.046.478-.046.709q0,7.5-.006,15c0,.724.055,1.444.972,1.451s.982-.722.981-1.442q-.009-5.536,0-11.073V28.594Zm-21.3-5.385c-.756-.277-.756-.277-.7,1.4A1.914,1.914,0,0,0,20.577,26.7c1.384-.082,2.07-1.267,1.8-3.262-.035-.259-.476-.463-.486-.472l-1.419,1.775L19.24,23.209m23.394-.344c.022.106.044.213.067.319l-1.217,1.554-1.447-1.811c-.493,0-.493,0-.5.962-.016,1.932.58,2.8,1.919,2.808a1.857,1.857,0,0,0,1.9-2.188c-.037-.549.709-1.731-.726-1.643" transform="translate(-0.232)" fill="#12090c"/>
        <path id="Trazado_1051883" data-name="Trazado 1051883" d="M18.85,40.569h5.519c.387,2.221.728,4.4,1.176,6.556.082.4.6.7.915,1.051v1.87c-.854.17-.966.775-.962,1.52.019,3.413.007,6.826.009,10.24,0,2.118,1.169,3.541,2.868,3.508S31.2,63.871,31.2,61.737c0-5.08-.023-10.161.026-15.24a14.546,14.546,0,0,1,.523-2.481c.213-1.112.391-2.23.6-3.428h12.8c1.683,4.259,1.335,8.641,1.344,12.992.006,2.9-.026,5.8.013,8.692a2.847,2.847,0,1,0,5.678-.047c.016-5.438-.005-10.875.024-16.313a7.968,7.968,0,0,1,.39-1.552c.268-1.216.517-2.438.807-3.817-.128.084-.07.015-.007.009.7-.059,1.611.063,1.607-.953,0-1.1-.943-.956-1.69-.96-.95-.005-1.9,0-2.94,0V36.793H64.985v1.845c-2.211,0-4.423.008-6.634,0-.722,0-1.4.208-1.251,1,.068.361.814.829,1.268.846,2.254.087,4.513.04,6.866.04.182,2.5.366,4.936.535,7.375q.689,9.969,1.362,19.939c.134,2.016.206,4.036.307,6.055l-2.82-.013c-.263-1-1.068-.892-1.824-.892q-21.618,0-43.237,0c-.554,0-1.108-.048-1.662-.074a6.725,6.725,0,0,1-.937-4.658c.165-1.69.321-3.382.432-5.076.19-2.92.321-5.845.512-8.765.3-4.615.631-9.227.948-13.841m20.105,1.887v0c-.673,0-1.348-.029-2.019.006A2.9,2.9,0,0,0,34.1,45.241,2.831,2.831,0,0,0,36.722,48.1a30.029,30.029,0,0,0,4.272,0,2.854,2.854,0,0,0,2.6-2.882,2.9,2.9,0,0,0-2.739-2.756c-.631-.041-1.267-.007-1.9-.007" transform="translate(-8.111 -17.658)" fill="#c61654"/>
        <path id="Trazado_1051884" data-name="Trazado 1051884" d="M12.706,44.054c-.317,4.614-.647,9.226-.948,13.841-.191,2.92-.322,5.844-.512,8.764-.11,1.694-.266,3.386-.431,5.076a6.726,6.726,0,0,0,.937,4.659c-1.148.021-2.3.047-3.443.061-.7.009-1.32.163-1.32,1.006,0,.823.627.891,1.266.875.277-.007.555,0,.833,0h33.9q7.018,0,14.036.006c.73,0,1.377-.043,1.453-.978l2.819.012a2.708,2.708,0,0,1-2.768,2.893c-.673.027-1.349.011-2.023.011q-24.4,0-48.8,0c-2.8,0-3.753-.923-3.586-3.736.325-5.457.75-10.907,1.117-16.36.276-4.111.522-8.224.792-12.336.081-1.222.2-2.442.307-3.792Z" transform="translate(-1.966 -21.143)" fill="#8e1f49"/>
        <rect id="Rect치ngulo_410105" data-name="Rect치ngulo 410105" width="18.986" height="1.778" transform="translate(21.267 19.126)" fill="#c61654"/>
        <path id="Trazado_1051886" data-name="Trazado 1051886" d="M35.282,58.808v-1.87L36.5,55.315l-.253-.263h1.9v5.8c0,3.331-.006,6.662,0,9.992,0,.709-.152,1.322-.976,1.334-.848.013-.98-.622-.978-1.322.006-3.45,0-6.9.007-10.349,0-.749-.032-1.448-.922-1.7" transform="translate(-16.933 -26.421)" fill="#e2517f"/>
        <path id="Trazado_1051887" data-name="Trazado 1051887" d="M77.46,54.981h1.9v4.647q0,5.536,0,11.073c0,.72-.053,1.449-.981,1.442s-.974-.728-.973-1.451q.012-7.5.006-15c0-.231.03-.462.046-.709" transform="translate(-37.15 -26.387)" fill="#e3517f"/>
        <path id="Trazado_1051888" data-name="Trazado 1051888" d="M21.1,36.725h8.247v1.84H21.1q0-.92.005-1.84" transform="translate(-10.126 -17.625)" fill="#c61654"/>
        <path id="Trazado_1051889" data-name="Trazado 1051889" d="M15.237,36.725q0,.92-.005,1.84H8.874v-1.84Z" transform="translate(-4.259 -17.625)" fill="#8e1f49"/>
        <path id="Trazado_1051890" data-name="Trazado 1051890" d="M35.882,44.4l1.229,1.528,1.42-1.775c.01.009.45.213.486.472.273,2-.413,3.181-1.8,3.262A1.914,1.914,0,0,1,35.18,45.8c-.054-1.676-.054-1.676.7-1.4" transform="translate(-16.874 -21.19)" fill="#f9d039"/>
        <path id="Trazado_1051891" data-name="Trazado 1051891" d="M78.671,43.962c1.435-.087.689,1.094.726,1.643a1.857,1.857,0,0,1-1.9,2.188c-1.339,0-1.935-.877-1.919-2.808.007-.961.007-.961.5-.962l1.447,1.811,1.217-1.554c-.022-.106-.044-.213-.067-.319" transform="translate(-36.27 -21.096)" fill="#fad139"/>
        <path id="Trazado_1051892" data-name="Trazado 1051892" d="M61.143,107.205c-.075.935-.722.98-1.453.978q-7.018-.017-14.036-.006h-33.9c-.277,0-.555-.006-.833,0-.639.016-1.266-.051-1.266-.875,0-.843.623-1,1.32-1.006,1.148-.015,2.3-.041,3.444-.062.554.026,1.108.074,1.662.074q21.618.006,43.237,0c.756,0,1.561-.11,1.824.892" transform="translate(-4.634 -50.986)" fill="#180309"/>
        <path id="Trazado_1051893" data-name="Trazado 1051893" d="M54.826,47.668c.634,0,1.269-.034,1.9.007a2.9,2.9,0,0,1,2.739,2.756,2.854,2.854,0,0,1-2.6,2.882,30.029,30.029,0,0,1-4.272,0,2.832,2.832,0,0,1-2.625-2.861,2.9,2.9,0,0,1,2.839-2.782c.671-.035,1.346-.006,2.019-.006Zm-.066,1.876v.007a9.446,9.446,0,0,0-2.007.041c-.348.077-.88.612-.84.861.061.376.527.943.861.972a22.2,22.2,0,0,0,3.9-.009c.331-.03.784-.616.845-1,.038-.239-.516-.748-.875-.833a8.424,8.424,0,0,0-1.888-.038" transform="translate(-23.981 -22.87)" fill="#150b09"/>
        <path id="Trazado_1051894" data-name="Trazado 1051894" d="M56.554,51.257a8.424,8.424,0,0,1,1.888.038c.359.084.913.594.875.833-.061.384-.514.97-.845,1a22.2,22.2,0,0,1-3.9.009c-.333-.029-.8-.6-.861-.972-.041-.249.491-.784.84-.861a9.446,9.446,0,0,1,2.007-.041v-.007" transform="translate(-25.774 -24.582)" fill="#fed43a"/>
      </g>
    </g>
  </g>
</svg>
