<svg xmlns="http://www.w3.org/2000/svg" xmlns:xlink="http://www.w3.org/1999/xlink" width="118" height="118" viewBox="0 0 118 118">
  <defs>
    <filter id="Elipse_12115" x="0" y="0" width="118" height="118" filterUnits="userSpaceOnUse">
      <feOffset dy="3" input="SourceAlpha"/>
      <feGaussianBlur stdDeviation="3" result="blur"/>
      <feFlood flood-opacity="0.161"/>
      <feComposite operator="in" in2="blur"/>
      <feComposite in="SourceGraphic"/>
    </filter>
  </defs>
  <g id="Grupo_1185515" data-name="Grupo 1185515" transform="translate(-799.782 -1970)">
    <g id="Grupo_1181939" data-name="Grupo 1181939" transform="translate(808.781 1976)">
      <g transform="matrix(1, 0, 0, 1, -9, -6)" filter="url(#Elipse_12115)">
        <circle id="Elipse_12115-2" data-name="Elipse 12115" cx="50" cy="50" r="50" transform="translate(9 6)" fill="#95c072"/>
      </g>
    </g>
    <g id="hand-bag_567739" transform="translate(823.866 1987.786)">
      <path id="Trazado_1048612" data-name="Trazado 1048612" d="M74.645,203.615a12.535,12.535,0,0,1-2.028,4.134H10.312a12.507,12.507,0,0,1-2.026-4.134c-1.968-6.8.53-16.009,3.407-22.886a60.233,60.233,0,0,1,2.641-5.54c.45-.828.877-1.575,1.261-2.229a7.671,7.671,0,0,1,5.146-3.694,72.767,72.767,0,0,1,19.953-.7,7.27,7.27,0,0,0,1.541,0,72.767,72.767,0,0,1,19.953.7,7.67,7.67,0,0,1,5.146,3.694c.384.655.81,1.4,1.261,2.227a60.961,60.961,0,0,1,2.641,5.538C74.113,187.6,76.613,196.818,74.645,203.615Z" transform="translate(-6.549 -146.948)" fill="#b1e36c"/>
      <g id="Grupo_1181896" data-name="Grupo 1181896" transform="translate(1.736 21.237)">
        <path id="Trazado_1048613" data-name="Trazado 1048613" d="M79.092,427.952a12.536,12.536,0,0,1-2.028,4.134H14.758a12.507,12.507,0,0,1-2.026-4.134Z" transform="translate(-12.732 -392.523)" fill="#9ed554"/>
        <path id="Trazado_1048614" data-name="Trazado 1048614" d="M97.258,180.722a38.332,38.332,0,0,1-9.8,13.4,30.184,30.184,0,0,1-19.977,7.929,30.191,30.191,0,0,1-19.975-7.927,38.374,38.374,0,0,1-9.8-13.4,60.521,60.521,0,0,1,2.641-5.54c.45-.827.877-1.575,1.261-2.228a7.667,7.667,0,0,1,5.146-3.694,72.736,72.736,0,0,1,19.953-.7,7.251,7.251,0,0,0,1.542,0,72.725,72.725,0,0,1,19.953.7,7.667,7.667,0,0,1,5.146,3.694c.384.654.809,1.4,1.261,2.226A61.042,61.042,0,0,1,97.258,180.722Z" transform="translate(-34.308 -168.183)" fill="#9ed554"/>
      </g>
      <path id="Trazado_1048615" data-name="Trazado 1048615" d="M111.341,175.181c-3.448,11.726-14.289,22.48-27.132,22.48S60.528,186.908,57.08,175.183c.45-.828.877-1.575,1.261-2.229a7.72,7.72,0,0,1,4.378-3.5c.252-.075.506-.139.768-.19l.209-.038A66.777,66.777,0,0,1,76,168.18c.334,0,.66,0,.979.008,3,.045,5.323.252,6.464.375a7.268,7.268,0,0,0,1.541,0,74.792,74.792,0,0,1,8.917-.374q.481.008.978.022a63.72,63.72,0,0,1,10.058,1.049,7.424,7.424,0,0,1,2.242.825,7.593,7.593,0,0,1,.961.641,7.836,7.836,0,0,1,1.943,2.228C110.465,173.609,110.89,174.354,111.341,175.181Z" transform="translate(-49.295 -146.943)" fill="#fedc63"/>
      <path id="Trazado_1048616" data-name="Trazado 1048616" d="M111.341,201.579c-3.448,11.726-14.289,22.48-27.132,22.48S60.528,213.306,57.08,201.582c.45-.828.877-1.575,1.261-2.229.123-.209.254-.409.391-.6,3.339,11.606,13.482,22.174,25.477,22.174s22.139-10.568,25.478-22.176c.14.2.27.4.393.605C110.465,200.007,110.89,200.753,111.341,201.579Z" transform="translate(-49.295 -173.341)" fill="#ffe497"/>
      <g id="Grupo_1181897" data-name="Grupo 1181897" transform="translate(14.401 21.237)">
        <path id="Trazado_1048617" data-name="Trazado 1048617" d="M105.586,169.225a66.775,66.775,0,0,1,12.3-1.042v2.047a6.151,6.151,0,1,1-12.3,0Z" transform="translate(-105.586 -168.183)" fill="#f4cc4d"/>
        <path id="Trazado_1048618" data-name="Trazado 1048618" d="M346.5,170.289v.142a6.15,6.15,0,1,1-12.3,0v-2.015a63.724,63.724,0,0,1,10.058,1.049A7.427,7.427,0,0,1,346.5,170.289Z" transform="translate(-303.021 -168.384)" fill="#f4cc4d"/>
      </g>
      <path id="Trazado_1048619" data-name="Trazado 1048619" d="M82.088,459.395H22.977a2.577,2.577,0,0,1-2.577-2.577h0a2.577,2.577,0,0,1,2.577-2.577H82.088a2.577,2.577,0,0,1,2.577,2.577h0A2.577,2.577,0,0,1,82.088,459.395Z" transform="translate(-17.618 -393.988)" fill="#fedc63"/>
      <g id="Grupo_1181898" data-name="Grupo 1181898" transform="translate(17.81 1.022)">
        <path id="Trazado_1048620" data-name="Trazado 1048620" d="M164.5,44.972a2.742,2.742,0,0,1-2.742-2.742V38.3a12.848,12.848,0,0,0-25.7,0v3.93a2.742,2.742,0,1,1-5.483,0V38.3a18.332,18.332,0,0,1,36.663,0v3.93A2.742,2.742,0,0,1,164.5,44.972Z" transform="translate(-130.582 -19.968)" fill="#efefef"/>
        <path id="Trazado_1048621" data-name="Trazado 1048621" d="M231.761,337.7h-.585a3.582,3.582,0,0,1-3.583-3.582v-4.679a3.582,3.582,0,0,1,3.583-3.582h.585a3.582,3.582,0,0,1,3.582,3.582v4.679A3.582,3.582,0,0,1,231.761,337.7Z" transform="translate(-214.363 -284.137)" fill="#efefef"/>
      </g>
      <path id="Trazado_1048622" data-name="Trazado 1048622" d="M68.541,54.653a69.563,69.563,0,0,0-5.507-14.206,1.026,1.026,0,0,0-.212-.4c-.4-.755-.787-1.453-1.155-2.079a8.691,8.691,0,0,0-5.835-4.179l-.338-.063v-1.9a19.348,19.348,0,0,0-35.126-11.2,1.023,1.023,0,1,0,1.666,1.186A17.3,17.3,0,0,1,53.449,31.824v3.931a1.719,1.719,0,1,1-3.437,0V31.824a13.871,13.871,0,0,0-27.741,0v3.931a1.719,1.719,0,0,1-3.439,0V31.824a17.191,17.191,0,0,1,1.133-6.158,1.023,1.023,0,1,0-1.911-.73,19.235,19.235,0,0,0-1.267,6.888v1.5c-.948.132-1.883.286-2.788.459a8.691,8.691,0,0,0-5.835,4.179c-.369.628-.759,1.328-1.159,2.086a1.026,1.026,0,0,0-.207.394,69.5,69.5,0,0,0-5.51,14.21C-.758,62.668-.365,68.895,2.451,73.183A3.6,3.6,0,0,0,5.359,78.9h7.922a1.023,1.023,0,1,0,0-2.045H5.36a1.555,1.555,0,0,1,0-3.109H64.471a1.555,1.555,0,0,1,0,3.109h-46.8a1.023,1.023,0,1,0,0,2.045h46.8a3.6,3.6,0,0,0,2.909-5.717C70.2,68.9,70.588,62.669,68.541,54.653ZM36.141,20A11.838,11.838,0,0,1,47.967,31.824v1a77.563,77.563,0,0,0-12.389.251,6.289,6.289,0,0,1-1.326,0,77.317,77.317,0,0,0-9.937-.359v-.89A11.838,11.838,0,0,1,36.141,20ZM57.532,71.7A11.46,11.46,0,0,0,62.5,64.745a1.023,1.023,0,1,0-1.986-.487,9.426,9.426,0,0,1-4.647,6.074A12.191,12.191,0,0,1,52.321,71.7H16.107c-.758-.384-3.629-1.974-4.446-4.446A1.023,1.023,0,1,0,9.72,67.9a8.8,8.8,0,0,0,2.73,3.8H5.36a3.578,3.578,0,0,0-1.278.235c-4.694-7.394-.24-20.572,3.536-28.525a34.885,34.885,0,0,0,9.536,13.706,28.116,28.116,0,0,0,12.87,6.6,4.611,4.611,0,0,0,4.6,4.367h.585a4.611,4.611,0,0,0,4.6-4.37A26.2,26.2,0,0,0,46.5,61.334a1.023,1.023,0,1,0-.933-1.82,24.3,24.3,0,0,1-5.755,2.1V58.8a4.61,4.61,0,0,0-4.605-4.6h-.585a4.61,4.61,0,0,0-4.6,4.6v2.818C19.695,59.278,11.714,49.885,8.9,40.856c.368-.7.716-1.319,1.031-1.856a6.645,6.645,0,0,1,4.455-3.206c.782-.15,1.587-.285,2.4-.4v.364a3.765,3.765,0,1,0,7.529,0v-1a75.094,75.094,0,0,1,9.72.347,8.336,8.336,0,0,0,1.758,0,75.436,75.436,0,0,1,12.173-.236v.883a3.763,3.763,0,0,0,7.526.049A6.65,6.65,0,0,1,59.9,39c.329.561.676,1.18,1.031,1.848A32.518,32.518,0,0,1,49,57.418a1.023,1.023,0,1,0,1.188,1.665A34.626,34.626,0,0,0,62.217,43.4,66.113,66.113,0,0,1,66.56,55.159c1.307,5.118,2.173,12.061-.812,16.776a3.581,3.581,0,0,0-1.277-.235ZM34.914,63.479A1.023,1.023,0,0,0,33.892,64.5v1.425a2.563,2.563,0,0,1-1.828-2.452V58.8a2.563,2.563,0,0,1,2.56-2.56h.585a2.563,2.563,0,0,1,2.56,2.56v4.679a2.563,2.563,0,0,1-1.831,2.453V64.5A1.023,1.023,0,0,0,34.914,63.479Z" transform="translate(0 -12.471)"/>
    </g>
  </g>
</svg>
