<svg id="Grupo_1185854" data-name="Grupo 1185854" xmlns="http://www.w3.org/2000/svg" xmlns:xlink="http://www.w3.org/1999/xlink" width="317.13" height="288" viewBox="0 0 317.13 288">
  <defs>
    <clipPath id="clip-path">
      <rect id="Rectángulo_410278" data-name="Rectángulo 410278" width="317.13" height="288" fill="none"/>
    </clipPath>
  </defs>
  <g id="Grupo_1185853" data-name="Grupo 1185853" clip-path="url(#clip-path)">
    <path id="Trazado_1053255" data-name="Trazado 1053255" d="M282.77,110.182c1.945,3.3,2.61,6.927,3.228,10.48,5.349,30.757,13.5,60.823,22.048,90.8a328.841,328.841,0,0,1,7.771,32.422c1.357,7.62,2.231,15.325-.315,22.922-2.619,7.814-7.66,13.3-15.547,16.037A88.236,88.236,0,0,1,270.587,288c-76.491-.147-152.983-.03-229.475-.174A64.383,64.383,0,0,1,13.929,281.5C4.22,276.945.332,268.4.024,257.984c-.3-10.117,2.319-19.768,4.653-29.465,4.779-19.856,11.3-39.23,16.374-59,3.668-14.282,6.715-28.7,9.682-43.14,1.013-4.93,2.2-9.825,3.3-14.736.1-.449.106-.95.912-1.23a32.692,32.692,0,0,1-.017,3.466c-.709,6.483-.062,12.961.106,19.435a36.061,36.061,0,0,0,1.209,7.65c1.072,4.326,4.162,6.689,8.31,7.876,9.173,2.625,18.56,4.272,27.9,6.126C78.215,156.106,84,157.1,89.786,158.1c.7.122,1.837.884,2.1-.469.23-1.167-.974-1.067-1.651-1.2-10.751-2.093-21.52-4.09-32.26-6.237-4.363-.872-8.7-1.929-12.986-3.117-5.063-1.4-7.064-4.026-7.593-9.28-.716-7.1-.384-14.2-.192-21.306a89.05,89.05,0,0,1,.987-12.521,4.374,4.374,0,0,1,4.081-4.1c6.818-1.112,13.613-2.306,20.511-2.892,6.562-.557,13.092-1.474,19.652-2.06,4.375-.391,8.775-.588,13.168-.655,1.729-.026,2.309-.585,2.491-2.24A209.386,209.386,0,0,1,104.82,56.2c4.021-13.773,9.2-27.136,18-38.616C130.766,7.234,141.607,1.063,154.637.154c18.835-1.314,34,5.758,43.926,22.235,9.767,16.22,15.636,33.913,18.708,52.57.971,5.9,1.841,11.8,2.4,17.75.12,1.289.653,1.511,1.779,1.533,10.661.2,21.261,1.295,31.853,2.394,7.245.752,14.452,1.876,21.669,2.884,2.926.409,4.071,1.473,4.417,4.345a164.548,164.548,0,0,1,.485,33.836c-.418,4.876-3.066,7.976-7.987,9.315-9.91,2.7-20.013,4.452-30.057,6.495-5.22,1.061-10.479,1.932-15.727,2.851-.684.12-1.291.138-1.1,1.069.165.8.7.954,1.422.818,8.692-1.635,17.392-3.232,26.077-4.906,5.968-1.15,11.879-2.562,17.8-3.951,10.239-2.4,11.135-7.158,11.994-15.079.795-7.328.566-14.69.391-22.043-.017-.7.058-1.392.09-2.089M158.55,86.915c.75-.695.651-1.442.8-2.117a7.51,7.51,0,0,1,3.02-4.882c4.79-3.247,10.632-.548,11.611,5.526a3.743,3.743,0,0,0,2.4,3.107,12.046,12.046,0,0,0,5.774.878c1.828-.039,3.354.339,3.662,2.463.129.887.678.943,1.338.912,5.2-.24,10.35.843,15.568.58,1.8-.091,2.164-.609,2.207-2.318a132.906,132.906,0,0,0-4.861-37.8c-3.4-12.755-9.6-23.8-20.3-31.953-12.455-9.489-27.331-9.811-40.2-.921a52.305,52.305,0,0,0-19.108,24.779c-5.79,14.923-7.667,30.582-7.658,46.513,0,1.444.61,1.6,1.834,1.671,5.383.3,10.723-.545,16.092-.488,1.026.011,1.575-.27,1.665-1.428.064-.829.343-1.752,1.494-1.834,1.8-.127,3.571-.785,5.39-.336.7.172,1.12-.167,1.7-.393,2.166-.835,2.749-2.508,3.243-4.583a7.111,7.111,0,0,1,11.842-3.8c1.844,1.639,2.124,3.946,2.481,6.426m-.483,196.036v.094q59.567,0,119.133,0a10.912,10.912,0,0,0,10.756-7.739,25.162,25.162,0,0,0,.828-10.061c-.921-8.758-1.814-17.52-3.119-26.235-1.512-10.091-2.779-20.219-4.415-30.289-1.872-11.523-3.971-23.011-6.094-34.491-.925-5-1.393-10.085-2.74-15.007-.153-.56.037-1.418-.955-1.3-.926.112-1.085.807-.955,1.588q1.257,7.525,2.537,15.046c1.327,7.719,2.71,15.428,4,23.153,1.382,8.273,2.666,16.562,4.026,24.838,1.2,7.275,2.333,14.556,3.134,21.887q.691,6.325,1.412,12.648a99.129,99.129,0,0,1,.954,13.379c-.168,7.337-4.627,11.52-11.635,11.26-7.742-.287-15.5-.064-23.256-.066q-105.254-.025-210.507-.053c-6.078,0-9.888-3.477-10.515-9.53-.435-4.2.093-8.353.5-12.516.549-5.634.919-11.291,1.657-16.9,1.066-8.1,2.3-16.182,3.632-24.243,1.576-9.518,3.293-19.014,5.03-28.5,1.845-10.087,3.776-20.158,5.7-30.23.154-.8-.067-1.19-.819-1.378s-1.023.3-1.159.853c-.282,1.138-.509,2.291-.729,3.443-2.173,11.391-4.4,22.772-6.488,34.178-1.414,7.714-2.7,15.453-3.931,23.2q-1.943,12.215-3.463,24.494c-1.035,8.45-2.219,16.873-2.358,25.4-.115,7.087,4.507,13.38,12.611,13.029,6-.26,12.02.048,18.032.05q49.6.016,99.2.005m13.153-56.243c-.112-1-.054-2.076-.26-3.186a122.215,122.215,0,0,0-3.185-12.5c-1.407-4.722-2.173-9.631-4.051-14.2-1.455-3.542-5.7-4.718-8.33-2.286-1.6,1.481-2.069,3.676-2.62,5.706-1.74,6.4-3.469,12.811-5.031,19.258-.957,3.953-1.934,7.967-.434,12.043,2.164,5.88,8.07,9.083,14.635,7.922,5.315-.94,9.28-6.355,9.275-12.757M110.314,109.576c-.206,1.694.368,2.521,2.229,2.226a28.512,28.512,0,0,1,4.235-.3c8.289-.064,16.578-.09,24.867-.138a9.224,9.224,0,0,0,1.4-.144A40.407,40.407,0,0,1,156,111.2c2.116.35,3.827,2.027,5.79-.215.246-.281,1.064-.081,1.616-.073,4.328.057,8.648.15,12.977.37,7.483.38,15,.148,22.5.2,1.812.012,3.624.134,5.436.19,1.184.037,2.565.648,2.8-1.439.226-2.024-.617-2.631-2.492-2.673-6.081-.136-12.158-.453-18.238-.551-24.655-.4-49.306-.156-73.956.425-1.627.038-2.394.47-2.116,2.141m6.583-9.8-.007.072a45.748,45.748,0,0,1-5.2.354c-2.123-.083-1.681,1.226-1.66,2.47.024,1.433.215,2.292,2.111,2.174,5.361-.334,10.722-.556,16.08-1.039,4.78-.431,9.617-.229,14.428-.346,15.725-.384,31.456-.127,47.182.287.472.012.942.074,1.413.109,4.849.357,9.695.868,14.55,1,2.141.058.945-2.05,1.317-3.147.419-1.236-.315-1.43-1.345-1.465-3.694-.125-7.386-.44-11.078-.445q-38.9-.06-77.794-.021m-49.069,2.784-.007-.092c-3.443.3-6.89.545-10.327.9-5.249.536-10.493,1.128-15.736,1.723-2.4.272-1.824,2.46-1.884,3.725-.059,1.249,1.495.575,2.293.492,4.852-.505,9.682-1.253,14.541-1.637Q71.466,106.5,86.273,106.1c2.906-.082,5.824-.252,8.738-.38,2.7-.118,1.246-2.423,1.636-3.684.428-1.384-.926-1.14-1.71-1.111-3.15.117-6.3.265-9.446.462-5.889.369-11.775.78-17.663,1.174M224,100.965l-.009.126a5.854,5.854,0,0,0-1.417.021c-.7.179-2.378-.447-1.845.8s-.991,3.7,1.811,3.831c8.663.416,17.324.875,25.99,1.225q13.492.545,26.877,2.266c.843.108,2.082.782,2.094-.863.009-1.243.421-2.933-1.524-3.212-3.894-.557-7.8-1.1-11.713-1.452-5.487-.492-10.99-.82-16.488-1.189q-11.887-.8-23.777-1.551M90.05,112.334a24.431,24.431,0,0,1,3.551.03c2.292.34,2.4-1.219,2.456-2.718.072-1.952-1.485-1.223-2.409-1.211-10.633.138-21.223,1.032-31.813,1.9-6.83.559-13.655,1.145-20.438,2.193-2.063.319-1.887,1.794-1.83,2.964.06,1.248,1.373.662,2.058.6,6.731-.6,13.443-1.378,20.174-2,9.406-.87,18.836-1.145,28.251-1.757m21.232,16.24a2.472,2.472,0,0,0,.187,2.626c.786,1.634.553,2.427-1.524,2.356-3.714-.127-7.435-.056-11.153-.069-4.555-.016-4.553-.016-3.64-4.34.022-.106-.111-.245-.233-.493a10.482,10.482,0,0,0-2.447,2.539c-2.847,3.587-2.725,7.765-2.463,11.985.17,2.743.2,2.8,2.754,3.417a76.655,76.655,0,0,1,.2-9.427c6.952.367,13.8.229,20.782.066.126,2.923-.182,6.008.469,9.54-1.366-.931-1.922-1.955-3.352-1.906-5.058.173-10.126.159-15.187.064-1.7-.032-2.071.818-2.321,2.346,5.471-1.223,10.83-.677,16.167-.76,1.356-.021,2.976-.086,3.876.758,2.261,2.122,2.506.062,2.794-1.253a23.61,23.61,0,0,0,.256-9.192,14.438,14.438,0,0,0-5.168-8.259m115.5-19.965c-1.027,0-2.053,0-3.08,0-1.009.006-2.227-.579-2.243,1.368-.014,1.723.476,2.351,2.268,2.379,8.975.141,17.93.674,26.889,1.287,8.245.565,16.436,1.554,24.653,2.338.835.08,2.181.757,2.323-1.045.11-1.392,0-2.3-1.819-2.507-5.863-.666-11.732-1.23-17.608-1.779-10.447-.975-20.9-1.726-31.383-2.043M167.1,182.068c1.862-2.486,1.377-4.57.134-6.641-1.167-1.944-.544-4.044-.284-6.007.143-1.08,1.694-.369,2.562-.538,7.375-1.437,14.8-2.609,22.189-3.98,3.443-.639,6.838-1.539,10.254-2.325.83-.191,1.7-.654,1.391-1.534-.265-.754-1.2-.292-1.859-.158-3.149.635-6.3,1.272-9.45,1.883-7.849,1.521-15.7,3.015-23.548,4.553-1.2.236-1.71-.014-1.556-1.346a7.054,7.054,0,0,0-1.474-5.545c-1.991-2.406-6.781-3.334-10.332-1.973a5.961,5.961,0,0,0-4.022,4.822,23.716,23.716,0,0,0-.027,7.081,8.627,8.627,0,0,1-1.053,6.09,4.562,4.562,0,0,0,.515,5.8c.875-6.887,2.617-8.409,9.026-8.276,4.935.1,7.067,2.291,7.532,8.1m39.108-53.241c-4.758,3.3-7.348,11.862-5.072,16.7a3,3,0,0,0,3.436,1.679c2.337-.87,4.662-.683,7-.711a103.157,103.157,0,0,1,13.275.42c-.283-1.765-1.283-1.99-2.589-1.977-4.425.046-8.85,0-13.275.025-1.877.01-3.855-.439-5.44,1.3,0-2.786.03-5.3-.013-7.809-.022-1.267.326-1.317,1.642-1.278,6.433.191,12.875.086,19.393.086.4,2.736-.292,5.882,1.105,8.775.255.529.061,1.433.973,1.288.888-.141.55-1.022.574-1.575.1-2.447.128-4.9.19-7.345.1-4.024-2.186-6.858-4.913-10.153a6.9,6.9,0,0,0,.243,2.806c.639,1.757.228,2.56-1.884,2.467-3.786-.166-7.584-.066-11.377-.074-3.887-.008-3.884-.006-3.181-3.711a4.1,4.1,0,0,0-.089-.918M198.072,25.973a43.667,43.667,0,0,0-78.356.264C129.7,13.433,141.942,4.473,158.85,4.4c16.951-.068,29.217,8.807,39.222,21.568M37.6,238.59c.039-.425.044-.9.131-1.36,1.608-8.55,3.385-17.071,4.8-25.652,1.618-9.814,3.63-19.545,5.641-29.279q2.136-10.339,4.338-20.665a1.392,1.392,0,0,0-1.158-1.917c-1.3-.311-1.117.7-1.274,1.425-.924,4.276-1.936,8.534-2.773,12.827-2.218,11.369-4.516,22.726-6.489,34.138-1.607,9.293-2.8,18.658-4.15,27.994-.131.9-.4,1.917.936,2.489m241.514-4.024c-.4.461-.506.9-.048,1.279a.748.748,0,0,0,.654-.027c.543-.291.342-.763.271-1.24-.51-3.418-1.082-6.829-1.461-10.262-1.161-10.527-3.2-20.916-4.954-31.345-1.775-10.565-3.965-21.06-5.986-31.583-.143-.746.231-1.917-1.257-1.726-1.386.178-1.32,1.148-1.147,2.122.534,3.006,1.077,6.011,1.664,9.007,1.65,8.429,3.4,16.838,4.967,25.283,2.183,11.783,4.249,23.587,6.31,35.392.194,1.109,1.423,1.872.986,3.1m-57.1-83.092c0,4.8-.037,9.19.018,13.576a12.638,12.638,0,0,1-1.007,5.049,7.867,7.867,0,0,1-6.615,5.087c-2.826.264-5.091-1.428-6.505-3.97a13.238,13.238,0,0,1-1.605-4.894c-.524-4.259-.246-8.523-.334-12.785-.016-.755.325-1.692-.747-2.356-.913,2.339-.552,4.652-.613,6.9-.113,4.166-.3,8.368,1.354,12.343,2.595,6.224,8.824,8.063,13.727,3.955a10.629,10.629,0,0,0,3.712-8.161c.107-4.027.048-8.059.046-12.089a2.6,2.6,0,0,0-1.431-2.652m-127.107-.5c-1.166.937-1.151,1.507-1.156,2.023-.042,4.808-.632,9.608.035,14.426s4.7,9,9.065,9.161c4.335.163,7.981-3.02,9.023-8.11,1.071-5.23.315-10.543.465-15.817.01-.346.115-.866-.433-.945-.6-.088-.831.365-.885.857a18.311,18.311,0,0,0-.074,1.892c-.019,3.95.066,7.9-.068,11.849-.159,4.688-3.593,8.57-7.654,8.9-3.542.285-7.1-3.354-8.013-7.916a36.142,36.142,0,0,1-.3-6.834c-.03-2.961-.007-5.922-.007-9.482m20.03,9.9c-.749-.112-1.357-.355-1.452.291a1.443,1.443,0,0,0,.572,1.178,6.119,6.119,0,0,0,1.986.675q16.289,3.066,32.584,6.1c.574.107,1.143.229,1.221-.6.051-.543.133-1.138-.651-1.281-.62-.114-1.234-.259-1.855-.367-3.388-.585-6.785-1.12-10.164-1.753-7.518-1.408-15.027-2.865-22.241-4.244M267.861,144.1c-8.118,1.871-16.329,3.324-24.5,4.964-5.757,1.156-11.562,2.077-17.338,3.141-.529.1-1.581-.478-1.52.455.082,1.234,1.165.341,1.633.273,9.636-1.4,19.18-3.306,28.707-5.316a84.079,84.079,0,0,0,13.018-3.517M151.093,82.792a3.58,3.58,0,0,0-3.32,3.566,3.8,3.8,0,0,0,3.385,3.852c1.731.086,3.471-1.785,3.469-3.73a3.819,3.819,0,0,0-3.534-3.688M169.878,86.3a3.584,3.584,0,0,0-3.415-3.5,3.513,3.513,0,0,0-3.348,3.559,3.645,3.645,0,0,0,3.455,3.732c1.938.034,3.331-1.566,3.307-3.8M50.527,144.6c3.75,2.052,36.539,8.368,39.305,7.69-13.122-2.456-26.28-4.731-39.305-7.69M202.7,157.355l-.093-.684-29.747,5.635.155.8,29.686-5.755M111.36,50.024c-2.286,3.833-6.206,20-5.243,23.7,1.458-8.1,3.351-15.893,5.243-23.7m37.891,113.752.1-.563-34.88-6.264-.111.643,34.886,6.184m62.575-90.6c.511-4.248-3.168-20.242-5.918-24.452,1.286,3.992,2.27,8.063,3.233,12.137.959,4.055,1.781,8.142,2.685,12.315m10.979,75.6c-6.105.694-11.723.3-17.505.534a4.569,4.569,0,0,0,5.322,1.207c2.682-1.186,5.13-.853,7.725-.173a3.707,3.707,0,0,0,4.458-1.568m-127.959.434c1.748,1.846,3.545,1.733,5.519.947,1.866-.742,3.9-.442,5.846-.259,4.239.4,4.234.452,5.2-.688ZM155.116,184.4c.511,2.937,1.953,4.375,3.865,4.1,2.266-.322,3.226-1.578,3.1-4.057-3.25,2.556-3.508,2.56-6.968-.047m-17.65-91.982c.755-.529,2.421.666,2.352-1.011-.064-1.547-1.712-.884-2.677-1.091-.943-.2-1.921.168-1.868,1.2.078,1.529,1.474.438,2.193.907m42.961-.038c.662-.462,2.089.7,2.193-.872.1-1.519-1.249-1.133-2.081-1.066-.867.07-2.361-.623-2.381.963-.019,1.5,1.432.679,2.269.975m34.835,69.6c-.061-.565-.121-1.216-.987-1.257-.726-.034-1.231.219-1.263,1.041-.027.692.073,1.262.966,1.28.712.014,1.264-.122,1.284-1.064m-113.731-.161c-.021.613.135,1.111.853,1.172s1.271-.182,1.369-.961c.089-.707-.134-1.246-.973-1.311-.8-.062-1.139.383-1.249,1.1" transform="translate(0 0)"/>
    <path id="Trazado_1053256" data-name="Trazado 1053256" d="M1715.463,2378.177c1.764,6.457,4.192,12.763,4.471,19.531.211,5.119-3.636,10.672-10.931,10.47a10.333,10.333,0,0,1-9.837-11.56,94.832,94.832,0,0,1,4.488-18.4,82.048,82.048,0,0,0-.35,11.915,15.417,15.417,0,0,0,2.048,7.167c2.015,3.322,5.5,3.529,8.006.532,1.9-2.276,2.438-5.046,2.683-7.9a50.365,50.365,0,0,0-.579-11.761" transform="translate(-1550.623 -2170.375)"/>
    <path id="Trazado_1053257" data-name="Trazado 1053257" d="M1778.18,2242.653c-2.367-.084-3.978-1.663-3.861-3.783a4.133,4.133,0,0,1,4.172-3.9,4.232,4.232,0,0,1,3.617,4.208,3.669,3.669,0,0,1-3.928,3.478m-1.985-4.475c.076,1.315.511,2.505,1.983,2.434a2.425,2.425,0,0,0,2.271-2.348c.119-1.5-1.172-2.048-2.317-2.167-1.294-.135-1.909.815-1.936,2.081" transform="translate(-1619.276 -2039.675)"/>
    <path id="Trazado_1053258" data-name="Trazado 1053258" d="M1748.573,1842.008c0-2.547-.113-5,.026-7.437.215-3.766,2.759-6.022,6.44-5.477,4.17.618,6,1.576,5.817,6.093-.051,1.261-.038,2.526-.046,3.789-.007,1.17,0,2.341,0,3.531-3.907-2.078-7.965-1.835-12.235-.5m7.988-10.015c-2.42-2.05-4.01-2.2-5.534-.7-.672.662-1.537,1.347-.614,2.361.742.815,1.547.436,2.3-.126,1.122-.839,2.225-1.749,3.849-1.534" transform="translate(-1595.746 -1669.197)"/>
  </g>
</svg>
