<svg xmlns="http://www.w3.org/2000/svg" xmlns:xlink="http://www.w3.org/1999/xlink" width="375.779" height="343.131" viewBox="0 0 375.779 343.131">
  <defs>
    <clipPath id="clip-path">
      <rect id="Rectángulo_410279" data-name="Rectángulo 410279" width="375.779" height="343.131" fill="none"/>
    </clipPath>
  </defs>
  <g id="Grupo_1185856" data-name="Grupo 1185856" transform="translate(0 -0.004)">
    <g id="Grupo_1185855" data-name="Grupo 1185855" transform="translate(0 0.004)" clip-path="url(#clip-path)">
      <path id="Trazado_1053259" data-name="Trazado 1053259" d="M316.783,47.316a159.825,159.825,0,0,1,10.759-12.2l7.272-7.7a96.159,96.159,0,0,1,8.362-8.167,75.023,75.023,0,0,1,12.11-7.907c11.191-6.1,23.469-10.961,36.3-11.317S417.893,4.435,425.461,14.5c7.453,9.909,8.16,22.992,8.588,35.253q.463,13.248.925,26.5a4.711,4.711,0,0,1-.35,2.436,4.718,4.718,0,0,1-2.994,1.882,36.964,36.964,0,0,1-13.3,1.391c1.335-10.4,2.672-20.881,1.989-31.345s-3.518-21.03-9.836-29.535a17.151,17.151,0,0,0-4.259-4.291,16.63,16.63,0,0,0-5.21-2.07c-8.174-1.975-16.934-.779-24.745,2.282s-14.759,7.9-21.114,13.267c-23.187,19.577-39.312,47.05-44.118,76.51A2.271,2.271,0,0,1,309,109.186c-3.034.773-11.05,2.693-12.82-1.111-1.623-3.489,1.083-11.387,1.765-15.055a121.564,121.564,0,0,1,9.574-30.533,86.176,86.176,0,0,1,9.262-15.17" transform="translate(-231.746 -0.004)" fill="#5b5b10"/>
      <path id="Trazado_1053260" data-name="Trazado 1053260" d="M1523.311,838.156a14.607,14.607,0,0,1,3.01,3c2.064,2.782,2.8,5.51,3.376,11,.189,1.813.379,3.628.436,5.449a10.622,10.622,0,0,1-.6,4.489,4.654,4.654,0,0,1-3.376,2.884,6.48,6.48,0,0,0,1.018-3.293c.04-3.4-3.041-6.031-5.7-7.944-9.149-6.576-20.81-9.978-28.7-12.05-3.535-.929-8.642-2.2-14.9-3.518a34.554,34.554,0,0,0,.126-9.1c-.335-2.806-.716-3.049-.4-3.714,2.261-4.774,26.886-2.652,43.507,10.89,1.045.852,1.84,1.57,2.21,1.909" transform="translate(-1158.037 -650.349)" fill="#5b5b10"/>
      <path id="Trazado_1053261" data-name="Trazado 1053261" d="M107.086,343.1c-6.654,1.259-15.7,4.089-23.162,11.092C67.855,369.27,70.337,393.206,72.96,418.5c1.942,18.728,4.4,39.763,20.126,58.774,4.538,5.487,12.471,14.835,25.9,19.113,12.907,4.113,24.48,1.494,29.985.179,45.211-10.8,86.044-24.893,118.1-33.206,0,0,57.731-14.971,87.684-27.578A68.175,68.175,0,0,0,374.687,423.2a73.2,73.2,0,0,0,8.461-9.464c10.366-14.206,14.845-43.062,6.255-71.768-4.136-13.821-8.818-29.464-23.915-38.74-11.651-7.159-25.041-7.783-27.042-7.855-6.1-.222-9.757.667-20.42,2.678-19.2,3.62-20.915,3.295-32.561,5.534-18.938,3.641-86.582,18.379-178.38,39.514" transform="translate(-55.68 -233.37)" fill="#a58329"/>
      <path id="Trazado_1053262" data-name="Trazado 1053262" d="M517.124,301.562a91.325,91.325,0,0,0,10.609.62A88.28,88.28,0,0,0,539.7,301.4c6.319-.884,10.669-2.331,19.37-5.226,5.146-1.712,7.466-2.713,9.894-4.674a24.3,24.3,0,0,0,5.136-5.954c11.044-16.717,15.023-37.076,14.95-56.934a23.65,23.65,0,0,0-3.01-12.574c-2.207-4.1-3.154-11.546-4.956-26.266-1.076-8.788-.924-9.606-2.043-17.643-.87-6.249-1.31-7.831-1.865-12.181-.947-7.434-1.38-14.92-1.812-22.4-.636-11-1.257-22.17,1.308-32.9A57.614,57.614,0,0,1,586.944,83.1,40.115,40.115,0,0,1,606.01,69.369a33.609,33.609,0,0,1,23.7.759,51.126,51.126,0,0,1,9.023,5.208,82.348,82.348,0,0,1,13.477,11.542,110.425,110.425,0,0,1,12.049,14.639A113.791,113.791,0,0,1,676.4,124.637c.474,1.223,2.136,5.571,3.77,11.474a130.823,130.823,0,0,1,3.837,19.841c1.588,13.432,2.663,27.022,1.114,40.459-.457,3.963.526,7.254.508,11.241-.033,7.348-1.788,14.573-3.533,21.723-2.01,8.235-4.582,16.125-11.224,24.3a51.672,51.672,0,0,1-4.754,5.1l-15.455,4.616a115.279,115.279,0,0,0,23.863-3.036,29.886,29.886,0,0,0,9.914-4.232,32.161,32.161,0,0,0,5.039-4.5,71.678,71.678,0,0,0,7.492-8.52,54.193,54.193,0,0,0,6.623-12.745,71.167,71.167,0,0,0,2.865-9.624c2.278-9.441,2.012-16.553,3.048-25.074.405-3.335.8-6.809-.362-9.973-1.329-3.63-1.958-5.193-3.4-9.672a56.405,56.405,0,0,1-2.21-10.4c-7.791-52.4-31.29-80.127-31.291-80.127a112.943,112.943,0,0,0-11.27-11.392c-8.133-7.274-17.2-13.862-27.637-17.4-18.724-6.352-43.651.427-58.35,15.188-15.82,15.886-16.721,38.054-17.578,59.1-.336,8.272.245,16.782.245,16.782.4,5.783,1.019,9.92,2.25,17.958,2.92,19.067,4.381,28.6,4.74,30.006,0,0,1.872,7.312.913,13.082-.044.262-.228,1.331-.484,2.691-.745,3.941-1.429,6.776-1.522,7.17-1.321,5.618-.775,18.738-.747,19.428.349,8.515-1.289,16.731-4.564,33.164,0,0-2.533,12.707-8.892,18.844a25.917,25.917,0,0,1-2.869,2.354,22.736,22.736,0,0,1-2.873,1.688l-26.485,7.421" transform="translate(-405.318 -42.91)" fill="#5b5b10"/>
      <path id="Trazado_1053263" data-name="Trazado 1053263" d="M167.28,617.418a45.137,45.137,0,0,0-23.643-12.147c-5.268-1.179-10.854-1.687-16.095-.117-8.557,2.561-16.084,9.362-18.144,17.964a103.435,103.435,0,0,0-2.457,26.156,140.751,140.751,0,0,0,2.647,20.888,120.171,120.171,0,0,0,13.352,35.72c6.333,10.96,12.887,19.509,25.127,24.68,10.212,4.344,21.881,2.993,29.977-4.708,5.309-4.852,8.054-11.653,9.373-18.5,2.1-10.356,1.9-21.009.939-31.485-.314-3.5-.777-6.99-1.245-10.475-.5-3.423-1.08-7.009-1.773-10.4-1.784-8.59-4.017-17.224-8.191-25.046a56.2,56.2,0,0,0-9.867-12.527m0,0a56.217,56.217,0,0,1,9.9,12.511c5.794,11,8.146,23.342,10.075,35.446.489,3.486.972,6.972,1.306,10.476,1.024,10.489,1.282,21.178-.764,31.575-1.812,9.925-6.534,18.647-16.043,23.452-9.471,4.575-19.968,2.991-28.8-2.182-1.121-.651-2.366-1.426-3.446-2.154-7.172-4.808-12.19-11.962-16.422-19.225-.392-.677-.99-1.62-1.335-2.3-.748-1.416-1.8-3.295-2.476-4.71a120.557,120.557,0,0,1-10.178-30.046,141.061,141.061,0,0,1-2.536-20.97,103.712,103.712,0,0,1,2.614-26.223c2.119-8.653,9.726-15.439,18.343-18,5.257-1.561,10.857-1.045,16.134.148a45.157,45.157,0,0,1,23.631,12.2" transform="translate(-83.497 -477.342)" fill="#000102"/>
      <path id="Trazado_1053264" data-name="Trazado 1053264" d="M188.555,644.986a5.422,5.422,0,0,1,2.126.539,5.074,5.074,0,0,1,1.847,2.509,137.187,137.187,0,0,1,11.1,41.05,2.437,2.437,0,0,1-.184,1.57,2.654,2.654,0,0,1-2.075.88c-7.59.793-15.644,1.259-22.48-2.038a10.309,10.309,0,0,1-3.651-2.673c-1.946-2.425-1.909-5.781-1.784-8.852q.266-6.494.531-12.988a15.1,15.1,0,0,0-.165-4.418,14.273,14.273,0,0,0-3.242-6.033c-4.095-4.974-7.115-4.78-7.429-7.326s2.388-5.541,5.152-6.113c1.773-.367,2.23.71,5.752,1.586a111.92,111.92,0,0,0,14.5,2.307" transform="translate(-127.857 -506.521)" fill="#5b5b10"/>
      <path id="Trazado_1053265" data-name="Trazado 1053265" d="M143.143,629.294c-2.443-1.535-5.764-.507-7.633,1.03-3.17,2.608-2.4,6.96-2.39,7.785.041,2.3.8,5,3.034,5.749a43.242,43.242,0,0,0-6.347,11.279,18.515,18.515,0,0,0-.13,12.648,15.891,15.891,0,0,0,10.5,9.211,27.607,27.607,0,0,0,7.622.77,22.361,22.361,0,0,0,4.369-.373,19.578,19.578,0,0,0,8-4.147,20.709,20.709,0,0,0,4.387-4.536,16.9,16.9,0,0,0,2.649-9.374,31.062,31.062,0,0,0-1.752-9.667,8.4,8.4,0,0,0,4.033-4.118,15.193,15.193,0,0,0,1.3-5.629c.122-1.953-.048-4.117-1.457-5.517-1.5-1.494-3.891-1.627-6.042-1.666a4.036,4.036,0,0,0-1.733.223,3.5,3.5,0,0,0-1.174.994c-3.242,3.817-4.57,9.4-2.365,13.861a8.444,8.444,0,0,1,.723,1.631,5.946,5.946,0,0,1,.126,1.387q.032,2.641.064,5.281a23.219,23.219,0,0,1-.414,5.783,12.168,12.168,0,0,1-6.33,7.864,12.817,12.817,0,0,1-10.272.447,6.882,6.882,0,0,1-2.834-1.9,8.826,8.826,0,0,1-1.483-3.391,22.756,22.756,0,0,1-.891-4.571c-.353-5.788,3.325-10.995,6.838-15.685a14.334,14.334,0,0,1-2.913-5.493,7,7,0,0,1,.277-5.031,3.6,3.6,0,0,1,3.619-2.053,3.683,3.683,0,0,1,.834.171,5.5,5.5,0,0,0-2.211-2.967" transform="translate(-100.813 -496.656)" fill="#391111"/>
      <path id="Trazado_1053266" data-name="Trazado 1053266" d="M81.713,821.063a18.631,18.631,0,0,1,1.414-11.22,56.687,56.687,0,0,1,5.91-9.919,8.612,8.612,0,0,1,1.867-2.144,5.865,5.865,0,0,1,2.406-.975,7.716,7.716,0,0,1,6.163,1.358,7.121,7.121,0,0,1,2.642,5.27,12.794,12.794,0,0,1-1.509.33,13.148,13.148,0,0,1-4.125-.018q-.256.248-.5.529a10.1,10.1,0,0,0-2.333,5.894,31.465,31.465,0,0,0,3.313.39c1,.064,1.935.076,2.8.055-.32.748-.79,1.805-1.406,3.05a63.626,63.626,0,0,1-4.73,7.985c-4.539,6.634-4.823,5.786-8.34,11.069a97.717,97.717,0,0,1-7.665,9.581,5.674,5.674,0,0,1-3.505,2.1,5.334,5.334,0,0,1-3.133-.769,6.9,6.9,0,0,1-3.386-4c-.551-2.318.889-4.3,2.605-6.673,1.969-2.717,3.523-3.663,6.684-6.725,2.216-2.147,3.856-4.011,4.834-5.168" transform="translate(-52.883 -629.502)" fill="#391111"/>
      <path id="Trazado_1053267" data-name="Trazado 1053267" d="M14.572,968.191a7.465,7.465,0,0,1-.345-3.23,7.7,7.7,0,0,1,2.528-3.744l2.922-2.879c2.21-2.178,4.586-4.449,7.645-5.178a3.207,3.207,0,0,1,2.928.443,3.613,3.613,0,0,1,.785,1.362l1.565,3.967a32.2,32.2,0,0,1,2.636,9.35,7.5,7.5,0,0,1-.2,2.634,9.635,9.635,0,0,1-1.717,3c-1.225,1.628-2.489,3.227-3.753,4.826-.856,1.082-1.879,2.257-3.28,2.368a2.6,2.6,0,0,1-2.638-3.1.991.991,0,0,1,.362-.572c.33-.22.771-.1,1.17-.064,1.343.11,2.481-.889,3.431-1.817a12.581,12.581,0,0,0,3.339-4.257,8.279,8.279,0,0,0,.743-2.556,9.437,9.437,0,0,0-.52-3.9,15.982,15.982,0,0,0-1.472-3.481,10.82,10.82,0,0,0-1.655-2.321c-.82-.871-1.218-.991-1.472-1.026-.306-.043-.782-.015-1.932.759a14.96,14.96,0,0,0-2.067,1.756c-1.632,1.511-1.638,1.347-2.683,2.248a4.166,4.166,0,0,0-1.68,2.919,7.672,7.672,0,0,0,.642,2.4,2.606,2.606,0,0,1-.148,2.393,2.349,2.349,0,0,1-1.653.789c-2.212.217-3.034-1.326-3.487-3.078" transform="translate(-11.096 -753.05)" fill="#391111"/>
      <path id="Trazado_1053268" data-name="Trazado 1053268" d="M9.283,917.491c.177.262.437.66.73,1.154,1.525,2.58,1.556,4.159,3.227,8.628a34.481,34.481,0,0,1,2.327,9.127c1.4,8.216-2.821,9.926-4.817,23.842,0,0-1.506,10.5.859,18.18a33.388,33.388,0,0,0,3.863,8.3,56.416,56.416,0,0,0,5.243,7.32,59.322,59.322,0,0,0,4.828,5c6.023,5.571,13.895,10.38,16.288,11.914,23.24,14.891,53,18.385,80.8,16.785s54.865-9.216,81.109-18.256c9.864-3.4,19.658-7.005,29.235-11.1,10.609-4.539,20.936-9.672,31.256-14.8,29.8-14.813,59.724-29.7,87-48.539,1.642-1.134,2.687-2.57,4.23-3.829,4.164-3.4,8.383-6.85,11.449-11.211s4.886-9.819,3.7-14.97c-.848-3.674-3.119-6.865-5.342-9.951a29.625,29.625,0,0,1,9.755,16.6,57.467,57.467,0,0,1,.748,10.762,15.259,15.259,0,0,1-.4,4.424,13.771,13.771,0,0,1-1.521,3.164c-7.29,12.088-18.488,21.439-29.821,30.112-55.2,42.238-121.332,72.2-190.79,82.676-22.121,3.337-44.758,4.87-66.868,1.462-14.853-2.29-39.033-7.568-60.015-27-7.6-7.035-21.554-19.96-24.959-39.313-1.574-8.945-1.117-20.541-.552-34.9.268-6.807.685-12.427,1.012-16.246-.237-.49-.6-1.24-1.052-2.161a10.5,10.5,0,0,1-.624-1.333A4.1,4.1,0,0,1,.6,919.974a4.357,4.357,0,0,1,2.9-1.858,4.062,4.062,0,0,0-.814,1.976,2.988,2.988,0,0,0,.123,1.4,2.413,2.413,0,0,0,2.239,1.516,2.777,2.777,0,0,0,2.367-1.4,13.684,13.684,0,0,0,.687-2.021,7.685,7.685,0,0,1,1.183-2.09" transform="translate(0 -707.278)" fill="#5b5b10"/>
      <path id="Trazado_1053269" data-name="Trazado 1053269" d="M669.154,1488.406a8.006,8.006,0,0,1,3.187-1.287l5.765-1.406a5.365,5.365,0,0,1,3.239-.106,4.66,4.66,0,0,1,2.145,2.324c3.7,6.958,3.88,15.116,3.976,22.948a4.886,4.886,0,0,1-.63,3.031,5.006,5.006,0,0,1-2.923,1.529,63.1,63.1,0,0,1-6.28,1.255,7.058,7.058,0,0,1-3.371-.082,2.462,2.462,0,0,1-1.779-2.511,2.67,2.67,0,0,0,1.958-2.045,7.524,7.524,0,0,0-.045-2.932q-1.015-6.884-2.03-13.768a6.192,6.192,0,0,0-1.049-3.1c-.909-1.116-2.1-.351-2.929-.962-.965-.707.089-2.342.768-2.887" transform="translate(-523.572 -1173.725)" fill="#a58329"/>
      <path id="Trazado_1053270" data-name="Trazado 1053270" d="M1202.86,1317.736c1.414,3.2,1.457,6.784,1.478,10.263.014,2.284-.062,4.807-1.658,6.486-.365.384-.838.826-.7,1.332.171.639,1.086.673,1.754.548a38.229,38.229,0,0,0,5.6-1.492,7.8,7.8,0,0,0,3.453-2.008c1.262-1.466,1.339-3.545,1.355-5.455.031-3.707.055-7.476-1.02-11.033s-3.429-6.934-6.94-8.393a9.844,9.844,0,0,0-5.586-.512c-1.517.288-4.511,1.219-5.275,2.7-.9,1.742,2.576,2.289,3.712,3.02a10.45,10.45,0,0,1,3.827,4.547" transform="translate(-936.769 -1032.99)" fill="#a58329"/>
      <path id="Trazado_1053271" data-name="Trazado 1053271" d="M1237.936,1256.643a5.076,5.076,0,0,1,.369-8.009c1.625-1.174,3.77-1.355,5.791-1.494,1.545-.105,3.271-.156,4.438.833a18.113,18.113,0,0,1,18.481-2.975,11.344,11.344,0,0,1,4.44,3.162,14.829,14.829,0,0,1,2.424,5.358A25.8,25.8,0,0,1,1275,1265.3a20.063,20.063,0,0,1-2.864,8.058,11.928,11.928,0,0,1-3.913,4.273c-1.511.921-2.762,1.1-7.521,1.659-3.262.38-5.933.673-7.736.868a4.167,4.167,0,0,1-4.928,1.829,3.013,3.013,0,0,1-1.85-2.976,2.982,2.982,0,0,1,2.177-2.364,18.148,18.148,0,0,1,7.542-2.549c3.489-.335,4.9.442,7.871-.421a8.859,8.859,0,0,0,4.75-3.56,12.648,12.648,0,0,0,1.99-5.565,17.174,17.174,0,0,0-5.849-14.943,4.845,4.845,0,0,0-2.325-1.259,5.7,5.7,0,0,0-2.808.537c-4.712,1.771-5.07,1.5-7.229,2.716a23.546,23.546,0,0,0-2.17,1.387,7.183,7.183,0,0,1-2.161,2.306c-1.642,1.1-3.38,1.228-5.983,1.389a28.089,28.089,0,0,1-4.058-.046" transform="translate(-968.89 -982.727)" fill="#391111"/>
      <path id="Trazado_1053272" data-name="Trazado 1053272" d="M1321.684,1322.487a3.045,3.045,0,0,0,1.834,2.164,6.338,6.338,0,0,0,3.017.168l10.965-1.16a7.224,7.224,0,0,0,2.842-.7,2.319,2.319,0,0,0,1.279-2.375,2.356,2.356,0,0,0-1.665-1.569,7.251,7.251,0,0,0-2.409-.186l-10.677.37c-2.368.082-5.9-.189-5.187,3.289" transform="translate(-1035.854 -1042.097)" fill="#391111"/>
      <path id="Trazado_1053273" data-name="Trazado 1053273" d="M224.16,525.492c24.344,3.721,43.273,23.022,52.288,44.487,6.574,15.3,9.269,31.907,10.528,48.349,1.21,15.6,1.79,31.411-7.676,44.939a37.858,37.858,0,0,1-33.818,16.391,37.827,37.827,0,0,0,33.477-16.612c9.215-13.253,8.664-29.4,7.41-44.674-1.333-16.639-4.04-33.455-10.759-48.918a95.333,95.333,0,0,0-5.518-10.673c-9.916-16.346-26.244-30.075-45.932-33.29" transform="translate(-175.695 -415.233)" fill="#000102"/>
      <path id="Trazado_1053274" data-name="Trazado 1053274" d="M1307.759,297.325c13.348,3.669,27.876,8.136,36.4,19.509a43.174,43.174,0,0,1,6.014,12.4c8.118,25.87,13.751,54.493,3.947,80.662a70.128,70.128,0,0,1-3.772,8.349,78.9,78.9,0,0,0,7.743-26.123c2.237-18.152-1.081-36.442-5.91-53.96-1.646-5.828-3.176-11.771-6.041-17.162-7.39-14-23.837-19.393-38.382-23.673" transform="translate(-1025.013 -234.941)" fill="#000102"/>
      <path id="Trazado_1053275" data-name="Trazado 1053275" d="M20,964.115c-11.179,21.005-7.036,47.258,6.233,66.454,9.2,13.248,22.782,23.249,37.7,29.778,23.121,10.218,49.24,12.055,74.243,9.328a303.962,303.962,0,0,0,37.289-6.564c4.9-1.143,11.641-2.872,16.527-4.152,7.882-2.152,15.834-4.429,23.608-6.911,3.318-1.118,7.491-2.391,10.78-3.546,2.353-.851,8.4-2.913,10.7-3.772,2.375-.878,8.2-3.1,10.612-4,2.118-.875,8.418-3.366,10.516-4.227,2.963-1.23,8.324-3.568,11.287-4.82,3.488-1.59,7.683-3.479,11.164-5.083,2.3-1.1,7.908-3.8,10.2-4.9,8.21-4.122,17.01-8.67,24.987-13.214,9.52-5.328,19.864-11.584,28.976-17.535,16.6-11.2,39.7-23.94,38.654-46.364,1.176,22.441-21.928,35.358-38.469,46.631-10.2,6.726-21.538,13.5-32.219,19.5-3.818,2.083-9.414,5.153-13.294,7.134-3.153,1.6-6.937,3.6-10.1,5.119-1.478.731-7.221,3.486-8.5,4.114-3.485,1.61-7.681,3.5-11.171,5.1-2.949,1.271-8.408,3.614-11.294,4.836-6.425,2.639-14.625,5.842-21.144,8.252-2.279.831-8.313,2.942-10.707,3.786-3.283,1.159-7.466,2.444-10.789,3.56-13.118,4.181-26.748,7.935-40.178,11.1a300.828,300.828,0,0,1-39.264,6.735c-24.5,2.418-50.032.411-72.623-9.665-14.971-6.6-28.587-16.69-37.792-30.026C12.694,1011.47,8.69,985.109,20,964.115" transform="translate(-10.495 -746.395)" fill="#000102"/>
      <path id="Trazado_1053276" data-name="Trazado 1053276" d="M144.086,1134c48.06,30.591,109.277,24.9,162.36,11.48,58.413-13.82,111.311-44.258,157.2-81.378,7.613-6.231,15.536-12.323,21.487-20.158a54.165,54.165,0,0,0,3.248-4.885,54.575,54.575,0,0,1-6.969,9.445,102.853,102.853,0,0,1-8.527,8.179q-8.988,7.708-18.338,15c-43.521,33.974-93.375,61.527-147.953,74.378C253.437,1159.479,192,1165,144.086,1134" transform="translate(-112.934 -821.043)" fill="#000102"/>
      <path id="Trazado_1053277" data-name="Trazado 1053277" d="M169.517,671.049a30.413,30.413,0,0,1-14.409,23.01,32.945,32.945,0,0,1-27.731,2.671c-5.286-1.893-9.826-5.28-13.9-8.987-5.409-4.664-9.325-10.689-12.551-16.913-8.763-16.616-13.1-35.014-15.178-53.473-1.022-9.229-2.442-18.5-1.78-27.8a39.04,39.04,0,0,1,2.106-9.1c5.2-16.181,17.885-27.247,36.093-23.12a49.632,49.632,0,0,1,13.29,5.259,52.5,52.5,0,0,1,7.891,5.273c11.033,9.126,17.166,22.535,20.758,35.9-3.3-11.858-8.546-23.616-17.487-32.5A53.04,53.04,0,0,0,131.034,560.8c-23.28-10.5-40.119,1.467-45.709,24.278a28.544,28.544,0,0,0-.755,4.532c-.642,9.246.795,18.491,1.821,27.677,2.043,18.4,6.327,36.73,15.035,53.3,2.858,5.485,6.169,10.84,10.663,15.212,4.5,4.3,9.451,8.393,15.432,10.563a32.79,32.79,0,0,0,27.462-2.5,30.316,30.316,0,0,0,14.533-22.815" transform="translate(-65.681 -439.712)" fill="#000102"/>
      <path id="Trazado_1053278" data-name="Trazado 1053278" d="M600.088,782.729c-.592,13.273,2.659,26.376,2.286,39.645-.042,2.053-.253,4.279-.486,6.327a69.384,69.384,0,0,1-2.63,11.492c-1.459,4.62-3.273,9.114-5.127,13.583a58.012,58.012,0,0,1-4.953,9.746c-5.061,7.789-12.881,10.911-21.887,12.473-2.441.443-4.9.772-7.36,1.081,7.278-1.135,14.843-2.285,21.148-6.2,6.4-3.879,9.8-10.727,12.5-17.311,3.4-8.349,6.758-16.856,7.809-25.828,1.78-15-2.384-29.984-1.3-45" transform="translate(-438.87 -618.496)" fill="#000102"/>
      <path id="Trazado_1053279" data-name="Trazado 1053279" d="M740.89,861.057a80,80,0,0,0,19.119-41.946c2.21-15.5-1.782-30.9-2.365-46.394l.506.075c-1.907,5.1-3.955,10.152-5.359,15.4a84.839,84.839,0,0,0-10.947-14.755,81.2,81.2,0,0,1,11.036,14.239l-.314.042c1.459-5.567,3.611-10.917,5.536-16.323.3,8.2,1.513,16.324,2.4,24.479.365,3.364.648,6.8.755,10.189a77.618,77.618,0,0,1-20.368,55" transform="translate(-580.705 -609.537)" fill="#000102"/>
      <path id="Trazado_1053280" data-name="Trazado 1053280" d="M1197.232,647.541a93.613,93.613,0,0,1,1.43,44.876c-.19.845-.432,2.131-.663,2.955a94.883,94.883,0,0,1-3.664,11.554c-2.9,7.478-6.743,15.11-13.452,20.035a22.231,22.231,0,0,1-11.435,4.4,22.391,22.391,0,0,0,11.241-4.646c8.722-6.664,12.927-18.524,15.931-28.574a99.273,99.273,0,0,0,.611-50.6" transform="translate(-916.606 -511.674)" fill="#000102"/>
      <path id="Trazado_1053281" data-name="Trazado 1053281" d="M1287.758,626.9a104.375,104.375,0,0,0,10.913,10.413l-.25.075a48.944,48.944,0,0,1,3.24-8.235,79.236,79.236,0,0,0,3.883-9.051c.613,4,1.2,8,1.615,12.035,1.385,11.1-.391,22.239-2.917,33.058-3.18,14.321-8.415,29.11-19.788,39.282l-.016.014,0-.021-.134-.888.157.884a53.005,53.005,0,0,0,7.215-8.535c6.312-9.275,9.6-20.083,12-30.858,2.449-10.8,4.229-21.828,2.914-32.883-.352-3.671-.888-7.327-1.394-10.989l.5.047a86.717,86.717,0,0,1-3.65,8.074,48.8,48.8,0,0,0-3.385,8.374,99.315,99.315,0,0,1-10.9-10.8" transform="translate(-1006.625 -489.993)" fill="#000102"/>
    </g>
  </g>
</svg>
