<svg id="Grupo_1185872" data-name="Grupo 1185872" xmlns="http://www.w3.org/2000/svg" xmlns:xlink="http://www.w3.org/1999/xlink" width="249.967" height="278.47" viewBox="0 0 249.967 278.47">
  <defs>
    <clipPath id="clip-path">
      <rect id="Rectángulo_410303" data-name="Rectángulo 410303" width="249.966" height="278.47" fill="none"/>
    </clipPath>
    <clipPath id="clip-path-3">
      <path id="Trazado_1053396" data-name="Trazado 1053396" d="M0,49.579V105.16A104.485,104.485,0,0,0,104.484,209.644h41A104.483,104.483,0,0,0,249.964,105.16V49.579Z" transform="translate(0 -49.579)" fill="none"/>
    </clipPath>
    <clipPath id="clip-path-5">
      <rect id="Rectángulo_410300" data-name="Rectángulo 410300" width="228.039" height="121.251" fill="none"/>
    </clipPath>
    <clipPath id="clip-path-6">
      <rect id="Rectángulo_410301" data-name="Rectángulo 410301" width="245.581" height="106.953" fill="none"/>
    </clipPath>
  </defs>
  <g id="Grupo_1185871" data-name="Grupo 1185871" clip-path="url(#clip-path)">
    <g id="Grupo_1185860" data-name="Grupo 1185860" transform="translate(0 0)">
      <g id="Grupo_1185859" data-name="Grupo 1185859" clip-path="url(#clip-path)">
        <path id="Trazado_1053391" data-name="Trazado 1053391" d="M23.759,51.878A8.839,8.839,0,1,1,32.6,43.039a8.848,8.848,0,0,1-8.839,8.839m0-15.485a6.646,6.646,0,1,0,6.646,6.646,6.653,6.653,0,0,0-6.646-6.646" transform="translate(20.712 47.477)" fill="#d9b26f"/>
        <path id="Trazado_1053392" data-name="Trazado 1053392" d="M24.988,44.515H16.947v-1.5a2.886,2.886,0,0,1,2.887-2.885H22.2a2.786,2.786,0,0,1,2.787,2.787Z" transform="translate(23.526 55.709)" fill="#c99a48"/>
        <path id="Trazado_1053393" data-name="Trazado 1053393" d="M35.954,41.66H15.389a1.846,1.846,0,0,0-1.846,1.846v.146A1.846,1.846,0,0,0,15.389,45.5H35.954A1.845,1.845,0,0,0,37.8,43.652v-.146a1.845,1.845,0,0,0-1.844-1.846" transform="translate(18.8 57.833)" fill="#d9b26f"/>
        <path id="Trazado_1053394" data-name="Trazado 1053394" d="M145.482,209.644h-41A104.485,104.485,0,0,1,0,105.16V49.579H249.966V105.16A104.485,104.485,0,0,1,145.482,209.644" transform="translate(0 68.826)" fill="#536f9c"/>
      </g>
    </g>
    <g id="Grupo_1185862" data-name="Grupo 1185862" transform="translate(0 118.405)">
      <g id="Grupo_1185861" data-name="Grupo 1185861" clip-path="url(#clip-path-3)">
        <path id="Trazado_1053395" data-name="Trazado 1053395" d="M102.99,210.214A102.072,102.072,0,0,1,.918,108.142V47.589L246.5,51.427v56.715A102.072,102.072,0,0,1,144.428,210.214Z" transform="translate(1.274 -52.342)" fill="#7bbdb4"/>
      </g>
    </g>
    <g id="Grupo_1185870" data-name="Grupo 1185870" transform="translate(0 0)">
      <g id="Grupo_1185869" data-name="Grupo 1185869" clip-path="url(#clip-path)">
        <g id="Grupo_1185865" data-name="Grupo 1185865" transform="translate(10.964 110.364)" style="mix-blend-mode: multiply;isolation: isolate">
          <g id="Grupo_1185864" data-name="Grupo 1185864">
            <g id="Grupo_1185863" data-name="Grupo 1185863" clip-path="url(#clip-path-5)">
              <path id="Trazado_1053397" data-name="Trazado 1053397" d="M4.591,46.212V71.534a95.93,95.93,0,0,0,95.929,95.929H136.7a95.928,95.928,0,0,0,95.929-95.929V46.212Z" transform="translate(-4.59 -46.212)" fill="#bbd9d5"/>
            </g>
          </g>
        </g>
        <path id="Trazado_1053398" data-name="Trazado 1053398" d="M4.591,43V68.321a95.93,95.93,0,0,0,95.929,95.929H136.7a95.928,95.928,0,0,0,95.929-95.929V43Z" transform="translate(6.373 59.691)" fill="#536f9c"/>
        <path id="Trazado_1053399" data-name="Trazado 1053399" d="M99.246,162.006A93.845,93.845,0,0,1,5.509,68.268V43.037H229.162V68.268a93.843,93.843,0,0,1-93.737,93.737Z" transform="translate(7.648 59.744)" fill="#81c7bd"/>
        <path id="Trazado_1053400" data-name="Trazado 1053400" d="M7.611,45.5a2.3,2.3,0,0,1,3.114,0,2.195,2.195,0,1,1-3.114,3.093Z" transform="translate(10.566 62.315)" fill="#cbf5d1"/>
        <path id="Trazado_1053401" data-name="Trazado 1053401" d="M97.68,49.247a2.8,2.8,0,0,1-.442-.045l-.394-.131c-.131-.064-.263-.129-.373-.2a2.193,2.193,0,0,1-.349-3.377,2.292,2.292,0,0,1,3.112,0,2.2,2.2,0,0,1-1.555,3.749" transform="translate(132.553 62.315)" fill="#cbf5d1"/>
        <path id="Trazado_1053402" data-name="Trazado 1053402" d="M130.046,142.784a2.192,2.192,0,1,1,2.192,2.192,2.2,2.2,0,0,1-2.192-2.192m-17.365,0a2.192,2.192,0,1,1,2.192,2.192,2.2,2.2,0,0,1-2.192-2.192m-17.346,0a2.192,2.192,0,1,1,2.192,2.192,2.185,2.185,0,0,1-2.192-2.192m-15.48.614h0a2.3,2.3,0,1,1,.416.021,2.694,2.694,0,0,1-.416-.021m67.491-1.777a2.189,2.189,0,1,1,4.3-.831,2.209,2.209,0,0,1-1.734,2.565,3.03,3.03,0,0,1-.416.043,2.182,2.182,0,0,1-2.149-1.777m-84.507-3.31a2.169,2.169,0,0,1-1.206-2.849,2.193,2.193,0,1,1,2.04,3.026,2.183,2.183,0,0,1-.833-.177m101.215-1.249a2.2,2.2,0,1,1,2.873,1.182,2.348,2.348,0,0,1-.855.155,2.194,2.194,0,0,1-2.018-1.337m-116.893-7.1a2.217,2.217,0,0,1-.611-3.05,2.189,2.189,0,1,1,1.82,3.42,2.084,2.084,0,0,1-1.208-.37m132.374-.7a2.189,2.189,0,1,1,3.026.592,2.058,2.058,0,0,1-1.206.373,2.16,2.16,0,0,1-1.82-.965m-146.1-10.568a2.2,2.2,0,1,1,3.114,0,2.226,2.226,0,0,1-3.114,0m159.738-.131a2.186,2.186,0,0,1,3.069-3.114,2.192,2.192,0,0,1,.021,3.114,2.247,2.247,0,0,1-1.557.635,2.2,2.2,0,0,1-1.533-.635M22.209,104.917h0a2.184,2.184,0,1,1,3.026.614,2.058,2.058,0,0,1-1.206.373,2.191,2.191,0,0,1-1.82-.986m182.235.482a2.22,2.22,0,0,1-.635-3.047,2.193,2.193,0,0,1,3.047-.614,2.166,2.166,0,0,1,.614,3.026,2.2,2.2,0,0,1-3.026.635M13.9,89.219a2.188,2.188,0,1,1,2.849,1.2,2.152,2.152,0,0,1-.81.177,2.205,2.205,0,0,1-2.04-1.38M212.886,90.27A2.212,2.212,0,0,1,211.68,87.4a2.189,2.189,0,1,1,4.058,1.643v.021a2.19,2.19,0,0,1-2.018,1.359,2.151,2.151,0,0,1-.833-.153M8.878,72.179h0a2.2,2.2,0,1,1,2.565,1.755,2.726,2.726,0,0,1-.416.043,2.2,2.2,0,0,1-2.149-1.8m209.293,1.579a2.2,2.2,0,1,1,.81-4.318,2.2,2.2,0,0,1-.81,4.318M7.345,54.509a2.192,2.192,0,1,1,2.192,2.214,2.2,2.2,0,0,1-2.192-2.214m210.5-.177a2.192,2.192,0,1,1,2.192,2.192,2.2,2.2,0,0,1-2.192-2.192" transform="translate(10.196 72.381)" fill="#cbf5d1"/>
        <path id="Trazado_1053403" data-name="Trazado 1053403" d="M85.23,118.675H47.935a5.473,5.473,0,0,1-5.471-5.474v-6.047a5.472,5.472,0,0,1,5.471-5.471H85.23a5.473,5.473,0,0,1,5.474,5.471V113.2a5.473,5.473,0,0,1-5.474,5.474" transform="translate(58.949 141.157)" fill="#cbf5d1"/>
        <path id="Trazado_1053404" data-name="Trazado 1053404" d="M207.96,51.8H13.966A3.867,3.867,0,0,1,10.1,47.936v-.306a3.865,3.865,0,0,1,3.867-3.866H207.96a3.865,3.865,0,0,1,3.867,3.866v.306A3.867,3.867,0,0,1,207.96,51.8" transform="translate(14.02 60.753)" fill="#99d9d0"/>
        <path id="Trazado_1053405" data-name="Trazado 1053405" d="M90.84,51.878a8.839,8.839,0,1,1,8.839-8.839,8.848,8.848,0,0,1-8.839,8.839m0-15.485a6.646,6.646,0,1,0,6.646,6.646,6.653,6.653,0,0,0-6.646-6.646" transform="translate(113.834 47.477)" fill="#d9b26f"/>
        <path id="Trazado_1053406" data-name="Trazado 1053406" d="M92.068,44.515H84.027v-1.5a2.886,2.886,0,0,1,2.887-2.885h2.367a2.786,2.786,0,0,1,2.787,2.787Z" transform="translate(116.647 55.709)" fill="#c99a48"/>
        <path id="Trazado_1053407" data-name="Trazado 1053407" d="M103.034,41.66H82.467a1.845,1.845,0,0,0-1.844,1.846v.146A1.845,1.845,0,0,0,82.467,45.5h20.567a1.846,1.846,0,0,0,1.846-1.846v-.146a1.846,1.846,0,0,0-1.846-1.846" transform="translate(111.921 57.833)" fill="#d9b26f"/>
        <path id="Trazado_1053408" data-name="Trazado 1053408" d="M177.417,86.014a1.161,1.161,0,0,1-1.216-1.065c-.764-9.87-8.4-76.179-75.076-76.179H100.9c-66.426,0-74.242,65.532-75.064,76A1.344,1.344,0,0,1,24.414,86l-6.059-.289a1.328,1.328,0,0,1-1.263-1.44C18.1,73.249,27.55,0,100.9,0h.229c73.59,0,82.864,73.736,83.814,84.38a1.225,1.225,0,0,1-1.173,1.328Z" transform="translate(23.72 0)" fill="#b8debd"/>
        <g id="Grupo_1185868" data-name="Grupo 1185868" transform="translate(2.193 169.324)" style="mix-blend-mode: multiply;isolation: isolate">
          <g id="Grupo_1185867" data-name="Grupo 1185867">
            <g id="Grupo_1185866" data-name="Grupo 1185866" clip-path="url(#clip-path-6)">
              <path id="Trazado_1053409" data-name="Trazado 1053409" d="M147.212,170.185H100.2A99.285,99.285,0,0,1,.918,70.9v7.666A99.286,99.286,0,0,0,100.2,177.853h47.009A99.286,99.286,0,0,0,246.5,78.566V70.9a99.285,99.285,0,0,1-99.285,99.285" transform="translate(-0.918 -70.9)" fill="#bbd9d5"/>
            </g>
          </g>
        </g>
      </g>
    </g>
  </g>
</svg>
