<svg xmlns="http://www.w3.org/2000/svg" width="498.179" height="114.045" viewBox="0 0 498.179 114.045">
  <path id="Trazado_1048426" data-name="Trazado 1048426" d="M49.608-22.3a8.31,8.31,0,0,0-3.14-6.914q-3.14-2.478-11.034-5.128a105.854,105.854,0,0,1-12.906-5.128Q6.223-47.477,6.223-61.478a19.737,19.737,0,0,1,4.062-12.3,26.273,26.273,0,0,1,11.495-8.3,44.732,44.732,0,0,1,16.709-2.967,39.128,39.128,0,0,1,16.219,3.227,25.679,25.679,0,0,1,11.149,9.19A24,24,0,0,1,69.832-59H49.666q0-5.128-3.14-7.951t-8.5-2.823q-5.416,0-8.556,2.391a7.335,7.335,0,0,0-3.14,6.079q0,3.227,3.457,5.848t12.157,5.416A74.474,74.474,0,0,1,56.234-44.02q13.6,7.836,13.6,21.606,0,11-8.3,17.285T38.776,1.152A45.153,45.153,0,0,1,20.31-2.506,27.842,27.842,0,0,1,7.865-12.532,26.122,26.122,0,0,1,3.688-27.2H23.969q0,6.741,3.486,9.939t11.322,3.2A13.015,13.015,0,0,0,46.7-16.219,7.131,7.131,0,0,0,49.608-22.3Zm48.687-33.36a19.432,19.432,0,0,1,15.9-7.836q10.313,0,15.557,6.107t5.358,18.034V0H115.638V-38.892q0-4.955-2.017-7.289t-6.856-2.333q-5.992,0-8.47,3.8V0H78.878V-88.5H98.295Zm45.172,23.911A36.8,36.8,0,0,1,147.1-48.37a25.958,25.958,0,0,1,10.429-11.207,31.408,31.408,0,0,1,15.96-3.918q14,0,22.067,8.671t8.066,23.594v.691q0,14.577-8.1,23.133T173.6,1.152q-13.31,0-21.376-7.98t-8.7-21.635Zm19.417,1.21q0,8.643,2.708,12.676a9.022,9.022,0,0,0,8.009,4.033q10.371,0,10.6-15.96v-1.959q0-16.767-10.717-16.767-9.737,0-10.544,14.462Zm107.168-.173q0,14.52-6.54,23.191a20.967,20.967,0,0,1-17.66,8.671,17.973,17.973,0,0,1-14.116-6.28v29.1H212.319V-62.342h18.149l.576,5.762a17.974,17.974,0,0,1,14.692-6.914q11.523,0,17.919,8.5t6.4,23.364Zm-19.417-1.21q0-16.594-9.68-16.594-6.914,0-9.219,4.955v24.545q2.535,5.186,9.334,5.186,9.276,0,9.564-16.018Zm85.85,1.21q0,14.52-6.54,23.191a20.967,20.967,0,0,1-17.66,8.671,17.973,17.973,0,0,1-14.116-6.28v29.1H278.752V-62.342H296.9l.576,5.762a17.974,17.974,0,0,1,14.692-6.914q11.523,0,17.919,8.5t6.4,23.364Zm-19.417-1.21q0-16.594-9.68-16.594-6.914,0-9.219,4.955v24.545q2.535,5.186,9.334,5.186,9.276,0,9.564-16.018ZM365.523,0H346.049V-62.342h19.475ZM344.9-78.417a8.667,8.667,0,0,1,3-6.8,11.3,11.3,0,0,1,7.778-2.65,11.3,11.3,0,0,1,7.778,2.65,8.667,8.667,0,0,1,3,6.8,8.667,8.667,0,0,1-3,6.8,11.3,11.3,0,0,1-7.778,2.65,11.3,11.3,0,0,1-7.778-2.65A8.667,8.667,0,0,1,344.9-78.417Zm50.415,16.075.634,7.317q6.453-8.47,17.8-8.47,9.737,0,14.548,5.819t4.984,17.516V0H413.807V-39.353q0-4.725-1.9-6.943t-6.914-2.218a9.26,9.26,0,0,0-8.47,4.494V0H377.1V-62.342Zm46.439,30.71a42.093,42.093,0,0,1,3.111-16.709,25.047,25.047,0,0,1,8.931-11.207,23.542,23.542,0,0,1,13.54-3.947q9.737,0,15.211,6.568l.691-5.416h17.631V-2.362a26.284,26.284,0,0,1-3.832,14.318,24.585,24.585,0,0,1-11.091,9.334,40.768,40.768,0,0,1-16.824,3.255,35.171,35.171,0,0,1-13.281-2.593,23.973,23.973,0,0,1-9.824-6.741L454.139,3.8a17.8,17.8,0,0,0,14.289,6.4q12.906,0,12.906-13.252V-5.013a18.233,18.233,0,0,1-14.116,6.165A22.531,22.531,0,0,1,448.78-7.577q-7.029-8.729-7.029-23.364Zm19.475,1.21q0,7.663,2.881,12.128a9.089,9.089,0,0,0,8.066,4.465q6.28,0,9.161-4.206V-44.25q-2.823-4.264-9.046-4.264a9.15,9.15,0,0,0-8.124,4.638Q461.226-39.237,461.226-30.422Z" transform="translate(-3.188 89)" fill="none" stroke="#fff" stroke-width="1"/>
</svg>
